solid caja_suministros
 facet normal 0.00000 0.00000 1.00000
  outer loop
   vertex -0.9000 0.0000 -0.6750
   vertex 0.9000 0.0000 -0.6750
   vertex 0.9000 1.1000 -0.6750
  endloop
 endfacet
 facet normal 0.00000 0.00000 1.00000
  outer loop
   vertex -0.9000 0.0000 -0.6750
   vertex 0.9000 1.1000 -0.6750
   vertex -0.9000 1.1000 -0.6750
  endloop
 endfacet
 facet normal 0.00000 0.00000 -1.00000
  outer loop
   vertex 0.9000 0.0000 0.6750
   vertex -0.9000 0.0000 0.6750
   vertex -0.9000 1.1000 0.6750
  endloop
 endfacet
 facet normal 0.00000 0.00000 -1.00000
  outer loop
   vertex 0.9000 0.0000 0.6750
   vertex -0.9000 1.1000 0.6750
   vertex 0.9000 1.1000 0.6750
  endloop
 endfacet
 facet normal 1.00000 0.00000 0.00000
  outer loop
   vertex -0.9000 0.0000 0.6750
   vertex -0.9000 0.0000 -0.6750
   vertex -0.9000 1.1000 -0.6750
  endloop
 endfacet
 facet normal 1.00000 0.00000 0.00000
  outer loop
   vertex -0.9000 0.0000 0.6750
   vertex -0.9000 1.1000 -0.6750
   vertex -0.9000 1.1000 0.6750
  endloop
 endfacet
 facet normal -1.00000 0.00000 0.00000
  outer loop
   vertex 0.9000 0.0000 -0.6750
   vertex 0.9000 0.0000 0.6750
   vertex 0.9000 1.1000 0.6750
  endloop
 endfacet
 facet normal -1.00000 0.00000 0.00000
  outer loop
   vertex 0.9000 0.0000 -0.6750
   vertex 0.9000 1.1000 0.6750
   vertex 0.9000 1.1000 -0.6750
  endloop
 endfacet
 facet normal 0.00000 -1.00000 0.00000
  outer loop
   vertex -0.9000 1.1000 -0.6750
   vertex 0.9000 1.1000 -0.6750
   vertex 0.9000 1.1000 0.6750
  endloop
 endfacet
 facet normal 0.00000 -1.00000 0.00000
  outer loop
   vertex -0.9000 1.1000 -0.6750
   vertex 0.9000 1.1000 0.6750
   vertex -0.9000 1.1000 0.6750
  endloop
 endfacet
 facet normal 0.00000 1.00000 0.00000
  outer loop
   vertex -0.9000 0.0000 0.6750
   vertex 0.9000 0.0000 0.6750
   vertex 0.9000 0.0000 -0.6750
  endloop
 endfacet
 facet normal 0.00000 1.00000 0.00000
  outer loop
   vertex -0.9000 0.0000 0.6750
   vertex 0.9000 0.0000 -0.6750
   vertex -0.9000 0.0000 -0.6750
  endloop
 endfacet
 facet normal 0.00000 0.00000 1.00000
  outer loop
   vertex -0.9500 0.0400 -0.7250
   vertex 0.9500 0.0400 -0.7250
   vertex 0.9500 0.1600 -0.7250
  endloop
 endfacet
 facet normal 0.00000 0.00000 1.00000
  outer loop
   vertex -0.9500 0.0400 -0.7250
   vertex 0.9500 0.1600 -0.7250
   vertex -0.9500 0.1600 -0.7250
  endloop
 endfacet
 facet normal 0.00000 0.00000 -1.00000
  outer loop
   vertex 0.9500 0.0400 0.7250
   vertex -0.9500 0.0400 0.7250
   vertex -0.9500 0.1600 0.7250
  endloop
 endfacet
 facet normal 0.00000 0.00000 -1.00000
  outer loop
   vertex 0.9500 0.0400 0.7250
   vertex -0.9500 0.1600 0.7250
   vertex 0.9500 0.1600 0.7250
  endloop
 endfacet
 facet normal 1.00000 0.00000 0.00000
  outer loop
   vertex -0.9500 0.0400 0.7250
   vertex -0.9500 0.0400 -0.7250
   vertex -0.9500 0.1600 -0.7250
  endloop
 endfacet
 facet normal 1.00000 0.00000 0.00000
  outer loop
   vertex -0.9500 0.0400 0.7250
   vertex -0.9500 0.1600 -0.7250
   vertex -0.9500 0.1600 0.7250
  endloop
 endfacet
 facet normal -1.00000 0.00000 0.00000
  outer loop
   vertex 0.9500 0.0400 -0.7250
   vertex 0.9500 0.0400 0.7250
   vertex 0.9500 0.1600 0.7250
  endloop
 endfacet
 facet normal -1.00000 0.00000 0.00000
  outer loop
   vertex 0.9500 0.0400 -0.7250
   vertex 0.9500 0.1600 0.7250
   vertex 0.9500 0.1600 -0.7250
  endloop
 endfacet
 facet normal 0.00000 -1.00000 0.00000
  outer loop
   vertex -0.9500 0.1600 -0.7250
   vertex 0.9500 0.1600 -0.7250
   vertex 0.9500 0.1600 0.7250
  endloop
 endfacet
 facet normal 0.00000 -1.00000 0.00000
  outer loop
   vertex -0.9500 0.1600 -0.7250
   vertex 0.9500 0.1600 0.7250
   vertex -0.9500 0.1600 0.7250
  endloop
 endfacet
 facet normal 0.00000 1.00000 0.00000
  outer loop
   vertex -0.9500 0.0400 0.7250
   vertex 0.9500 0.0400 0.7250
   vertex 0.9500 0.0400 -0.7250
  endloop
 endfacet
 facet normal 0.00000 1.00000 0.00000
  outer loop
   vertex -0.9500 0.0400 0.7250
   vertex 0.9500 0.0400 -0.7250
   vertex -0.9500 0.0400 -0.7250
  endloop
 endfacet
 facet normal 0.00000 0.00000 1.00000
  outer loop
   vertex -0.9500 0.9400 -0.7250
   vertex 0.9500 0.9400 -0.7250
   vertex 0.9500 1.0600 -0.7250
  endloop
 endfacet
 facet normal 0.00000 0.00000 1.00000
  outer loop
   vertex -0.9500 0.9400 -0.7250
   vertex 0.9500 1.0600 -0.7250
   vertex -0.9500 1.0600 -0.7250
  endloop
 endfacet
 facet normal 0.00000 0.00000 -1.00000
  outer loop
   vertex 0.9500 0.9400 0.7250
   vertex -0.9500 0.9400 0.7250
   vertex -0.9500 1.0600 0.7250
  endloop
 endfacet
 facet normal 0.00000 0.00000 -1.00000
  outer loop
   vertex 0.9500 0.9400 0.7250
   vertex -0.9500 1.0600 0.7250
   vertex 0.9500 1.0600 0.7250
  endloop
 endfacet
 facet normal 1.00000 0.00000 0.00000
  outer loop
   vertex -0.9500 0.9400 0.7250
   vertex -0.9500 0.9400 -0.7250
   vertex -0.9500 1.0600 -0.7250
  endloop
 endfacet
 facet normal 1.00000 0.00000 0.00000
  outer loop
   vertex -0.9500 0.9400 0.7250
   vertex -0.9500 1.0600 -0.7250
   vertex -0.9500 1.0600 0.7250
  endloop
 endfacet
 facet normal -1.00000 0.00000 0.00000
  outer loop
   vertex 0.9500 0.9400 -0.7250
   vertex 0.9500 0.9400 0.7250
   vertex 0.9500 1.0600 0.7250
  endloop
 endfacet
 facet normal -1.00000 0.00000 0.00000
  outer loop
   vertex 0.9500 0.9400 -0.7250
   vertex 0.9500 1.0600 0.7250
   vertex 0.9500 1.0600 -0.7250
  endloop
 endfacet
 facet normal 0.00000 -1.00000 0.00000
  outer loop
   vertex -0.9500 1.0600 -0.7250
   vertex 0.9500 1.0600 -0.7250
   vertex 0.9500 1.0600 0.7250
  endloop
 endfacet
 facet normal 0.00000 -1.00000 0.00000
  outer loop
   vertex -0.9500 1.0600 -0.7250
   vertex 0.9500 1.0600 0.7250
   vertex -0.9500 1.0600 0.7250
  endloop
 endfacet
 facet normal 0.00000 1.00000 0.00000
  outer loop
   vertex -0.9500 0.9400 0.7250
   vertex 0.9500 0.9400 0.7250
   vertex 0.9500 0.9400 -0.7250
  endloop
 endfacet
 facet normal 0.00000 1.00000 0.00000
  outer loop
   vertex -0.9500 0.9400 0.7250
   vertex 0.9500 0.9400 -0.7250
   vertex -0.9500 0.9400 -0.7250
  endloop
 endfacet
 facet normal 0.00000 0.00000 1.00000
  outer loop
   vertex -0.6400 0.1250 -0.7100
   vertex -0.5600 0.1250 -0.7100
   vertex -0.5600 0.9750 -0.7100
  endloop
 endfacet
 facet normal 0.00000 0.00000 1.00000
  outer loop
   vertex -0.6400 0.1250 -0.7100
   vertex -0.5600 0.9750 -0.7100
   vertex -0.6400 0.9750 -0.7100
  endloop
 endfacet
 facet normal 0.00000 0.00000 -1.00000
  outer loop
   vertex -0.5600 0.1250 0.7100
   vertex -0.6400 0.1250 0.7100
   vertex -0.6400 0.9750 0.7100
  endloop
 endfacet
 facet normal 0.00000 0.00000 -1.00000
  outer loop
   vertex -0.5600 0.1250 0.7100
   vertex -0.6400 0.9750 0.7100
   vertex -0.5600 0.9750 0.7100
  endloop
 endfacet
 facet normal 1.00000 0.00000 0.00000
  outer loop
   vertex -0.6400 0.1250 0.7100
   vertex -0.6400 0.1250 -0.7100
   vertex -0.6400 0.9750 -0.7100
  endloop
 endfacet
 facet normal 1.00000 0.00000 0.00000
  outer loop
   vertex -0.6400 0.1250 0.7100
   vertex -0.6400 0.9750 -0.7100
   vertex -0.6400 0.9750 0.7100
  endloop
 endfacet
 facet normal -1.00000 0.00000 0.00000
  outer loop
   vertex -0.5600 0.1250 -0.7100
   vertex -0.5600 0.1250 0.7100
   vertex -0.5600 0.9750 0.7100
  endloop
 endfacet
 facet normal -1.00000 0.00000 0.00000
  outer loop
   vertex -0.5600 0.1250 -0.7100
   vertex -0.5600 0.9750 0.7100
   vertex -0.5600 0.9750 -0.7100
  endloop
 endfacet
 facet normal 0.00000 -1.00000 0.00000
  outer loop
   vertex -0.6400 0.9750 -0.7100
   vertex -0.5600 0.9750 -0.7100
   vertex -0.5600 0.9750 0.7100
  endloop
 endfacet
 facet normal 0.00000 -1.00000 0.00000
  outer loop
   vertex -0.6400 0.9750 -0.7100
   vertex -0.5600 0.9750 0.7100
   vertex -0.6400 0.9750 0.7100
  endloop
 endfacet
 facet normal 0.00000 1.00000 0.00000
  outer loop
   vertex -0.6400 0.1250 0.7100
   vertex -0.5600 0.1250 0.7100
   vertex -0.5600 0.1250 -0.7100
  endloop
 endfacet
 facet normal 0.00000 1.00000 0.00000
  outer loop
   vertex -0.6400 0.1250 0.7100
   vertex -0.5600 0.1250 -0.7100
   vertex -0.6400 0.1250 -0.7100
  endloop
 endfacet
 facet normal 0.00000 0.00000 1.00000
  outer loop
   vertex -0.2400 0.1250 -0.7100
   vertex -0.1600 0.1250 -0.7100
   vertex -0.1600 0.9750 -0.7100
  endloop
 endfacet
 facet normal 0.00000 0.00000 1.00000
  outer loop
   vertex -0.2400 0.1250 -0.7100
   vertex -0.1600 0.9750 -0.7100
   vertex -0.2400 0.9750 -0.7100
  endloop
 endfacet
 facet normal 0.00000 0.00000 -1.00000
  outer loop
   vertex -0.1600 0.1250 0.7100
   vertex -0.2400 0.1250 0.7100
   vertex -0.2400 0.9750 0.7100
  endloop
 endfacet
 facet normal 0.00000 0.00000 -1.00000
  outer loop
   vertex -0.1600 0.1250 0.7100
   vertex -0.2400 0.9750 0.7100
   vertex -0.1600 0.9750 0.7100
  endloop
 endfacet
 facet normal 1.00000 0.00000 0.00000
  outer loop
   vertex -0.2400 0.1250 0.7100
   vertex -0.2400 0.1250 -0.7100
   vertex -0.2400 0.9750 -0.7100
  endloop
 endfacet
 facet normal 1.00000 0.00000 0.00000
  outer loop
   vertex -0.2400 0.1250 0.7100
   vertex -0.2400 0.9750 -0.7100
   vertex -0.2400 0.9750 0.7100
  endloop
 endfacet
 facet normal -1.00000 0.00000 0.00000
  outer loop
   vertex -0.1600 0.1250 -0.7100
   vertex -0.1600 0.1250 0.7100
   vertex -0.1600 0.9750 0.7100
  endloop
 endfacet
 facet normal -1.00000 0.00000 0.00000
  outer loop
   vertex -0.1600 0.1250 -0.7100
   vertex -0.1600 0.9750 0.7100
   vertex -0.1600 0.9750 -0.7100
  endloop
 endfacet
 facet normal 0.00000 -1.00000 0.00000
  outer loop
   vertex -0.2400 0.9750 -0.7100
   vertex -0.1600 0.9750 -0.7100
   vertex -0.1600 0.9750 0.7100
  endloop
 endfacet
 facet normal 0.00000 -1.00000 0.00000
  outer loop
   vertex -0.2400 0.9750 -0.7100
   vertex -0.1600 0.9750 0.7100
   vertex -0.2400 0.9750 0.7100
  endloop
 endfacet
 facet normal 0.00000 1.00000 0.00000
  outer loop
   vertex -0.2400 0.1250 0.7100
   vertex -0.1600 0.1250 0.7100
   vertex -0.1600 0.1250 -0.7100
  endloop
 endfacet
 facet normal 0.00000 1.00000 0.00000
  outer loop
   vertex -0.2400 0.1250 0.7100
   vertex -0.1600 0.1250 -0.7100
   vertex -0.2400 0.1250 -0.7100
  endloop
 endfacet
 facet normal 0.00000 0.00000 1.00000
  outer loop
   vertex 0.1600 0.1250 -0.7100
   vertex 0.2400 0.1250 -0.7100
   vertex 0.2400 0.9750 -0.7100
  endloop
 endfacet
 facet normal 0.00000 0.00000 1.00000
  outer loop
   vertex 0.1600 0.1250 -0.7100
   vertex 0.2400 0.9750 -0.7100
   vertex 0.1600 0.9750 -0.7100
  endloop
 endfacet
 facet normal 0.00000 0.00000 -1.00000
  outer loop
   vertex 0.2400 0.1250 0.7100
   vertex 0.1600 0.1250 0.7100
   vertex 0.1600 0.9750 0.7100
  endloop
 endfacet
 facet normal 0.00000 0.00000 -1.00000
  outer loop
   vertex 0.2400 0.1250 0.7100
   vertex 0.1600 0.9750 0.7100
   vertex 0.2400 0.9750 0.7100
  endloop
 endfacet
 facet normal 1.00000 0.00000 0.00000
  outer loop
   vertex 0.1600 0.1250 0.7100
   vertex 0.1600 0.1250 -0.7100
   vertex 0.1600 0.9750 -0.7100
  endloop
 endfacet
 facet normal 1.00000 0.00000 0.00000
  outer loop
   vertex 0.1600 0.1250 0.7100
   vertex 0.1600 0.9750 -0.7100
   vertex 0.1600 0.9750 0.7100
  endloop
 endfacet
 facet normal -1.00000 0.00000 0.00000
  outer loop
   vertex 0.2400 0.1250 -0.7100
   vertex 0.2400 0.1250 0.7100
   vertex 0.2400 0.9750 0.7100
  endloop
 endfacet
 facet normal -1.00000 0.00000 0.00000
  outer loop
   vertex 0.2400 0.1250 -0.7100
   vertex 0.2400 0.9750 0.7100
   vertex 0.2400 0.9750 -0.7100
  endloop
 endfacet
 facet normal 0.00000 -1.00000 0.00000
  outer loop
   vertex 0.1600 0.9750 -0.7100
   vertex 0.2400 0.9750 -0.7100
   vertex 0.2400 0.9750 0.7100
  endloop
 endfacet
 facet normal 0.00000 -1.00000 0.00000
  outer loop
   vertex 0.1600 0.9750 -0.7100
   vertex 0.2400 0.9750 0.7100
   vertex 0.1600 0.9750 0.7100
  endloop
 endfacet
 facet normal 0.00000 1.00000 0.00000
  outer loop
   vertex 0.1600 0.1250 0.7100
   vertex 0.2400 0.1250 0.7100
   vertex 0.2400 0.1250 -0.7100
  endloop
 endfacet
 facet normal 0.00000 1.00000 0.00000
  outer loop
   vertex 0.1600 0.1250 0.7100
   vertex 0.2400 0.1250 -0.7100
   vertex 0.1600 0.1250 -0.7100
  endloop
 endfacet
 facet normal 0.00000 0.00000 1.00000
  outer loop
   vertex 0.5600 0.1250 -0.7100
   vertex 0.6400 0.1250 -0.7100
   vertex 0.6400 0.9750 -0.7100
  endloop
 endfacet
 facet normal 0.00000 0.00000 1.00000
  outer loop
   vertex 0.5600 0.1250 -0.7100
   vertex 0.6400 0.9750 -0.7100
   vertex 0.5600 0.9750 -0.7100
  endloop
 endfacet
 facet normal 0.00000 0.00000 -1.00000
  outer loop
   vertex 0.6400 0.1250 0.7100
   vertex 0.5600 0.1250 0.7100
   vertex 0.5600 0.9750 0.7100
  endloop
 endfacet
 facet normal 0.00000 0.00000 -1.00000
  outer loop
   vertex 0.6400 0.1250 0.7100
   vertex 0.5600 0.9750 0.7100
   vertex 0.6400 0.9750 0.7100
  endloop
 endfacet
 facet normal 1.00000 0.00000 0.00000
  outer loop
   vertex 0.5600 0.1250 0.7100
   vertex 0.5600 0.1250 -0.7100
   vertex 0.5600 0.9750 -0.7100
  endloop
 endfacet
 facet normal 1.00000 0.00000 0.00000
  outer loop
   vertex 0.5600 0.1250 0.7100
   vertex 0.5600 0.9750 -0.7100
   vertex 0.5600 0.9750 0.7100
  endloop
 endfacet
 facet normal -1.00000 0.00000 0.00000
  outer loop
   vertex 0.6400 0.1250 -0.7100
   vertex 0.6400 0.1250 0.7100
   vertex 0.6400 0.9750 0.7100
  endloop
 endfacet
 facet normal -1.00000 0.00000 0.00000
  outer loop
   vertex 0.6400 0.1250 -0.7100
   vertex 0.6400 0.9750 0.7100
   vertex 0.6400 0.9750 -0.7100
  endloop
 endfacet
 facet normal 0.00000 -1.00000 0.00000
  outer loop
   vertex 0.5600 0.9750 -0.7100
   vertex 0.6400 0.9750 -0.7100
   vertex 0.6400 0.9750 0.7100
  endloop
 endfacet
 facet normal 0.00000 -1.00000 0.00000
  outer loop
   vertex 0.5600 0.9750 -0.7100
   vertex 0.6400 0.9750 0.7100
   vertex 0.5600 0.9750 0.7100
  endloop
 endfacet
 facet normal 0.00000 1.00000 0.00000
  outer loop
   vertex 0.5600 0.1250 0.7100
   vertex 0.6400 0.1250 0.7100
   vertex 0.6400 0.1250 -0.7100
  endloop
 endfacet
 facet normal 0.00000 1.00000 0.00000
  outer loop
   vertex 0.5600 0.1250 0.7100
   vertex 0.6400 0.1250 -0.7100
   vertex 0.5600 0.1250 -0.7100
  endloop
 endfacet
 facet normal 0.00000 0.00000 1.00000
  outer loop
   vertex -0.9500 0.4900 0.6700
   vertex 0.9500 0.4900 0.6700
   vertex 0.9500 0.6100 0.6700
  endloop
 endfacet
 facet normal 0.00000 0.00000 1.00000
  outer loop
   vertex -0.9500 0.4900 0.6700
   vertex 0.9500 0.6100 0.6700
   vertex -0.9500 0.6100 0.6700
  endloop
 endfacet
 facet normal 0.00000 0.00000 -1.00000
  outer loop
   vertex 0.9500 0.4900 0.7700
   vertex -0.9500 0.4900 0.7700
   vertex -0.9500 0.6100 0.7700
  endloop
 endfacet
 facet normal 0.00000 0.00000 -1.00000
  outer loop
   vertex 0.9500 0.4900 0.7700
   vertex -0.9500 0.6100 0.7700
   vertex 0.9500 0.6100 0.7700
  endloop
 endfacet
 facet normal 1.00000 0.00000 0.00000
  outer loop
   vertex -0.9500 0.4900 0.7700
   vertex -0.9500 0.4900 0.6700
   vertex -0.9500 0.6100 0.6700
  endloop
 endfacet
 facet normal 1.00000 0.00000 0.00000
  outer loop
   vertex -0.9500 0.4900 0.7700
   vertex -0.9500 0.6100 0.6700
   vertex -0.9500 0.6100 0.7700
  endloop
 endfacet
 facet normal -1.00000 0.00000 0.00000
  outer loop
   vertex 0.9500 0.4900 0.6700
   vertex 0.9500 0.4900 0.7700
   vertex 0.9500 0.6100 0.7700
  endloop
 endfacet
 facet normal -1.00000 0.00000 0.00000
  outer loop
   vertex 0.9500 0.4900 0.6700
   vertex 0.9500 0.6100 0.7700
   vertex 0.9500 0.6100 0.6700
  endloop
 endfacet
 facet normal 0.00000 -1.00000 0.00000
  outer loop
   vertex -0.9500 0.6100 0.6700
   vertex 0.9500 0.6100 0.6700
   vertex 0.9500 0.6100 0.7700
  endloop
 endfacet
 facet normal 0.00000 -1.00000 0.00000
  outer loop
   vertex -0.9500 0.6100 0.6700
   vertex 0.9500 0.6100 0.7700
   vertex -0.9500 0.6100 0.7700
  endloop
 endfacet
 facet normal 0.00000 1.00000 0.00000
  outer loop
   vertex -0.9500 0.4900 0.7700
   vertex 0.9500 0.4900 0.7700
   vertex 0.9500 0.4900 0.6700
  endloop
 endfacet
 facet normal 0.00000 1.00000 0.00000
  outer loop
   vertex -0.9500 0.4900 0.7700
   vertex 0.9500 0.4900 0.6700
   vertex -0.9500 0.4900 0.6700
  endloop
 endfacet
 facet normal 0.00000 0.00000 1.00000
  outer loop
   vertex -0.9500 0.4900 -0.7700
   vertex 0.9500 0.4900 -0.7700
   vertex 0.9500 0.6100 -0.7700
  endloop
 endfacet
 facet normal 0.00000 0.00000 1.00000
  outer loop
   vertex -0.9500 0.4900 -0.7700
   vertex 0.9500 0.6100 -0.7700
   vertex -0.9500 0.6100 -0.7700
  endloop
 endfacet
 facet normal 0.00000 0.00000 -1.00000
  outer loop
   vertex 0.9500 0.4900 -0.6700
   vertex -0.9500 0.4900 -0.6700
   vertex -0.9500 0.6100 -0.6700
  endloop
 endfacet
 facet normal 0.00000 0.00000 -1.00000
  outer loop
   vertex 0.9500 0.4900 -0.6700
   vertex -0.9500 0.6100 -0.6700
   vertex 0.9500 0.6100 -0.6700
  endloop
 endfacet
 facet normal 1.00000 0.00000 0.00000
  outer loop
   vertex -0.9500 0.4900 -0.6700
   vertex -0.9500 0.4900 -0.7700
   vertex -0.9500 0.6100 -0.7700
  endloop
 endfacet
 facet normal 1.00000 0.00000 0.00000
  outer loop
   vertex -0.9500 0.4900 -0.6700
   vertex -0.9500 0.6100 -0.7700
   vertex -0.9500 0.6100 -0.6700
  endloop
 endfacet
 facet normal -1.00000 0.00000 0.00000
  outer loop
   vertex 0.9500 0.4900 -0.7700
   vertex 0.9500 0.4900 -0.6700
   vertex 0.9500 0.6100 -0.6700
  endloop
 endfacet
 facet normal -1.00000 0.00000 0.00000
  outer loop
   vertex 0.9500 0.4900 -0.7700
   vertex 0.9500 0.6100 -0.6700
   vertex 0.9500 0.6100 -0.7700
  endloop
 endfacet
 facet normal 0.00000 -1.00000 0.00000
  outer loop
   vertex -0.9500 0.6100 -0.7700
   vertex 0.9500 0.6100 -0.7700
   vertex 0.9500 0.6100 -0.6700
  endloop
 endfacet
 facet normal 0.00000 -1.00000 0.00000
  outer loop
   vertex -0.9500 0.6100 -0.7700
   vertex 0.9500 0.6100 -0.6700
   vertex -0.9500 0.6100 -0.6700
  endloop
 endfacet
 facet normal 0.00000 1.00000 0.00000
  outer loop
   vertex -0.9500 0.4900 -0.6700
   vertex 0.9500 0.4900 -0.6700
   vertex 0.9500 0.4900 -0.7700
  endloop
 endfacet
 facet normal 0.00000 1.00000 0.00000
  outer loop
   vertex -0.9500 0.4900 -0.6700
   vertex 0.9500 0.4900 -0.7700
   vertex -0.9500 0.4900 -0.7700
  endloop
 endfacet
endsolid caja_suministros
