solid camion_supervivencia
 facet normal 0.00000 0.00000 1.00000
  outer loop
   vertex -2.4000 0.5250 -1.0500
   vertex 2.4000 0.5250 -1.0500
   vertex 2.4000 1.2750 -1.0500
  endloop
 endfacet
 facet normal 0.00000 0.00000 1.00000
  outer loop
   vertex -2.4000 0.5250 -1.0500
   vertex 2.4000 1.2750 -1.0500
   vertex -2.4000 1.2750 -1.0500
  endloop
 endfacet
 facet normal 0.00000 0.00000 -1.00000
  outer loop
   vertex 2.4000 0.5250 1.0500
   vertex -2.4000 0.5250 1.0500
   vertex -2.4000 1.2750 1.0500
  endloop
 endfacet
 facet normal 0.00000 0.00000 -1.00000
  outer loop
   vertex 2.4000 0.5250 1.0500
   vertex -2.4000 1.2750 1.0500
   vertex 2.4000 1.2750 1.0500
  endloop
 endfacet
 facet normal 1.00000 0.00000 0.00000
  outer loop
   vertex -2.4000 0.5250 1.0500
   vertex -2.4000 0.5250 -1.0500
   vertex -2.4000 1.2750 -1.0500
  endloop
 endfacet
 facet normal 1.00000 0.00000 0.00000
  outer loop
   vertex -2.4000 0.5250 1.0500
   vertex -2.4000 1.2750 -1.0500
   vertex -2.4000 1.2750 1.0500
  endloop
 endfacet
 facet normal -1.00000 0.00000 0.00000
  outer loop
   vertex 2.4000 0.5250 -1.0500
   vertex 2.4000 0.5250 1.0500
   vertex 2.4000 1.2750 1.0500
  endloop
 endfacet
 facet normal -1.00000 0.00000 0.00000
  outer loop
   vertex 2.4000 0.5250 -1.0500
   vertex 2.4000 1.2750 1.0500
   vertex 2.4000 1.2750 -1.0500
  endloop
 endfacet
 facet normal 0.00000 -1.00000 0.00000
  outer loop
   vertex -2.4000 1.2750 -1.0500
   vertex 2.4000 1.2750 -1.0500
   vertex 2.4000 1.2750 1.0500
  endloop
 endfacet
 facet normal 0.00000 -1.00000 0.00000
  outer loop
   vertex -2.4000 1.2750 -1.0500
   vertex 2.4000 1.2750 1.0500
   vertex -2.4000 1.2750 1.0500
  endloop
 endfacet
 facet normal 0.00000 1.00000 0.00000
  outer loop
   vertex -2.4000 0.5250 1.0500
   vertex 2.4000 0.5250 1.0500
   vertex 2.4000 0.5250 -1.0500
  endloop
 endfacet
 facet normal 0.00000 1.00000 0.00000
  outer loop
   vertex -2.4000 0.5250 1.0500
   vertex 2.4000 0.5250 -1.0500
   vertex -2.4000 0.5250 -1.0500
  endloop
 endfacet
 facet normal 0.00000 0.00000 1.00000
  outer loop
   vertex -1.8000 1.1500 -0.9750
   vertex 0.1000 1.1500 -0.9750
   vertex 0.1000 1.9500 -0.9750
  endloop
 endfacet
 facet normal 0.00000 0.00000 1.00000
  outer loop
   vertex -1.8000 1.1500 -0.9750
   vertex 0.1000 1.9500 -0.9750
   vertex -1.8000 1.9500 -0.9750
  endloop
 endfacet
 facet normal 0.00000 0.00000 -1.00000
  outer loop
   vertex 0.1000 1.1500 0.9750
   vertex -1.8000 1.1500 0.9750
   vertex -1.8000 1.9500 0.9750
  endloop
 endfacet
 facet normal 0.00000 0.00000 -1.00000
  outer loop
   vertex 0.1000 1.1500 0.9750
   vertex -1.8000 1.9500 0.9750
   vertex 0.1000 1.9500 0.9750
  endloop
 endfacet
 facet normal 1.00000 0.00000 0.00000
  outer loop
   vertex -1.8000 1.1500 0.9750
   vertex -1.8000 1.1500 -0.9750
   vertex -1.8000 1.9500 -0.9750
  endloop
 endfacet
 facet normal 1.00000 0.00000 0.00000
  outer loop
   vertex -1.8000 1.1500 0.9750
   vertex -1.8000 1.9500 -0.9750
   vertex -1.8000 1.9500 0.9750
  endloop
 endfacet
 facet normal -1.00000 0.00000 0.00000
  outer loop
   vertex 0.1000 1.1500 -0.9750
   vertex 0.1000 1.1500 0.9750
   vertex 0.1000 1.9500 0.9750
  endloop
 endfacet
 facet normal -1.00000 0.00000 0.00000
  outer loop
   vertex 0.1000 1.1500 -0.9750
   vertex 0.1000 1.9500 0.9750
   vertex 0.1000 1.9500 -0.9750
  endloop
 endfacet
 facet normal 0.00000 -1.00000 0.00000
  outer loop
   vertex -1.8000 1.9500 -0.9750
   vertex 0.1000 1.9500 -0.9750
   vertex 0.1000 1.9500 0.9750
  endloop
 endfacet
 facet normal 0.00000 -1.00000 0.00000
  outer loop
   vertex -1.8000 1.9500 -0.9750
   vertex 0.1000 1.9500 0.9750
   vertex -1.8000 1.9500 0.9750
  endloop
 endfacet
 facet normal 0.00000 1.00000 0.00000
  outer loop
   vertex -1.8000 1.1500 0.9750
   vertex 0.1000 1.1500 0.9750
   vertex 0.1000 1.1500 -0.9750
  endloop
 endfacet
 facet normal 0.00000 1.00000 0.00000
  outer loop
   vertex -1.8000 1.1500 0.9750
   vertex 0.1000 1.1500 -0.9750
   vertex -1.8000 1.1500 -0.9750
  endloop
 endfacet
 facet normal 0.00000 0.00000 1.00000
  outer loop
   vertex -1.3000 1.3500 0.9700
   vertex -0.4000 1.3500 0.9700
   vertex -0.4000 1.8500 0.9700
  endloop
 endfacet
 facet normal 0.00000 0.00000 1.00000
  outer loop
   vertex -1.3000 1.3500 0.9700
   vertex -0.4000 1.8500 0.9700
   vertex -1.3000 1.8500 0.9700
  endloop
 endfacet
 facet normal 0.00000 0.00000 -1.00000
  outer loop
   vertex -0.4000 1.3500 1.0300
   vertex -1.3000 1.3500 1.0300
   vertex -1.3000 1.8500 1.0300
  endloop
 endfacet
 facet normal 0.00000 0.00000 -1.00000
  outer loop
   vertex -0.4000 1.3500 1.0300
   vertex -1.3000 1.8500 1.0300
   vertex -0.4000 1.8500 1.0300
  endloop
 endfacet
 facet normal 1.00000 0.00000 0.00000
  outer loop
   vertex -1.3000 1.3500 1.0300
   vertex -1.3000 1.3500 0.9700
   vertex -1.3000 1.8500 0.9700
  endloop
 endfacet
 facet normal 1.00000 0.00000 0.00000
  outer loop
   vertex -1.3000 1.3500 1.0300
   vertex -1.3000 1.8500 0.9700
   vertex -1.3000 1.8500 1.0300
  endloop
 endfacet
 facet normal -1.00000 0.00000 0.00000
  outer loop
   vertex -0.4000 1.3500 0.9700
   vertex -0.4000 1.3500 1.0300
   vertex -0.4000 1.8500 1.0300
  endloop
 endfacet
 facet normal -1.00000 0.00000 0.00000
  outer loop
   vertex -0.4000 1.3500 0.9700
   vertex -0.4000 1.8500 1.0300
   vertex -0.4000 1.8500 0.9700
  endloop
 endfacet
 facet normal 0.00000 -1.00000 0.00000
  outer loop
   vertex -1.3000 1.8500 0.9700
   vertex -0.4000 1.8500 0.9700
   vertex -0.4000 1.8500 1.0300
  endloop
 endfacet
 facet normal 0.00000 -1.00000 0.00000
  outer loop
   vertex -1.3000 1.8500 0.9700
   vertex -0.4000 1.8500 1.0300
   vertex -1.3000 1.8500 1.0300
  endloop
 endfacet
 facet normal 0.00000 1.00000 0.00000
  outer loop
   vertex -1.3000 1.3500 1.0300
   vertex -0.4000 1.3500 1.0300
   vertex -0.4000 1.3500 0.9700
  endloop
 endfacet
 facet normal 0.00000 1.00000 0.00000
  outer loop
   vertex -1.3000 1.3500 1.0300
   vertex -0.4000 1.3500 0.9700
   vertex -1.3000 1.3500 0.9700
  endloop
 endfacet
 facet normal 0.00000 0.00000 1.00000
  outer loop
   vertex -1.3000 1.3500 -1.0300
   vertex -0.4000 1.3500 -1.0300
   vertex -0.4000 1.8500 -1.0300
  endloop
 endfacet
 facet normal 0.00000 0.00000 1.00000
  outer loop
   vertex -1.3000 1.3500 -1.0300
   vertex -0.4000 1.8500 -1.0300
   vertex -1.3000 1.8500 -1.0300
  endloop
 endfacet
 facet normal 0.00000 0.00000 -1.00000
  outer loop
   vertex -0.4000 1.3500 -0.9700
   vertex -1.3000 1.3500 -0.9700
   vertex -1.3000 1.8500 -0.9700
  endloop
 endfacet
 facet normal 0.00000 0.00000 -1.00000
  outer loop
   vertex -0.4000 1.3500 -0.9700
   vertex -1.3000 1.8500 -0.9700
   vertex -0.4000 1.8500 -0.9700
  endloop
 endfacet
 facet normal 1.00000 0.00000 0.00000
  outer loop
   vertex -1.3000 1.3500 -0.9700
   vertex -1.3000 1.3500 -1.0300
   vertex -1.3000 1.8500 -1.0300
  endloop
 endfacet
 facet normal 1.00000 0.00000 0.00000
  outer loop
   vertex -1.3000 1.3500 -0.9700
   vertex -1.3000 1.8500 -1.0300
   vertex -1.3000 1.8500 -0.9700
  endloop
 endfacet
 facet normal -1.00000 0.00000 0.00000
  outer loop
   vertex -0.4000 1.3500 -1.0300
   vertex -0.4000 1.3500 -0.9700
   vertex -0.4000 1.8500 -0.9700
  endloop
 endfacet
 facet normal -1.00000 0.00000 0.00000
  outer loop
   vertex -0.4000 1.3500 -1.0300
   vertex -0.4000 1.8500 -0.9700
   vertex -0.4000 1.8500 -1.0300
  endloop
 endfacet
 facet normal 0.00000 -1.00000 0.00000
  outer loop
   vertex -1.3000 1.8500 -1.0300
   vertex -0.4000 1.8500 -1.0300
   vertex -0.4000 1.8500 -0.9700
  endloop
 endfacet
 facet normal 0.00000 -1.00000 0.00000
  outer loop
   vertex -1.3000 1.8500 -1.0300
   vertex -0.4000 1.8500 -0.9700
   vertex -1.3000 1.8500 -0.9700
  endloop
 endfacet
 facet normal 0.00000 1.00000 0.00000
  outer loop
   vertex -1.3000 1.3500 -0.9700
   vertex -0.4000 1.3500 -0.9700
   vertex -0.4000 1.3500 -1.0300
  endloop
 endfacet
 facet normal 0.00000 1.00000 0.00000
  outer loop
   vertex -1.3000 1.3500 -0.9700
   vertex -0.4000 1.3500 -1.0300
   vertex -1.3000 1.3500 -1.0300
  endloop
 endfacet
 facet normal 0.00000 0.00000 1.00000
  outer loop
   vertex 0.6500 1.1250 -0.9750
   vertex 2.0500 1.1250 -0.9750
   vertex 2.0500 1.4750 -0.9750
  endloop
 endfacet
 facet normal 0.00000 0.00000 1.00000
  outer loop
   vertex 0.6500 1.1250 -0.9750
   vertex 2.0500 1.4750 -0.9750
   vertex 0.6500 1.4750 -0.9750
  endloop
 endfacet
 facet normal 0.00000 0.00000 -1.00000
  outer loop
   vertex 2.0500 1.1250 0.9750
   vertex 0.6500 1.1250 0.9750
   vertex 0.6500 1.4750 0.9750
  endloop
 endfacet
 facet normal 0.00000 0.00000 -1.00000
  outer loop
   vertex 2.0500 1.1250 0.9750
   vertex 0.6500 1.4750 0.9750
   vertex 2.0500 1.4750 0.9750
  endloop
 endfacet
 facet normal 1.00000 0.00000 0.00000
  outer loop
   vertex 0.6500 1.1250 0.9750
   vertex 0.6500 1.1250 -0.9750
   vertex 0.6500 1.4750 -0.9750
  endloop
 endfacet
 facet normal 1.00000 0.00000 0.00000
  outer loop
   vertex 0.6500 1.1250 0.9750
   vertex 0.6500 1.4750 -0.9750
   vertex 0.6500 1.4750 0.9750
  endloop
 endfacet
 facet normal -1.00000 0.00000 0.00000
  outer loop
   vertex 2.0500 1.1250 -0.9750
   vertex 2.0500 1.1250 0.9750
   vertex 2.0500 1.4750 0.9750
  endloop
 endfacet
 facet normal -1.00000 0.00000 0.00000
  outer loop
   vertex 2.0500 1.1250 -0.9750
   vertex 2.0500 1.4750 0.9750
   vertex 2.0500 1.4750 -0.9750
  endloop
 endfacet
 facet normal 0.00000 -1.00000 0.00000
  outer loop
   vertex 0.6500 1.4750 -0.9750
   vertex 2.0500 1.4750 -0.9750
   vertex 2.0500 1.4750 0.9750
  endloop
 endfacet
 facet normal 0.00000 -1.00000 0.00000
  outer loop
   vertex 0.6500 1.4750 -0.9750
   vertex 2.0500 1.4750 0.9750
   vertex 0.6500 1.4750 0.9750
  endloop
 endfacet
 facet normal 0.00000 1.00000 0.00000
  outer loop
   vertex 0.6500 1.1250 0.9750
   vertex 2.0500 1.1250 0.9750
   vertex 2.0500 1.1250 -0.9750
  endloop
 endfacet
 facet normal 0.00000 1.00000 0.00000
  outer loop
   vertex 0.6500 1.1250 0.9750
   vertex 2.0500 1.1250 -0.9750
   vertex 0.6500 1.1250 -0.9750
  endloop
 endfacet
 facet normal -0.30902 0.00000 -0.95106
  outer loop
   vertex -1.5000 0.3200 -1.5500
   vertex -1.7645 0.3200 -1.4641
   vertex -1.7645 0.6400 -1.4641
  endloop
 endfacet
 facet normal -0.30902 0.00000 -0.95106
  outer loop
   vertex -1.5000 0.3200 -1.5500
   vertex -1.7645 0.6400 -1.4641
   vertex -1.5000 0.6400 -1.5500
  endloop
 endfacet
 facet normal 0.00000 -1.00000 0.00000
  outer loop
   vertex -1.5000 0.3200 -1.1000
   vertex -1.7645 0.3200 -1.4641
   vertex -1.5000 0.3200 -1.5500
  endloop
 endfacet
 facet normal 0.00000 1.00000 0.00000
  outer loop
   vertex -1.5000 0.6400 -1.1000
   vertex -1.5000 0.6400 -1.5500
   vertex -1.7645 0.6400 -1.4641
  endloop
 endfacet
 facet normal -0.80902 0.00000 -0.58779
  outer loop
   vertex -1.7645 0.3200 -1.4641
   vertex -1.9280 0.3200 -1.2391
   vertex -1.9280 0.6400 -1.2391
  endloop
 endfacet
 facet normal -0.80902 0.00000 -0.58779
  outer loop
   vertex -1.7645 0.3200 -1.4641
   vertex -1.9280 0.6400 -1.2391
   vertex -1.7645 0.6400 -1.4641
  endloop
 endfacet
 facet normal 0.00000 -1.00000 0.00000
  outer loop
   vertex -1.5000 0.3200 -1.1000
   vertex -1.9280 0.3200 -1.2391
   vertex -1.7645 0.3200 -1.4641
  endloop
 endfacet
 facet normal 0.00000 1.00000 0.00000
  outer loop
   vertex -1.5000 0.6400 -1.1000
   vertex -1.7645 0.6400 -1.4641
   vertex -1.9280 0.6400 -1.2391
  endloop
 endfacet
 facet normal -1.00000 0.00000 0.00000
  outer loop
   vertex -1.9280 0.3200 -1.2391
   vertex -1.9280 0.3200 -0.9609
   vertex -1.9280 0.6400 -0.9609
  endloop
 endfacet
 facet normal -1.00000 0.00000 0.00000
  outer loop
   vertex -1.9280 0.3200 -1.2391
   vertex -1.9280 0.6400 -0.9609
   vertex -1.9280 0.6400 -1.2391
  endloop
 endfacet
 facet normal 0.00000 -1.00000 0.00000
  outer loop
   vertex -1.5000 0.3200 -1.1000
   vertex -1.9280 0.3200 -0.9609
   vertex -1.9280 0.3200 -1.2391
  endloop
 endfacet
 facet normal 0.00000 1.00000 0.00000
  outer loop
   vertex -1.5000 0.6400 -1.1000
   vertex -1.9280 0.6400 -1.2391
   vertex -1.9280 0.6400 -0.9609
  endloop
 endfacet
 facet normal -0.80902 0.00000 0.58779
  outer loop
   vertex -1.9280 0.3200 -0.9609
   vertex -1.7645 0.3200 -0.7359
   vertex -1.7645 0.6400 -0.7359
  endloop
 endfacet
 facet normal -0.80902 0.00000 0.58779
  outer loop
   vertex -1.9280 0.3200 -0.9609
   vertex -1.7645 0.6400 -0.7359
   vertex -1.9280 0.6400 -0.9609
  endloop
 endfacet
 facet normal 0.00000 -1.00000 0.00000
  outer loop
   vertex -1.5000 0.3200 -1.1000
   vertex -1.7645 0.3200 -0.7359
   vertex -1.9280 0.3200 -0.9609
  endloop
 endfacet
 facet normal 0.00000 1.00000 0.00000
  outer loop
   vertex -1.5000 0.6400 -1.1000
   vertex -1.9280 0.6400 -0.9609
   vertex -1.7645 0.6400 -0.7359
  endloop
 endfacet
 facet normal -0.30902 0.00000 0.95106
  outer loop
   vertex -1.7645 0.3200 -0.7359
   vertex -1.5000 0.3200 -0.6500
   vertex -1.5000 0.6400 -0.6500
  endloop
 endfacet
 facet normal -0.30902 0.00000 0.95106
  outer loop
   vertex -1.7645 0.3200 -0.7359
   vertex -1.5000 0.6400 -0.6500
   vertex -1.7645 0.6400 -0.7359
  endloop
 endfacet
 facet normal 0.00000 -1.00000 0.00000
  outer loop
   vertex -1.5000 0.3200 -1.1000
   vertex -1.5000 0.3200 -0.6500
   vertex -1.7645 0.3200 -0.7359
  endloop
 endfacet
 facet normal 0.00000 1.00000 0.00000
  outer loop
   vertex -1.5000 0.6400 -1.1000
   vertex -1.7645 0.6400 -0.7359
   vertex -1.5000 0.6400 -0.6500
  endloop
 endfacet
 facet normal 0.30902 0.00000 0.95106
  outer loop
   vertex -1.5000 0.3200 -0.6500
   vertex -1.2355 0.3200 -0.7359
   vertex -1.2355 0.6400 -0.7359
  endloop
 endfacet
 facet normal 0.30902 0.00000 0.95106
  outer loop
   vertex -1.5000 0.3200 -0.6500
   vertex -1.2355 0.6400 -0.7359
   vertex -1.5000 0.6400 -0.6500
  endloop
 endfacet
 facet normal 0.00000 -1.00000 0.00000
  outer loop
   vertex -1.5000 0.3200 -1.1000
   vertex -1.2355 0.3200 -0.7359
   vertex -1.5000 0.3200 -0.6500
  endloop
 endfacet
 facet normal 0.00000 1.00000 0.00000
  outer loop
   vertex -1.5000 0.6400 -1.1000
   vertex -1.5000 0.6400 -0.6500
   vertex -1.2355 0.6400 -0.7359
  endloop
 endfacet
 facet normal 0.80902 0.00000 0.58779
  outer loop
   vertex -1.2355 0.3200 -0.7359
   vertex -1.0720 0.3200 -0.9609
   vertex -1.0720 0.6400 -0.9609
  endloop
 endfacet
 facet normal 0.80902 0.00000 0.58779
  outer loop
   vertex -1.2355 0.3200 -0.7359
   vertex -1.0720 0.6400 -0.9609
   vertex -1.2355 0.6400 -0.7359
  endloop
 endfacet
 facet normal 0.00000 -1.00000 0.00000
  outer loop
   vertex -1.5000 0.3200 -1.1000
   vertex -1.0720 0.3200 -0.9609
   vertex -1.2355 0.3200 -0.7359
  endloop
 endfacet
 facet normal 0.00000 1.00000 0.00000
  outer loop
   vertex -1.5000 0.6400 -1.1000
   vertex -1.2355 0.6400 -0.7359
   vertex -1.0720 0.6400 -0.9609
  endloop
 endfacet
 facet normal 1.00000 0.00000 0.00000
  outer loop
   vertex -1.0720 0.3200 -0.9609
   vertex -1.0720 0.3200 -1.2391
   vertex -1.0720 0.6400 -1.2391
  endloop
 endfacet
 facet normal 1.00000 0.00000 0.00000
  outer loop
   vertex -1.0720 0.3200 -0.9609
   vertex -1.0720 0.6400 -1.2391
   vertex -1.0720 0.6400 -0.9609
  endloop
 endfacet
 facet normal 0.00000 -1.00000 0.00000
  outer loop
   vertex -1.5000 0.3200 -1.1000
   vertex -1.0720 0.3200 -1.2391
   vertex -1.0720 0.3200 -0.9609
  endloop
 endfacet
 facet normal 0.00000 1.00000 0.00000
  outer loop
   vertex -1.5000 0.6400 -1.1000
   vertex -1.0720 0.6400 -0.9609
   vertex -1.0720 0.6400 -1.2391
  endloop
 endfacet
 facet normal 0.80902 0.00000 -0.58779
  outer loop
   vertex -1.0720 0.3200 -1.2391
   vertex -1.2355 0.3200 -1.4641
   vertex -1.2355 0.6400 -1.4641
  endloop
 endfacet
 facet normal 0.80902 0.00000 -0.58779
  outer loop
   vertex -1.0720 0.3200 -1.2391
   vertex -1.2355 0.6400 -1.4641
   vertex -1.0720 0.6400 -1.2391
  endloop
 endfacet
 facet normal 0.00000 -1.00000 0.00000
  outer loop
   vertex -1.5000 0.3200 -1.1000
   vertex -1.2355 0.3200 -1.4641
   vertex -1.0720 0.3200 -1.2391
  endloop
 endfacet
 facet normal 0.00000 1.00000 0.00000
  outer loop
   vertex -1.5000 0.6400 -1.1000
   vertex -1.0720 0.6400 -1.2391
   vertex -1.2355 0.6400 -1.4641
  endloop
 endfacet
 facet normal 0.30902 0.00000 -0.95106
  outer loop
   vertex -1.2355 0.3200 -1.4641
   vertex -1.5000 0.3200 -1.5500
   vertex -1.5000 0.6400 -1.5500
  endloop
 endfacet
 facet normal 0.30902 0.00000 -0.95106
  outer loop
   vertex -1.2355 0.3200 -1.4641
   vertex -1.5000 0.6400 -1.5500
   vertex -1.2355 0.6400 -1.4641
  endloop
 endfacet
 facet normal 0.00000 -1.00000 0.00000
  outer loop
   vertex -1.5000 0.3200 -1.1000
   vertex -1.5000 0.3200 -1.5500
   vertex -1.2355 0.3200 -1.4641
  endloop
 endfacet
 facet normal 0.00000 1.00000 0.00000
  outer loop
   vertex -1.5000 0.6400 -1.1000
   vertex -1.2355 0.6400 -1.4641
   vertex -1.5000 0.6400 -1.5500
  endloop
 endfacet
 facet normal -0.30902 0.00000 -0.95106
  outer loop
   vertex -1.5000 0.3200 0.6500
   vertex -1.7645 0.3200 0.7359
   vertex -1.7645 0.6400 0.7359
  endloop
 endfacet
 facet normal -0.30902 0.00000 -0.95106
  outer loop
   vertex -1.5000 0.3200 0.6500
   vertex -1.7645 0.6400 0.7359
   vertex -1.5000 0.6400 0.6500
  endloop
 endfacet
 facet normal 0.00000 -1.00000 0.00000
  outer loop
   vertex -1.5000 0.3200 1.1000
   vertex -1.7645 0.3200 0.7359
   vertex -1.5000 0.3200 0.6500
  endloop
 endfacet
 facet normal 0.00000 1.00000 0.00000
  outer loop
   vertex -1.5000 0.6400 1.1000
   vertex -1.5000 0.6400 0.6500
   vertex -1.7645 0.6400 0.7359
  endloop
 endfacet
 facet normal -0.80902 0.00000 -0.58779
  outer loop
   vertex -1.7645 0.3200 0.7359
   vertex -1.9280 0.3200 0.9609
   vertex -1.9280 0.6400 0.9609
  endloop
 endfacet
 facet normal -0.80902 0.00000 -0.58779
  outer loop
   vertex -1.7645 0.3200 0.7359
   vertex -1.9280 0.6400 0.9609
   vertex -1.7645 0.6400 0.7359
  endloop
 endfacet
 facet normal 0.00000 -1.00000 0.00000
  outer loop
   vertex -1.5000 0.3200 1.1000
   vertex -1.9280 0.3200 0.9609
   vertex -1.7645 0.3200 0.7359
  endloop
 endfacet
 facet normal 0.00000 1.00000 0.00000
  outer loop
   vertex -1.5000 0.6400 1.1000
   vertex -1.7645 0.6400 0.7359
   vertex -1.9280 0.6400 0.9609
  endloop
 endfacet
 facet normal -1.00000 0.00000 0.00000
  outer loop
   vertex -1.9280 0.3200 0.9609
   vertex -1.9280 0.3200 1.2391
   vertex -1.9280 0.6400 1.2391
  endloop
 endfacet
 facet normal -1.00000 0.00000 0.00000
  outer loop
   vertex -1.9280 0.3200 0.9609
   vertex -1.9280 0.6400 1.2391
   vertex -1.9280 0.6400 0.9609
  endloop
 endfacet
 facet normal 0.00000 -1.00000 0.00000
  outer loop
   vertex -1.5000 0.3200 1.1000
   vertex -1.9280 0.3200 1.2391
   vertex -1.9280 0.3200 0.9609
  endloop
 endfacet
 facet normal 0.00000 1.00000 0.00000
  outer loop
   vertex -1.5000 0.6400 1.1000
   vertex -1.9280 0.6400 0.9609
   vertex -1.9280 0.6400 1.2391
  endloop
 endfacet
 facet normal -0.80902 0.00000 0.58779
  outer loop
   vertex -1.9280 0.3200 1.2391
   vertex -1.7645 0.3200 1.4641
   vertex -1.7645 0.6400 1.4641
  endloop
 endfacet
 facet normal -0.80902 0.00000 0.58779
  outer loop
   vertex -1.9280 0.3200 1.2391
   vertex -1.7645 0.6400 1.4641
   vertex -1.9280 0.6400 1.2391
  endloop
 endfacet
 facet normal 0.00000 -1.00000 0.00000
  outer loop
   vertex -1.5000 0.3200 1.1000
   vertex -1.7645 0.3200 1.4641
   vertex -1.9280 0.3200 1.2391
  endloop
 endfacet
 facet normal 0.00000 1.00000 0.00000
  outer loop
   vertex -1.5000 0.6400 1.1000
   vertex -1.9280 0.6400 1.2391
   vertex -1.7645 0.6400 1.4641
  endloop
 endfacet
 facet normal -0.30902 0.00000 0.95106
  outer loop
   vertex -1.7645 0.3200 1.4641
   vertex -1.5000 0.3200 1.5500
   vertex -1.5000 0.6400 1.5500
  endloop
 endfacet
 facet normal -0.30902 0.00000 0.95106
  outer loop
   vertex -1.7645 0.3200 1.4641
   vertex -1.5000 0.6400 1.5500
   vertex -1.7645 0.6400 1.4641
  endloop
 endfacet
 facet normal 0.00000 -1.00000 0.00000
  outer loop
   vertex -1.5000 0.3200 1.1000
   vertex -1.5000 0.3200 1.5500
   vertex -1.7645 0.3200 1.4641
  endloop
 endfacet
 facet normal 0.00000 1.00000 0.00000
  outer loop
   vertex -1.5000 0.6400 1.1000
   vertex -1.7645 0.6400 1.4641
   vertex -1.5000 0.6400 1.5500
  endloop
 endfacet
 facet normal 0.30902 0.00000 0.95106
  outer loop
   vertex -1.5000 0.3200 1.5500
   vertex -1.2355 0.3200 1.4641
   vertex -1.2355 0.6400 1.4641
  endloop
 endfacet
 facet normal 0.30902 0.00000 0.95106
  outer loop
   vertex -1.5000 0.3200 1.5500
   vertex -1.2355 0.6400 1.4641
   vertex -1.5000 0.6400 1.5500
  endloop
 endfacet
 facet normal 0.00000 -1.00000 0.00000
  outer loop
   vertex -1.5000 0.3200 1.1000
   vertex -1.2355 0.3200 1.4641
   vertex -1.5000 0.3200 1.5500
  endloop
 endfacet
 facet normal 0.00000 1.00000 0.00000
  outer loop
   vertex -1.5000 0.6400 1.1000
   vertex -1.5000 0.6400 1.5500
   vertex -1.2355 0.6400 1.4641
  endloop
 endfacet
 facet normal 0.80902 0.00000 0.58779
  outer loop
   vertex -1.2355 0.3200 1.4641
   vertex -1.0720 0.3200 1.2391
   vertex -1.0720 0.6400 1.2391
  endloop
 endfacet
 facet normal 0.80902 0.00000 0.58779
  outer loop
   vertex -1.2355 0.3200 1.4641
   vertex -1.0720 0.6400 1.2391
   vertex -1.2355 0.6400 1.4641
  endloop
 endfacet
 facet normal 0.00000 -1.00000 0.00000
  outer loop
   vertex -1.5000 0.3200 1.1000
   vertex -1.0720 0.3200 1.2391
   vertex -1.2355 0.3200 1.4641
  endloop
 endfacet
 facet normal 0.00000 1.00000 0.00000
  outer loop
   vertex -1.5000 0.6400 1.1000
   vertex -1.2355 0.6400 1.4641
   vertex -1.0720 0.6400 1.2391
  endloop
 endfacet
 facet normal 1.00000 0.00000 0.00000
  outer loop
   vertex -1.0720 0.3200 1.2391
   vertex -1.0720 0.3200 0.9609
   vertex -1.0720 0.6400 0.9609
  endloop
 endfacet
 facet normal 1.00000 0.00000 0.00000
  outer loop
   vertex -1.0720 0.3200 1.2391
   vertex -1.0720 0.6400 0.9609
   vertex -1.0720 0.6400 1.2391
  endloop
 endfacet
 facet normal 0.00000 -1.00000 0.00000
  outer loop
   vertex -1.5000 0.3200 1.1000
   vertex -1.0720 0.3200 0.9609
   vertex -1.0720 0.3200 1.2391
  endloop
 endfacet
 facet normal 0.00000 1.00000 0.00000
  outer loop
   vertex -1.5000 0.6400 1.1000
   vertex -1.0720 0.6400 1.2391
   vertex -1.0720 0.6400 0.9609
  endloop
 endfacet
 facet normal 0.80902 0.00000 -0.58779
  outer loop
   vertex -1.0720 0.3200 0.9609
   vertex -1.2355 0.3200 0.7359
   vertex -1.2355 0.6400 0.7359
  endloop
 endfacet
 facet normal 0.80902 0.00000 -0.58779
  outer loop
   vertex -1.0720 0.3200 0.9609
   vertex -1.2355 0.6400 0.7359
   vertex -1.0720 0.6400 0.9609
  endloop
 endfacet
 facet normal 0.00000 -1.00000 0.00000
  outer loop
   vertex -1.5000 0.3200 1.1000
   vertex -1.2355 0.3200 0.7359
   vertex -1.0720 0.3200 0.9609
  endloop
 endfacet
 facet normal 0.00000 1.00000 0.00000
  outer loop
   vertex -1.5000 0.6400 1.1000
   vertex -1.0720 0.6400 0.9609
   vertex -1.2355 0.6400 0.7359
  endloop
 endfacet
 facet normal 0.30902 0.00000 -0.95106
  outer loop
   vertex -1.2355 0.3200 0.7359
   vertex -1.5000 0.3200 0.6500
   vertex -1.5000 0.6400 0.6500
  endloop
 endfacet
 facet normal 0.30902 0.00000 -0.95106
  outer loop
   vertex -1.2355 0.3200 0.7359
   vertex -1.5000 0.6400 0.6500
   vertex -1.2355 0.6400 0.7359
  endloop
 endfacet
 facet normal 0.00000 -1.00000 0.00000
  outer loop
   vertex -1.5000 0.3200 1.1000
   vertex -1.5000 0.3200 0.6500
   vertex -1.2355 0.3200 0.7359
  endloop
 endfacet
 facet normal 0.00000 1.00000 0.00000
  outer loop
   vertex -1.5000 0.6400 1.1000
   vertex -1.2355 0.6400 0.7359
   vertex -1.5000 0.6400 0.6500
  endloop
 endfacet
 facet normal -0.30902 0.00000 -0.95106
  outer loop
   vertex 1.5000 0.3200 -1.5500
   vertex 1.2355 0.3200 -1.4641
   vertex 1.2355 0.6400 -1.4641
  endloop
 endfacet
 facet normal -0.30902 0.00000 -0.95106
  outer loop
   vertex 1.5000 0.3200 -1.5500
   vertex 1.2355 0.6400 -1.4641
   vertex 1.5000 0.6400 -1.5500
  endloop
 endfacet
 facet normal 0.00000 -1.00000 0.00000
  outer loop
   vertex 1.5000 0.3200 -1.1000
   vertex 1.2355 0.3200 -1.4641
   vertex 1.5000 0.3200 -1.5500
  endloop
 endfacet
 facet normal 0.00000 1.00000 0.00000
  outer loop
   vertex 1.5000 0.6400 -1.1000
   vertex 1.5000 0.6400 -1.5500
   vertex 1.2355 0.6400 -1.4641
  endloop
 endfacet
 facet normal -0.80902 0.00000 -0.58779
  outer loop
   vertex 1.2355 0.3200 -1.4641
   vertex 1.0720 0.3200 -1.2391
   vertex 1.0720 0.6400 -1.2391
  endloop
 endfacet
 facet normal -0.80902 0.00000 -0.58779
  outer loop
   vertex 1.2355 0.3200 -1.4641
   vertex 1.0720 0.6400 -1.2391
   vertex 1.2355 0.6400 -1.4641
  endloop
 endfacet
 facet normal 0.00000 -1.00000 0.00000
  outer loop
   vertex 1.5000 0.3200 -1.1000
   vertex 1.0720 0.3200 -1.2391
   vertex 1.2355 0.3200 -1.4641
  endloop
 endfacet
 facet normal 0.00000 1.00000 0.00000
  outer loop
   vertex 1.5000 0.6400 -1.1000
   vertex 1.2355 0.6400 -1.4641
   vertex 1.0720 0.6400 -1.2391
  endloop
 endfacet
 facet normal -1.00000 0.00000 0.00000
  outer loop
   vertex 1.0720 0.3200 -1.2391
   vertex 1.0720 0.3200 -0.9609
   vertex 1.0720 0.6400 -0.9609
  endloop
 endfacet
 facet normal -1.00000 0.00000 0.00000
  outer loop
   vertex 1.0720 0.3200 -1.2391
   vertex 1.0720 0.6400 -0.9609
   vertex 1.0720 0.6400 -1.2391
  endloop
 endfacet
 facet normal 0.00000 -1.00000 0.00000
  outer loop
   vertex 1.5000 0.3200 -1.1000
   vertex 1.0720 0.3200 -0.9609
   vertex 1.0720 0.3200 -1.2391
  endloop
 endfacet
 facet normal 0.00000 1.00000 0.00000
  outer loop
   vertex 1.5000 0.6400 -1.1000
   vertex 1.0720 0.6400 -1.2391
   vertex 1.0720 0.6400 -0.9609
  endloop
 endfacet
 facet normal -0.80902 0.00000 0.58779
  outer loop
   vertex 1.0720 0.3200 -0.9609
   vertex 1.2355 0.3200 -0.7359
   vertex 1.2355 0.6400 -0.7359
  endloop
 endfacet
 facet normal -0.80902 0.00000 0.58779
  outer loop
   vertex 1.0720 0.3200 -0.9609
   vertex 1.2355 0.6400 -0.7359
   vertex 1.0720 0.6400 -0.9609
  endloop
 endfacet
 facet normal 0.00000 -1.00000 0.00000
  outer loop
   vertex 1.5000 0.3200 -1.1000
   vertex 1.2355 0.3200 -0.7359
   vertex 1.0720 0.3200 -0.9609
  endloop
 endfacet
 facet normal 0.00000 1.00000 0.00000
  outer loop
   vertex 1.5000 0.6400 -1.1000
   vertex 1.0720 0.6400 -0.9609
   vertex 1.2355 0.6400 -0.7359
  endloop
 endfacet
 facet normal -0.30902 0.00000 0.95106
  outer loop
   vertex 1.2355 0.3200 -0.7359
   vertex 1.5000 0.3200 -0.6500
   vertex 1.5000 0.6400 -0.6500
  endloop
 endfacet
 facet normal -0.30902 0.00000 0.95106
  outer loop
   vertex 1.2355 0.3200 -0.7359
   vertex 1.5000 0.6400 -0.6500
   vertex 1.2355 0.6400 -0.7359
  endloop
 endfacet
 facet normal 0.00000 -1.00000 0.00000
  outer loop
   vertex 1.5000 0.3200 -1.1000
   vertex 1.5000 0.3200 -0.6500
   vertex 1.2355 0.3200 -0.7359
  endloop
 endfacet
 facet normal 0.00000 1.00000 0.00000
  outer loop
   vertex 1.5000 0.6400 -1.1000
   vertex 1.2355 0.6400 -0.7359
   vertex 1.5000 0.6400 -0.6500
  endloop
 endfacet
 facet normal 0.30902 0.00000 0.95106
  outer loop
   vertex 1.5000 0.3200 -0.6500
   vertex 1.7645 0.3200 -0.7359
   vertex 1.7645 0.6400 -0.7359
  endloop
 endfacet
 facet normal 0.30902 0.00000 0.95106
  outer loop
   vertex 1.5000 0.3200 -0.6500
   vertex 1.7645 0.6400 -0.7359
   vertex 1.5000 0.6400 -0.6500
  endloop
 endfacet
 facet normal 0.00000 -1.00000 0.00000
  outer loop
   vertex 1.5000 0.3200 -1.1000
   vertex 1.7645 0.3200 -0.7359
   vertex 1.5000 0.3200 -0.6500
  endloop
 endfacet
 facet normal 0.00000 1.00000 0.00000
  outer loop
   vertex 1.5000 0.6400 -1.1000
   vertex 1.5000 0.6400 -0.6500
   vertex 1.7645 0.6400 -0.7359
  endloop
 endfacet
 facet normal 0.80902 0.00000 0.58779
  outer loop
   vertex 1.7645 0.3200 -0.7359
   vertex 1.9280 0.3200 -0.9609
   vertex 1.9280 0.6400 -0.9609
  endloop
 endfacet
 facet normal 0.80902 0.00000 0.58779
  outer loop
   vertex 1.7645 0.3200 -0.7359
   vertex 1.9280 0.6400 -0.9609
   vertex 1.7645 0.6400 -0.7359
  endloop
 endfacet
 facet normal 0.00000 -1.00000 0.00000
  outer loop
   vertex 1.5000 0.3200 -1.1000
   vertex 1.9280 0.3200 -0.9609
   vertex 1.7645 0.3200 -0.7359
  endloop
 endfacet
 facet normal 0.00000 1.00000 0.00000
  outer loop
   vertex 1.5000 0.6400 -1.1000
   vertex 1.7645 0.6400 -0.7359
   vertex 1.9280 0.6400 -0.9609
  endloop
 endfacet
 facet normal 1.00000 0.00000 0.00000
  outer loop
   vertex 1.9280 0.3200 -0.9609
   vertex 1.9280 0.3200 -1.2391
   vertex 1.9280 0.6400 -1.2391
  endloop
 endfacet
 facet normal 1.00000 0.00000 0.00000
  outer loop
   vertex 1.9280 0.3200 -0.9609
   vertex 1.9280 0.6400 -1.2391
   vertex 1.9280 0.6400 -0.9609
  endloop
 endfacet
 facet normal 0.00000 -1.00000 0.00000
  outer loop
   vertex 1.5000 0.3200 -1.1000
   vertex 1.9280 0.3200 -1.2391
   vertex 1.9280 0.3200 -0.9609
  endloop
 endfacet
 facet normal 0.00000 1.00000 0.00000
  outer loop
   vertex 1.5000 0.6400 -1.1000
   vertex 1.9280 0.6400 -0.9609
   vertex 1.9280 0.6400 -1.2391
  endloop
 endfacet
 facet normal 0.80902 0.00000 -0.58779
  outer loop
   vertex 1.9280 0.3200 -1.2391
   vertex 1.7645 0.3200 -1.4641
   vertex 1.7645 0.6400 -1.4641
  endloop
 endfacet
 facet normal 0.80902 0.00000 -0.58779
  outer loop
   vertex 1.9280 0.3200 -1.2391
   vertex 1.7645 0.6400 -1.4641
   vertex 1.9280 0.6400 -1.2391
  endloop
 endfacet
 facet normal 0.00000 -1.00000 0.00000
  outer loop
   vertex 1.5000 0.3200 -1.1000
   vertex 1.7645 0.3200 -1.4641
   vertex 1.9280 0.3200 -1.2391
  endloop
 endfacet
 facet normal 0.00000 1.00000 0.00000
  outer loop
   vertex 1.5000 0.6400 -1.1000
   vertex 1.9280 0.6400 -1.2391
   vertex 1.7645 0.6400 -1.4641
  endloop
 endfacet
 facet normal 0.30902 0.00000 -0.95106
  outer loop
   vertex 1.7645 0.3200 -1.4641
   vertex 1.5000 0.3200 -1.5500
   vertex 1.5000 0.6400 -1.5500
  endloop
 endfacet
 facet normal 0.30902 0.00000 -0.95106
  outer loop
   vertex 1.7645 0.3200 -1.4641
   vertex 1.5000 0.6400 -1.5500
   vertex 1.7645 0.6400 -1.4641
  endloop
 endfacet
 facet normal 0.00000 -1.00000 0.00000
  outer loop
   vertex 1.5000 0.3200 -1.1000
   vertex 1.5000 0.3200 -1.5500
   vertex 1.7645 0.3200 -1.4641
  endloop
 endfacet
 facet normal 0.00000 1.00000 0.00000
  outer loop
   vertex 1.5000 0.6400 -1.1000
   vertex 1.7645 0.6400 -1.4641
   vertex 1.5000 0.6400 -1.5500
  endloop
 endfacet
 facet normal -0.30902 0.00000 -0.95106
  outer loop
   vertex 1.5000 0.3200 0.6500
   vertex 1.2355 0.3200 0.7359
   vertex 1.2355 0.6400 0.7359
  endloop
 endfacet
 facet normal -0.30902 0.00000 -0.95106
  outer loop
   vertex 1.5000 0.3200 0.6500
   vertex 1.2355 0.6400 0.7359
   vertex 1.5000 0.6400 0.6500
  endloop
 endfacet
 facet normal 0.00000 -1.00000 0.00000
  outer loop
   vertex 1.5000 0.3200 1.1000
   vertex 1.2355 0.3200 0.7359
   vertex 1.5000 0.3200 0.6500
  endloop
 endfacet
 facet normal 0.00000 1.00000 0.00000
  outer loop
   vertex 1.5000 0.6400 1.1000
   vertex 1.5000 0.6400 0.6500
   vertex 1.2355 0.6400 0.7359
  endloop
 endfacet
 facet normal -0.80902 0.00000 -0.58779
  outer loop
   vertex 1.2355 0.3200 0.7359
   vertex 1.0720 0.3200 0.9609
   vertex 1.0720 0.6400 0.9609
  endloop
 endfacet
 facet normal -0.80902 0.00000 -0.58779
  outer loop
   vertex 1.2355 0.3200 0.7359
   vertex 1.0720 0.6400 0.9609
   vertex 1.2355 0.6400 0.7359
  endloop
 endfacet
 facet normal 0.00000 -1.00000 0.00000
  outer loop
   vertex 1.5000 0.3200 1.1000
   vertex 1.0720 0.3200 0.9609
   vertex 1.2355 0.3200 0.7359
  endloop
 endfacet
 facet normal 0.00000 1.00000 0.00000
  outer loop
   vertex 1.5000 0.6400 1.1000
   vertex 1.2355 0.6400 0.7359
   vertex 1.0720 0.6400 0.9609
  endloop
 endfacet
 facet normal -1.00000 0.00000 0.00000
  outer loop
   vertex 1.0720 0.3200 0.9609
   vertex 1.0720 0.3200 1.2391
   vertex 1.0720 0.6400 1.2391
  endloop
 endfacet
 facet normal -1.00000 0.00000 0.00000
  outer loop
   vertex 1.0720 0.3200 0.9609
   vertex 1.0720 0.6400 1.2391
   vertex 1.0720 0.6400 0.9609
  endloop
 endfacet
 facet normal 0.00000 -1.00000 0.00000
  outer loop
   vertex 1.5000 0.3200 1.1000
   vertex 1.0720 0.3200 1.2391
   vertex 1.0720 0.3200 0.9609
  endloop
 endfacet
 facet normal 0.00000 1.00000 0.00000
  outer loop
   vertex 1.5000 0.6400 1.1000
   vertex 1.0720 0.6400 0.9609
   vertex 1.0720 0.6400 1.2391
  endloop
 endfacet
 facet normal -0.80902 0.00000 0.58779
  outer loop
   vertex 1.0720 0.3200 1.2391
   vertex 1.2355 0.3200 1.4641
   vertex 1.2355 0.6400 1.4641
  endloop
 endfacet
 facet normal -0.80902 0.00000 0.58779
  outer loop
   vertex 1.0720 0.3200 1.2391
   vertex 1.2355 0.6400 1.4641
   vertex 1.0720 0.6400 1.2391
  endloop
 endfacet
 facet normal 0.00000 -1.00000 0.00000
  outer loop
   vertex 1.5000 0.3200 1.1000
   vertex 1.2355 0.3200 1.4641
   vertex 1.0720 0.3200 1.2391
  endloop
 endfacet
 facet normal 0.00000 1.00000 0.00000
  outer loop
   vertex 1.5000 0.6400 1.1000
   vertex 1.0720 0.6400 1.2391
   vertex 1.2355 0.6400 1.4641
  endloop
 endfacet
 facet normal -0.30902 0.00000 0.95106
  outer loop
   vertex 1.2355 0.3200 1.4641
   vertex 1.5000 0.3200 1.5500
   vertex 1.5000 0.6400 1.5500
  endloop
 endfacet
 facet normal -0.30902 0.00000 0.95106
  outer loop
   vertex 1.2355 0.3200 1.4641
   vertex 1.5000 0.6400 1.5500
   vertex 1.2355 0.6400 1.4641
  endloop
 endfacet
 facet normal 0.00000 -1.00000 0.00000
  outer loop
   vertex 1.5000 0.3200 1.1000
   vertex 1.5000 0.3200 1.5500
   vertex 1.2355 0.3200 1.4641
  endloop
 endfacet
 facet normal 0.00000 1.00000 0.00000
  outer loop
   vertex 1.5000 0.6400 1.1000
   vertex 1.2355 0.6400 1.4641
   vertex 1.5000 0.6400 1.5500
  endloop
 endfacet
 facet normal 0.30902 0.00000 0.95106
  outer loop
   vertex 1.5000 0.3200 1.5500
   vertex 1.7645 0.3200 1.4641
   vertex 1.7645 0.6400 1.4641
  endloop
 endfacet
 facet normal 0.30902 0.00000 0.95106
  outer loop
   vertex 1.5000 0.3200 1.5500
   vertex 1.7645 0.6400 1.4641
   vertex 1.5000 0.6400 1.5500
  endloop
 endfacet
 facet normal 0.00000 -1.00000 0.00000
  outer loop
   vertex 1.5000 0.3200 1.1000
   vertex 1.7645 0.3200 1.4641
   vertex 1.5000 0.3200 1.5500
  endloop
 endfacet
 facet normal 0.00000 1.00000 0.00000
  outer loop
   vertex 1.5000 0.6400 1.1000
   vertex 1.5000 0.6400 1.5500
   vertex 1.7645 0.6400 1.4641
  endloop
 endfacet
 facet normal 0.80902 0.00000 0.58779
  outer loop
   vertex 1.7645 0.3200 1.4641
   vertex 1.9280 0.3200 1.2391
   vertex 1.9280 0.6400 1.2391
  endloop
 endfacet
 facet normal 0.80902 0.00000 0.58779
  outer loop
   vertex 1.7645 0.3200 1.4641
   vertex 1.9280 0.6400 1.2391
   vertex 1.7645 0.6400 1.4641
  endloop
 endfacet
 facet normal 0.00000 -1.00000 0.00000
  outer loop
   vertex 1.5000 0.3200 1.1000
   vertex 1.9280 0.3200 1.2391
   vertex 1.7645 0.3200 1.4641
  endloop
 endfacet
 facet normal 0.00000 1.00000 0.00000
  outer loop
   vertex 1.5000 0.6400 1.1000
   vertex 1.7645 0.6400 1.4641
   vertex 1.9280 0.6400 1.2391
  endloop
 endfacet
 facet normal 1.00000 0.00000 0.00000
  outer loop
   vertex 1.9280 0.3200 1.2391
   vertex 1.9280 0.3200 0.9609
   vertex 1.9280 0.6400 0.9609
  endloop
 endfacet
 facet normal 1.00000 0.00000 0.00000
  outer loop
   vertex 1.9280 0.3200 1.2391
   vertex 1.9280 0.6400 0.9609
   vertex 1.9280 0.6400 1.2391
  endloop
 endfacet
 facet normal 0.00000 -1.00000 0.00000
  outer loop
   vertex 1.5000 0.3200 1.1000
   vertex 1.9280 0.3200 0.9609
   vertex 1.9280 0.3200 1.2391
  endloop
 endfacet
 facet normal 0.00000 1.00000 0.00000
  outer loop
   vertex 1.5000 0.6400 1.1000
   vertex 1.9280 0.6400 1.2391
   vertex 1.9280 0.6400 0.9609
  endloop
 endfacet
 facet normal 0.80902 0.00000 -0.58779
  outer loop
   vertex 1.9280 0.3200 0.9609
   vertex 1.7645 0.3200 0.7359
   vertex 1.7645 0.6400 0.7359
  endloop
 endfacet
 facet normal 0.80902 0.00000 -0.58779
  outer loop
   vertex 1.9280 0.3200 0.9609
   vertex 1.7645 0.6400 0.7359
   vertex 1.9280 0.6400 0.9609
  endloop
 endfacet
 facet normal 0.00000 -1.00000 0.00000
  outer loop
   vertex 1.5000 0.3200 1.1000
   vertex 1.7645 0.3200 0.7359
   vertex 1.9280 0.3200 0.9609
  endloop
 endfacet
 facet normal 0.00000 1.00000 0.00000
  outer loop
   vertex 1.5000 0.6400 1.1000
   vertex 1.9280 0.6400 0.9609
   vertex 1.7645 0.6400 0.7359
  endloop
 endfacet
 facet normal 0.30902 0.00000 -0.95106
  outer loop
   vertex 1.7645 0.3200 0.7359
   vertex 1.5000 0.3200 0.6500
   vertex 1.5000 0.6400 0.6500
  endloop
 endfacet
 facet normal 0.30902 0.00000 -0.95106
  outer loop
   vertex 1.7645 0.3200 0.7359
   vertex 1.5000 0.6400 0.6500
   vertex 1.7645 0.6400 0.7359
  endloop
 endfacet
 facet normal 0.00000 -1.00000 0.00000
  outer loop
   vertex 1.5000 0.3200 1.1000
   vertex 1.5000 0.3200 0.6500
   vertex 1.7645 0.3200 0.7359
  endloop
 endfacet
 facet normal 0.00000 1.00000 0.00000
  outer loop
   vertex 1.5000 0.6400 1.1000
   vertex 1.7645 0.6400 0.7359
   vertex 1.5000 0.6400 0.6500
  endloop
 endfacet
 facet normal 0.00000 0.00000 1.00000
  outer loop
   vertex 2.0000 0.8750 -0.9500
   vertex 2.2000 0.8750 -0.9500
   vertex 2.2000 1.1250 -0.9500
  endloop
 endfacet
 facet normal 0.00000 0.00000 1.00000
  outer loop
   vertex 2.0000 0.8750 -0.9500
   vertex 2.2000 1.1250 -0.9500
   vertex 2.0000 1.1250 -0.9500
  endloop
 endfacet
 facet normal 0.00000 0.00000 -1.00000
  outer loop
   vertex 2.2000 0.8750 0.9500
   vertex 2.0000 0.8750 0.9500
   vertex 2.0000 1.1250 0.9500
  endloop
 endfacet
 facet normal 0.00000 0.00000 -1.00000
  outer loop
   vertex 2.2000 0.8750 0.9500
   vertex 2.0000 1.1250 0.9500
   vertex 2.2000 1.1250 0.9500
  endloop
 endfacet
 facet normal 1.00000 0.00000 0.00000
  outer loop
   vertex 2.0000 0.8750 0.9500
   vertex 2.0000 0.8750 -0.9500
   vertex 2.0000 1.1250 -0.9500
  endloop
 endfacet
 facet normal 1.00000 0.00000 0.00000
  outer loop
   vertex 2.0000 0.8750 0.9500
   vertex 2.0000 1.1250 -0.9500
   vertex 2.0000 1.1250 0.9500
  endloop
 endfacet
 facet normal -1.00000 0.00000 0.00000
  outer loop
   vertex 2.2000 0.8750 -0.9500
   vertex 2.2000 0.8750 0.9500
   vertex 2.2000 1.1250 0.9500
  endloop
 endfacet
 facet normal -1.00000 0.00000 0.00000
  outer loop
   vertex 2.2000 0.8750 -0.9500
   vertex 2.2000 1.1250 0.9500
   vertex 2.2000 1.1250 -0.9500
  endloop
 endfacet
 facet normal 0.00000 -1.00000 0.00000
  outer loop
   vertex 2.0000 1.1250 -0.9500
   vertex 2.2000 1.1250 -0.9500
   vertex 2.2000 1.1250 0.9500
  endloop
 endfacet
 facet normal 0.00000 -1.00000 0.00000
  outer loop
   vertex 2.0000 1.1250 -0.9500
   vertex 2.2000 1.1250 0.9500
   vertex 2.0000 1.1250 0.9500
  endloop
 endfacet
 facet normal 0.00000 1.00000 0.00000
  outer loop
   vertex 2.0000 0.8750 0.9500
   vertex 2.2000 0.8750 0.9500
   vertex 2.2000 0.8750 -0.9500
  endloop
 endfacet
 facet normal 0.00000 1.00000 0.00000
  outer loop
   vertex 2.0000 0.8750 0.9500
   vertex 2.2000 0.8750 -0.9500
   vertex 2.0000 0.8750 -0.9500
  endloop
 endfacet
endsolid camion_supervivencia
