solid camilla_medica
 facet normal 0.00000 0.00000 1.00000
  outer loop
   vertex -1.1000 0.7900 -0.4500
   vertex 1.1000 0.7900 -0.4500
   vertex 1.1000 1.0100 -0.4500
  endloop
 endfacet
 facet normal 0.00000 0.00000 1.00000
  outer loop
   vertex -1.1000 0.7900 -0.4500
   vertex 1.1000 1.0100 -0.4500
   vertex -1.1000 1.0100 -0.4500
  endloop
 endfacet
 facet normal 0.00000 0.00000 -1.00000
  outer loop
   vertex 1.1000 0.7900 0.4500
   vertex -1.1000 0.7900 0.4500
   vertex -1.1000 1.0100 0.4500
  endloop
 endfacet
 facet normal 0.00000 0.00000 -1.00000
  outer loop
   vertex 1.1000 0.7900 0.4500
   vertex -1.1000 1.0100 0.4500
   vertex 1.1000 1.0100 0.4500
  endloop
 endfacet
 facet normal 1.00000 0.00000 0.00000
  outer loop
   vertex -1.1000 0.7900 0.4500
   vertex -1.1000 0.7900 -0.4500
   vertex -1.1000 1.0100 -0.4500
  endloop
 endfacet
 facet normal 1.00000 0.00000 0.00000
  outer loop
   vertex -1.1000 0.7900 0.4500
   vertex -1.1000 1.0100 -0.4500
   vertex -1.1000 1.0100 0.4500
  endloop
 endfacet
 facet normal -1.00000 0.00000 0.00000
  outer loop
   vertex 1.1000 0.7900 -0.4500
   vertex 1.1000 0.7900 0.4500
   vertex 1.1000 1.0100 0.4500
  endloop
 endfacet
 facet normal -1.00000 0.00000 0.00000
  outer loop
   vertex 1.1000 0.7900 -0.4500
   vertex 1.1000 1.0100 0.4500
   vertex 1.1000 1.0100 -0.4500
  endloop
 endfacet
 facet normal 0.00000 -1.00000 0.00000
  outer loop
   vertex -1.1000 1.0100 -0.4500
   vertex 1.1000 1.0100 -0.4500
   vertex 1.1000 1.0100 0.4500
  endloop
 endfacet
 facet normal 0.00000 -1.00000 0.00000
  outer loop
   vertex -1.1000 1.0100 -0.4500
   vertex 1.1000 1.0100 0.4500
   vertex -1.1000 1.0100 0.4500
  endloop
 endfacet
 facet normal 0.00000 1.00000 0.00000
  outer loop
   vertex -1.1000 0.7900 0.4500
   vertex 1.1000 0.7900 0.4500
   vertex 1.1000 0.7900 -0.4500
  endloop
 endfacet
 facet normal 0.00000 1.00000 0.00000
  outer loop
   vertex -1.1000 0.7900 0.4500
   vertex 1.1000 0.7900 -0.4500
   vertex -1.1000 0.7900 -0.4500
  endloop
 endfacet
 facet normal 0.00000 0.00000 1.00000
  outer loop
   vertex -1.0000 1.0000 -0.4550
   vertex 1.0000 1.0000 -0.4550
   vertex 1.0000 1.1200 -0.4550
  endloop
 endfacet
 facet normal 0.00000 0.00000 1.00000
  outer loop
   vertex -1.0000 1.0000 -0.4550
   vertex 1.0000 1.1200 -0.4550
   vertex -1.0000 1.1200 -0.4550
  endloop
 endfacet
 facet normal 0.00000 0.00000 -1.00000
  outer loop
   vertex 1.0000 1.0000 -0.1050
   vertex -1.0000 1.0000 -0.1050
   vertex -1.0000 1.1200 -0.1050
  endloop
 endfacet
 facet normal 0.00000 0.00000 -1.00000
  outer loop
   vertex 1.0000 1.0000 -0.1050
   vertex -1.0000 1.1200 -0.1050
   vertex 1.0000 1.1200 -0.1050
  endloop
 endfacet
 facet normal 1.00000 0.00000 0.00000
  outer loop
   vertex -1.0000 1.0000 -0.1050
   vertex -1.0000 1.0000 -0.4550
   vertex -1.0000 1.1200 -0.4550
  endloop
 endfacet
 facet normal 1.00000 0.00000 0.00000
  outer loop
   vertex -1.0000 1.0000 -0.1050
   vertex -1.0000 1.1200 -0.4550
   vertex -1.0000 1.1200 -0.1050
  endloop
 endfacet
 facet normal -1.00000 0.00000 0.00000
  outer loop
   vertex 1.0000 1.0000 -0.4550
   vertex 1.0000 1.0000 -0.1050
   vertex 1.0000 1.1200 -0.1050
  endloop
 endfacet
 facet normal -1.00000 0.00000 0.00000
  outer loop
   vertex 1.0000 1.0000 -0.4550
   vertex 1.0000 1.1200 -0.1050
   vertex 1.0000 1.1200 -0.4550
  endloop
 endfacet
 facet normal 0.00000 -1.00000 0.00000
  outer loop
   vertex -1.0000 1.1200 -0.4550
   vertex 1.0000 1.1200 -0.4550
   vertex 1.0000 1.1200 -0.1050
  endloop
 endfacet
 facet normal 0.00000 -1.00000 0.00000
  outer loop
   vertex -1.0000 1.1200 -0.4550
   vertex 1.0000 1.1200 -0.1050
   vertex -1.0000 1.1200 -0.1050
  endloop
 endfacet
 facet normal 0.00000 1.00000 0.00000
  outer loop
   vertex -1.0000 1.0000 -0.1050
   vertex 1.0000 1.0000 -0.1050
   vertex 1.0000 1.0000 -0.4550
  endloop
 endfacet
 facet normal 0.00000 1.00000 0.00000
  outer loop
   vertex -1.0000 1.0000 -0.1050
   vertex 1.0000 1.0000 -0.4550
   vertex -1.0000 1.0000 -0.4550
  endloop
 endfacet
 facet normal -0.50000 0.00000 -0.86603
  outer loop
   vertex -0.9500 -0.0050 -0.3600
   vertex -1.0020 -0.0050 -0.3300
   vertex -1.0020 0.8450 -0.3300
  endloop
 endfacet
 facet normal -0.50000 0.00000 -0.86603
  outer loop
   vertex -0.9500 -0.0050 -0.3600
   vertex -1.0020 0.8450 -0.3300
   vertex -0.9500 0.8450 -0.3600
  endloop
 endfacet
 facet normal 0.00000 -1.00000 0.00000
  outer loop
   vertex -0.9500 -0.0050 -0.3000
   vertex -1.0020 -0.0050 -0.3300
   vertex -0.9500 -0.0050 -0.3600
  endloop
 endfacet
 facet normal 0.00000 1.00000 0.00000
  outer loop
   vertex -0.9500 0.8450 -0.3000
   vertex -0.9500 0.8450 -0.3600
   vertex -1.0020 0.8450 -0.3300
  endloop
 endfacet
 facet normal -1.00000 0.00000 0.00000
  outer loop
   vertex -1.0020 -0.0050 -0.3300
   vertex -1.0020 -0.0050 -0.2700
   vertex -1.0020 0.8450 -0.2700
  endloop
 endfacet
 facet normal -1.00000 0.00000 0.00000
  outer loop
   vertex -1.0020 -0.0050 -0.3300
   vertex -1.0020 0.8450 -0.2700
   vertex -1.0020 0.8450 -0.3300
  endloop
 endfacet
 facet normal 0.00000 -1.00000 0.00000
  outer loop
   vertex -0.9500 -0.0050 -0.3000
   vertex -1.0020 -0.0050 -0.2700
   vertex -1.0020 -0.0050 -0.3300
  endloop
 endfacet
 facet normal 0.00000 1.00000 0.00000
  outer loop
   vertex -0.9500 0.8450 -0.3000
   vertex -1.0020 0.8450 -0.3300
   vertex -1.0020 0.8450 -0.2700
  endloop
 endfacet
 facet normal -0.50000 0.00000 0.86603
  outer loop
   vertex -1.0020 -0.0050 -0.2700
   vertex -0.9500 -0.0050 -0.2400
   vertex -0.9500 0.8450 -0.2400
  endloop
 endfacet
 facet normal -0.50000 0.00000 0.86603
  outer loop
   vertex -1.0020 -0.0050 -0.2700
   vertex -0.9500 0.8450 -0.2400
   vertex -1.0020 0.8450 -0.2700
  endloop
 endfacet
 facet normal 0.00000 -1.00000 0.00000
  outer loop
   vertex -0.9500 -0.0050 -0.3000
   vertex -0.9500 -0.0050 -0.2400
   vertex -1.0020 -0.0050 -0.2700
  endloop
 endfacet
 facet normal 0.00000 1.00000 0.00000
  outer loop
   vertex -0.9500 0.8450 -0.3000
   vertex -1.0020 0.8450 -0.2700
   vertex -0.9500 0.8450 -0.2400
  endloop
 endfacet
 facet normal 0.50000 0.00000 0.86603
  outer loop
   vertex -0.9500 -0.0050 -0.2400
   vertex -0.8980 -0.0050 -0.2700
   vertex -0.8980 0.8450 -0.2700
  endloop
 endfacet
 facet normal 0.50000 0.00000 0.86603
  outer loop
   vertex -0.9500 -0.0050 -0.2400
   vertex -0.8980 0.8450 -0.2700
   vertex -0.9500 0.8450 -0.2400
  endloop
 endfacet
 facet normal 0.00000 -1.00000 0.00000
  outer loop
   vertex -0.9500 -0.0050 -0.3000
   vertex -0.8980 -0.0050 -0.2700
   vertex -0.9500 -0.0050 -0.2400
  endloop
 endfacet
 facet normal 0.00000 1.00000 0.00000
  outer loop
   vertex -0.9500 0.8450 -0.3000
   vertex -0.9500 0.8450 -0.2400
   vertex -0.8980 0.8450 -0.2700
  endloop
 endfacet
 facet normal 1.00000 0.00000 0.00000
  outer loop
   vertex -0.8980 -0.0050 -0.2700
   vertex -0.8980 -0.0050 -0.3300
   vertex -0.8980 0.8450 -0.3300
  endloop
 endfacet
 facet normal 1.00000 0.00000 0.00000
  outer loop
   vertex -0.8980 -0.0050 -0.2700
   vertex -0.8980 0.8450 -0.3300
   vertex -0.8980 0.8450 -0.2700
  endloop
 endfacet
 facet normal 0.00000 -1.00000 0.00000
  outer loop
   vertex -0.9500 -0.0050 -0.3000
   vertex -0.8980 -0.0050 -0.3300
   vertex -0.8980 -0.0050 -0.2700
  endloop
 endfacet
 facet normal 0.00000 1.00000 0.00000
  outer loop
   vertex -0.9500 0.8450 -0.3000
   vertex -0.8980 0.8450 -0.2700
   vertex -0.8980 0.8450 -0.3300
  endloop
 endfacet
 facet normal 0.50000 0.00000 -0.86603
  outer loop
   vertex -0.8980 -0.0050 -0.3300
   vertex -0.9500 -0.0050 -0.3600
   vertex -0.9500 0.8450 -0.3600
  endloop
 endfacet
 facet normal 0.50000 0.00000 -0.86603
  outer loop
   vertex -0.8980 -0.0050 -0.3300
   vertex -0.9500 0.8450 -0.3600
   vertex -0.8980 0.8450 -0.3300
  endloop
 endfacet
 facet normal 0.00000 -1.00000 0.00000
  outer loop
   vertex -0.9500 -0.0050 -0.3000
   vertex -0.9500 -0.0050 -0.3600
   vertex -0.8980 -0.0050 -0.3300
  endloop
 endfacet
 facet normal 0.00000 1.00000 0.00000
  outer loop
   vertex -0.9500 0.8450 -0.3000
   vertex -0.8980 0.8450 -0.3300
   vertex -0.9500 0.8450 -0.3600
  endloop
 endfacet
 facet normal -0.50000 0.00000 -0.86603
  outer loop
   vertex -0.9500 -0.0050 0.2400
   vertex -1.0020 -0.0050 0.2700
   vertex -1.0020 0.8450 0.2700
  endloop
 endfacet
 facet normal -0.50000 0.00000 -0.86603
  outer loop
   vertex -0.9500 -0.0050 0.2400
   vertex -1.0020 0.8450 0.2700
   vertex -0.9500 0.8450 0.2400
  endloop
 endfacet
 facet normal 0.00000 -1.00000 0.00000
  outer loop
   vertex -0.9500 -0.0050 0.3000
   vertex -1.0020 -0.0050 0.2700
   vertex -0.9500 -0.0050 0.2400
  endloop
 endfacet
 facet normal 0.00000 1.00000 0.00000
  outer loop
   vertex -0.9500 0.8450 0.3000
   vertex -0.9500 0.8450 0.2400
   vertex -1.0020 0.8450 0.2700
  endloop
 endfacet
 facet normal -1.00000 0.00000 0.00000
  outer loop
   vertex -1.0020 -0.0050 0.2700
   vertex -1.0020 -0.0050 0.3300
   vertex -1.0020 0.8450 0.3300
  endloop
 endfacet
 facet normal -1.00000 0.00000 0.00000
  outer loop
   vertex -1.0020 -0.0050 0.2700
   vertex -1.0020 0.8450 0.3300
   vertex -1.0020 0.8450 0.2700
  endloop
 endfacet
 facet normal 0.00000 -1.00000 0.00000
  outer loop
   vertex -0.9500 -0.0050 0.3000
   vertex -1.0020 -0.0050 0.3300
   vertex -1.0020 -0.0050 0.2700
  endloop
 endfacet
 facet normal 0.00000 1.00000 0.00000
  outer loop
   vertex -0.9500 0.8450 0.3000
   vertex -1.0020 0.8450 0.2700
   vertex -1.0020 0.8450 0.3300
  endloop
 endfacet
 facet normal -0.50000 0.00000 0.86603
  outer loop
   vertex -1.0020 -0.0050 0.3300
   vertex -0.9500 -0.0050 0.3600
   vertex -0.9500 0.8450 0.3600
  endloop
 endfacet
 facet normal -0.50000 0.00000 0.86603
  outer loop
   vertex -1.0020 -0.0050 0.3300
   vertex -0.9500 0.8450 0.3600
   vertex -1.0020 0.8450 0.3300
  endloop
 endfacet
 facet normal 0.00000 -1.00000 0.00000
  outer loop
   vertex -0.9500 -0.0050 0.3000
   vertex -0.9500 -0.0050 0.3600
   vertex -1.0020 -0.0050 0.3300
  endloop
 endfacet
 facet normal 0.00000 1.00000 0.00000
  outer loop
   vertex -0.9500 0.8450 0.3000
   vertex -1.0020 0.8450 0.3300
   vertex -0.9500 0.8450 0.3600
  endloop
 endfacet
 facet normal 0.50000 0.00000 0.86603
  outer loop
   vertex -0.9500 -0.0050 0.3600
   vertex -0.8980 -0.0050 0.3300
   vertex -0.8980 0.8450 0.3300
  endloop
 endfacet
 facet normal 0.50000 0.00000 0.86603
  outer loop
   vertex -0.9500 -0.0050 0.3600
   vertex -0.8980 0.8450 0.3300
   vertex -0.9500 0.8450 0.3600
  endloop
 endfacet
 facet normal 0.00000 -1.00000 0.00000
  outer loop
   vertex -0.9500 -0.0050 0.3000
   vertex -0.8980 -0.0050 0.3300
   vertex -0.9500 -0.0050 0.3600
  endloop
 endfacet
 facet normal 0.00000 1.00000 0.00000
  outer loop
   vertex -0.9500 0.8450 0.3000
   vertex -0.9500 0.8450 0.3600
   vertex -0.8980 0.8450 0.3300
  endloop
 endfacet
 facet normal 1.00000 0.00000 0.00000
  outer loop
   vertex -0.8980 -0.0050 0.3300
   vertex -0.8980 -0.0050 0.2700
   vertex -0.8980 0.8450 0.2700
  endloop
 endfacet
 facet normal 1.00000 0.00000 0.00000
  outer loop
   vertex -0.8980 -0.0050 0.3300
   vertex -0.8980 0.8450 0.2700
   vertex -0.8980 0.8450 0.3300
  endloop
 endfacet
 facet normal 0.00000 -1.00000 0.00000
  outer loop
   vertex -0.9500 -0.0050 0.3000
   vertex -0.8980 -0.0050 0.2700
   vertex -0.8980 -0.0050 0.3300
  endloop
 endfacet
 facet normal 0.00000 1.00000 0.00000
  outer loop
   vertex -0.9500 0.8450 0.3000
   vertex -0.8980 0.8450 0.3300
   vertex -0.8980 0.8450 0.2700
  endloop
 endfacet
 facet normal 0.50000 0.00000 -0.86603
  outer loop
   vertex -0.8980 -0.0050 0.2700
   vertex -0.9500 -0.0050 0.2400
   vertex -0.9500 0.8450 0.2400
  endloop
 endfacet
 facet normal 0.50000 0.00000 -0.86603
  outer loop
   vertex -0.8980 -0.0050 0.2700
   vertex -0.9500 0.8450 0.2400
   vertex -0.8980 0.8450 0.2700
  endloop
 endfacet
 facet normal 0.00000 -1.00000 0.00000
  outer loop
   vertex -0.9500 -0.0050 0.3000
   vertex -0.9500 -0.0050 0.2400
   vertex -0.8980 -0.0050 0.2700
  endloop
 endfacet
 facet normal 0.00000 1.00000 0.00000
  outer loop
   vertex -0.9500 0.8450 0.3000
   vertex -0.8980 0.8450 0.2700
   vertex -0.9500 0.8450 0.2400
  endloop
 endfacet
 facet normal -0.50000 0.00000 -0.86603
  outer loop
   vertex 0.9500 -0.0050 -0.3600
   vertex 0.8980 -0.0050 -0.3300
   vertex 0.8980 0.8450 -0.3300
  endloop
 endfacet
 facet normal -0.50000 0.00000 -0.86603
  outer loop
   vertex 0.9500 -0.0050 -0.3600
   vertex 0.8980 0.8450 -0.3300
   vertex 0.9500 0.8450 -0.3600
  endloop
 endfacet
 facet normal 0.00000 -1.00000 0.00000
  outer loop
   vertex 0.9500 -0.0050 -0.3000
   vertex 0.8980 -0.0050 -0.3300
   vertex 0.9500 -0.0050 -0.3600
  endloop
 endfacet
 facet normal 0.00000 1.00000 0.00000
  outer loop
   vertex 0.9500 0.8450 -0.3000
   vertex 0.9500 0.8450 -0.3600
   vertex 0.8980 0.8450 -0.3300
  endloop
 endfacet
 facet normal -1.00000 0.00000 0.00000
  outer loop
   vertex 0.8980 -0.0050 -0.3300
   vertex 0.8980 -0.0050 -0.2700
   vertex 0.8980 0.8450 -0.2700
  endloop
 endfacet
 facet normal -1.00000 0.00000 0.00000
  outer loop
   vertex 0.8980 -0.0050 -0.3300
   vertex 0.8980 0.8450 -0.2700
   vertex 0.8980 0.8450 -0.3300
  endloop
 endfacet
 facet normal 0.00000 -1.00000 0.00000
  outer loop
   vertex 0.9500 -0.0050 -0.3000
   vertex 0.8980 -0.0050 -0.2700
   vertex 0.8980 -0.0050 -0.3300
  endloop
 endfacet
 facet normal 0.00000 1.00000 0.00000
  outer loop
   vertex 0.9500 0.8450 -0.3000
   vertex 0.8980 0.8450 -0.3300
   vertex 0.8980 0.8450 -0.2700
  endloop
 endfacet
 facet normal -0.50000 0.00000 0.86603
  outer loop
   vertex 0.8980 -0.0050 -0.2700
   vertex 0.9500 -0.0050 -0.2400
   vertex 0.9500 0.8450 -0.2400
  endloop
 endfacet
 facet normal -0.50000 0.00000 0.86603
  outer loop
   vertex 0.8980 -0.0050 -0.2700
   vertex 0.9500 0.8450 -0.2400
   vertex 0.8980 0.8450 -0.2700
  endloop
 endfacet
 facet normal 0.00000 -1.00000 0.00000
  outer loop
   vertex 0.9500 -0.0050 -0.3000
   vertex 0.9500 -0.0050 -0.2400
   vertex 0.8980 -0.0050 -0.2700
  endloop
 endfacet
 facet normal 0.00000 1.00000 0.00000
  outer loop
   vertex 0.9500 0.8450 -0.3000
   vertex 0.8980 0.8450 -0.2700
   vertex 0.9500 0.8450 -0.2400
  endloop
 endfacet
 facet normal 0.50000 0.00000 0.86603
  outer loop
   vertex 0.9500 -0.0050 -0.2400
   vertex 1.0020 -0.0050 -0.2700
   vertex 1.0020 0.8450 -0.2700
  endloop
 endfacet
 facet normal 0.50000 0.00000 0.86603
  outer loop
   vertex 0.9500 -0.0050 -0.2400
   vertex 1.0020 0.8450 -0.2700
   vertex 0.9500 0.8450 -0.2400
  endloop
 endfacet
 facet normal 0.00000 -1.00000 0.00000
  outer loop
   vertex 0.9500 -0.0050 -0.3000
   vertex 1.0020 -0.0050 -0.2700
   vertex 0.9500 -0.0050 -0.2400
  endloop
 endfacet
 facet normal 0.00000 1.00000 0.00000
  outer loop
   vertex 0.9500 0.8450 -0.3000
   vertex 0.9500 0.8450 -0.2400
   vertex 1.0020 0.8450 -0.2700
  endloop
 endfacet
 facet normal 1.00000 0.00000 0.00000
  outer loop
   vertex 1.0020 -0.0050 -0.2700
   vertex 1.0020 -0.0050 -0.3300
   vertex 1.0020 0.8450 -0.3300
  endloop
 endfacet
 facet normal 1.00000 0.00000 0.00000
  outer loop
   vertex 1.0020 -0.0050 -0.2700
   vertex 1.0020 0.8450 -0.3300
   vertex 1.0020 0.8450 -0.2700
  endloop
 endfacet
 facet normal 0.00000 -1.00000 0.00000
  outer loop
   vertex 0.9500 -0.0050 -0.3000
   vertex 1.0020 -0.0050 -0.3300
   vertex 1.0020 -0.0050 -0.2700
  endloop
 endfacet
 facet normal 0.00000 1.00000 0.00000
  outer loop
   vertex 0.9500 0.8450 -0.3000
   vertex 1.0020 0.8450 -0.2700
   vertex 1.0020 0.8450 -0.3300
  endloop
 endfacet
 facet normal 0.50000 0.00000 -0.86603
  outer loop
   vertex 1.0020 -0.0050 -0.3300
   vertex 0.9500 -0.0050 -0.3600
   vertex 0.9500 0.8450 -0.3600
  endloop
 endfacet
 facet normal 0.50000 0.00000 -0.86603
  outer loop
   vertex 1.0020 -0.0050 -0.3300
   vertex 0.9500 0.8450 -0.3600
   vertex 1.0020 0.8450 -0.3300
  endloop
 endfacet
 facet normal 0.00000 -1.00000 0.00000
  outer loop
   vertex 0.9500 -0.0050 -0.3000
   vertex 0.9500 -0.0050 -0.3600
   vertex 1.0020 -0.0050 -0.3300
  endloop
 endfacet
 facet normal 0.00000 1.00000 0.00000
  outer loop
   vertex 0.9500 0.8450 -0.3000
   vertex 1.0020 0.8450 -0.3300
   vertex 0.9500 0.8450 -0.3600
  endloop
 endfacet
 facet normal -0.50000 0.00000 -0.86603
  outer loop
   vertex 0.9500 -0.0050 0.2400
   vertex 0.8980 -0.0050 0.2700
   vertex 0.8980 0.8450 0.2700
  endloop
 endfacet
 facet normal -0.50000 0.00000 -0.86603
  outer loop
   vertex 0.9500 -0.0050 0.2400
   vertex 0.8980 0.8450 0.2700
   vertex 0.9500 0.8450 0.2400
  endloop
 endfacet
 facet normal 0.00000 -1.00000 0.00000
  outer loop
   vertex 0.9500 -0.0050 0.3000
   vertex 0.8980 -0.0050 0.2700
   vertex 0.9500 -0.0050 0.2400
  endloop
 endfacet
 facet normal 0.00000 1.00000 0.00000
  outer loop
   vertex 0.9500 0.8450 0.3000
   vertex 0.9500 0.8450 0.2400
   vertex 0.8980 0.8450 0.2700
  endloop
 endfacet
 facet normal -1.00000 0.00000 0.00000
  outer loop
   vertex 0.8980 -0.0050 0.2700
   vertex 0.8980 -0.0050 0.3300
   vertex 0.8980 0.8450 0.3300
  endloop
 endfacet
 facet normal -1.00000 0.00000 0.00000
  outer loop
   vertex 0.8980 -0.0050 0.2700
   vertex 0.8980 0.8450 0.3300
   vertex 0.8980 0.8450 0.2700
  endloop
 endfacet
 facet normal 0.00000 -1.00000 0.00000
  outer loop
   vertex 0.9500 -0.0050 0.3000
   vertex 0.8980 -0.0050 0.3300
   vertex 0.8980 -0.0050 0.2700
  endloop
 endfacet
 facet normal 0.00000 1.00000 0.00000
  outer loop
   vertex 0.9500 0.8450 0.3000
   vertex 0.8980 0.8450 0.2700
   vertex 0.8980 0.8450 0.3300
  endloop
 endfacet
 facet normal -0.50000 0.00000 0.86603
  outer loop
   vertex 0.8980 -0.0050 0.3300
   vertex 0.9500 -0.0050 0.3600
   vertex 0.9500 0.8450 0.3600
  endloop
 endfacet
 facet normal -0.50000 0.00000 0.86603
  outer loop
   vertex 0.8980 -0.0050 0.3300
   vertex 0.9500 0.8450 0.3600
   vertex 0.8980 0.8450 0.3300
  endloop
 endfacet
 facet normal 0.00000 -1.00000 0.00000
  outer loop
   vertex 0.9500 -0.0050 0.3000
   vertex 0.9500 -0.0050 0.3600
   vertex 0.8980 -0.0050 0.3300
  endloop
 endfacet
 facet normal 0.00000 1.00000 0.00000
  outer loop
   vertex 0.9500 0.8450 0.3000
   vertex 0.8980 0.8450 0.3300
   vertex 0.9500 0.8450 0.3600
  endloop
 endfacet
 facet normal 0.50000 0.00000 0.86603
  outer loop
   vertex 0.9500 -0.0050 0.3600
   vertex 1.0020 -0.0050 0.3300
   vertex 1.0020 0.8450 0.3300
  endloop
 endfacet
 facet normal 0.50000 0.00000 0.86603
  outer loop
   vertex 0.9500 -0.0050 0.3600
   vertex 1.0020 0.8450 0.3300
   vertex 0.9500 0.8450 0.3600
  endloop
 endfacet
 facet normal 0.00000 -1.00000 0.00000
  outer loop
   vertex 0.9500 -0.0050 0.3000
   vertex 1.0020 -0.0050 0.3300
   vertex 0.9500 -0.0050 0.3600
  endloop
 endfacet
 facet normal 0.00000 1.00000 0.00000
  outer loop
   vertex 0.9500 0.8450 0.3000
   vertex 0.9500 0.8450 0.3600
   vertex 1.0020 0.8450 0.3300
  endloop
 endfacet
 facet normal 1.00000 0.00000 0.00000
  outer loop
   vertex 1.0020 -0.0050 0.3300
   vertex 1.0020 -0.0050 0.2700
   vertex 1.0020 0.8450 0.2700
  endloop
 endfacet
 facet normal 1.00000 0.00000 0.00000
  outer loop
   vertex 1.0020 -0.0050 0.3300
   vertex 1.0020 0.8450 0.2700
   vertex 1.0020 0.8450 0.3300
  endloop
 endfacet
 facet normal 0.00000 -1.00000 0.00000
  outer loop
   vertex 0.9500 -0.0050 0.3000
   vertex 1.0020 -0.0050 0.2700
   vertex 1.0020 -0.0050 0.3300
  endloop
 endfacet
 facet normal 0.00000 1.00000 0.00000
  outer loop
   vertex 0.9500 0.8450 0.3000
   vertex 1.0020 0.8450 0.3300
   vertex 1.0020 0.8450 0.2700
  endloop
 endfacet
 facet normal 0.50000 0.00000 -0.86603
  outer loop
   vertex 1.0020 -0.0050 0.2700
   vertex 0.9500 -0.0050 0.2400
   vertex 0.9500 0.8450 0.2400
  endloop
 endfacet
 facet normal 0.50000 0.00000 -0.86603
  outer loop
   vertex 1.0020 -0.0050 0.2700
   vertex 0.9500 0.8450 0.2400
   vertex 1.0020 0.8450 0.2700
  endloop
 endfacet
 facet normal 0.00000 -1.00000 0.00000
  outer loop
   vertex 0.9500 -0.0050 0.3000
   vertex 0.9500 -0.0050 0.2400
   vertex 1.0020 -0.0050 0.2700
  endloop
 endfacet
 facet normal 0.00000 1.00000 0.00000
  outer loop
   vertex 0.9500 0.8450 0.3000
   vertex 1.0020 0.8450 0.2700
   vertex 0.9500 0.8450 0.2400
  endloop
 endfacet
 facet normal 0.00000 0.00000 1.00000
  outer loop
   vertex -1.0000 1.0700 0.1900
   vertex 1.0000 1.0700 0.1900
   vertex 1.0000 1.1700 0.1900
  endloop
 endfacet
 facet normal 0.00000 0.00000 1.00000
  outer loop
   vertex -1.0000 1.0700 0.1900
   vertex 1.0000 1.1700 0.1900
   vertex -1.0000 1.1700 0.1900
  endloop
 endfacet
 facet normal 0.00000 0.00000 -1.00000
  outer loop
   vertex 1.0000 1.0700 0.3100
   vertex -1.0000 1.0700 0.3100
   vertex -1.0000 1.1700 0.3100
  endloop
 endfacet
 facet normal 0.00000 0.00000 -1.00000
  outer loop
   vertex 1.0000 1.0700 0.3100
   vertex -1.0000 1.1700 0.3100
   vertex 1.0000 1.1700 0.3100
  endloop
 endfacet
 facet normal 1.00000 0.00000 0.00000
  outer loop
   vertex -1.0000 1.0700 0.3100
   vertex -1.0000 1.0700 0.1900
   vertex -1.0000 1.1700 0.1900
  endloop
 endfacet
 facet normal 1.00000 0.00000 0.00000
  outer loop
   vertex -1.0000 1.0700 0.3100
   vertex -1.0000 1.1700 0.1900
   vertex -1.0000 1.1700 0.3100
  endloop
 endfacet
 facet normal -1.00000 0.00000 0.00000
  outer loop
   vertex 1.0000 1.0700 0.1900
   vertex 1.0000 1.0700 0.3100
   vertex 1.0000 1.1700 0.3100
  endloop
 endfacet
 facet normal -1.00000 0.00000 0.00000
  outer loop
   vertex 1.0000 1.0700 0.1900
   vertex 1.0000 1.1700 0.3100
   vertex 1.0000 1.1700 0.1900
  endloop
 endfacet
 facet normal 0.00000 -1.00000 0.00000
  outer loop
   vertex -1.0000 1.1700 0.1900
   vertex 1.0000 1.1700 0.1900
   vertex 1.0000 1.1700 0.3100
  endloop
 endfacet
 facet normal 0.00000 -1.00000 0.00000
  outer loop
   vertex -1.0000 1.1700 0.1900
   vertex 1.0000 1.1700 0.3100
   vertex -1.0000 1.1700 0.3100
  endloop
 endfacet
 facet normal 0.00000 1.00000 0.00000
  outer loop
   vertex -1.0000 1.0700 0.3100
   vertex 1.0000 1.0700 0.3100
   vertex 1.0000 1.0700 0.1900
  endloop
 endfacet
 facet normal 0.00000 1.00000 0.00000
  outer loop
   vertex -1.0000 1.0700 0.3100
   vertex 1.0000 1.0700 0.1900
   vertex -1.0000 1.0700 0.1900
  endloop
 endfacet
endsolid camilla_medica
