solid mochila_superviviente
 facet normal 0.00000 0.00000 1.00000
  outer loop
   vertex -0.5000 0.0500 -0.2400
   vertex 0.5000 0.0500 -0.2400
   vertex 0.5000 1.4500 -0.2400
  endloop
 endfacet
 facet normal 0.00000 0.00000 1.00000
  outer loop
   vertex -0.5000 0.0500 -0.2400
   vertex 0.5000 1.4500 -0.2400
   vertex -0.5000 1.4500 -0.2400
  endloop
 endfacet
 facet normal 0.00000 0.00000 -1.00000
  outer loop
   vertex 0.5000 0.0500 0.2400
   vertex -0.5000 0.0500 0.2400
   vertex -0.5000 1.4500 0.2400
  endloop
 endfacet
 facet normal 0.00000 0.00000 -1.00000
  outer loop
   vertex 0.5000 0.0500 0.2400
   vertex -0.5000 1.4500 0.2400
   vertex 0.5000 1.4500 0.2400
  endloop
 endfacet
 facet normal 1.00000 0.00000 0.00000
  outer loop
   vertex -0.5000 0.0500 0.2400
   vertex -0.5000 0.0500 -0.2400
   vertex -0.5000 1.4500 -0.2400
  endloop
 endfacet
 facet normal 1.00000 0.00000 0.00000
  outer loop
   vertex -0.5000 0.0500 0.2400
   vertex -0.5000 1.4500 -0.2400
   vertex -0.5000 1.4500 0.2400
  endloop
 endfacet
 facet normal -1.00000 0.00000 0.00000
  outer loop
   vertex 0.5000 0.0500 -0.2400
   vertex 0.5000 0.0500 0.2400
   vertex 0.5000 1.4500 0.2400
  endloop
 endfacet
 facet normal -1.00000 0.00000 0.00000
  outer loop
   vertex 0.5000 0.0500 -0.2400
   vertex 0.5000 1.4500 0.2400
   vertex 0.5000 1.4500 -0.2400
  endloop
 endfacet
 facet normal 0.00000 -1.00000 0.00000
  outer loop
   vertex -0.5000 1.4500 -0.2400
   vertex 0.5000 1.4500 -0.2400
   vertex 0.5000 1.4500 0.2400
  endloop
 endfacet
 facet normal 0.00000 -1.00000 0.00000
  outer loop
   vertex -0.5000 1.4500 -0.2400
   vertex 0.5000 1.4500 0.2400
   vertex -0.5000 1.4500 0.2400
  endloop
 endfacet
 facet normal 0.00000 1.00000 0.00000
  outer loop
   vertex -0.5000 0.0500 0.2400
   vertex 0.5000 0.0500 0.2400
   vertex 0.5000 0.0500 -0.2400
  endloop
 endfacet
 facet normal 0.00000 1.00000 0.00000
  outer loop
   vertex -0.5000 0.0500 0.2400
   vertex 0.5000 0.0500 -0.2400
   vertex -0.5000 0.0500 -0.2400
  endloop
 endfacet
 facet normal 0.00000 0.00000 1.00000
  outer loop
   vertex -0.3750 1.0400 0.0550
   vertex 0.3750 1.0400 0.0550
   vertex 0.3750 1.4600 0.0550
  endloop
 endfacet
 facet normal 0.00000 0.00000 1.00000
  outer loop
   vertex -0.3750 1.0400 0.0550
   vertex 0.3750 1.4600 0.0550
   vertex -0.3750 1.4600 0.0550
  endloop
 endfacet
 facet normal 0.00000 0.00000 -1.00000
  outer loop
   vertex 0.3750 1.0400 0.3050
   vertex -0.3750 1.0400 0.3050
   vertex -0.3750 1.4600 0.3050
  endloop
 endfacet
 facet normal 0.00000 0.00000 -1.00000
  outer loop
   vertex 0.3750 1.0400 0.3050
   vertex -0.3750 1.4600 0.3050
   vertex 0.3750 1.4600 0.3050
  endloop
 endfacet
 facet normal 1.00000 0.00000 0.00000
  outer loop
   vertex -0.3750 1.0400 0.3050
   vertex -0.3750 1.0400 0.0550
   vertex -0.3750 1.4600 0.0550
  endloop
 endfacet
 facet normal 1.00000 0.00000 0.00000
  outer loop
   vertex -0.3750 1.0400 0.3050
   vertex -0.3750 1.4600 0.0550
   vertex -0.3750 1.4600 0.3050
  endloop
 endfacet
 facet normal -1.00000 0.00000 0.00000
  outer loop
   vertex 0.3750 1.0400 0.0550
   vertex 0.3750 1.0400 0.3050
   vertex 0.3750 1.4600 0.3050
  endloop
 endfacet
 facet normal -1.00000 0.00000 0.00000
  outer loop
   vertex 0.3750 1.0400 0.0550
   vertex 0.3750 1.4600 0.3050
   vertex 0.3750 1.4600 0.0550
  endloop
 endfacet
 facet normal 0.00000 -1.00000 0.00000
  outer loop
   vertex -0.3750 1.4600 0.0550
   vertex 0.3750 1.4600 0.0550
   vertex 0.3750 1.4600 0.3050
  endloop
 endfacet
 facet normal 0.00000 -1.00000 0.00000
  outer loop
   vertex -0.3750 1.4600 0.0550
   vertex 0.3750 1.4600 0.3050
   vertex -0.3750 1.4600 0.3050
  endloop
 endfacet
 facet normal 0.00000 1.00000 0.00000
  outer loop
   vertex -0.3750 1.0400 0.3050
   vertex 0.3750 1.0400 0.3050
   vertex 0.3750 1.0400 0.0550
  endloop
 endfacet
 facet normal 0.00000 1.00000 0.00000
  outer loop
   vertex -0.3750 1.0400 0.3050
   vertex 0.3750 1.0400 0.0550
   vertex -0.3750 1.0400 0.0550
  endloop
 endfacet
 facet normal 0.00000 0.00000 1.00000
  outer loop
   vertex -0.4000 0.1250 0.0600
   vertex 0.4000 0.1250 0.0600
   vertex 0.4000 0.5750 0.0600
  endloop
 endfacet
 facet normal 0.00000 0.00000 1.00000
  outer loop
   vertex -0.4000 0.1250 0.0600
   vertex 0.4000 0.5750 0.0600
   vertex -0.4000 0.5750 0.0600
  endloop
 endfacet
 facet normal 0.00000 0.00000 -1.00000
  outer loop
   vertex 0.4000 0.1250 0.3000
   vertex -0.4000 0.1250 0.3000
   vertex -0.4000 0.5750 0.3000
  endloop
 endfacet
 facet normal 0.00000 0.00000 -1.00000
  outer loop
   vertex 0.4000 0.1250 0.3000
   vertex -0.4000 0.5750 0.3000
   vertex 0.4000 0.5750 0.3000
  endloop
 endfacet
 facet normal 1.00000 0.00000 0.00000
  outer loop
   vertex -0.4000 0.1250 0.3000
   vertex -0.4000 0.1250 0.0600
   vertex -0.4000 0.5750 0.0600
  endloop
 endfacet
 facet normal 1.00000 0.00000 0.00000
  outer loop
   vertex -0.4000 0.1250 0.3000
   vertex -0.4000 0.5750 0.0600
   vertex -0.4000 0.5750 0.3000
  endloop
 endfacet
 facet normal -1.00000 0.00000 0.00000
  outer loop
   vertex 0.4000 0.1250 0.0600
   vertex 0.4000 0.1250 0.3000
   vertex 0.4000 0.5750 0.3000
  endloop
 endfacet
 facet normal -1.00000 0.00000 0.00000
  outer loop
   vertex 0.4000 0.1250 0.0600
   vertex 0.4000 0.5750 0.3000
   vertex 0.4000 0.5750 0.0600
  endloop
 endfacet
 facet normal 0.00000 -1.00000 0.00000
  outer loop
   vertex -0.4000 0.5750 0.0600
   vertex 0.4000 0.5750 0.0600
   vertex 0.4000 0.5750 0.3000
  endloop
 endfacet
 facet normal 0.00000 -1.00000 0.00000
  outer loop
   vertex -0.4000 0.5750 0.0600
   vertex 0.4000 0.5750 0.3000
   vertex -0.4000 0.5750 0.3000
  endloop
 endfacet
 facet normal 0.00000 1.00000 0.00000
  outer loop
   vertex -0.4000 0.1250 0.3000
   vertex 0.4000 0.1250 0.3000
   vertex 0.4000 0.1250 0.0600
  endloop
 endfacet
 facet normal 0.00000 1.00000 0.00000
  outer loop
   vertex -0.4000 0.1250 0.3000
   vertex 0.4000 0.1250 0.0600
   vertex -0.4000 0.1250 0.0600
  endloop
 endfacet
 facet normal -0.43388 0.00000 0.90097
  outer loop
   vertex -0.3600 1.3500 0.1550
   vertex -0.4030 1.3500 0.1343
   vertex -0.4030 0.2500 0.1343
  endloop
 endfacet
 facet normal -0.43388 0.00000 0.90097
  outer loop
   vertex -0.3600 1.3500 0.1550
   vertex -0.4030 0.2500 0.1343
   vertex -0.3600 0.2500 0.1550
  endloop
 endfacet
 facet normal 0.00000 1.00000 0.00000
  outer loop
   vertex -0.3600 1.3500 0.1000
   vertex -0.4030 1.3500 0.1343
   vertex -0.3600 1.3500 0.1550
  endloop
 endfacet
 facet normal 0.00000 -1.00000 0.00000
  outer loop
   vertex -0.3600 0.2500 0.1000
   vertex -0.3600 0.2500 0.1550
   vertex -0.4030 0.2500 0.1343
  endloop
 endfacet
 facet normal -0.97493 0.00000 0.22252
  outer loop
   vertex -0.4030 1.3500 0.1343
   vertex -0.4136 1.3500 0.0878
   vertex -0.4136 0.2500 0.0878
  endloop
 endfacet
 facet normal -0.97493 0.00000 0.22252
  outer loop
   vertex -0.4030 1.3500 0.1343
   vertex -0.4136 0.2500 0.0878
   vertex -0.4030 0.2500 0.1343
  endloop
 endfacet
 facet normal 0.00000 1.00000 0.00000
  outer loop
   vertex -0.3600 1.3500 0.1000
   vertex -0.4136 1.3500 0.0878
   vertex -0.4030 1.3500 0.1343
  endloop
 endfacet
 facet normal 0.00000 -1.00000 0.00000
  outer loop
   vertex -0.3600 0.2500 0.1000
   vertex -0.4030 0.2500 0.1343
   vertex -0.4136 0.2500 0.0878
  endloop
 endfacet
 facet normal -0.78183 0.00000 -0.62349
  outer loop
   vertex -0.4136 1.3500 0.0878
   vertex -0.3839 1.3500 0.0504
   vertex -0.3839 0.2500 0.0504
  endloop
 endfacet
 facet normal -0.78183 0.00000 -0.62349
  outer loop
   vertex -0.4136 1.3500 0.0878
   vertex -0.3839 0.2500 0.0504
   vertex -0.4136 0.2500 0.0878
  endloop
 endfacet
 facet normal 0.00000 1.00000 0.00000
  outer loop
   vertex -0.3600 1.3500 0.1000
   vertex -0.3839 1.3500 0.0504
   vertex -0.4136 1.3500 0.0878
  endloop
 endfacet
 facet normal 0.00000 -1.00000 0.00000
  outer loop
   vertex -0.3600 0.2500 0.1000
   vertex -0.4136 0.2500 0.0878
   vertex -0.3839 0.2500 0.0504
  endloop
 endfacet
 facet normal 0.00000 0.00000 -1.00000
  outer loop
   vertex -0.3839 1.3500 0.0504
   vertex -0.3361 1.3500 0.0504
   vertex -0.3361 0.2500 0.0504
  endloop
 endfacet
 facet normal 0.00000 0.00000 -1.00000
  outer loop
   vertex -0.3839 1.3500 0.0504
   vertex -0.3361 0.2500 0.0504
   vertex -0.3839 0.2500 0.0504
  endloop
 endfacet
 facet normal 0.00000 1.00000 0.00000
  outer loop
   vertex -0.3600 1.3500 0.1000
   vertex -0.3361 1.3500 0.0504
   vertex -0.3839 1.3500 0.0504
  endloop
 endfacet
 facet normal 0.00000 -1.00000 0.00000
  outer loop
   vertex -0.3600 0.2500 0.1000
   vertex -0.3839 0.2500 0.0504
   vertex -0.3361 0.2500 0.0504
  endloop
 endfacet
 facet normal 0.78183 0.00000 -0.62349
  outer loop
   vertex -0.3361 1.3500 0.0504
   vertex -0.3064 1.3500 0.0878
   vertex -0.3064 0.2500 0.0878
  endloop
 endfacet
 facet normal 0.78183 0.00000 -0.62349
  outer loop
   vertex -0.3361 1.3500 0.0504
   vertex -0.3064 0.2500 0.0878
   vertex -0.3361 0.2500 0.0504
  endloop
 endfacet
 facet normal 0.00000 1.00000 0.00000
  outer loop
   vertex -0.3600 1.3500 0.1000
   vertex -0.3064 1.3500 0.0878
   vertex -0.3361 1.3500 0.0504
  endloop
 endfacet
 facet normal 0.00000 -1.00000 0.00000
  outer loop
   vertex -0.3600 0.2500 0.1000
   vertex -0.3361 0.2500 0.0504
   vertex -0.3064 0.2500 0.0878
  endloop
 endfacet
 facet normal 0.97493 0.00000 0.22252
  outer loop
   vertex -0.3064 1.3500 0.0878
   vertex -0.3170 1.3500 0.1343
   vertex -0.3170 0.2500 0.1343
  endloop
 endfacet
 facet normal 0.97493 0.00000 0.22252
  outer loop
   vertex -0.3064 1.3500 0.0878
   vertex -0.3170 0.2500 0.1343
   vertex -0.3064 0.2500 0.0878
  endloop
 endfacet
 facet normal 0.00000 1.00000 0.00000
  outer loop
   vertex -0.3600 1.3500 0.1000
   vertex -0.3170 1.3500 0.1343
   vertex -0.3064 1.3500 0.0878
  endloop
 endfacet
 facet normal 0.00000 -1.00000 0.00000
  outer loop
   vertex -0.3600 0.2500 0.1000
   vertex -0.3064 0.2500 0.0878
   vertex -0.3170 0.2500 0.1343
  endloop
 endfacet
 facet normal 0.43388 0.00000 0.90097
  outer loop
   vertex -0.3170 1.3500 0.1343
   vertex -0.3600 1.3500 0.1550
   vertex -0.3600 0.2500 0.1550
  endloop
 endfacet
 facet normal 0.43388 0.00000 0.90097
  outer loop
   vertex -0.3170 1.3500 0.1343
   vertex -0.3600 0.2500 0.1550
   vertex -0.3170 0.2500 0.1343
  endloop
 endfacet
 facet normal 0.00000 1.00000 0.00000
  outer loop
   vertex -0.3600 1.3500 0.1000
   vertex -0.3600 1.3500 0.1550
   vertex -0.3170 1.3500 0.1343
  endloop
 endfacet
 facet normal 0.00000 -1.00000 0.00000
  outer loop
   vertex -0.3600 0.2500 0.1000
   vertex -0.3170 0.2500 0.1343
   vertex -0.3600 0.2500 0.1550
  endloop
 endfacet
 facet normal -0.43388 0.00000 0.90097
  outer loop
   vertex 0.3600 1.3500 0.1550
   vertex 0.3170 1.3500 0.1343
   vertex 0.3170 0.2500 0.1343
  endloop
 endfacet
 facet normal -0.43388 0.00000 0.90097
  outer loop
   vertex 0.3600 1.3500 0.1550
   vertex 0.3170 0.2500 0.1343
   vertex 0.3600 0.2500 0.1550
  endloop
 endfacet
 facet normal 0.00000 1.00000 0.00000
  outer loop
   vertex 0.3600 1.3500 0.1000
   vertex 0.3170 1.3500 0.1343
   vertex 0.3600 1.3500 0.1550
  endloop
 endfacet
 facet normal 0.00000 -1.00000 0.00000
  outer loop
   vertex 0.3600 0.2500 0.1000
   vertex 0.3600 0.2500 0.1550
   vertex 0.3170 0.2500 0.1343
  endloop
 endfacet
 facet normal -0.97493 0.00000 0.22252
  outer loop
   vertex 0.3170 1.3500 0.1343
   vertex 0.3064 1.3500 0.0878
   vertex 0.3064 0.2500 0.0878
  endloop
 endfacet
 facet normal -0.97493 0.00000 0.22252
  outer loop
   vertex 0.3170 1.3500 0.1343
   vertex 0.3064 0.2500 0.0878
   vertex 0.3170 0.2500 0.1343
  endloop
 endfacet
 facet normal 0.00000 1.00000 0.00000
  outer loop
   vertex 0.3600 1.3500 0.1000
   vertex 0.3064 1.3500 0.0878
   vertex 0.3170 1.3500 0.1343
  endloop
 endfacet
 facet normal 0.00000 -1.00000 0.00000
  outer loop
   vertex 0.3600 0.2500 0.1000
   vertex 0.3170 0.2500 0.1343
   vertex 0.3064 0.2500 0.0878
  endloop
 endfacet
 facet normal -0.78183 0.00000 -0.62349
  outer loop
   vertex 0.3064 1.3500 0.0878
   vertex 0.3361 1.3500 0.0504
   vertex 0.3361 0.2500 0.0504
  endloop
 endfacet
 facet normal -0.78183 0.00000 -0.62349
  outer loop
   vertex 0.3064 1.3500 0.0878
   vertex 0.3361 0.2500 0.0504
   vertex 0.3064 0.2500 0.0878
  endloop
 endfacet
 facet normal 0.00000 1.00000 0.00000
  outer loop
   vertex 0.3600 1.3500 0.1000
   vertex 0.3361 1.3500 0.0504
   vertex 0.3064 1.3500 0.0878
  endloop
 endfacet
 facet normal 0.00000 -1.00000 0.00000
  outer loop
   vertex 0.3600 0.2500 0.1000
   vertex 0.3064 0.2500 0.0878
   vertex 0.3361 0.2500 0.0504
  endloop
 endfacet
 facet normal 0.00000 0.00000 -1.00000
  outer loop
   vertex 0.3361 1.3500 0.0504
   vertex 0.3839 1.3500 0.0504
   vertex 0.3839 0.2500 0.0504
  endloop
 endfacet
 facet normal 0.00000 0.00000 -1.00000
  outer loop
   vertex 0.3361 1.3500 0.0504
   vertex 0.3839 0.2500 0.0504
   vertex 0.3361 0.2500 0.0504
  endloop
 endfacet
 facet normal 0.00000 1.00000 0.00000
  outer loop
   vertex 0.3600 1.3500 0.1000
   vertex 0.3839 1.3500 0.0504
   vertex 0.3361 1.3500 0.0504
  endloop
 endfacet
 facet normal 0.00000 -1.00000 0.00000
  outer loop
   vertex 0.3600 0.2500 0.1000
   vertex 0.3361 0.2500 0.0504
   vertex 0.3839 0.2500 0.0504
  endloop
 endfacet
 facet normal 0.78183 0.00000 -0.62349
  outer loop
   vertex 0.3839 1.3500 0.0504
   vertex 0.4136 1.3500 0.0878
   vertex 0.4136 0.2500 0.0878
  endloop
 endfacet
 facet normal 0.78183 0.00000 -0.62349
  outer loop
   vertex 0.3839 1.3500 0.0504
   vertex 0.4136 0.2500 0.0878
   vertex 0.3839 0.2500 0.0504
  endloop
 endfacet
 facet normal 0.00000 1.00000 0.00000
  outer loop
   vertex 0.3600 1.3500 0.1000
   vertex 0.4136 1.3500 0.0878
   vertex 0.3839 1.3500 0.0504
  endloop
 endfacet
 facet normal 0.00000 -1.00000 0.00000
  outer loop
   vertex 0.3600 0.2500 0.1000
   vertex 0.3839 0.2500 0.0504
   vertex 0.4136 0.2500 0.0878
  endloop
 endfacet
 facet normal 0.97493 0.00000 0.22252
  outer loop
   vertex 0.4136 1.3500 0.0878
   vertex 0.4030 1.3500 0.1343
   vertex 0.4030 0.2500 0.1343
  endloop
 endfacet
 facet normal 0.97493 0.00000 0.22252
  outer loop
   vertex 0.4136 1.3500 0.0878
   vertex 0.4030 0.2500 0.1343
   vertex 0.4136 0.2500 0.0878
  endloop
 endfacet
 facet normal 0.00000 1.00000 0.00000
  outer loop
   vertex 0.3600 1.3500 0.1000
   vertex 0.4030 1.3500 0.1343
   vertex 0.4136 1.3500 0.0878
  endloop
 endfacet
 facet normal 0.00000 -1.00000 0.00000
  outer loop
   vertex 0.3600 0.2500 0.1000
   vertex 0.4136 0.2500 0.0878
   vertex 0.4030 0.2500 0.1343
  endloop
 endfacet
 facet normal 0.43388 0.00000 0.90097
  outer loop
   vertex 0.4030 1.3500 0.1343
   vertex 0.3600 1.3500 0.1550
   vertex 0.3600 0.2500 0.1550
  endloop
 endfacet
 facet normal 0.43388 0.00000 0.90097
  outer loop
   vertex 0.4030 1.3500 0.1343
   vertex 0.3600 0.2500 0.1550
   vertex 0.4030 0.2500 0.1343
  endloop
 endfacet
 facet normal 0.00000 1.00000 0.00000
  outer loop
   vertex 0.3600 1.3500 0.1000
   vertex 0.3600 1.3500 0.1550
   vertex 0.4030 1.3500 0.1343
  endloop
 endfacet
 facet normal 0.00000 -1.00000 0.00000
  outer loop
   vertex 0.3600 0.2500 0.1000
   vertex 0.4030 0.2500 0.1343
   vertex 0.3600 0.2500 0.1550
  endloop
 endfacet
 facet normal 0.00000 0.00000 1.00000
  outer loop
   vertex -0.3500 0.6450 0.2200
   vertex 0.3500 0.6450 0.2200
   vertex 0.3500 0.8950 0.2200
  endloop
 endfacet
 facet normal 0.00000 0.00000 1.00000
  outer loop
   vertex -0.3500 0.6450 0.2200
   vertex 0.3500 0.8950 0.2200
   vertex -0.3500 0.8950 0.2200
  endloop
 endfacet
 facet normal 0.00000 0.00000 -1.00000
  outer loop
   vertex 0.3500 0.6450 0.3200
   vertex -0.3500 0.6450 0.3200
   vertex -0.3500 0.8950 0.3200
  endloop
 endfacet
 facet normal 0.00000 0.00000 -1.00000
  outer loop
   vertex 0.3500 0.6450 0.3200
   vertex -0.3500 0.8950 0.3200
   vertex 0.3500 0.8950 0.3200
  endloop
 endfacet
 facet normal 1.00000 0.00000 0.00000
  outer loop
   vertex -0.3500 0.6450 0.3200
   vertex -0.3500 0.6450 0.2200
   vertex -0.3500 0.8950 0.2200
  endloop
 endfacet
 facet normal 1.00000 0.00000 0.00000
  outer loop
   vertex -0.3500 0.6450 0.3200
   vertex -0.3500 0.8950 0.2200
   vertex -0.3500 0.8950 0.3200
  endloop
 endfacet
 facet normal -1.00000 0.00000 0.00000
  outer loop
   vertex 0.3500 0.6450 0.2200
   vertex 0.3500 0.6450 0.3200
   vertex 0.3500 0.8950 0.3200
  endloop
 endfacet
 facet normal -1.00000 0.00000 0.00000
  outer loop
   vertex 0.3500 0.6450 0.2200
   vertex 0.3500 0.8950 0.3200
   vertex 0.3500 0.8950 0.2200
  endloop
 endfacet
 facet normal 0.00000 -1.00000 0.00000
  outer loop
   vertex -0.3500 0.8950 0.2200
   vertex 0.3500 0.8950 0.2200
   vertex 0.3500 0.8950 0.3200
  endloop
 endfacet
 facet normal 0.00000 -1.00000 0.00000
  outer loop
   vertex -0.3500 0.8950 0.2200
   vertex 0.3500 0.8950 0.3200
   vertex -0.3500 0.8950 0.3200
  endloop
 endfacet
 facet normal 0.00000 1.00000 0.00000
  outer loop
   vertex -0.3500 0.6450 0.3200
   vertex 0.3500 0.6450 0.3200
   vertex 0.3500 0.6450 0.2200
  endloop
 endfacet
 facet normal 0.00000 1.00000 0.00000
  outer loop
   vertex -0.3500 0.6450 0.3200
   vertex 0.3500 0.6450 0.2200
   vertex -0.3500 0.6450 0.2200
  endloop
 endfacet
endsolid mochila_superviviente
