solid enfermeria
 facet normal 0.00000 0.00000 1.00000
  outer loop
   vertex -6.0000 -0.3000 -4.5000
   vertex 6.0000 -0.3000 -4.5000
   vertex 6.0000 0.0000 -4.5000
  endloop
 endfacet
 facet normal 0.00000 0.00000 1.00000
  outer loop
   vertex -6.0000 -0.3000 -4.5000
   vertex 6.0000 0.0000 -4.5000
   vertex -6.0000 0.0000 -4.5000
  endloop
 endfacet
 facet normal 0.00000 0.00000 -1.00000
  outer loop
   vertex 6.0000 -0.3000 4.5000
   vertex -6.0000 -0.3000 4.5000
   vertex -6.0000 0.0000 4.5000
  endloop
 endfacet
 facet normal 0.00000 0.00000 -1.00000
  outer loop
   vertex 6.0000 -0.3000 4.5000
   vertex -6.0000 0.0000 4.5000
   vertex 6.0000 0.0000 4.5000
  endloop
 endfacet
 facet normal 1.00000 0.00000 0.00000
  outer loop
   vertex -6.0000 -0.3000 4.5000
   vertex -6.0000 -0.3000 -4.5000
   vertex -6.0000 0.0000 -4.5000
  endloop
 endfacet
 facet normal 1.00000 0.00000 0.00000
  outer loop
   vertex -6.0000 -0.3000 4.5000
   vertex -6.0000 0.0000 -4.5000
   vertex -6.0000 0.0000 4.5000
  endloop
 endfacet
 facet normal -1.00000 0.00000 0.00000
  outer loop
   vertex 6.0000 -0.3000 -4.5000
   vertex 6.0000 -0.3000 4.5000
   vertex 6.0000 0.0000 4.5000
  endloop
 endfacet
 facet normal -1.00000 0.00000 0.00000
  outer loop
   vertex 6.0000 -0.3000 -4.5000
   vertex 6.0000 0.0000 4.5000
   vertex 6.0000 0.0000 -4.5000
  endloop
 endfacet
 facet normal 0.00000 -1.00000 0.00000
  outer loop
   vertex -6.0000 0.0000 -4.5000
   vertex 6.0000 0.0000 -4.5000
   vertex 6.0000 0.0000 4.5000
  endloop
 endfacet
 facet normal 0.00000 -1.00000 0.00000
  outer loop
   vertex -6.0000 0.0000 -4.5000
   vertex 6.0000 0.0000 4.5000
   vertex -6.0000 0.0000 4.5000
  endloop
 endfacet
 facet normal 0.00000 1.00000 0.00000
  outer loop
   vertex -6.0000 -0.3000 4.5000
   vertex 6.0000 -0.3000 4.5000
   vertex 6.0000 -0.3000 -4.5000
  endloop
 endfacet
 facet normal 0.00000 1.00000 0.00000
  outer loop
   vertex -6.0000 -0.3000 4.5000
   vertex 6.0000 -0.3000 -4.5000
   vertex -6.0000 -0.3000 -4.5000
  endloop
 endfacet
 facet normal 0.00000 0.00000 1.00000
  outer loop
   vertex -6.0000 0.0000 -4.4500
   vertex 6.0000 0.0000 -4.4500
   vertex 6.0000 5.0000 -4.4500
  endloop
 endfacet
 facet normal 0.00000 0.00000 1.00000
  outer loop
   vertex -6.0000 0.0000 -4.4500
   vertex 6.0000 5.0000 -4.4500
   vertex -6.0000 5.0000 -4.4500
  endloop
 endfacet
 facet normal 0.00000 0.00000 -1.00000
  outer loop
   vertex 6.0000 0.0000 -4.1500
   vertex -6.0000 0.0000 -4.1500
   vertex -6.0000 5.0000 -4.1500
  endloop
 endfacet
 facet normal 0.00000 0.00000 -1.00000
  outer loop
   vertex 6.0000 0.0000 -4.1500
   vertex -6.0000 5.0000 -4.1500
   vertex 6.0000 5.0000 -4.1500
  endloop
 endfacet
 facet normal 1.00000 0.00000 0.00000
  outer loop
   vertex -6.0000 0.0000 -4.1500
   vertex -6.0000 0.0000 -4.4500
   vertex -6.0000 5.0000 -4.4500
  endloop
 endfacet
 facet normal 1.00000 0.00000 0.00000
  outer loop
   vertex -6.0000 0.0000 -4.1500
   vertex -6.0000 5.0000 -4.4500
   vertex -6.0000 5.0000 -4.1500
  endloop
 endfacet
 facet normal -1.00000 0.00000 0.00000
  outer loop
   vertex 6.0000 0.0000 -4.4500
   vertex 6.0000 0.0000 -4.1500
   vertex 6.0000 5.0000 -4.1500
  endloop
 endfacet
 facet normal -1.00000 0.00000 0.00000
  outer loop
   vertex 6.0000 0.0000 -4.4500
   vertex 6.0000 5.0000 -4.1500
   vertex 6.0000 5.0000 -4.4500
  endloop
 endfacet
 facet normal 0.00000 -1.00000 0.00000
  outer loop
   vertex -6.0000 5.0000 -4.4500
   vertex 6.0000 5.0000 -4.4500
   vertex 6.0000 5.0000 -4.1500
  endloop
 endfacet
 facet normal 0.00000 -1.00000 0.00000
  outer loop
   vertex -6.0000 5.0000 -4.4500
   vertex 6.0000 5.0000 -4.1500
   vertex -6.0000 5.0000 -4.1500
  endloop
 endfacet
 facet normal 0.00000 1.00000 0.00000
  outer loop
   vertex -6.0000 0.0000 -4.1500
   vertex 6.0000 0.0000 -4.1500
   vertex 6.0000 0.0000 -4.4500
  endloop
 endfacet
 facet normal 0.00000 1.00000 0.00000
  outer loop
   vertex -6.0000 0.0000 -4.1500
   vertex 6.0000 0.0000 -4.4500
   vertex -6.0000 0.0000 -4.4500
  endloop
 endfacet
 facet normal 0.00000 0.00000 1.00000
  outer loop
   vertex -5.9500 0.0000 -4.5000
   vertex -5.6500 0.0000 -4.5000
   vertex -5.6500 5.0000 -4.5000
  endloop
 endfacet
 facet normal 0.00000 0.00000 1.00000
  outer loop
   vertex -5.9500 0.0000 -4.5000
   vertex -5.6500 5.0000 -4.5000
   vertex -5.9500 5.0000 -4.5000
  endloop
 endfacet
 facet normal 0.00000 0.00000 -1.00000
  outer loop
   vertex -5.6500 0.0000 4.5000
   vertex -5.9500 0.0000 4.5000
   vertex -5.9500 5.0000 4.5000
  endloop
 endfacet
 facet normal 0.00000 0.00000 -1.00000
  outer loop
   vertex -5.6500 0.0000 4.5000
   vertex -5.9500 5.0000 4.5000
   vertex -5.6500 5.0000 4.5000
  endloop
 endfacet
 facet normal 1.00000 0.00000 0.00000
  outer loop
   vertex -5.9500 0.0000 4.5000
   vertex -5.9500 0.0000 -4.5000
   vertex -5.9500 5.0000 -4.5000
  endloop
 endfacet
 facet normal 1.00000 0.00000 0.00000
  outer loop
   vertex -5.9500 0.0000 4.5000
   vertex -5.9500 5.0000 -4.5000
   vertex -5.9500 5.0000 4.5000
  endloop
 endfacet
 facet normal -1.00000 0.00000 0.00000
  outer loop
   vertex -5.6500 0.0000 -4.5000
   vertex -5.6500 0.0000 4.5000
   vertex -5.6500 5.0000 4.5000
  endloop
 endfacet
 facet normal -1.00000 0.00000 0.00000
  outer loop
   vertex -5.6500 0.0000 -4.5000
   vertex -5.6500 5.0000 4.5000
   vertex -5.6500 5.0000 -4.5000
  endloop
 endfacet
 facet normal 0.00000 -1.00000 0.00000
  outer loop
   vertex -5.9500 5.0000 -4.5000
   vertex -5.6500 5.0000 -4.5000
   vertex -5.6500 5.0000 4.5000
  endloop
 endfacet
 facet normal 0.00000 -1.00000 0.00000
  outer loop
   vertex -5.9500 5.0000 -4.5000
   vertex -5.6500 5.0000 4.5000
   vertex -5.9500 5.0000 4.5000
  endloop
 endfacet
 facet normal 0.00000 1.00000 0.00000
  outer loop
   vertex -5.9500 0.0000 4.5000
   vertex -5.6500 0.0000 4.5000
   vertex -5.6500 0.0000 -4.5000
  endloop
 endfacet
 facet normal 0.00000 1.00000 0.00000
  outer loop
   vertex -5.9500 0.0000 4.5000
   vertex -5.6500 0.0000 -4.5000
   vertex -5.9500 0.0000 -4.5000
  endloop
 endfacet
 facet normal 0.00000 0.00000 1.00000
  outer loop
   vertex 5.6500 0.0000 -4.5000
   vertex 5.9500 0.0000 -4.5000
   vertex 5.9500 5.0000 -4.5000
  endloop
 endfacet
 facet normal 0.00000 0.00000 1.00000
  outer loop
   vertex 5.6500 0.0000 -4.5000
   vertex 5.9500 5.0000 -4.5000
   vertex 5.6500 5.0000 -4.5000
  endloop
 endfacet
 facet normal 0.00000 0.00000 -1.00000
  outer loop
   vertex 5.9500 0.0000 4.5000
   vertex 5.6500 0.0000 4.5000
   vertex 5.6500 5.0000 4.5000
  endloop
 endfacet
 facet normal 0.00000 0.00000 -1.00000
  outer loop
   vertex 5.9500 0.0000 4.5000
   vertex 5.6500 5.0000 4.5000
   vertex 5.9500 5.0000 4.5000
  endloop
 endfacet
 facet normal 1.00000 0.00000 0.00000
  outer loop
   vertex 5.6500 0.0000 4.5000
   vertex 5.6500 0.0000 -4.5000
   vertex 5.6500 5.0000 -4.5000
  endloop
 endfacet
 facet normal 1.00000 0.00000 0.00000
  outer loop
   vertex 5.6500 0.0000 4.5000
   vertex 5.6500 5.0000 -4.5000
   vertex 5.6500 5.0000 4.5000
  endloop
 endfacet
 facet normal -1.00000 0.00000 0.00000
  outer loop
   vertex 5.9500 0.0000 -4.5000
   vertex 5.9500 0.0000 4.5000
   vertex 5.9500 5.0000 4.5000
  endloop
 endfacet
 facet normal -1.00000 0.00000 0.00000
  outer loop
   vertex 5.9500 0.0000 -4.5000
   vertex 5.9500 5.0000 4.5000
   vertex 5.9500 5.0000 -4.5000
  endloop
 endfacet
 facet normal 0.00000 -1.00000 0.00000
  outer loop
   vertex 5.6500 5.0000 -4.5000
   vertex 5.9500 5.0000 -4.5000
   vertex 5.9500 5.0000 4.5000
  endloop
 endfacet
 facet normal 0.00000 -1.00000 0.00000
  outer loop
   vertex 5.6500 5.0000 -4.5000
   vertex 5.9500 5.0000 4.5000
   vertex 5.6500 5.0000 4.5000
  endloop
 endfacet
 facet normal 0.00000 1.00000 0.00000
  outer loop
   vertex 5.6500 0.0000 4.5000
   vertex 5.9500 0.0000 4.5000
   vertex 5.9500 0.0000 -4.5000
  endloop
 endfacet
 facet normal 0.00000 1.00000 0.00000
  outer loop
   vertex 5.6500 0.0000 4.5000
   vertex 5.9500 0.0000 -4.5000
   vertex 5.6500 0.0000 -4.5000
  endloop
 endfacet
 facet normal 0.00000 0.00000 1.00000
  outer loop
   vertex -5.0500 0.5750 -2.4500
   vertex -2.5500 0.5750 -2.4500
   vertex -2.5500 0.8250 -2.4500
  endloop
 endfacet
 facet normal 0.00000 0.00000 1.00000
  outer loop
   vertex -5.0500 0.5750 -2.4500
   vertex -2.5500 0.8250 -2.4500
   vertex -5.0500 0.8250 -2.4500
  endloop
 endfacet
 facet normal 0.00000 0.00000 -1.00000
  outer loop
   vertex -2.5500 0.5750 -1.1500
   vertex -5.0500 0.5750 -1.1500
   vertex -5.0500 0.8250 -1.1500
  endloop
 endfacet
 facet normal 0.00000 0.00000 -1.00000
  outer loop
   vertex -2.5500 0.5750 -1.1500
   vertex -5.0500 0.8250 -1.1500
   vertex -2.5500 0.8250 -1.1500
  endloop
 endfacet
 facet normal 1.00000 0.00000 0.00000
  outer loop
   vertex -5.0500 0.5750 -1.1500
   vertex -5.0500 0.5750 -2.4500
   vertex -5.0500 0.8250 -2.4500
  endloop
 endfacet
 facet normal 1.00000 0.00000 0.00000
  outer loop
   vertex -5.0500 0.5750 -1.1500
   vertex -5.0500 0.8250 -2.4500
   vertex -5.0500 0.8250 -1.1500
  endloop
 endfacet
 facet normal -1.00000 0.00000 0.00000
  outer loop
   vertex -2.5500 0.5750 -2.4500
   vertex -2.5500 0.5750 -1.1500
   vertex -2.5500 0.8250 -1.1500
  endloop
 endfacet
 facet normal -1.00000 0.00000 0.00000
  outer loop
   vertex -2.5500 0.5750 -2.4500
   vertex -2.5500 0.8250 -1.1500
   vertex -2.5500 0.8250 -2.4500
  endloop
 endfacet
 facet normal 0.00000 -1.00000 0.00000
  outer loop
   vertex -5.0500 0.8250 -2.4500
   vertex -2.5500 0.8250 -2.4500
   vertex -2.5500 0.8250 -1.1500
  endloop
 endfacet
 facet normal 0.00000 -1.00000 0.00000
  outer loop
   vertex -5.0500 0.8250 -2.4500
   vertex -2.5500 0.8250 -1.1500
   vertex -5.0500 0.8250 -1.1500
  endloop
 endfacet
 facet normal 0.00000 1.00000 0.00000
  outer loop
   vertex -5.0500 0.5750 -1.1500
   vertex -2.5500 0.5750 -1.1500
   vertex -2.5500 0.5750 -2.4500
  endloop
 endfacet
 facet normal 0.00000 1.00000 0.00000
  outer loop
   vertex -5.0500 0.5750 -1.1500
   vertex -2.5500 0.5750 -2.4500
   vertex -5.0500 0.5750 -2.4500
  endloop
 endfacet
 facet normal 0.00000 0.00000 1.00000
  outer loop
   vertex -5.0250 0.8250 -1.8600
   vertex -2.5750 0.8250 -1.8600
   vertex -2.5750 1.2750 -1.8600
  endloop
 endfacet
 facet normal 0.00000 0.00000 1.00000
  outer loop
   vertex -5.0250 0.8250 -1.8600
   vertex -2.5750 1.2750 -1.8600
   vertex -5.0250 1.2750 -1.8600
  endloop
 endfacet
 facet normal 0.00000 0.00000 -1.00000
  outer loop
   vertex -2.5750 0.8250 -1.7400
   vertex -5.0250 0.8250 -1.7400
   vertex -5.0250 1.2750 -1.7400
  endloop
 endfacet
 facet normal 0.00000 0.00000 -1.00000
  outer loop
   vertex -2.5750 0.8250 -1.7400
   vertex -5.0250 1.2750 -1.7400
   vertex -2.5750 1.2750 -1.7400
  endloop
 endfacet
 facet normal 1.00000 0.00000 0.00000
  outer loop
   vertex -5.0250 0.8250 -1.7400
   vertex -5.0250 0.8250 -1.8600
   vertex -5.0250 1.2750 -1.8600
  endloop
 endfacet
 facet normal 1.00000 0.00000 0.00000
  outer loop
   vertex -5.0250 0.8250 -1.7400
   vertex -5.0250 1.2750 -1.8600
   vertex -5.0250 1.2750 -1.7400
  endloop
 endfacet
 facet normal -1.00000 0.00000 0.00000
  outer loop
   vertex -2.5750 0.8250 -1.8600
   vertex -2.5750 0.8250 -1.7400
   vertex -2.5750 1.2750 -1.7400
  endloop
 endfacet
 facet normal -1.00000 0.00000 0.00000
  outer loop
   vertex -2.5750 0.8250 -1.8600
   vertex -2.5750 1.2750 -1.7400
   vertex -2.5750 1.2750 -1.8600
  endloop
 endfacet
 facet normal 0.00000 -1.00000 0.00000
  outer loop
   vertex -5.0250 1.2750 -1.8600
   vertex -2.5750 1.2750 -1.8600
   vertex -2.5750 1.2750 -1.7400
  endloop
 endfacet
 facet normal 0.00000 -1.00000 0.00000
  outer loop
   vertex -5.0250 1.2750 -1.8600
   vertex -2.5750 1.2750 -1.7400
   vertex -5.0250 1.2750 -1.7400
  endloop
 endfacet
 facet normal 0.00000 1.00000 0.00000
  outer loop
   vertex -5.0250 0.8250 -1.7400
   vertex -2.5750 0.8250 -1.7400
   vertex -2.5750 0.8250 -1.8600
  endloop
 endfacet
 facet normal 0.00000 1.00000 0.00000
  outer loop
   vertex -5.0250 0.8250 -1.7400
   vertex -2.5750 0.8250 -1.8600
   vertex -5.0250 0.8250 -1.8600
  endloop
 endfacet
 facet normal 0.00000 0.00000 1.00000
  outer loop
   vertex -4.9500 0.9400 -2.4600
   vertex -2.6500 0.9400 -2.4600
   vertex -2.6500 1.0600 -2.4600
  endloop
 endfacet
 facet normal 0.00000 0.00000 1.00000
  outer loop
   vertex -4.9500 0.9400 -2.4600
   vertex -2.6500 1.0600 -2.4600
   vertex -4.9500 1.0600 -2.4600
  endloop
 endfacet
 facet normal 0.00000 0.00000 -1.00000
  outer loop
   vertex -2.6500 0.9400 -2.3400
   vertex -4.9500 0.9400 -2.3400
   vertex -4.9500 1.0600 -2.3400
  endloop
 endfacet
 facet normal 0.00000 0.00000 -1.00000
  outer loop
   vertex -2.6500 0.9400 -2.3400
   vertex -4.9500 1.0600 -2.3400
   vertex -2.6500 1.0600 -2.3400
  endloop
 endfacet
 facet normal 1.00000 0.00000 0.00000
  outer loop
   vertex -4.9500 0.9400 -2.3400
   vertex -4.9500 0.9400 -2.4600
   vertex -4.9500 1.0600 -2.4600
  endloop
 endfacet
 facet normal 1.00000 0.00000 0.00000
  outer loop
   vertex -4.9500 0.9400 -2.3400
   vertex -4.9500 1.0600 -2.4600
   vertex -4.9500 1.0600 -2.3400
  endloop
 endfacet
 facet normal -1.00000 0.00000 0.00000
  outer loop
   vertex -2.6500 0.9400 -2.4600
   vertex -2.6500 0.9400 -2.3400
   vertex -2.6500 1.0600 -2.3400
  endloop
 endfacet
 facet normal -1.00000 0.00000 0.00000
  outer loop
   vertex -2.6500 0.9400 -2.4600
   vertex -2.6500 1.0600 -2.3400
   vertex -2.6500 1.0600 -2.4600
  endloop
 endfacet
 facet normal 0.00000 -1.00000 0.00000
  outer loop
   vertex -4.9500 1.0600 -2.4600
   vertex -2.6500 1.0600 -2.4600
   vertex -2.6500 1.0600 -2.3400
  endloop
 endfacet
 facet normal 0.00000 -1.00000 0.00000
  outer loop
   vertex -4.9500 1.0600 -2.4600
   vertex -2.6500 1.0600 -2.3400
   vertex -4.9500 1.0600 -2.3400
  endloop
 endfacet
 facet normal 0.00000 1.00000 0.00000
  outer loop
   vertex -4.9500 0.9400 -2.3400
   vertex -2.6500 0.9400 -2.3400
   vertex -2.6500 0.9400 -2.4600
  endloop
 endfacet
 facet normal 0.00000 1.00000 0.00000
  outer loop
   vertex -4.9500 0.9400 -2.3400
   vertex -2.6500 0.9400 -2.4600
   vertex -4.9500 0.9400 -2.4600
  endloop
 endfacet
 facet normal -0.50000 0.00000 -0.86603
  outer loop
   vertex -4.8000 0.1000 -1.8600
   vertex -4.8520 0.1000 -1.8300
   vertex -4.8520 0.8000 -1.8300
  endloop
 endfacet
 facet normal -0.50000 0.00000 -0.86603
  outer loop
   vertex -4.8000 0.1000 -1.8600
   vertex -4.8520 0.8000 -1.8300
   vertex -4.8000 0.8000 -1.8600
  endloop
 endfacet
 facet normal 0.00000 -1.00000 0.00000
  outer loop
   vertex -4.8000 0.1000 -1.8000
   vertex -4.8520 0.1000 -1.8300
   vertex -4.8000 0.1000 -1.8600
  endloop
 endfacet
 facet normal 0.00000 1.00000 0.00000
  outer loop
   vertex -4.8000 0.8000 -1.8000
   vertex -4.8000 0.8000 -1.8600
   vertex -4.8520 0.8000 -1.8300
  endloop
 endfacet
 facet normal -1.00000 0.00000 0.00000
  outer loop
   vertex -4.8520 0.1000 -1.8300
   vertex -4.8520 0.1000 -1.7700
   vertex -4.8520 0.8000 -1.7700
  endloop
 endfacet
 facet normal -1.00000 0.00000 0.00000
  outer loop
   vertex -4.8520 0.1000 -1.8300
   vertex -4.8520 0.8000 -1.7700
   vertex -4.8520 0.8000 -1.8300
  endloop
 endfacet
 facet normal 0.00000 -1.00000 0.00000
  outer loop
   vertex -4.8000 0.1000 -1.8000
   vertex -4.8520 0.1000 -1.7700
   vertex -4.8520 0.1000 -1.8300
  endloop
 endfacet
 facet normal 0.00000 1.00000 0.00000
  outer loop
   vertex -4.8000 0.8000 -1.8000
   vertex -4.8520 0.8000 -1.8300
   vertex -4.8520 0.8000 -1.7700
  endloop
 endfacet
 facet normal -0.50000 0.00000 0.86603
  outer loop
   vertex -4.8520 0.1000 -1.7700
   vertex -4.8000 0.1000 -1.7400
   vertex -4.8000 0.8000 -1.7400
  endloop
 endfacet
 facet normal -0.50000 0.00000 0.86603
  outer loop
   vertex -4.8520 0.1000 -1.7700
   vertex -4.8000 0.8000 -1.7400
   vertex -4.8520 0.8000 -1.7700
  endloop
 endfacet
 facet normal 0.00000 -1.00000 0.00000
  outer loop
   vertex -4.8000 0.1000 -1.8000
   vertex -4.8000 0.1000 -1.7400
   vertex -4.8520 0.1000 -1.7700
  endloop
 endfacet
 facet normal 0.00000 1.00000 0.00000
  outer loop
   vertex -4.8000 0.8000 -1.8000
   vertex -4.8520 0.8000 -1.7700
   vertex -4.8000 0.8000 -1.7400
  endloop
 endfacet
 facet normal 0.50000 0.00000 0.86603
  outer loop
   vertex -4.8000 0.1000 -1.7400
   vertex -4.7480 0.1000 -1.7700
   vertex -4.7480 0.8000 -1.7700
  endloop
 endfacet
 facet normal 0.50000 0.00000 0.86603
  outer loop
   vertex -4.8000 0.1000 -1.7400
   vertex -4.7480 0.8000 -1.7700
   vertex -4.8000 0.8000 -1.7400
  endloop
 endfacet
 facet normal 0.00000 -1.00000 0.00000
  outer loop
   vertex -4.8000 0.1000 -1.8000
   vertex -4.7480 0.1000 -1.7700
   vertex -4.8000 0.1000 -1.7400
  endloop
 endfacet
 facet normal 0.00000 1.00000 0.00000
  outer loop
   vertex -4.8000 0.8000 -1.8000
   vertex -4.8000 0.8000 -1.7400
   vertex -4.7480 0.8000 -1.7700
  endloop
 endfacet
 facet normal 1.00000 0.00000 0.00000
  outer loop
   vertex -4.7480 0.1000 -1.7700
   vertex -4.7480 0.1000 -1.8300
   vertex -4.7480 0.8000 -1.8300
  endloop
 endfacet
 facet normal 1.00000 0.00000 0.00000
  outer loop
   vertex -4.7480 0.1000 -1.7700
   vertex -4.7480 0.8000 -1.8300
   vertex -4.7480 0.8000 -1.7700
  endloop
 endfacet
 facet normal 0.00000 -1.00000 0.00000
  outer loop
   vertex -4.8000 0.1000 -1.8000
   vertex -4.7480 0.1000 -1.8300
   vertex -4.7480 0.1000 -1.7700
  endloop
 endfacet
 facet normal 0.00000 1.00000 0.00000
  outer loop
   vertex -4.8000 0.8000 -1.8000
   vertex -4.7480 0.8000 -1.7700
   vertex -4.7480 0.8000 -1.8300
  endloop
 endfacet
 facet normal 0.50000 0.00000 -0.86603
  outer loop
   vertex -4.7480 0.1000 -1.8300
   vertex -4.8000 0.1000 -1.8600
   vertex -4.8000 0.8000 -1.8600
  endloop
 endfacet
 facet normal 0.50000 0.00000 -0.86603
  outer loop
   vertex -4.7480 0.1000 -1.8300
   vertex -4.8000 0.8000 -1.8600
   vertex -4.7480 0.8000 -1.8300
  endloop
 endfacet
 facet normal 0.00000 -1.00000 0.00000
  outer loop
   vertex -4.8000 0.1000 -1.8000
   vertex -4.8000 0.1000 -1.8600
   vertex -4.7480 0.1000 -1.8300
  endloop
 endfacet
 facet normal 0.00000 1.00000 0.00000
  outer loop
   vertex -4.8000 0.8000 -1.8000
   vertex -4.7480 0.8000 -1.8300
   vertex -4.8000 0.8000 -1.8600
  endloop
 endfacet
 facet normal -0.50000 0.00000 -0.86603
  outer loop
   vertex -2.8000 0.1000 -1.8600
   vertex -2.8520 0.1000 -1.8300
   vertex -2.8520 0.8000 -1.8300
  endloop
 endfacet
 facet normal -0.50000 0.00000 -0.86603
  outer loop
   vertex -2.8000 0.1000 -1.8600
   vertex -2.8520 0.8000 -1.8300
   vertex -2.8000 0.8000 -1.8600
  endloop
 endfacet
 facet normal 0.00000 -1.00000 0.00000
  outer loop
   vertex -2.8000 0.1000 -1.8000
   vertex -2.8520 0.1000 -1.8300
   vertex -2.8000 0.1000 -1.8600
  endloop
 endfacet
 facet normal 0.00000 1.00000 0.00000
  outer loop
   vertex -2.8000 0.8000 -1.8000
   vertex -2.8000 0.8000 -1.8600
   vertex -2.8520 0.8000 -1.8300
  endloop
 endfacet
 facet normal -1.00000 0.00000 0.00000
  outer loop
   vertex -2.8520 0.1000 -1.8300
   vertex -2.8520 0.1000 -1.7700
   vertex -2.8520 0.8000 -1.7700
  endloop
 endfacet
 facet normal -1.00000 0.00000 0.00000
  outer loop
   vertex -2.8520 0.1000 -1.8300
   vertex -2.8520 0.8000 -1.7700
   vertex -2.8520 0.8000 -1.8300
  endloop
 endfacet
 facet normal 0.00000 -1.00000 0.00000
  outer loop
   vertex -2.8000 0.1000 -1.8000
   vertex -2.8520 0.1000 -1.7700
   vertex -2.8520 0.1000 -1.8300
  endloop
 endfacet
 facet normal 0.00000 1.00000 0.00000
  outer loop
   vertex -2.8000 0.8000 -1.8000
   vertex -2.8520 0.8000 -1.8300
   vertex -2.8520 0.8000 -1.7700
  endloop
 endfacet
 facet normal -0.50000 0.00000 0.86603
  outer loop
   vertex -2.8520 0.1000 -1.7700
   vertex -2.8000 0.1000 -1.7400
   vertex -2.8000 0.8000 -1.7400
  endloop
 endfacet
 facet normal -0.50000 0.00000 0.86603
  outer loop
   vertex -2.8520 0.1000 -1.7700
   vertex -2.8000 0.8000 -1.7400
   vertex -2.8520 0.8000 -1.7700
  endloop
 endfacet
 facet normal 0.00000 -1.00000 0.00000
  outer loop
   vertex -2.8000 0.1000 -1.8000
   vertex -2.8000 0.1000 -1.7400
   vertex -2.8520 0.1000 -1.7700
  endloop
 endfacet
 facet normal 0.00000 1.00000 0.00000
  outer loop
   vertex -2.8000 0.8000 -1.8000
   vertex -2.8520 0.8000 -1.7700
   vertex -2.8000 0.8000 -1.7400
  endloop
 endfacet
 facet normal 0.50000 0.00000 0.86603
  outer loop
   vertex -2.8000 0.1000 -1.7400
   vertex -2.7480 0.1000 -1.7700
   vertex -2.7480 0.8000 -1.7700
  endloop
 endfacet
 facet normal 0.50000 0.00000 0.86603
  outer loop
   vertex -2.8000 0.1000 -1.7400
   vertex -2.7480 0.8000 -1.7700
   vertex -2.8000 0.8000 -1.7400
  endloop
 endfacet
 facet normal 0.00000 -1.00000 0.00000
  outer loop
   vertex -2.8000 0.1000 -1.8000
   vertex -2.7480 0.1000 -1.7700
   vertex -2.8000 0.1000 -1.7400
  endloop
 endfacet
 facet normal 0.00000 1.00000 0.00000
  outer loop
   vertex -2.8000 0.8000 -1.8000
   vertex -2.8000 0.8000 -1.7400
   vertex -2.7480 0.8000 -1.7700
  endloop
 endfacet
 facet normal 1.00000 0.00000 0.00000
  outer loop
   vertex -2.7480 0.1000 -1.7700
   vertex -2.7480 0.1000 -1.8300
   vertex -2.7480 0.8000 -1.8300
  endloop
 endfacet
 facet normal 1.00000 0.00000 0.00000
  outer loop
   vertex -2.7480 0.1000 -1.7700
   vertex -2.7480 0.8000 -1.8300
   vertex -2.7480 0.8000 -1.7700
  endloop
 endfacet
 facet normal 0.00000 -1.00000 0.00000
  outer loop
   vertex -2.8000 0.1000 -1.8000
   vertex -2.7480 0.1000 -1.8300
   vertex -2.7480 0.1000 -1.7700
  endloop
 endfacet
 facet normal 0.00000 1.00000 0.00000
  outer loop
   vertex -2.8000 0.8000 -1.8000
   vertex -2.7480 0.8000 -1.7700
   vertex -2.7480 0.8000 -1.8300
  endloop
 endfacet
 facet normal 0.50000 0.00000 -0.86603
  outer loop
   vertex -2.7480 0.1000 -1.8300
   vertex -2.8000 0.1000 -1.8600
   vertex -2.8000 0.8000 -1.8600
  endloop
 endfacet
 facet normal 0.50000 0.00000 -0.86603
  outer loop
   vertex -2.7480 0.1000 -1.8300
   vertex -2.8000 0.8000 -1.8600
   vertex -2.7480 0.8000 -1.8300
  endloop
 endfacet
 facet normal 0.00000 -1.00000 0.00000
  outer loop
   vertex -2.8000 0.1000 -1.8000
   vertex -2.8000 0.1000 -1.8600
   vertex -2.7480 0.1000 -1.8300
  endloop
 endfacet
 facet normal 0.00000 1.00000 0.00000
  outer loop
   vertex -2.8000 0.8000 -1.8000
   vertex -2.7480 0.8000 -1.8300
   vertex -2.8000 0.8000 -1.8600
  endloop
 endfacet
 facet normal 0.00000 0.00000 1.00000
  outer loop
   vertex -1.2500 0.5750 -2.4500
   vertex 1.2500 0.5750 -2.4500
   vertex 1.2500 0.8250 -2.4500
  endloop
 endfacet
 facet normal 0.00000 0.00000 1.00000
  outer loop
   vertex -1.2500 0.5750 -2.4500
   vertex 1.2500 0.8250 -2.4500
   vertex -1.2500 0.8250 -2.4500
  endloop
 endfacet
 facet normal 0.00000 0.00000 -1.00000
  outer loop
   vertex 1.2500 0.5750 -1.1500
   vertex -1.2500 0.5750 -1.1500
   vertex -1.2500 0.8250 -1.1500
  endloop
 endfacet
 facet normal 0.00000 0.00000 -1.00000
  outer loop
   vertex 1.2500 0.5750 -1.1500
   vertex -1.2500 0.8250 -1.1500
   vertex 1.2500 0.8250 -1.1500
  endloop
 endfacet
 facet normal 1.00000 0.00000 0.00000
  outer loop
   vertex -1.2500 0.5750 -1.1500
   vertex -1.2500 0.5750 -2.4500
   vertex -1.2500 0.8250 -2.4500
  endloop
 endfacet
 facet normal 1.00000 0.00000 0.00000
  outer loop
   vertex -1.2500 0.5750 -1.1500
   vertex -1.2500 0.8250 -2.4500
   vertex -1.2500 0.8250 -1.1500
  endloop
 endfacet
 facet normal -1.00000 0.00000 0.00000
  outer loop
   vertex 1.2500 0.5750 -2.4500
   vertex 1.2500 0.5750 -1.1500
   vertex 1.2500 0.8250 -1.1500
  endloop
 endfacet
 facet normal -1.00000 0.00000 0.00000
  outer loop
   vertex 1.2500 0.5750 -2.4500
   vertex 1.2500 0.8250 -1.1500
   vertex 1.2500 0.8250 -2.4500
  endloop
 endfacet
 facet normal 0.00000 -1.00000 0.00000
  outer loop
   vertex -1.2500 0.8250 -2.4500
   vertex 1.2500 0.8250 -2.4500
   vertex 1.2500 0.8250 -1.1500
  endloop
 endfacet
 facet normal 0.00000 -1.00000 0.00000
  outer loop
   vertex -1.2500 0.8250 -2.4500
   vertex 1.2500 0.8250 -1.1500
   vertex -1.2500 0.8250 -1.1500
  endloop
 endfacet
 facet normal 0.00000 1.00000 0.00000
  outer loop
   vertex -1.2500 0.5750 -1.1500
   vertex 1.2500 0.5750 -1.1500
   vertex 1.2500 0.5750 -2.4500
  endloop
 endfacet
 facet normal 0.00000 1.00000 0.00000
  outer loop
   vertex -1.2500 0.5750 -1.1500
   vertex 1.2500 0.5750 -2.4500
   vertex -1.2500 0.5750 -2.4500
  endloop
 endfacet
 facet normal 0.00000 0.00000 1.00000
  outer loop
   vertex -1.2250 0.8250 -1.8600
   vertex 1.2250 0.8250 -1.8600
   vertex 1.2250 1.2750 -1.8600
  endloop
 endfacet
 facet normal 0.00000 0.00000 1.00000
  outer loop
   vertex -1.2250 0.8250 -1.8600
   vertex 1.2250 1.2750 -1.8600
   vertex -1.2250 1.2750 -1.8600
  endloop
 endfacet
 facet normal 0.00000 0.00000 -1.00000
  outer loop
   vertex 1.2250 0.8250 -1.7400
   vertex -1.2250 0.8250 -1.7400
   vertex -1.2250 1.2750 -1.7400
  endloop
 endfacet
 facet normal 0.00000 0.00000 -1.00000
  outer loop
   vertex 1.2250 0.8250 -1.7400
   vertex -1.2250 1.2750 -1.7400
   vertex 1.2250 1.2750 -1.7400
  endloop
 endfacet
 facet normal 1.00000 0.00000 0.00000
  outer loop
   vertex -1.2250 0.8250 -1.7400
   vertex -1.2250 0.8250 -1.8600
   vertex -1.2250 1.2750 -1.8600
  endloop
 endfacet
 facet normal 1.00000 0.00000 0.00000
  outer loop
   vertex -1.2250 0.8250 -1.7400
   vertex -1.2250 1.2750 -1.8600
   vertex -1.2250 1.2750 -1.7400
  endloop
 endfacet
 facet normal -1.00000 0.00000 0.00000
  outer loop
   vertex 1.2250 0.8250 -1.8600
   vertex 1.2250 0.8250 -1.7400
   vertex 1.2250 1.2750 -1.7400
  endloop
 endfacet
 facet normal -1.00000 0.00000 0.00000
  outer loop
   vertex 1.2250 0.8250 -1.8600
   vertex 1.2250 1.2750 -1.7400
   vertex 1.2250 1.2750 -1.8600
  endloop
 endfacet
 facet normal 0.00000 -1.00000 0.00000
  outer loop
   vertex -1.2250 1.2750 -1.8600
   vertex 1.2250 1.2750 -1.8600
   vertex 1.2250 1.2750 -1.7400
  endloop
 endfacet
 facet normal 0.00000 -1.00000 0.00000
  outer loop
   vertex -1.2250 1.2750 -1.8600
   vertex 1.2250 1.2750 -1.7400
   vertex -1.2250 1.2750 -1.7400
  endloop
 endfacet
 facet normal 0.00000 1.00000 0.00000
  outer loop
   vertex -1.2250 0.8250 -1.7400
   vertex 1.2250 0.8250 -1.7400
   vertex 1.2250 0.8250 -1.8600
  endloop
 endfacet
 facet normal 0.00000 1.00000 0.00000
  outer loop
   vertex -1.2250 0.8250 -1.7400
   vertex 1.2250 0.8250 -1.8600
   vertex -1.2250 0.8250 -1.8600
  endloop
 endfacet
 facet normal 0.00000 0.00000 1.00000
  outer loop
   vertex -1.1500 0.9400 -2.4600
   vertex 1.1500 0.9400 -2.4600
   vertex 1.1500 1.0600 -2.4600
  endloop
 endfacet
 facet normal 0.00000 0.00000 1.00000
  outer loop
   vertex -1.1500 0.9400 -2.4600
   vertex 1.1500 1.0600 -2.4600
   vertex -1.1500 1.0600 -2.4600
  endloop
 endfacet
 facet normal 0.00000 0.00000 -1.00000
  outer loop
   vertex 1.1500 0.9400 -2.3400
   vertex -1.1500 0.9400 -2.3400
   vertex -1.1500 1.0600 -2.3400
  endloop
 endfacet
 facet normal 0.00000 0.00000 -1.00000
  outer loop
   vertex 1.1500 0.9400 -2.3400
   vertex -1.1500 1.0600 -2.3400
   vertex 1.1500 1.0600 -2.3400
  endloop
 endfacet
 facet normal 1.00000 0.00000 0.00000
  outer loop
   vertex -1.1500 0.9400 -2.3400
   vertex -1.1500 0.9400 -2.4600
   vertex -1.1500 1.0600 -2.4600
  endloop
 endfacet
 facet normal 1.00000 0.00000 0.00000
  outer loop
   vertex -1.1500 0.9400 -2.3400
   vertex -1.1500 1.0600 -2.4600
   vertex -1.1500 1.0600 -2.3400
  endloop
 endfacet
 facet normal -1.00000 0.00000 0.00000
  outer loop
   vertex 1.1500 0.9400 -2.4600
   vertex 1.1500 0.9400 -2.3400
   vertex 1.1500 1.0600 -2.3400
  endloop
 endfacet
 facet normal -1.00000 0.00000 0.00000
  outer loop
   vertex 1.1500 0.9400 -2.4600
   vertex 1.1500 1.0600 -2.3400
   vertex 1.1500 1.0600 -2.4600
  endloop
 endfacet
 facet normal 0.00000 -1.00000 0.00000
  outer loop
   vertex -1.1500 1.0600 -2.4600
   vertex 1.1500 1.0600 -2.4600
   vertex 1.1500 1.0600 -2.3400
  endloop
 endfacet
 facet normal 0.00000 -1.00000 0.00000
  outer loop
   vertex -1.1500 1.0600 -2.4600
   vertex 1.1500 1.0600 -2.3400
   vertex -1.1500 1.0600 -2.3400
  endloop
 endfacet
 facet normal 0.00000 1.00000 0.00000
  outer loop
   vertex -1.1500 0.9400 -2.3400
   vertex 1.1500 0.9400 -2.3400
   vertex 1.1500 0.9400 -2.4600
  endloop
 endfacet
 facet normal 0.00000 1.00000 0.00000
  outer loop
   vertex -1.1500 0.9400 -2.3400
   vertex 1.1500 0.9400 -2.4600
   vertex -1.1500 0.9400 -2.4600
  endloop
 endfacet
 facet normal -0.50000 0.00000 -0.86603
  outer loop
   vertex -1.0000 0.1000 -1.8600
   vertex -1.0520 0.1000 -1.8300
   vertex -1.0520 0.8000 -1.8300
  endloop
 endfacet
 facet normal -0.50000 0.00000 -0.86603
  outer loop
   vertex -1.0000 0.1000 -1.8600
   vertex -1.0520 0.8000 -1.8300
   vertex -1.0000 0.8000 -1.8600
  endloop
 endfacet
 facet normal 0.00000 -1.00000 0.00000
  outer loop
   vertex -1.0000 0.1000 -1.8000
   vertex -1.0520 0.1000 -1.8300
   vertex -1.0000 0.1000 -1.8600
  endloop
 endfacet
 facet normal 0.00000 1.00000 0.00000
  outer loop
   vertex -1.0000 0.8000 -1.8000
   vertex -1.0000 0.8000 -1.8600
   vertex -1.0520 0.8000 -1.8300
  endloop
 endfacet
 facet normal -1.00000 0.00000 0.00000
  outer loop
   vertex -1.0520 0.1000 -1.8300
   vertex -1.0520 0.1000 -1.7700
   vertex -1.0520 0.8000 -1.7700
  endloop
 endfacet
 facet normal -1.00000 0.00000 0.00000
  outer loop
   vertex -1.0520 0.1000 -1.8300
   vertex -1.0520 0.8000 -1.7700
   vertex -1.0520 0.8000 -1.8300
  endloop
 endfacet
 facet normal 0.00000 -1.00000 0.00000
  outer loop
   vertex -1.0000 0.1000 -1.8000
   vertex -1.0520 0.1000 -1.7700
   vertex -1.0520 0.1000 -1.8300
  endloop
 endfacet
 facet normal 0.00000 1.00000 0.00000
  outer loop
   vertex -1.0000 0.8000 -1.8000
   vertex -1.0520 0.8000 -1.8300
   vertex -1.0520 0.8000 -1.7700
  endloop
 endfacet
 facet normal -0.50000 0.00000 0.86603
  outer loop
   vertex -1.0520 0.1000 -1.7700
   vertex -1.0000 0.1000 -1.7400
   vertex -1.0000 0.8000 -1.7400
  endloop
 endfacet
 facet normal -0.50000 0.00000 0.86603
  outer loop
   vertex -1.0520 0.1000 -1.7700
   vertex -1.0000 0.8000 -1.7400
   vertex -1.0520 0.8000 -1.7700
  endloop
 endfacet
 facet normal 0.00000 -1.00000 0.00000
  outer loop
   vertex -1.0000 0.1000 -1.8000
   vertex -1.0000 0.1000 -1.7400
   vertex -1.0520 0.1000 -1.7700
  endloop
 endfacet
 facet normal 0.00000 1.00000 0.00000
  outer loop
   vertex -1.0000 0.8000 -1.8000
   vertex -1.0520 0.8000 -1.7700
   vertex -1.0000 0.8000 -1.7400
  endloop
 endfacet
 facet normal 0.50000 0.00000 0.86603
  outer loop
   vertex -1.0000 0.1000 -1.7400
   vertex -0.9480 0.1000 -1.7700
   vertex -0.9480 0.8000 -1.7700
  endloop
 endfacet
 facet normal 0.50000 0.00000 0.86603
  outer loop
   vertex -1.0000 0.1000 -1.7400
   vertex -0.9480 0.8000 -1.7700
   vertex -1.0000 0.8000 -1.7400
  endloop
 endfacet
 facet normal 0.00000 -1.00000 0.00000
  outer loop
   vertex -1.0000 0.1000 -1.8000
   vertex -0.9480 0.1000 -1.7700
   vertex -1.0000 0.1000 -1.7400
  endloop
 endfacet
 facet normal 0.00000 1.00000 0.00000
  outer loop
   vertex -1.0000 0.8000 -1.8000
   vertex -1.0000 0.8000 -1.7400
   vertex -0.9480 0.8000 -1.7700
  endloop
 endfacet
 facet normal 1.00000 0.00000 0.00000
  outer loop
   vertex -0.9480 0.1000 -1.7700
   vertex -0.9480 0.1000 -1.8300
   vertex -0.9480 0.8000 -1.8300
  endloop
 endfacet
 facet normal 1.00000 0.00000 0.00000
  outer loop
   vertex -0.9480 0.1000 -1.7700
   vertex -0.9480 0.8000 -1.8300
   vertex -0.9480 0.8000 -1.7700
  endloop
 endfacet
 facet normal 0.00000 -1.00000 0.00000
  outer loop
   vertex -1.0000 0.1000 -1.8000
   vertex -0.9480 0.1000 -1.8300
   vertex -0.9480 0.1000 -1.7700
  endloop
 endfacet
 facet normal 0.00000 1.00000 0.00000
  outer loop
   vertex -1.0000 0.8000 -1.8000
   vertex -0.9480 0.8000 -1.7700
   vertex -0.9480 0.8000 -1.8300
  endloop
 endfacet
 facet normal 0.50000 0.00000 -0.86603
  outer loop
   vertex -0.9480 0.1000 -1.8300
   vertex -1.0000 0.1000 -1.8600
   vertex -1.0000 0.8000 -1.8600
  endloop
 endfacet
 facet normal 0.50000 0.00000 -0.86603
  outer loop
   vertex -0.9480 0.1000 -1.8300
   vertex -1.0000 0.8000 -1.8600
   vertex -0.9480 0.8000 -1.8300
  endloop
 endfacet
 facet normal 0.00000 -1.00000 0.00000
  outer loop
   vertex -1.0000 0.1000 -1.8000
   vertex -1.0000 0.1000 -1.8600
   vertex -0.9480 0.1000 -1.8300
  endloop
 endfacet
 facet normal 0.00000 1.00000 0.00000
  outer loop
   vertex -1.0000 0.8000 -1.8000
   vertex -0.9480 0.8000 -1.8300
   vertex -1.0000 0.8000 -1.8600
  endloop
 endfacet
 facet normal -0.50000 0.00000 -0.86603
  outer loop
   vertex 1.0000 0.1000 -1.8600
   vertex 0.9480 0.1000 -1.8300
   vertex 0.9480 0.8000 -1.8300
  endloop
 endfacet
 facet normal -0.50000 0.00000 -0.86603
  outer loop
   vertex 1.0000 0.1000 -1.8600
   vertex 0.9480 0.8000 -1.8300
   vertex 1.0000 0.8000 -1.8600
  endloop
 endfacet
 facet normal 0.00000 -1.00000 0.00000
  outer loop
   vertex 1.0000 0.1000 -1.8000
   vertex 0.9480 0.1000 -1.8300
   vertex 1.0000 0.1000 -1.8600
  endloop
 endfacet
 facet normal 0.00000 1.00000 0.00000
  outer loop
   vertex 1.0000 0.8000 -1.8000
   vertex 1.0000 0.8000 -1.8600
   vertex 0.9480 0.8000 -1.8300
  endloop
 endfacet
 facet normal -1.00000 0.00000 0.00000
  outer loop
   vertex 0.9480 0.1000 -1.8300
   vertex 0.9480 0.1000 -1.7700
   vertex 0.9480 0.8000 -1.7700
  endloop
 endfacet
 facet normal -1.00000 0.00000 0.00000
  outer loop
   vertex 0.9480 0.1000 -1.8300
   vertex 0.9480 0.8000 -1.7700
   vertex 0.9480 0.8000 -1.8300
  endloop
 endfacet
 facet normal 0.00000 -1.00000 0.00000
  outer loop
   vertex 1.0000 0.1000 -1.8000
   vertex 0.9480 0.1000 -1.7700
   vertex 0.9480 0.1000 -1.8300
  endloop
 endfacet
 facet normal 0.00000 1.00000 0.00000
  outer loop
   vertex 1.0000 0.8000 -1.8000
   vertex 0.9480 0.8000 -1.8300
   vertex 0.9480 0.8000 -1.7700
  endloop
 endfacet
 facet normal -0.50000 0.00000 0.86603
  outer loop
   vertex 0.9480 0.1000 -1.7700
   vertex 1.0000 0.1000 -1.7400
   vertex 1.0000 0.8000 -1.7400
  endloop
 endfacet
 facet normal -0.50000 0.00000 0.86603
  outer loop
   vertex 0.9480 0.1000 -1.7700
   vertex 1.0000 0.8000 -1.7400
   vertex 0.9480 0.8000 -1.7700
  endloop
 endfacet
 facet normal 0.00000 -1.00000 0.00000
  outer loop
   vertex 1.0000 0.1000 -1.8000
   vertex 1.0000 0.1000 -1.7400
   vertex 0.9480 0.1000 -1.7700
  endloop
 endfacet
 facet normal 0.00000 1.00000 0.00000
  outer loop
   vertex 1.0000 0.8000 -1.8000
   vertex 0.9480 0.8000 -1.7700
   vertex 1.0000 0.8000 -1.7400
  endloop
 endfacet
 facet normal 0.50000 0.00000 0.86603
  outer loop
   vertex 1.0000 0.1000 -1.7400
   vertex 1.0520 0.1000 -1.7700
   vertex 1.0520 0.8000 -1.7700
  endloop
 endfacet
 facet normal 0.50000 0.00000 0.86603
  outer loop
   vertex 1.0000 0.1000 -1.7400
   vertex 1.0520 0.8000 -1.7700
   vertex 1.0000 0.8000 -1.7400
  endloop
 endfacet
 facet normal 0.00000 -1.00000 0.00000
  outer loop
   vertex 1.0000 0.1000 -1.8000
   vertex 1.0520 0.1000 -1.7700
   vertex 1.0000 0.1000 -1.7400
  endloop
 endfacet
 facet normal 0.00000 1.00000 0.00000
  outer loop
   vertex 1.0000 0.8000 -1.8000
   vertex 1.0000 0.8000 -1.7400
   vertex 1.0520 0.8000 -1.7700
  endloop
 endfacet
 facet normal 1.00000 0.00000 0.00000
  outer loop
   vertex 1.0520 0.1000 -1.7700
   vertex 1.0520 0.1000 -1.8300
   vertex 1.0520 0.8000 -1.8300
  endloop
 endfacet
 facet normal 1.00000 0.00000 0.00000
  outer loop
   vertex 1.0520 0.1000 -1.7700
   vertex 1.0520 0.8000 -1.8300
   vertex 1.0520 0.8000 -1.7700
  endloop
 endfacet
 facet normal 0.00000 -1.00000 0.00000
  outer loop
   vertex 1.0000 0.1000 -1.8000
   vertex 1.0520 0.1000 -1.8300
   vertex 1.0520 0.1000 -1.7700
  endloop
 endfacet
 facet normal 0.00000 1.00000 0.00000
  outer loop
   vertex 1.0000 0.8000 -1.8000
   vertex 1.0520 0.8000 -1.7700
   vertex 1.0520 0.8000 -1.8300
  endloop
 endfacet
 facet normal 0.50000 0.00000 -0.86603
  outer loop
   vertex 1.0520 0.1000 -1.8300
   vertex 1.0000 0.1000 -1.8600
   vertex 1.0000 0.8000 -1.8600
  endloop
 endfacet
 facet normal 0.50000 0.00000 -0.86603
  outer loop
   vertex 1.0520 0.1000 -1.8300
   vertex 1.0000 0.8000 -1.8600
   vertex 1.0520 0.8000 -1.8300
  endloop
 endfacet
 facet normal 0.00000 -1.00000 0.00000
  outer loop
   vertex 1.0000 0.1000 -1.8000
   vertex 1.0000 0.1000 -1.8600
   vertex 1.0520 0.1000 -1.8300
  endloop
 endfacet
 facet normal 0.00000 1.00000 0.00000
  outer loop
   vertex 1.0000 0.8000 -1.8000
   vertex 1.0520 0.8000 -1.8300
   vertex 1.0000 0.8000 -1.8600
  endloop
 endfacet
 facet normal 0.00000 0.00000 1.00000
  outer loop
   vertex 2.5500 0.5750 -2.4500
   vertex 5.0500 0.5750 -2.4500
   vertex 5.0500 0.8250 -2.4500
  endloop
 endfacet
 facet normal 0.00000 0.00000 1.00000
  outer loop
   vertex 2.5500 0.5750 -2.4500
   vertex 5.0500 0.8250 -2.4500
   vertex 2.5500 0.8250 -2.4500
  endloop
 endfacet
 facet normal 0.00000 0.00000 -1.00000
  outer loop
   vertex 5.0500 0.5750 -1.1500
   vertex 2.5500 0.5750 -1.1500
   vertex 2.5500 0.8250 -1.1500
  endloop
 endfacet
 facet normal 0.00000 0.00000 -1.00000
  outer loop
   vertex 5.0500 0.5750 -1.1500
   vertex 2.5500 0.8250 -1.1500
   vertex 5.0500 0.8250 -1.1500
  endloop
 endfacet
 facet normal 1.00000 0.00000 0.00000
  outer loop
   vertex 2.5500 0.5750 -1.1500
   vertex 2.5500 0.5750 -2.4500
   vertex 2.5500 0.8250 -2.4500
  endloop
 endfacet
 facet normal 1.00000 0.00000 0.00000
  outer loop
   vertex 2.5500 0.5750 -1.1500
   vertex 2.5500 0.8250 -2.4500
   vertex 2.5500 0.8250 -1.1500
  endloop
 endfacet
 facet normal -1.00000 0.00000 0.00000
  outer loop
   vertex 5.0500 0.5750 -2.4500
   vertex 5.0500 0.5750 -1.1500
   vertex 5.0500 0.8250 -1.1500
  endloop
 endfacet
 facet normal -1.00000 0.00000 0.00000
  outer loop
   vertex 5.0500 0.5750 -2.4500
   vertex 5.0500 0.8250 -1.1500
   vertex 5.0500 0.8250 -2.4500
  endloop
 endfacet
 facet normal 0.00000 -1.00000 0.00000
  outer loop
   vertex 2.5500 0.8250 -2.4500
   vertex 5.0500 0.8250 -2.4500
   vertex 5.0500 0.8250 -1.1500
  endloop
 endfacet
 facet normal 0.00000 -1.00000 0.00000
  outer loop
   vertex 2.5500 0.8250 -2.4500
   vertex 5.0500 0.8250 -1.1500
   vertex 2.5500 0.8250 -1.1500
  endloop
 endfacet
 facet normal 0.00000 1.00000 0.00000
  outer loop
   vertex 2.5500 0.5750 -1.1500
   vertex 5.0500 0.5750 -1.1500
   vertex 5.0500 0.5750 -2.4500
  endloop
 endfacet
 facet normal 0.00000 1.00000 0.00000
  outer loop
   vertex 2.5500 0.5750 -1.1500
   vertex 5.0500 0.5750 -2.4500
   vertex 2.5500 0.5750 -2.4500
  endloop
 endfacet
 facet normal 0.00000 0.00000 1.00000
  outer loop
   vertex 2.5750 0.8250 -1.8600
   vertex 5.0250 0.8250 -1.8600
   vertex 5.0250 1.2750 -1.8600
  endloop
 endfacet
 facet normal 0.00000 0.00000 1.00000
  outer loop
   vertex 2.5750 0.8250 -1.8600
   vertex 5.0250 1.2750 -1.8600
   vertex 2.5750 1.2750 -1.8600
  endloop
 endfacet
 facet normal 0.00000 0.00000 -1.00000
  outer loop
   vertex 5.0250 0.8250 -1.7400
   vertex 2.5750 0.8250 -1.7400
   vertex 2.5750 1.2750 -1.7400
  endloop
 endfacet
 facet normal 0.00000 0.00000 -1.00000
  outer loop
   vertex 5.0250 0.8250 -1.7400
   vertex 2.5750 1.2750 -1.7400
   vertex 5.0250 1.2750 -1.7400
  endloop
 endfacet
 facet normal 1.00000 0.00000 0.00000
  outer loop
   vertex 2.5750 0.8250 -1.7400
   vertex 2.5750 0.8250 -1.8600
   vertex 2.5750 1.2750 -1.8600
  endloop
 endfacet
 facet normal 1.00000 0.00000 0.00000
  outer loop
   vertex 2.5750 0.8250 -1.7400
   vertex 2.5750 1.2750 -1.8600
   vertex 2.5750 1.2750 -1.7400
  endloop
 endfacet
 facet normal -1.00000 0.00000 0.00000
  outer loop
   vertex 5.0250 0.8250 -1.8600
   vertex 5.0250 0.8250 -1.7400
   vertex 5.0250 1.2750 -1.7400
  endloop
 endfacet
 facet normal -1.00000 0.00000 0.00000
  outer loop
   vertex 5.0250 0.8250 -1.8600
   vertex 5.0250 1.2750 -1.7400
   vertex 5.0250 1.2750 -1.8600
  endloop
 endfacet
 facet normal 0.00000 -1.00000 0.00000
  outer loop
   vertex 2.5750 1.2750 -1.8600
   vertex 5.0250 1.2750 -1.8600
   vertex 5.0250 1.2750 -1.7400
  endloop
 endfacet
 facet normal 0.00000 -1.00000 0.00000
  outer loop
   vertex 2.5750 1.2750 -1.8600
   vertex 5.0250 1.2750 -1.7400
   vertex 2.5750 1.2750 -1.7400
  endloop
 endfacet
 facet normal 0.00000 1.00000 0.00000
  outer loop
   vertex 2.5750 0.8250 -1.7400
   vertex 5.0250 0.8250 -1.7400
   vertex 5.0250 0.8250 -1.8600
  endloop
 endfacet
 facet normal 0.00000 1.00000 0.00000
  outer loop
   vertex 2.5750 0.8250 -1.7400
   vertex 5.0250 0.8250 -1.8600
   vertex 2.5750 0.8250 -1.8600
  endloop
 endfacet
 facet normal 0.00000 0.00000 1.00000
  outer loop
   vertex 2.6500 0.9400 -2.4600
   vertex 4.9500 0.9400 -2.4600
   vertex 4.9500 1.0600 -2.4600
  endloop
 endfacet
 facet normal 0.00000 0.00000 1.00000
  outer loop
   vertex 2.6500 0.9400 -2.4600
   vertex 4.9500 1.0600 -2.4600
   vertex 2.6500 1.0600 -2.4600
  endloop
 endfacet
 facet normal 0.00000 0.00000 -1.00000
  outer loop
   vertex 4.9500 0.9400 -2.3400
   vertex 2.6500 0.9400 -2.3400
   vertex 2.6500 1.0600 -2.3400
  endloop
 endfacet
 facet normal 0.00000 0.00000 -1.00000
  outer loop
   vertex 4.9500 0.9400 -2.3400
   vertex 2.6500 1.0600 -2.3400
   vertex 4.9500 1.0600 -2.3400
  endloop
 endfacet
 facet normal 1.00000 0.00000 0.00000
  outer loop
   vertex 2.6500 0.9400 -2.3400
   vertex 2.6500 0.9400 -2.4600
   vertex 2.6500 1.0600 -2.4600
  endloop
 endfacet
 facet normal 1.00000 0.00000 0.00000
  outer loop
   vertex 2.6500 0.9400 -2.3400
   vertex 2.6500 1.0600 -2.4600
   vertex 2.6500 1.0600 -2.3400
  endloop
 endfacet
 facet normal -1.00000 0.00000 0.00000
  outer loop
   vertex 4.9500 0.9400 -2.4600
   vertex 4.9500 0.9400 -2.3400
   vertex 4.9500 1.0600 -2.3400
  endloop
 endfacet
 facet normal -1.00000 0.00000 0.00000
  outer loop
   vertex 4.9500 0.9400 -2.4600
   vertex 4.9500 1.0600 -2.3400
   vertex 4.9500 1.0600 -2.4600
  endloop
 endfacet
 facet normal 0.00000 -1.00000 0.00000
  outer loop
   vertex 2.6500 1.0600 -2.4600
   vertex 4.9500 1.0600 -2.4600
   vertex 4.9500 1.0600 -2.3400
  endloop
 endfacet
 facet normal 0.00000 -1.00000 0.00000
  outer loop
   vertex 2.6500 1.0600 -2.4600
   vertex 4.9500 1.0600 -2.3400
   vertex 2.6500 1.0600 -2.3400
  endloop
 endfacet
 facet normal 0.00000 1.00000 0.00000
  outer loop
   vertex 2.6500 0.9400 -2.3400
   vertex 4.9500 0.9400 -2.3400
   vertex 4.9500 0.9400 -2.4600
  endloop
 endfacet
 facet normal 0.00000 1.00000 0.00000
  outer loop
   vertex 2.6500 0.9400 -2.3400
   vertex 4.9500 0.9400 -2.4600
   vertex 2.6500 0.9400 -2.4600
  endloop
 endfacet
 facet normal -0.50000 0.00000 -0.86603
  outer loop
   vertex 2.8000 0.1000 -1.8600
   vertex 2.7480 0.1000 -1.8300
   vertex 2.7480 0.8000 -1.8300
  endloop
 endfacet
 facet normal -0.50000 0.00000 -0.86603
  outer loop
   vertex 2.8000 0.1000 -1.8600
   vertex 2.7480 0.8000 -1.8300
   vertex 2.8000 0.8000 -1.8600
  endloop
 endfacet
 facet normal 0.00000 -1.00000 0.00000
  outer loop
   vertex 2.8000 0.1000 -1.8000
   vertex 2.7480 0.1000 -1.8300
   vertex 2.8000 0.1000 -1.8600
  endloop
 endfacet
 facet normal 0.00000 1.00000 0.00000
  outer loop
   vertex 2.8000 0.8000 -1.8000
   vertex 2.8000 0.8000 -1.8600
   vertex 2.7480 0.8000 -1.8300
  endloop
 endfacet
 facet normal -1.00000 0.00000 0.00000
  outer loop
   vertex 2.7480 0.1000 -1.8300
   vertex 2.7480 0.1000 -1.7700
   vertex 2.7480 0.8000 -1.7700
  endloop
 endfacet
 facet normal -1.00000 0.00000 0.00000
  outer loop
   vertex 2.7480 0.1000 -1.8300
   vertex 2.7480 0.8000 -1.7700
   vertex 2.7480 0.8000 -1.8300
  endloop
 endfacet
 facet normal 0.00000 -1.00000 0.00000
  outer loop
   vertex 2.8000 0.1000 -1.8000
   vertex 2.7480 0.1000 -1.7700
   vertex 2.7480 0.1000 -1.8300
  endloop
 endfacet
 facet normal 0.00000 1.00000 0.00000
  outer loop
   vertex 2.8000 0.8000 -1.8000
   vertex 2.7480 0.8000 -1.8300
   vertex 2.7480 0.8000 -1.7700
  endloop
 endfacet
 facet normal -0.50000 0.00000 0.86603
  outer loop
   vertex 2.7480 0.1000 -1.7700
   vertex 2.8000 0.1000 -1.7400
   vertex 2.8000 0.8000 -1.7400
  endloop
 endfacet
 facet normal -0.50000 0.00000 0.86603
  outer loop
   vertex 2.7480 0.1000 -1.7700
   vertex 2.8000 0.8000 -1.7400
   vertex 2.7480 0.8000 -1.7700
  endloop
 endfacet
 facet normal 0.00000 -1.00000 0.00000
  outer loop
   vertex 2.8000 0.1000 -1.8000
   vertex 2.8000 0.1000 -1.7400
   vertex 2.7480 0.1000 -1.7700
  endloop
 endfacet
 facet normal 0.00000 1.00000 0.00000
  outer loop
   vertex 2.8000 0.8000 -1.8000
   vertex 2.7480 0.8000 -1.7700
   vertex 2.8000 0.8000 -1.7400
  endloop
 endfacet
 facet normal 0.50000 0.00000 0.86603
  outer loop
   vertex 2.8000 0.1000 -1.7400
   vertex 2.8520 0.1000 -1.7700
   vertex 2.8520 0.8000 -1.7700
  endloop
 endfacet
 facet normal 0.50000 0.00000 0.86603
  outer loop
   vertex 2.8000 0.1000 -1.7400
   vertex 2.8520 0.8000 -1.7700
   vertex 2.8000 0.8000 -1.7400
  endloop
 endfacet
 facet normal 0.00000 -1.00000 0.00000
  outer loop
   vertex 2.8000 0.1000 -1.8000
   vertex 2.8520 0.1000 -1.7700
   vertex 2.8000 0.1000 -1.7400
  endloop
 endfacet
 facet normal 0.00000 1.00000 0.00000
  outer loop
   vertex 2.8000 0.8000 -1.8000
   vertex 2.8000 0.8000 -1.7400
   vertex 2.8520 0.8000 -1.7700
  endloop
 endfacet
 facet normal 1.00000 0.00000 0.00000
  outer loop
   vertex 2.8520 0.1000 -1.7700
   vertex 2.8520 0.1000 -1.8300
   vertex 2.8520 0.8000 -1.8300
  endloop
 endfacet
 facet normal 1.00000 0.00000 0.00000
  outer loop
   vertex 2.8520 0.1000 -1.7700
   vertex 2.8520 0.8000 -1.8300
   vertex 2.8520 0.8000 -1.7700
  endloop
 endfacet
 facet normal 0.00000 -1.00000 0.00000
  outer loop
   vertex 2.8000 0.1000 -1.8000
   vertex 2.8520 0.1000 -1.8300
   vertex 2.8520 0.1000 -1.7700
  endloop
 endfacet
 facet normal 0.00000 1.00000 0.00000
  outer loop
   vertex 2.8000 0.8000 -1.8000
   vertex 2.8520 0.8000 -1.7700
   vertex 2.8520 0.8000 -1.8300
  endloop
 endfacet
 facet normal 0.50000 0.00000 -0.86603
  outer loop
   vertex 2.8520 0.1000 -1.8300
   vertex 2.8000 0.1000 -1.8600
   vertex 2.8000 0.8000 -1.8600
  endloop
 endfacet
 facet normal 0.50000 0.00000 -0.86603
  outer loop
   vertex 2.8520 0.1000 -1.8300
   vertex 2.8000 0.8000 -1.8600
   vertex 2.8520 0.8000 -1.8300
  endloop
 endfacet
 facet normal 0.00000 -1.00000 0.00000
  outer loop
   vertex 2.8000 0.1000 -1.8000
   vertex 2.8000 0.1000 -1.8600
   vertex 2.8520 0.1000 -1.8300
  endloop
 endfacet
 facet normal 0.00000 1.00000 0.00000
  outer loop
   vertex 2.8000 0.8000 -1.8000
   vertex 2.8520 0.8000 -1.8300
   vertex 2.8000 0.8000 -1.8600
  endloop
 endfacet
 facet normal -0.50000 0.00000 -0.86603
  outer loop
   vertex 4.8000 0.1000 -1.8600
   vertex 4.7480 0.1000 -1.8300
   vertex 4.7480 0.8000 -1.8300
  endloop
 endfacet
 facet normal -0.50000 0.00000 -0.86603
  outer loop
   vertex 4.8000 0.1000 -1.8600
   vertex 4.7480 0.8000 -1.8300
   vertex 4.8000 0.8000 -1.8600
  endloop
 endfacet
 facet normal 0.00000 -1.00000 0.00000
  outer loop
   vertex 4.8000 0.1000 -1.8000
   vertex 4.7480 0.1000 -1.8300
   vertex 4.8000 0.1000 -1.8600
  endloop
 endfacet
 facet normal 0.00000 1.00000 0.00000
  outer loop
   vertex 4.8000 0.8000 -1.8000
   vertex 4.8000 0.8000 -1.8600
   vertex 4.7480 0.8000 -1.8300
  endloop
 endfacet
 facet normal -1.00000 0.00000 0.00000
  outer loop
   vertex 4.7480 0.1000 -1.8300
   vertex 4.7480 0.1000 -1.7700
   vertex 4.7480 0.8000 -1.7700
  endloop
 endfacet
 facet normal -1.00000 0.00000 0.00000
  outer loop
   vertex 4.7480 0.1000 -1.8300
   vertex 4.7480 0.8000 -1.7700
   vertex 4.7480 0.8000 -1.8300
  endloop
 endfacet
 facet normal 0.00000 -1.00000 0.00000
  outer loop
   vertex 4.8000 0.1000 -1.8000
   vertex 4.7480 0.1000 -1.7700
   vertex 4.7480 0.1000 -1.8300
  endloop
 endfacet
 facet normal 0.00000 1.00000 0.00000
  outer loop
   vertex 4.8000 0.8000 -1.8000
   vertex 4.7480 0.8000 -1.8300
   vertex 4.7480 0.8000 -1.7700
  endloop
 endfacet
 facet normal -0.50000 0.00000 0.86603
  outer loop
   vertex 4.7480 0.1000 -1.7700
   vertex 4.8000 0.1000 -1.7400
   vertex 4.8000 0.8000 -1.7400
  endloop
 endfacet
 facet normal -0.50000 0.00000 0.86603
  outer loop
   vertex 4.7480 0.1000 -1.7700
   vertex 4.8000 0.8000 -1.7400
   vertex 4.7480 0.8000 -1.7700
  endloop
 endfacet
 facet normal 0.00000 -1.00000 0.00000
  outer loop
   vertex 4.8000 0.1000 -1.8000
   vertex 4.8000 0.1000 -1.7400
   vertex 4.7480 0.1000 -1.7700
  endloop
 endfacet
 facet normal 0.00000 1.00000 0.00000
  outer loop
   vertex 4.8000 0.8000 -1.8000
   vertex 4.7480 0.8000 -1.7700
   vertex 4.8000 0.8000 -1.7400
  endloop
 endfacet
 facet normal 0.50000 0.00000 0.86603
  outer loop
   vertex 4.8000 0.1000 -1.7400
   vertex 4.8520 0.1000 -1.7700
   vertex 4.8520 0.8000 -1.7700
  endloop
 endfacet
 facet normal 0.50000 0.00000 0.86603
  outer loop
   vertex 4.8000 0.1000 -1.7400
   vertex 4.8520 0.8000 -1.7700
   vertex 4.8000 0.8000 -1.7400
  endloop
 endfacet
 facet normal 0.00000 -1.00000 0.00000
  outer loop
   vertex 4.8000 0.1000 -1.8000
   vertex 4.8520 0.1000 -1.7700
   vertex 4.8000 0.1000 -1.7400
  endloop
 endfacet
 facet normal 0.00000 1.00000 0.00000
  outer loop
   vertex 4.8000 0.8000 -1.8000
   vertex 4.8000 0.8000 -1.7400
   vertex 4.8520 0.8000 -1.7700
  endloop
 endfacet
 facet normal 1.00000 0.00000 0.00000
  outer loop
   vertex 4.8520 0.1000 -1.7700
   vertex 4.8520 0.1000 -1.8300
   vertex 4.8520 0.8000 -1.8300
  endloop
 endfacet
 facet normal 1.00000 0.00000 0.00000
  outer loop
   vertex 4.8520 0.1000 -1.7700
   vertex 4.8520 0.8000 -1.8300
   vertex 4.8520 0.8000 -1.7700
  endloop
 endfacet
 facet normal 0.00000 -1.00000 0.00000
  outer loop
   vertex 4.8000 0.1000 -1.8000
   vertex 4.8520 0.1000 -1.8300
   vertex 4.8520 0.1000 -1.7700
  endloop
 endfacet
 facet normal 0.00000 1.00000 0.00000
  outer loop
   vertex 4.8000 0.8000 -1.8000
   vertex 4.8520 0.8000 -1.7700
   vertex 4.8520 0.8000 -1.8300
  endloop
 endfacet
 facet normal 0.50000 0.00000 -0.86603
  outer loop
   vertex 4.8520 0.1000 -1.8300
   vertex 4.8000 0.1000 -1.8600
   vertex 4.8000 0.8000 -1.8600
  endloop
 endfacet
 facet normal 0.50000 0.00000 -0.86603
  outer loop
   vertex 4.8520 0.1000 -1.8300
   vertex 4.8000 0.8000 -1.8600
   vertex 4.8520 0.8000 -1.8300
  endloop
 endfacet
 facet normal 0.00000 -1.00000 0.00000
  outer loop
   vertex 4.8000 0.1000 -1.8000
   vertex 4.8000 0.1000 -1.8600
   vertex 4.8520 0.1000 -1.8300
  endloop
 endfacet
 facet normal 0.00000 1.00000 0.00000
  outer loop
   vertex 4.8000 0.8000 -1.8000
   vertex 4.8520 0.8000 -1.8300
   vertex 4.8000 0.8000 -1.8600
  endloop
 endfacet
 facet normal 0.00000 0.00000 1.00000
  outer loop
   vertex -2.0000 0.8000 -4.0000
   vertex 2.0000 0.8000 -4.0000
   vertex 2.0000 1.2000 -4.0000
  endloop
 endfacet
 facet normal 0.00000 0.00000 1.00000
  outer loop
   vertex -2.0000 0.8000 -4.0000
   vertex 2.0000 1.2000 -4.0000
   vertex -2.0000 1.2000 -4.0000
  endloop
 endfacet
 facet normal 0.00000 0.00000 -1.00000
  outer loop
   vertex 2.0000 0.8000 -3.3000
   vertex -2.0000 0.8000 -3.3000
   vertex -2.0000 1.2000 -3.3000
  endloop
 endfacet
 facet normal 0.00000 0.00000 -1.00000
  outer loop
   vertex 2.0000 0.8000 -3.3000
   vertex -2.0000 1.2000 -3.3000
   vertex 2.0000 1.2000 -3.3000
  endloop
 endfacet
 facet normal 1.00000 0.00000 0.00000
  outer loop
   vertex -2.0000 0.8000 -3.3000
   vertex -2.0000 0.8000 -4.0000
   vertex -2.0000 1.2000 -4.0000
  endloop
 endfacet
 facet normal 1.00000 0.00000 0.00000
  outer loop
   vertex -2.0000 0.8000 -3.3000
   vertex -2.0000 1.2000 -4.0000
   vertex -2.0000 1.2000 -3.3000
  endloop
 endfacet
 facet normal -1.00000 0.00000 0.00000
  outer loop
   vertex 2.0000 0.8000 -4.0000
   vertex 2.0000 0.8000 -3.3000
   vertex 2.0000 1.2000 -3.3000
  endloop
 endfacet
 facet normal -1.00000 0.00000 0.00000
  outer loop
   vertex 2.0000 0.8000 -4.0000
   vertex 2.0000 1.2000 -3.3000
   vertex 2.0000 1.2000 -4.0000
  endloop
 endfacet
 facet normal 0.00000 -1.00000 0.00000
  outer loop
   vertex -2.0000 1.2000 -4.0000
   vertex 2.0000 1.2000 -4.0000
   vertex 2.0000 1.2000 -3.3000
  endloop
 endfacet
 facet normal 0.00000 -1.00000 0.00000
  outer loop
   vertex -2.0000 1.2000 -4.0000
   vertex 2.0000 1.2000 -3.3000
   vertex -2.0000 1.2000 -3.3000
  endloop
 endfacet
 facet normal 0.00000 1.00000 0.00000
  outer loop
   vertex -2.0000 0.8000 -3.3000
   vertex 2.0000 0.8000 -3.3000
   vertex 2.0000 0.8000 -4.0000
  endloop
 endfacet
 facet normal 0.00000 1.00000 0.00000
  outer loop
   vertex -2.0000 0.8000 -3.3000
   vertex 2.0000 0.8000 -4.0000
   vertex -2.0000 0.8000 -4.0000
  endloop
 endfacet
 facet normal 0.00000 0.00000 1.00000
  outer loop
   vertex -1.9000 1.2000 -3.9000
   vertex 1.9000 1.2000 -3.9000
   vertex 1.9000 2.4000 -3.9000
  endloop
 endfacet
 facet normal 0.00000 0.00000 1.00000
  outer loop
   vertex -1.9000 1.2000 -3.9000
   vertex 1.9000 2.4000 -3.9000
   vertex -1.9000 2.4000 -3.9000
  endloop
 endfacet
 facet normal 0.00000 0.00000 -1.00000
  outer loop
   vertex 1.9000 1.2000 -3.4000
   vertex -1.9000 1.2000 -3.4000
   vertex -1.9000 2.4000 -3.4000
  endloop
 endfacet
 facet normal 0.00000 0.00000 -1.00000
  outer loop
   vertex 1.9000 1.2000 -3.4000
   vertex -1.9000 2.4000 -3.4000
   vertex 1.9000 2.4000 -3.4000
  endloop
 endfacet
 facet normal 1.00000 0.00000 0.00000
  outer loop
   vertex -1.9000 1.2000 -3.4000
   vertex -1.9000 1.2000 -3.9000
   vertex -1.9000 2.4000 -3.9000
  endloop
 endfacet
 facet normal 1.00000 0.00000 0.00000
  outer loop
   vertex -1.9000 1.2000 -3.4000
   vertex -1.9000 2.4000 -3.9000
   vertex -1.9000 2.4000 -3.4000
  endloop
 endfacet
 facet normal -1.00000 0.00000 0.00000
  outer loop
   vertex 1.9000 1.2000 -3.9000
   vertex 1.9000 1.2000 -3.4000
   vertex 1.9000 2.4000 -3.4000
  endloop
 endfacet
 facet normal -1.00000 0.00000 0.00000
  outer loop
   vertex 1.9000 1.2000 -3.9000
   vertex 1.9000 2.4000 -3.4000
   vertex 1.9000 2.4000 -3.9000
  endloop
 endfacet
 facet normal 0.00000 -1.00000 0.00000
  outer loop
   vertex -1.9000 2.4000 -3.9000
   vertex 1.9000 2.4000 -3.9000
   vertex 1.9000 2.4000 -3.4000
  endloop
 endfacet
 facet normal 0.00000 -1.00000 0.00000
  outer loop
   vertex -1.9000 2.4000 -3.9000
   vertex 1.9000 2.4000 -3.4000
   vertex -1.9000 2.4000 -3.4000
  endloop
 endfacet
 facet normal 0.00000 1.00000 0.00000
  outer loop
   vertex -1.9000 1.2000 -3.4000
   vertex 1.9000 1.2000 -3.4000
   vertex 1.9000 1.2000 -3.9000
  endloop
 endfacet
 facet normal 0.00000 1.00000 0.00000
  outer loop
   vertex -1.9000 1.2000 -3.4000
   vertex 1.9000 1.2000 -3.9000
   vertex -1.9000 1.2000 -3.9000
  endloop
 endfacet
 facet normal 0.00000 0.00000 1.00000
  outer loop
   vertex -5.3000 1.1500 2.3000
   vertex -4.3000 1.1500 2.3000
   vertex -4.3000 1.4500 2.3000
  endloop
 endfacet
 facet normal 0.00000 0.00000 1.00000
  outer loop
   vertex -5.3000 1.1500 2.3000
   vertex -4.3000 1.4500 2.3000
   vertex -5.3000 1.4500 2.3000
  endloop
 endfacet
 facet normal 0.00000 0.00000 -1.00000
  outer loop
   vertex -4.3000 1.1500 3.3000
   vertex -5.3000 1.1500 3.3000
   vertex -5.3000 1.4500 3.3000
  endloop
 endfacet
 facet normal 0.00000 0.00000 -1.00000
  outer loop
   vertex -4.3000 1.1500 3.3000
   vertex -5.3000 1.4500 3.3000
   vertex -4.3000 1.4500 3.3000
  endloop
 endfacet
 facet normal 1.00000 0.00000 0.00000
  outer loop
   vertex -5.3000 1.1500 3.3000
   vertex -5.3000 1.1500 2.3000
   vertex -5.3000 1.4500 2.3000
  endloop
 endfacet
 facet normal 1.00000 0.00000 0.00000
  outer loop
   vertex -5.3000 1.1500 3.3000
   vertex -5.3000 1.4500 2.3000
   vertex -5.3000 1.4500 3.3000
  endloop
 endfacet
 facet normal -1.00000 0.00000 0.00000
  outer loop
   vertex -4.3000 1.1500 2.3000
   vertex -4.3000 1.1500 3.3000
   vertex -4.3000 1.4500 3.3000
  endloop
 endfacet
 facet normal -1.00000 0.00000 0.00000
  outer loop
   vertex -4.3000 1.1500 2.3000
   vertex -4.3000 1.4500 3.3000
   vertex -4.3000 1.4500 2.3000
  endloop
 endfacet
 facet normal 0.00000 -1.00000 0.00000
  outer loop
   vertex -5.3000 1.4500 2.3000
   vertex -4.3000 1.4500 2.3000
   vertex -4.3000 1.4500 3.3000
  endloop
 endfacet
 facet normal 0.00000 -1.00000 0.00000
  outer loop
   vertex -5.3000 1.4500 2.3000
   vertex -4.3000 1.4500 3.3000
   vertex -5.3000 1.4500 3.3000
  endloop
 endfacet
 facet normal 0.00000 1.00000 0.00000
  outer loop
   vertex -5.3000 1.1500 3.3000
   vertex -4.3000 1.1500 3.3000
   vertex -4.3000 1.1500 2.3000
  endloop
 endfacet
 facet normal 0.00000 1.00000 0.00000
  outer loop
   vertex -5.3000 1.1500 3.3000
   vertex -4.3000 1.1500 2.3000
   vertex -5.3000 1.1500 2.3000
  endloop
 endfacet
 facet normal 0.00000 0.00000 1.00000
  outer loop
   vertex -5.2500 1.4000 2.4000
   vertex -4.3500 1.4000 2.4000
   vertex -4.3500 2.6000 2.4000
  endloop
 endfacet
 facet normal 0.00000 0.00000 1.00000
  outer loop
   vertex -5.2500 1.4000 2.4000
   vertex -4.3500 2.6000 2.4000
   vertex -5.2500 2.6000 2.4000
  endloop
 endfacet
 facet normal 0.00000 0.00000 -1.00000
  outer loop
   vertex -4.3500 1.4000 3.2000
   vertex -5.2500 1.4000 3.2000
   vertex -5.2500 2.6000 3.2000
  endloop
 endfacet
 facet normal 0.00000 0.00000 -1.00000
  outer loop
   vertex -4.3500 1.4000 3.2000
   vertex -5.2500 2.6000 3.2000
   vertex -4.3500 2.6000 3.2000
  endloop
 endfacet
 facet normal 1.00000 0.00000 0.00000
  outer loop
   vertex -5.2500 1.4000 3.2000
   vertex -5.2500 1.4000 2.4000
   vertex -5.2500 2.6000 2.4000
  endloop
 endfacet
 facet normal 1.00000 0.00000 0.00000
  outer loop
   vertex -5.2500 1.4000 3.2000
   vertex -5.2500 2.6000 2.4000
   vertex -5.2500 2.6000 3.2000
  endloop
 endfacet
 facet normal -1.00000 0.00000 0.00000
  outer loop
   vertex -4.3500 1.4000 2.4000
   vertex -4.3500 1.4000 3.2000
   vertex -4.3500 2.6000 3.2000
  endloop
 endfacet
 facet normal -1.00000 0.00000 0.00000
  outer loop
   vertex -4.3500 1.4000 2.4000
   vertex -4.3500 2.6000 3.2000
   vertex -4.3500 2.6000 2.4000
  endloop
 endfacet
 facet normal 0.00000 -1.00000 0.00000
  outer loop
   vertex -5.2500 2.6000 2.4000
   vertex -4.3500 2.6000 2.4000
   vertex -4.3500 2.6000 3.2000
  endloop
 endfacet
 facet normal 0.00000 -1.00000 0.00000
  outer loop
   vertex -5.2500 2.6000 2.4000
   vertex -4.3500 2.6000 3.2000
   vertex -5.2500 2.6000 3.2000
  endloop
 endfacet
 facet normal 0.00000 1.00000 0.00000
  outer loop
   vertex -5.2500 1.4000 3.2000
   vertex -4.3500 1.4000 3.2000
   vertex -4.3500 1.4000 2.4000
  endloop
 endfacet
 facet normal 0.00000 1.00000 0.00000
  outer loop
   vertex -5.2500 1.4000 3.2000
   vertex -4.3500 1.4000 2.4000
   vertex -5.2500 1.4000 2.4000
  endloop
 endfacet
 facet normal 0.00000 0.00000 1.00000
  outer loop
   vertex 4.3000 1.1500 2.3000
   vertex 5.3000 1.1500 2.3000
   vertex 5.3000 1.4500 2.3000
  endloop
 endfacet
 facet normal 0.00000 0.00000 1.00000
  outer loop
   vertex 4.3000 1.1500 2.3000
   vertex 5.3000 1.4500 2.3000
   vertex 4.3000 1.4500 2.3000
  endloop
 endfacet
 facet normal 0.00000 0.00000 -1.00000
  outer loop
   vertex 5.3000 1.1500 3.3000
   vertex 4.3000 1.1500 3.3000
   vertex 4.3000 1.4500 3.3000
  endloop
 endfacet
 facet normal 0.00000 0.00000 -1.00000
  outer loop
   vertex 5.3000 1.1500 3.3000
   vertex 4.3000 1.4500 3.3000
   vertex 5.3000 1.4500 3.3000
  endloop
 endfacet
 facet normal 1.00000 0.00000 0.00000
  outer loop
   vertex 4.3000 1.1500 3.3000
   vertex 4.3000 1.1500 2.3000
   vertex 4.3000 1.4500 2.3000
  endloop
 endfacet
 facet normal 1.00000 0.00000 0.00000
  outer loop
   vertex 4.3000 1.1500 3.3000
   vertex 4.3000 1.4500 2.3000
   vertex 4.3000 1.4500 3.3000
  endloop
 endfacet
 facet normal -1.00000 0.00000 0.00000
  outer loop
   vertex 5.3000 1.1500 2.3000
   vertex 5.3000 1.1500 3.3000
   vertex 5.3000 1.4500 3.3000
  endloop
 endfacet
 facet normal -1.00000 0.00000 0.00000
  outer loop
   vertex 5.3000 1.1500 2.3000
   vertex 5.3000 1.4500 3.3000
   vertex 5.3000 1.4500 2.3000
  endloop
 endfacet
 facet normal 0.00000 -1.00000 0.00000
  outer loop
   vertex 4.3000 1.4500 2.3000
   vertex 5.3000 1.4500 2.3000
   vertex 5.3000 1.4500 3.3000
  endloop
 endfacet
 facet normal 0.00000 -1.00000 0.00000
  outer loop
   vertex 4.3000 1.4500 2.3000
   vertex 5.3000 1.4500 3.3000
   vertex 4.3000 1.4500 3.3000
  endloop
 endfacet
 facet normal 0.00000 1.00000 0.00000
  outer loop
   vertex 4.3000 1.1500 3.3000
   vertex 5.3000 1.1500 3.3000
   vertex 5.3000 1.1500 2.3000
  endloop
 endfacet
 facet normal 0.00000 1.00000 0.00000
  outer loop
   vertex 4.3000 1.1500 3.3000
   vertex 5.3000 1.1500 2.3000
   vertex 4.3000 1.1500 2.3000
  endloop
 endfacet
 facet normal 0.00000 0.00000 1.00000
  outer loop
   vertex 4.3500 1.4000 2.4000
   vertex 5.2500 1.4000 2.4000
   vertex 5.2500 2.6000 2.4000
  endloop
 endfacet
 facet normal 0.00000 0.00000 1.00000
  outer loop
   vertex 4.3500 1.4000 2.4000
   vertex 5.2500 2.6000 2.4000
   vertex 4.3500 2.6000 2.4000
  endloop
 endfacet
 facet normal 0.00000 0.00000 -1.00000
  outer loop
   vertex 5.2500 1.4000 3.2000
   vertex 4.3500 1.4000 3.2000
   vertex 4.3500 2.6000 3.2000
  endloop
 endfacet
 facet normal 0.00000 0.00000 -1.00000
  outer loop
   vertex 5.2500 1.4000 3.2000
   vertex 4.3500 2.6000 3.2000
   vertex 5.2500 2.6000 3.2000
  endloop
 endfacet
 facet normal 1.00000 0.00000 0.00000
  outer loop
   vertex 4.3500 1.4000 3.2000
   vertex 4.3500 1.4000 2.4000
   vertex 4.3500 2.6000 2.4000
  endloop
 endfacet
 facet normal 1.00000 0.00000 0.00000
  outer loop
   vertex 4.3500 1.4000 3.2000
   vertex 4.3500 2.6000 2.4000
   vertex 4.3500 2.6000 3.2000
  endloop
 endfacet
 facet normal -1.00000 0.00000 0.00000
  outer loop
   vertex 5.2500 1.4000 2.4000
   vertex 5.2500 1.4000 3.2000
   vertex 5.2500 2.6000 3.2000
  endloop
 endfacet
 facet normal -1.00000 0.00000 0.00000
  outer loop
   vertex 5.2500 1.4000 2.4000
   vertex 5.2500 2.6000 3.2000
   vertex 5.2500 2.6000 2.4000
  endloop
 endfacet
 facet normal 0.00000 -1.00000 0.00000
  outer loop
   vertex 4.3500 2.6000 2.4000
   vertex 5.2500 2.6000 2.4000
   vertex 5.2500 2.6000 3.2000
  endloop
 endfacet
 facet normal 0.00000 -1.00000 0.00000
  outer loop
   vertex 4.3500 2.6000 2.4000
   vertex 5.2500 2.6000 3.2000
   vertex 4.3500 2.6000 3.2000
  endloop
 endfacet
 facet normal 0.00000 1.00000 0.00000
  outer loop
   vertex 4.3500 1.4000 3.2000
   vertex 5.2500 1.4000 3.2000
   vertex 5.2500 1.4000 2.4000
  endloop
 endfacet
 facet normal 0.00000 1.00000 0.00000
  outer loop
   vertex 4.3500 1.4000 3.2000
   vertex 5.2500 1.4000 2.4000
   vertex 4.3500 1.4000 2.4000
  endloop
 endfacet
endsolid enfermeria
