solid porton_principal
 facet normal 0.00000 0.00000 1.00000
  outer loop
   vertex -9.0000 -0.3000 -4.5000
   vertex 9.0000 -0.3000 -4.5000
   vertex 9.0000 0.0000 -4.5000
  endloop
 endfacet
 facet normal 0.00000 0.00000 1.00000
  outer loop
   vertex -9.0000 -0.3000 -4.5000
   vertex 9.0000 0.0000 -4.5000
   vertex -9.0000 0.0000 -4.5000
  endloop
 endfacet
 facet normal 0.00000 0.00000 -1.00000
  outer loop
   vertex 9.0000 -0.3000 4.5000
   vertex -9.0000 -0.3000 4.5000
   vertex -9.0000 0.0000 4.5000
  endloop
 endfacet
 facet normal 0.00000 0.00000 -1.00000
  outer loop
   vertex 9.0000 -0.3000 4.5000
   vertex -9.0000 0.0000 4.5000
   vertex 9.0000 0.0000 4.5000
  endloop
 endfacet
 facet normal 1.00000 0.00000 0.00000
  outer loop
   vertex -9.0000 -0.3000 4.5000
   vertex -9.0000 -0.3000 -4.5000
   vertex -9.0000 0.0000 -4.5000
  endloop
 endfacet
 facet normal 1.00000 0.00000 0.00000
  outer loop
   vertex -9.0000 -0.3000 4.5000
   vertex -9.0000 0.0000 -4.5000
   vertex -9.0000 0.0000 4.5000
  endloop
 endfacet
 facet normal -1.00000 0.00000 0.00000
  outer loop
   vertex 9.0000 -0.3000 -4.5000
   vertex 9.0000 -0.3000 4.5000
   vertex 9.0000 0.0000 4.5000
  endloop
 endfacet
 facet normal -1.00000 0.00000 0.00000
  outer loop
   vertex 9.0000 -0.3000 -4.5000
   vertex 9.0000 0.0000 4.5000
   vertex 9.0000 0.0000 -4.5000
  endloop
 endfacet
 facet normal 0.00000 -1.00000 0.00000
  outer loop
   vertex -9.0000 0.0000 -4.5000
   vertex 9.0000 0.0000 -4.5000
   vertex 9.0000 0.0000 4.5000
  endloop
 endfacet
 facet normal 0.00000 -1.00000 0.00000
  outer loop
   vertex -9.0000 0.0000 -4.5000
   vertex 9.0000 0.0000 4.5000
   vertex -9.0000 0.0000 4.5000
  endloop
 endfacet
 facet normal 0.00000 1.00000 0.00000
  outer loop
   vertex -9.0000 -0.3000 4.5000
   vertex 9.0000 -0.3000 4.5000
   vertex 9.0000 -0.3000 -4.5000
  endloop
 endfacet
 facet normal 0.00000 1.00000 0.00000
  outer loop
   vertex -9.0000 -0.3000 4.5000
   vertex 9.0000 -0.3000 -4.5000
   vertex -9.0000 -0.3000 -4.5000
  endloop
 endfacet
 facet normal 0.00000 0.00000 1.00000
  outer loop
   vertex -7.2000 0.0000 -0.7500
   vertex -5.8000 0.0000 -0.7500
   vertex -5.8000 4.4000 -0.7500
  endloop
 endfacet
 facet normal 0.00000 0.00000 1.00000
  outer loop
   vertex -7.2000 0.0000 -0.7500
   vertex -5.8000 4.4000 -0.7500
   vertex -7.2000 4.4000 -0.7500
  endloop
 endfacet
 facet normal 0.00000 0.00000 -1.00000
  outer loop
   vertex -5.8000 0.0000 0.7500
   vertex -7.2000 0.0000 0.7500
   vertex -7.2000 4.4000 0.7500
  endloop
 endfacet
 facet normal 0.00000 0.00000 -1.00000
  outer loop
   vertex -5.8000 0.0000 0.7500
   vertex -7.2000 4.4000 0.7500
   vertex -5.8000 4.4000 0.7500
  endloop
 endfacet
 facet normal 1.00000 0.00000 0.00000
  outer loop
   vertex -7.2000 0.0000 0.7500
   vertex -7.2000 0.0000 -0.7500
   vertex -7.2000 4.4000 -0.7500
  endloop
 endfacet
 facet normal 1.00000 0.00000 0.00000
  outer loop
   vertex -7.2000 0.0000 0.7500
   vertex -7.2000 4.4000 -0.7500
   vertex -7.2000 4.4000 0.7500
  endloop
 endfacet
 facet normal -1.00000 0.00000 0.00000
  outer loop
   vertex -5.8000 0.0000 -0.7500
   vertex -5.8000 0.0000 0.7500
   vertex -5.8000 4.4000 0.7500
  endloop
 endfacet
 facet normal -1.00000 0.00000 0.00000
  outer loop
   vertex -5.8000 0.0000 -0.7500
   vertex -5.8000 4.4000 0.7500
   vertex -5.8000 4.4000 -0.7500
  endloop
 endfacet
 facet normal 0.00000 -1.00000 0.00000
  outer loop
   vertex -7.2000 4.4000 -0.7500
   vertex -5.8000 4.4000 -0.7500
   vertex -5.8000 4.4000 0.7500
  endloop
 endfacet
 facet normal 0.00000 -1.00000 0.00000
  outer loop
   vertex -7.2000 4.4000 -0.7500
   vertex -5.8000 4.4000 0.7500
   vertex -7.2000 4.4000 0.7500
  endloop
 endfacet
 facet normal 0.00000 1.00000 0.00000
  outer loop
   vertex -7.2000 0.0000 0.7500
   vertex -5.8000 0.0000 0.7500
   vertex -5.8000 0.0000 -0.7500
  endloop
 endfacet
 facet normal 0.00000 1.00000 0.00000
  outer loop
   vertex -7.2000 0.0000 0.7500
   vertex -5.8000 0.0000 -0.7500
   vertex -7.2000 0.0000 -0.7500
  endloop
 endfacet
 facet normal 0.00000 0.00000 1.00000
  outer loop
   vertex -7.4000 4.4000 -0.9000
   vertex -5.6000 4.4000 -0.9000
   vertex -5.6000 4.7000 -0.9000
  endloop
 endfacet
 facet normal 0.00000 0.00000 1.00000
  outer loop
   vertex -7.4000 4.4000 -0.9000
   vertex -5.6000 4.7000 -0.9000
   vertex -7.4000 4.7000 -0.9000
  endloop
 endfacet
 facet normal 0.00000 0.00000 -1.00000
  outer loop
   vertex -5.6000 4.4000 0.9000
   vertex -7.4000 4.4000 0.9000
   vertex -7.4000 4.7000 0.9000
  endloop
 endfacet
 facet normal 0.00000 0.00000 -1.00000
  outer loop
   vertex -5.6000 4.4000 0.9000
   vertex -7.4000 4.7000 0.9000
   vertex -5.6000 4.7000 0.9000
  endloop
 endfacet
 facet normal 1.00000 0.00000 0.00000
  outer loop
   vertex -7.4000 4.4000 0.9000
   vertex -7.4000 4.4000 -0.9000
   vertex -7.4000 4.7000 -0.9000
  endloop
 endfacet
 facet normal 1.00000 0.00000 0.00000
  outer loop
   vertex -7.4000 4.4000 0.9000
   vertex -7.4000 4.7000 -0.9000
   vertex -7.4000 4.7000 0.9000
  endloop
 endfacet
 facet normal -1.00000 0.00000 0.00000
  outer loop
   vertex -5.6000 4.4000 -0.9000
   vertex -5.6000 4.4000 0.9000
   vertex -5.6000 4.7000 0.9000
  endloop
 endfacet
 facet normal -1.00000 0.00000 0.00000
  outer loop
   vertex -5.6000 4.4000 -0.9000
   vertex -5.6000 4.7000 0.9000
   vertex -5.6000 4.7000 -0.9000
  endloop
 endfacet
 facet normal 0.00000 -1.00000 0.00000
  outer loop
   vertex -7.4000 4.7000 -0.9000
   vertex -5.6000 4.7000 -0.9000
   vertex -5.6000 4.7000 0.9000
  endloop
 endfacet
 facet normal 0.00000 -1.00000 0.00000
  outer loop
   vertex -7.4000 4.7000 -0.9000
   vertex -5.6000 4.7000 0.9000
   vertex -7.4000 4.7000 0.9000
  endloop
 endfacet
 facet normal 0.00000 1.00000 0.00000
  outer loop
   vertex -7.4000 4.4000 0.9000
   vertex -5.6000 4.4000 0.9000
   vertex -5.6000 4.4000 -0.9000
  endloop
 endfacet
 facet normal 0.00000 1.00000 0.00000
  outer loop
   vertex -7.4000 4.4000 0.9000
   vertex -5.6000 4.4000 -0.9000
   vertex -7.4000 4.4000 -0.9000
  endloop
 endfacet
 facet normal 0.00000 0.00000 1.00000
  outer loop
   vertex 5.8000 0.0000 -0.7500
   vertex 7.2000 0.0000 -0.7500
   vertex 7.2000 4.4000 -0.7500
  endloop
 endfacet
 facet normal 0.00000 0.00000 1.00000
  outer loop
   vertex 5.8000 0.0000 -0.7500
   vertex 7.2000 4.4000 -0.7500
   vertex 5.8000 4.4000 -0.7500
  endloop
 endfacet
 facet normal 0.00000 0.00000 -1.00000
  outer loop
   vertex 7.2000 0.0000 0.7500
   vertex 5.8000 0.0000 0.7500
   vertex 5.8000 4.4000 0.7500
  endloop
 endfacet
 facet normal 0.00000 0.00000 -1.00000
  outer loop
   vertex 7.2000 0.0000 0.7500
   vertex 5.8000 4.4000 0.7500
   vertex 7.2000 4.4000 0.7500
  endloop
 endfacet
 facet normal 1.00000 0.00000 0.00000
  outer loop
   vertex 5.8000 0.0000 0.7500
   vertex 5.8000 0.0000 -0.7500
   vertex 5.8000 4.4000 -0.7500
  endloop
 endfacet
 facet normal 1.00000 0.00000 0.00000
  outer loop
   vertex 5.8000 0.0000 0.7500
   vertex 5.8000 4.4000 -0.7500
   vertex 5.8000 4.4000 0.7500
  endloop
 endfacet
 facet normal -1.00000 0.00000 0.00000
  outer loop
   vertex 7.2000 0.0000 -0.7500
   vertex 7.2000 0.0000 0.7500
   vertex 7.2000 4.4000 0.7500
  endloop
 endfacet
 facet normal -1.00000 0.00000 0.00000
  outer loop
   vertex 7.2000 0.0000 -0.7500
   vertex 7.2000 4.4000 0.7500
   vertex 7.2000 4.4000 -0.7500
  endloop
 endfacet
 facet normal 0.00000 -1.00000 0.00000
  outer loop
   vertex 5.8000 4.4000 -0.7500
   vertex 7.2000 4.4000 -0.7500
   vertex 7.2000 4.4000 0.7500
  endloop
 endfacet
 facet normal 0.00000 -1.00000 0.00000
  outer loop
   vertex 5.8000 4.4000 -0.7500
   vertex 7.2000 4.4000 0.7500
   vertex 5.8000 4.4000 0.7500
  endloop
 endfacet
 facet normal 0.00000 1.00000 0.00000
  outer loop
   vertex 5.8000 0.0000 0.7500
   vertex 7.2000 0.0000 0.7500
   vertex 7.2000 0.0000 -0.7500
  endloop
 endfacet
 facet normal 0.00000 1.00000 0.00000
  outer loop
   vertex 5.8000 0.0000 0.7500
   vertex 7.2000 0.0000 -0.7500
   vertex 5.8000 0.0000 -0.7500
  endloop
 endfacet
 facet normal 0.00000 0.00000 1.00000
  outer loop
   vertex 5.6000 4.4000 -0.9000
   vertex 7.4000 4.4000 -0.9000
   vertex 7.4000 4.7000 -0.9000
  endloop
 endfacet
 facet normal 0.00000 0.00000 1.00000
  outer loop
   vertex 5.6000 4.4000 -0.9000
   vertex 7.4000 4.7000 -0.9000
   vertex 5.6000 4.7000 -0.9000
  endloop
 endfacet
 facet normal 0.00000 0.00000 -1.00000
  outer loop
   vertex 7.4000 4.4000 0.9000
   vertex 5.6000 4.4000 0.9000
   vertex 5.6000 4.7000 0.9000
  endloop
 endfacet
 facet normal 0.00000 0.00000 -1.00000
  outer loop
   vertex 7.4000 4.4000 0.9000
   vertex 5.6000 4.7000 0.9000
   vertex 7.4000 4.7000 0.9000
  endloop
 endfacet
 facet normal 1.00000 0.00000 0.00000
  outer loop
   vertex 5.6000 4.4000 0.9000
   vertex 5.6000 4.4000 -0.9000
   vertex 5.6000 4.7000 -0.9000
  endloop
 endfacet
 facet normal 1.00000 0.00000 0.00000
  outer loop
   vertex 5.6000 4.4000 0.9000
   vertex 5.6000 4.7000 -0.9000
   vertex 5.6000 4.7000 0.9000
  endloop
 endfacet
 facet normal -1.00000 0.00000 0.00000
  outer loop
   vertex 7.4000 4.4000 -0.9000
   vertex 7.4000 4.4000 0.9000
   vertex 7.4000 4.7000 0.9000
  endloop
 endfacet
 facet normal -1.00000 0.00000 0.00000
  outer loop
   vertex 7.4000 4.4000 -0.9000
   vertex 7.4000 4.7000 0.9000
   vertex 7.4000 4.7000 -0.9000
  endloop
 endfacet
 facet normal 0.00000 -1.00000 0.00000
  outer loop
   vertex 5.6000 4.7000 -0.9000
   vertex 7.4000 4.7000 -0.9000
   vertex 7.4000 4.7000 0.9000
  endloop
 endfacet
 facet normal 0.00000 -1.00000 0.00000
  outer loop
   vertex 5.6000 4.7000 -0.9000
   vertex 7.4000 4.7000 0.9000
   vertex 5.6000 4.7000 0.9000
  endloop
 endfacet
 facet normal 0.00000 1.00000 0.00000
  outer loop
   vertex 5.6000 4.4000 0.9000
   vertex 7.4000 4.4000 0.9000
   vertex 7.4000 4.4000 -0.9000
  endloop
 endfacet
 facet normal 0.00000 1.00000 0.00000
  outer loop
   vertex 5.6000 4.4000 0.9000
   vertex 7.4000 4.4000 -0.9000
   vertex 5.6000 4.4000 -0.9000
  endloop
 endfacet
 facet normal 0.00000 0.00000 1.00000
  outer loop
   vertex -5.5000 1.8250 -0.2250
   vertex 5.5000 1.8250 -0.2250
   vertex 5.5000 2.1750 -0.2250
  endloop
 endfacet
 facet normal 0.00000 0.00000 1.00000
  outer loop
   vertex -5.5000 1.8250 -0.2250
   vertex 5.5000 2.1750 -0.2250
   vertex -5.5000 2.1750 -0.2250
  endloop
 endfacet
 facet normal 0.00000 0.00000 -1.00000
  outer loop
   vertex 5.5000 1.8250 0.2250
   vertex -5.5000 1.8250 0.2250
   vertex -5.5000 2.1750 0.2250
  endloop
 endfacet
 facet normal 0.00000 0.00000 -1.00000
  outer loop
   vertex 5.5000 1.8250 0.2250
   vertex -5.5000 2.1750 0.2250
   vertex 5.5000 2.1750 0.2250
  endloop
 endfacet
 facet normal 1.00000 0.00000 0.00000
  outer loop
   vertex -5.5000 1.8250 0.2250
   vertex -5.5000 1.8250 -0.2250
   vertex -5.5000 2.1750 -0.2250
  endloop
 endfacet
 facet normal 1.00000 0.00000 0.00000
  outer loop
   vertex -5.5000 1.8250 0.2250
   vertex -5.5000 2.1750 -0.2250
   vertex -5.5000 2.1750 0.2250
  endloop
 endfacet
 facet normal -1.00000 0.00000 0.00000
  outer loop
   vertex 5.5000 1.8250 -0.2250
   vertex 5.5000 1.8250 0.2250
   vertex 5.5000 2.1750 0.2250
  endloop
 endfacet
 facet normal -1.00000 0.00000 0.00000
  outer loop
   vertex 5.5000 1.8250 -0.2250
   vertex 5.5000 2.1750 0.2250
   vertex 5.5000 2.1750 -0.2250
  endloop
 endfacet
 facet normal 0.00000 -1.00000 0.00000
  outer loop
   vertex -5.5000 2.1750 -0.2250
   vertex 5.5000 2.1750 -0.2250
   vertex 5.5000 2.1750 0.2250
  endloop
 endfacet
 facet normal 0.00000 -1.00000 0.00000
  outer loop
   vertex -5.5000 2.1750 -0.2250
   vertex 5.5000 2.1750 0.2250
   vertex -5.5000 2.1750 0.2250
  endloop
 endfacet
 facet normal 0.00000 1.00000 0.00000
  outer loop
   vertex -5.5000 1.8250 0.2250
   vertex 5.5000 1.8250 0.2250
   vertex 5.5000 1.8250 -0.2250
  endloop
 endfacet
 facet normal 0.00000 1.00000 0.00000
  outer loop
   vertex -5.5000 1.8250 0.2250
   vertex 5.5000 1.8250 -0.2250
   vertex -5.5000 1.8250 -0.2250
  endloop
 endfacet
 facet normal 0.00000 0.00000 1.00000
  outer loop
   vertex -5.5000 3.6250 -0.2250
   vertex 5.5000 3.6250 -0.2250
   vertex 5.5000 3.9750 -0.2250
  endloop
 endfacet
 facet normal 0.00000 0.00000 1.00000
  outer loop
   vertex -5.5000 3.6250 -0.2250
   vertex 5.5000 3.9750 -0.2250
   vertex -5.5000 3.9750 -0.2250
  endloop
 endfacet
 facet normal 0.00000 0.00000 -1.00000
  outer loop
   vertex 5.5000 3.6250 0.2250
   vertex -5.5000 3.6250 0.2250
   vertex -5.5000 3.9750 0.2250
  endloop
 endfacet
 facet normal 0.00000 0.00000 -1.00000
  outer loop
   vertex 5.5000 3.6250 0.2250
   vertex -5.5000 3.9750 0.2250
   vertex 5.5000 3.9750 0.2250
  endloop
 endfacet
 facet normal 1.00000 0.00000 0.00000
  outer loop
   vertex -5.5000 3.6250 0.2250
   vertex -5.5000 3.6250 -0.2250
   vertex -5.5000 3.9750 -0.2250
  endloop
 endfacet
 facet normal 1.00000 0.00000 0.00000
  outer loop
   vertex -5.5000 3.6250 0.2250
   vertex -5.5000 3.9750 -0.2250
   vertex -5.5000 3.9750 0.2250
  endloop
 endfacet
 facet normal -1.00000 0.00000 0.00000
  outer loop
   vertex 5.5000 3.6250 -0.2250
   vertex 5.5000 3.6250 0.2250
   vertex 5.5000 3.9750 0.2250
  endloop
 endfacet
 facet normal -1.00000 0.00000 0.00000
  outer loop
   vertex 5.5000 3.6250 -0.2250
   vertex 5.5000 3.9750 0.2250
   vertex 5.5000 3.9750 -0.2250
  endloop
 endfacet
 facet normal 0.00000 -1.00000 0.00000
  outer loop
   vertex -5.5000 3.9750 -0.2250
   vertex 5.5000 3.9750 -0.2250
   vertex 5.5000 3.9750 0.2250
  endloop
 endfacet
 facet normal 0.00000 -1.00000 0.00000
  outer loop
   vertex -5.5000 3.9750 -0.2250
   vertex 5.5000 3.9750 0.2250
   vertex -5.5000 3.9750 0.2250
  endloop
 endfacet
 facet normal 0.00000 1.00000 0.00000
  outer loop
   vertex -5.5000 3.6250 0.2250
   vertex 5.5000 3.6250 0.2250
   vertex 5.5000 3.6250 -0.2250
  endloop
 endfacet
 facet normal 0.00000 1.00000 0.00000
  outer loop
   vertex -5.5000 3.6250 0.2250
   vertex 5.5000 3.6250 -0.2250
   vertex -5.5000 3.6250 -0.2250
  endloop
 endfacet
 facet normal -0.50000 0.00000 -0.86603
  outer loop
   vertex -5.3000 1.7500 -0.0600
   vertex -5.3520 1.7500 -0.0300
   vertex -5.3520 4.0500 -0.0300
  endloop
 endfacet
 facet normal -0.50000 0.00000 -0.86603
  outer loop
   vertex -5.3000 1.7500 -0.0600
   vertex -5.3520 4.0500 -0.0300
   vertex -5.3000 4.0500 -0.0600
  endloop
 endfacet
 facet normal 0.00000 -1.00000 0.00000
  outer loop
   vertex -5.3000 1.7500 0.0000
   vertex -5.3520 1.7500 -0.0300
   vertex -5.3000 1.7500 -0.0600
  endloop
 endfacet
 facet normal 0.00000 1.00000 0.00000
  outer loop
   vertex -5.3000 4.0500 0.0000
   vertex -5.3000 4.0500 -0.0600
   vertex -5.3520 4.0500 -0.0300
  endloop
 endfacet
 facet normal -1.00000 0.00000 0.00000
  outer loop
   vertex -5.3520 1.7500 -0.0300
   vertex -5.3520 1.7500 0.0300
   vertex -5.3520 4.0500 0.0300
  endloop
 endfacet
 facet normal -1.00000 0.00000 0.00000
  outer loop
   vertex -5.3520 1.7500 -0.0300
   vertex -5.3520 4.0500 0.0300
   vertex -5.3520 4.0500 -0.0300
  endloop
 endfacet
 facet normal 0.00000 -1.00000 0.00000
  outer loop
   vertex -5.3000 1.7500 0.0000
   vertex -5.3520 1.7500 0.0300
   vertex -5.3520 1.7500 -0.0300
  endloop
 endfacet
 facet normal 0.00000 1.00000 0.00000
  outer loop
   vertex -5.3000 4.0500 0.0000
   vertex -5.3520 4.0500 -0.0300
   vertex -5.3520 4.0500 0.0300
  endloop
 endfacet
 facet normal -0.50000 0.00000 0.86603
  outer loop
   vertex -5.3520 1.7500 0.0300
   vertex -5.3000 1.7500 0.0600
   vertex -5.3000 4.0500 0.0600
  endloop
 endfacet
 facet normal -0.50000 0.00000 0.86603
  outer loop
   vertex -5.3520 1.7500 0.0300
   vertex -5.3000 4.0500 0.0600
   vertex -5.3520 4.0500 0.0300
  endloop
 endfacet
 facet normal 0.00000 -1.00000 0.00000
  outer loop
   vertex -5.3000 1.7500 0.0000
   vertex -5.3000 1.7500 0.0600
   vertex -5.3520 1.7500 0.0300
  endloop
 endfacet
 facet normal 0.00000 1.00000 0.00000
  outer loop
   vertex -5.3000 4.0500 0.0000
   vertex -5.3520 4.0500 0.0300
   vertex -5.3000 4.0500 0.0600
  endloop
 endfacet
 facet normal 0.50000 0.00000 0.86603
  outer loop
   vertex -5.3000 1.7500 0.0600
   vertex -5.2480 1.7500 0.0300
   vertex -5.2480 4.0500 0.0300
  endloop
 endfacet
 facet normal 0.50000 0.00000 0.86603
  outer loop
   vertex -5.3000 1.7500 0.0600
   vertex -5.2480 4.0500 0.0300
   vertex -5.3000 4.0500 0.0600
  endloop
 endfacet
 facet normal 0.00000 -1.00000 0.00000
  outer loop
   vertex -5.3000 1.7500 0.0000
   vertex -5.2480 1.7500 0.0300
   vertex -5.3000 1.7500 0.0600
  endloop
 endfacet
 facet normal 0.00000 1.00000 0.00000
  outer loop
   vertex -5.3000 4.0500 0.0000
   vertex -5.3000 4.0500 0.0600
   vertex -5.2480 4.0500 0.0300
  endloop
 endfacet
 facet normal 1.00000 0.00000 0.00000
  outer loop
   vertex -5.2480 1.7500 0.0300
   vertex -5.2480 1.7500 -0.0300
   vertex -5.2480 4.0500 -0.0300
  endloop
 endfacet
 facet normal 1.00000 0.00000 0.00000
  outer loop
   vertex -5.2480 1.7500 0.0300
   vertex -5.2480 4.0500 -0.0300
   vertex -5.2480 4.0500 0.0300
  endloop
 endfacet
 facet normal 0.00000 -1.00000 0.00000
  outer loop
   vertex -5.3000 1.7500 0.0000
   vertex -5.2480 1.7500 -0.0300
   vertex -5.2480 1.7500 0.0300
  endloop
 endfacet
 facet normal 0.00000 1.00000 0.00000
  outer loop
   vertex -5.3000 4.0500 0.0000
   vertex -5.2480 4.0500 0.0300
   vertex -5.2480 4.0500 -0.0300
  endloop
 endfacet
 facet normal 0.50000 0.00000 -0.86603
  outer loop
   vertex -5.2480 1.7500 -0.0300
   vertex -5.3000 1.7500 -0.0600
   vertex -5.3000 4.0500 -0.0600
  endloop
 endfacet
 facet normal 0.50000 0.00000 -0.86603
  outer loop
   vertex -5.2480 1.7500 -0.0300
   vertex -5.3000 4.0500 -0.0600
   vertex -5.2480 4.0500 -0.0300
  endloop
 endfacet
 facet normal 0.00000 -1.00000 0.00000
  outer loop
   vertex -5.3000 1.7500 0.0000
   vertex -5.3000 1.7500 -0.0600
   vertex -5.2480 1.7500 -0.0300
  endloop
 endfacet
 facet normal 0.00000 1.00000 0.00000
  outer loop
   vertex -5.3000 4.0500 0.0000
   vertex -5.2480 4.0500 -0.0300
   vertex -5.3000 4.0500 -0.0600
  endloop
 endfacet
 facet normal -0.50000 0.00000 -0.86603
  outer loop
   vertex -4.7500 1.7500 -0.0600
   vertex -4.8020 1.7500 -0.0300
   vertex -4.8020 4.0500 -0.0300
  endloop
 endfacet
 facet normal -0.50000 0.00000 -0.86603
  outer loop
   vertex -4.7500 1.7500 -0.0600
   vertex -4.8020 4.0500 -0.0300
   vertex -4.7500 4.0500 -0.0600
  endloop
 endfacet
 facet normal 0.00000 -1.00000 0.00000
  outer loop
   vertex -4.7500 1.7500 0.0000
   vertex -4.8020 1.7500 -0.0300
   vertex -4.7500 1.7500 -0.0600
  endloop
 endfacet
 facet normal 0.00000 1.00000 0.00000
  outer loop
   vertex -4.7500 4.0500 0.0000
   vertex -4.7500 4.0500 -0.0600
   vertex -4.8020 4.0500 -0.0300
  endloop
 endfacet
 facet normal -1.00000 0.00000 0.00000
  outer loop
   vertex -4.8020 1.7500 -0.0300
   vertex -4.8020 1.7500 0.0300
   vertex -4.8020 4.0500 0.0300
  endloop
 endfacet
 facet normal -1.00000 0.00000 0.00000
  outer loop
   vertex -4.8020 1.7500 -0.0300
   vertex -4.8020 4.0500 0.0300
   vertex -4.8020 4.0500 -0.0300
  endloop
 endfacet
 facet normal 0.00000 -1.00000 0.00000
  outer loop
   vertex -4.7500 1.7500 0.0000
   vertex -4.8020 1.7500 0.0300
   vertex -4.8020 1.7500 -0.0300
  endloop
 endfacet
 facet normal 0.00000 1.00000 0.00000
  outer loop
   vertex -4.7500 4.0500 0.0000
   vertex -4.8020 4.0500 -0.0300
   vertex -4.8020 4.0500 0.0300
  endloop
 endfacet
 facet normal -0.50000 0.00000 0.86603
  outer loop
   vertex -4.8020 1.7500 0.0300
   vertex -4.7500 1.7500 0.0600
   vertex -4.7500 4.0500 0.0600
  endloop
 endfacet
 facet normal -0.50000 0.00000 0.86603
  outer loop
   vertex -4.8020 1.7500 0.0300
   vertex -4.7500 4.0500 0.0600
   vertex -4.8020 4.0500 0.0300
  endloop
 endfacet
 facet normal 0.00000 -1.00000 0.00000
  outer loop
   vertex -4.7500 1.7500 0.0000
   vertex -4.7500 1.7500 0.0600
   vertex -4.8020 1.7500 0.0300
  endloop
 endfacet
 facet normal 0.00000 1.00000 0.00000
  outer loop
   vertex -4.7500 4.0500 0.0000
   vertex -4.8020 4.0500 0.0300
   vertex -4.7500 4.0500 0.0600
  endloop
 endfacet
 facet normal 0.50000 0.00000 0.86603
  outer loop
   vertex -4.7500 1.7500 0.0600
   vertex -4.6980 1.7500 0.0300
   vertex -4.6980 4.0500 0.0300
  endloop
 endfacet
 facet normal 0.50000 0.00000 0.86603
  outer loop
   vertex -4.7500 1.7500 0.0600
   vertex -4.6980 4.0500 0.0300
   vertex -4.7500 4.0500 0.0600
  endloop
 endfacet
 facet normal 0.00000 -1.00000 0.00000
  outer loop
   vertex -4.7500 1.7500 0.0000
   vertex -4.6980 1.7500 0.0300
   vertex -4.7500 1.7500 0.0600
  endloop
 endfacet
 facet normal 0.00000 1.00000 0.00000
  outer loop
   vertex -4.7500 4.0500 0.0000
   vertex -4.7500 4.0500 0.0600
   vertex -4.6980 4.0500 0.0300
  endloop
 endfacet
 facet normal 1.00000 0.00000 0.00000
  outer loop
   vertex -4.6980 1.7500 0.0300
   vertex -4.6980 1.7500 -0.0300
   vertex -4.6980 4.0500 -0.0300
  endloop
 endfacet
 facet normal 1.00000 0.00000 0.00000
  outer loop
   vertex -4.6980 1.7500 0.0300
   vertex -4.6980 4.0500 -0.0300
   vertex -4.6980 4.0500 0.0300
  endloop
 endfacet
 facet normal 0.00000 -1.00000 0.00000
  outer loop
   vertex -4.7500 1.7500 0.0000
   vertex -4.6980 1.7500 -0.0300
   vertex -4.6980 1.7500 0.0300
  endloop
 endfacet
 facet normal 0.00000 1.00000 0.00000
  outer loop
   vertex -4.7500 4.0500 0.0000
   vertex -4.6980 4.0500 0.0300
   vertex -4.6980 4.0500 -0.0300
  endloop
 endfacet
 facet normal 0.50000 0.00000 -0.86603
  outer loop
   vertex -4.6980 1.7500 -0.0300
   vertex -4.7500 1.7500 -0.0600
   vertex -4.7500 4.0500 -0.0600
  endloop
 endfacet
 facet normal 0.50000 0.00000 -0.86603
  outer loop
   vertex -4.6980 1.7500 -0.0300
   vertex -4.7500 4.0500 -0.0600
   vertex -4.6980 4.0500 -0.0300
  endloop
 endfacet
 facet normal 0.00000 -1.00000 0.00000
  outer loop
   vertex -4.7500 1.7500 0.0000
   vertex -4.7500 1.7500 -0.0600
   vertex -4.6980 1.7500 -0.0300
  endloop
 endfacet
 facet normal 0.00000 1.00000 0.00000
  outer loop
   vertex -4.7500 4.0500 0.0000
   vertex -4.6980 4.0500 -0.0300
   vertex -4.7500 4.0500 -0.0600
  endloop
 endfacet
 facet normal -0.50000 0.00000 -0.86603
  outer loop
   vertex -4.2000 1.7500 -0.0600
   vertex -4.2520 1.7500 -0.0300
   vertex -4.2520 4.0500 -0.0300
  endloop
 endfacet
 facet normal -0.50000 0.00000 -0.86603
  outer loop
   vertex -4.2000 1.7500 -0.0600
   vertex -4.2520 4.0500 -0.0300
   vertex -4.2000 4.0500 -0.0600
  endloop
 endfacet
 facet normal 0.00000 -1.00000 0.00000
  outer loop
   vertex -4.2000 1.7500 0.0000
   vertex -4.2520 1.7500 -0.0300
   vertex -4.2000 1.7500 -0.0600
  endloop
 endfacet
 facet normal 0.00000 1.00000 0.00000
  outer loop
   vertex -4.2000 4.0500 0.0000
   vertex -4.2000 4.0500 -0.0600
   vertex -4.2520 4.0500 -0.0300
  endloop
 endfacet
 facet normal -1.00000 0.00000 0.00000
  outer loop
   vertex -4.2520 1.7500 -0.0300
   vertex -4.2520 1.7500 0.0300
   vertex -4.2520 4.0500 0.0300
  endloop
 endfacet
 facet normal -1.00000 0.00000 0.00000
  outer loop
   vertex -4.2520 1.7500 -0.0300
   vertex -4.2520 4.0500 0.0300
   vertex -4.2520 4.0500 -0.0300
  endloop
 endfacet
 facet normal 0.00000 -1.00000 0.00000
  outer loop
   vertex -4.2000 1.7500 0.0000
   vertex -4.2520 1.7500 0.0300
   vertex -4.2520 1.7500 -0.0300
  endloop
 endfacet
 facet normal 0.00000 1.00000 0.00000
  outer loop
   vertex -4.2000 4.0500 0.0000
   vertex -4.2520 4.0500 -0.0300
   vertex -4.2520 4.0500 0.0300
  endloop
 endfacet
 facet normal -0.50000 0.00000 0.86603
  outer loop
   vertex -4.2520 1.7500 0.0300
   vertex -4.2000 1.7500 0.0600
   vertex -4.2000 4.0500 0.0600
  endloop
 endfacet
 facet normal -0.50000 0.00000 0.86603
  outer loop
   vertex -4.2520 1.7500 0.0300
   vertex -4.2000 4.0500 0.0600
   vertex -4.2520 4.0500 0.0300
  endloop
 endfacet
 facet normal 0.00000 -1.00000 0.00000
  outer loop
   vertex -4.2000 1.7500 0.0000
   vertex -4.2000 1.7500 0.0600
   vertex -4.2520 1.7500 0.0300
  endloop
 endfacet
 facet normal 0.00000 1.00000 0.00000
  outer loop
   vertex -4.2000 4.0500 0.0000
   vertex -4.2520 4.0500 0.0300
   vertex -4.2000 4.0500 0.0600
  endloop
 endfacet
 facet normal 0.50000 0.00000 0.86603
  outer loop
   vertex -4.2000 1.7500 0.0600
   vertex -4.1480 1.7500 0.0300
   vertex -4.1480 4.0500 0.0300
  endloop
 endfacet
 facet normal 0.50000 0.00000 0.86603
  outer loop
   vertex -4.2000 1.7500 0.0600
   vertex -4.1480 4.0500 0.0300
   vertex -4.2000 4.0500 0.0600
  endloop
 endfacet
 facet normal 0.00000 -1.00000 0.00000
  outer loop
   vertex -4.2000 1.7500 0.0000
   vertex -4.1480 1.7500 0.0300
   vertex -4.2000 1.7500 0.0600
  endloop
 endfacet
 facet normal 0.00000 1.00000 0.00000
  outer loop
   vertex -4.2000 4.0500 0.0000
   vertex -4.2000 4.0500 0.0600
   vertex -4.1480 4.0500 0.0300
  endloop
 endfacet
 facet normal 1.00000 0.00000 0.00000
  outer loop
   vertex -4.1480 1.7500 0.0300
   vertex -4.1480 1.7500 -0.0300
   vertex -4.1480 4.0500 -0.0300
  endloop
 endfacet
 facet normal 1.00000 0.00000 0.00000
  outer loop
   vertex -4.1480 1.7500 0.0300
   vertex -4.1480 4.0500 -0.0300
   vertex -4.1480 4.0500 0.0300
  endloop
 endfacet
 facet normal 0.00000 -1.00000 0.00000
  outer loop
   vertex -4.2000 1.7500 0.0000
   vertex -4.1480 1.7500 -0.0300
   vertex -4.1480 1.7500 0.0300
  endloop
 endfacet
 facet normal 0.00000 1.00000 0.00000
  outer loop
   vertex -4.2000 4.0500 0.0000
   vertex -4.1480 4.0500 0.0300
   vertex -4.1480 4.0500 -0.0300
  endloop
 endfacet
 facet normal 0.50000 0.00000 -0.86603
  outer loop
   vertex -4.1480 1.7500 -0.0300
   vertex -4.2000 1.7500 -0.0600
   vertex -4.2000 4.0500 -0.0600
  endloop
 endfacet
 facet normal 0.50000 0.00000 -0.86603
  outer loop
   vertex -4.1480 1.7500 -0.0300
   vertex -4.2000 4.0500 -0.0600
   vertex -4.1480 4.0500 -0.0300
  endloop
 endfacet
 facet normal 0.00000 -1.00000 0.00000
  outer loop
   vertex -4.2000 1.7500 0.0000
   vertex -4.2000 1.7500 -0.0600
   vertex -4.1480 1.7500 -0.0300
  endloop
 endfacet
 facet normal 0.00000 1.00000 0.00000
  outer loop
   vertex -4.2000 4.0500 0.0000
   vertex -4.1480 4.0500 -0.0300
   vertex -4.2000 4.0500 -0.0600
  endloop
 endfacet
 facet normal -0.50000 0.00000 -0.86603
  outer loop
   vertex -3.6500 1.7500 -0.0600
   vertex -3.7020 1.7500 -0.0300
   vertex -3.7020 4.0500 -0.0300
  endloop
 endfacet
 facet normal -0.50000 0.00000 -0.86603
  outer loop
   vertex -3.6500 1.7500 -0.0600
   vertex -3.7020 4.0500 -0.0300
   vertex -3.6500 4.0500 -0.0600
  endloop
 endfacet
 facet normal 0.00000 -1.00000 0.00000
  outer loop
   vertex -3.6500 1.7500 0.0000
   vertex -3.7020 1.7500 -0.0300
   vertex -3.6500 1.7500 -0.0600
  endloop
 endfacet
 facet normal 0.00000 1.00000 0.00000
  outer loop
   vertex -3.6500 4.0500 0.0000
   vertex -3.6500 4.0500 -0.0600
   vertex -3.7020 4.0500 -0.0300
  endloop
 endfacet
 facet normal -1.00000 0.00000 0.00000
  outer loop
   vertex -3.7020 1.7500 -0.0300
   vertex -3.7020 1.7500 0.0300
   vertex -3.7020 4.0500 0.0300
  endloop
 endfacet
 facet normal -1.00000 0.00000 0.00000
  outer loop
   vertex -3.7020 1.7500 -0.0300
   vertex -3.7020 4.0500 0.0300
   vertex -3.7020 4.0500 -0.0300
  endloop
 endfacet
 facet normal 0.00000 -1.00000 0.00000
  outer loop
   vertex -3.6500 1.7500 0.0000
   vertex -3.7020 1.7500 0.0300
   vertex -3.7020 1.7500 -0.0300
  endloop
 endfacet
 facet normal 0.00000 1.00000 0.00000
  outer loop
   vertex -3.6500 4.0500 0.0000
   vertex -3.7020 4.0500 -0.0300
   vertex -3.7020 4.0500 0.0300
  endloop
 endfacet
 facet normal -0.50000 0.00000 0.86603
  outer loop
   vertex -3.7020 1.7500 0.0300
   vertex -3.6500 1.7500 0.0600
   vertex -3.6500 4.0500 0.0600
  endloop
 endfacet
 facet normal -0.50000 0.00000 0.86603
  outer loop
   vertex -3.7020 1.7500 0.0300
   vertex -3.6500 4.0500 0.0600
   vertex -3.7020 4.0500 0.0300
  endloop
 endfacet
 facet normal 0.00000 -1.00000 0.00000
  outer loop
   vertex -3.6500 1.7500 0.0000
   vertex -3.6500 1.7500 0.0600
   vertex -3.7020 1.7500 0.0300
  endloop
 endfacet
 facet normal 0.00000 1.00000 0.00000
  outer loop
   vertex -3.6500 4.0500 0.0000
   vertex -3.7020 4.0500 0.0300
   vertex -3.6500 4.0500 0.0600
  endloop
 endfacet
 facet normal 0.50000 0.00000 0.86603
  outer loop
   vertex -3.6500 1.7500 0.0600
   vertex -3.5980 1.7500 0.0300
   vertex -3.5980 4.0500 0.0300
  endloop
 endfacet
 facet normal 0.50000 0.00000 0.86603
  outer loop
   vertex -3.6500 1.7500 0.0600
   vertex -3.5980 4.0500 0.0300
   vertex -3.6500 4.0500 0.0600
  endloop
 endfacet
 facet normal 0.00000 -1.00000 0.00000
  outer loop
   vertex -3.6500 1.7500 0.0000
   vertex -3.5980 1.7500 0.0300
   vertex -3.6500 1.7500 0.0600
  endloop
 endfacet
 facet normal 0.00000 1.00000 0.00000
  outer loop
   vertex -3.6500 4.0500 0.0000
   vertex -3.6500 4.0500 0.0600
   vertex -3.5980 4.0500 0.0300
  endloop
 endfacet
 facet normal 1.00000 0.00000 0.00000
  outer loop
   vertex -3.5980 1.7500 0.0300
   vertex -3.5980 1.7500 -0.0300
   vertex -3.5980 4.0500 -0.0300
  endloop
 endfacet
 facet normal 1.00000 0.00000 0.00000
  outer loop
   vertex -3.5980 1.7500 0.0300
   vertex -3.5980 4.0500 -0.0300
   vertex -3.5980 4.0500 0.0300
  endloop
 endfacet
 facet normal 0.00000 -1.00000 0.00000
  outer loop
   vertex -3.6500 1.7500 0.0000
   vertex -3.5980 1.7500 -0.0300
   vertex -3.5980 1.7500 0.0300
  endloop
 endfacet
 facet normal 0.00000 1.00000 0.00000
  outer loop
   vertex -3.6500 4.0500 0.0000
   vertex -3.5980 4.0500 0.0300
   vertex -3.5980 4.0500 -0.0300
  endloop
 endfacet
 facet normal 0.50000 0.00000 -0.86603
  outer loop
   vertex -3.5980 1.7500 -0.0300
   vertex -3.6500 1.7500 -0.0600
   vertex -3.6500 4.0500 -0.0600
  endloop
 endfacet
 facet normal 0.50000 0.00000 -0.86603
  outer loop
   vertex -3.5980 1.7500 -0.0300
   vertex -3.6500 4.0500 -0.0600
   vertex -3.5980 4.0500 -0.0300
  endloop
 endfacet
 facet normal 0.00000 -1.00000 0.00000
  outer loop
   vertex -3.6500 1.7500 0.0000
   vertex -3.6500 1.7500 -0.0600
   vertex -3.5980 1.7500 -0.0300
  endloop
 endfacet
 facet normal 0.00000 1.00000 0.00000
  outer loop
   vertex -3.6500 4.0500 0.0000
   vertex -3.5980 4.0500 -0.0300
   vertex -3.6500 4.0500 -0.0600
  endloop
 endfacet
 facet normal -0.50000 0.00000 -0.86603
  outer loop
   vertex -3.1000 1.7500 -0.0600
   vertex -3.1520 1.7500 -0.0300
   vertex -3.1520 4.0500 -0.0300
  endloop
 endfacet
 facet normal -0.50000 0.00000 -0.86603
  outer loop
   vertex -3.1000 1.7500 -0.0600
   vertex -3.1520 4.0500 -0.0300
   vertex -3.1000 4.0500 -0.0600
  endloop
 endfacet
 facet normal 0.00000 -1.00000 0.00000
  outer loop
   vertex -3.1000 1.7500 0.0000
   vertex -3.1520 1.7500 -0.0300
   vertex -3.1000 1.7500 -0.0600
  endloop
 endfacet
 facet normal 0.00000 1.00000 0.00000
  outer loop
   vertex -3.1000 4.0500 0.0000
   vertex -3.1000 4.0500 -0.0600
   vertex -3.1520 4.0500 -0.0300
  endloop
 endfacet
 facet normal -1.00000 0.00000 0.00000
  outer loop
   vertex -3.1520 1.7500 -0.0300
   vertex -3.1520 1.7500 0.0300
   vertex -3.1520 4.0500 0.0300
  endloop
 endfacet
 facet normal -1.00000 0.00000 0.00000
  outer loop
   vertex -3.1520 1.7500 -0.0300
   vertex -3.1520 4.0500 0.0300
   vertex -3.1520 4.0500 -0.0300
  endloop
 endfacet
 facet normal 0.00000 -1.00000 0.00000
  outer loop
   vertex -3.1000 1.7500 0.0000
   vertex -3.1520 1.7500 0.0300
   vertex -3.1520 1.7500 -0.0300
  endloop
 endfacet
 facet normal 0.00000 1.00000 0.00000
  outer loop
   vertex -3.1000 4.0500 0.0000
   vertex -3.1520 4.0500 -0.0300
   vertex -3.1520 4.0500 0.0300
  endloop
 endfacet
 facet normal -0.50000 0.00000 0.86603
  outer loop
   vertex -3.1520 1.7500 0.0300
   vertex -3.1000 1.7500 0.0600
   vertex -3.1000 4.0500 0.0600
  endloop
 endfacet
 facet normal -0.50000 0.00000 0.86603
  outer loop
   vertex -3.1520 1.7500 0.0300
   vertex -3.1000 4.0500 0.0600
   vertex -3.1520 4.0500 0.0300
  endloop
 endfacet
 facet normal 0.00000 -1.00000 0.00000
  outer loop
   vertex -3.1000 1.7500 0.0000
   vertex -3.1000 1.7500 0.0600
   vertex -3.1520 1.7500 0.0300
  endloop
 endfacet
 facet normal 0.00000 1.00000 0.00000
  outer loop
   vertex -3.1000 4.0500 0.0000
   vertex -3.1520 4.0500 0.0300
   vertex -3.1000 4.0500 0.0600
  endloop
 endfacet
 facet normal 0.50000 0.00000 0.86603
  outer loop
   vertex -3.1000 1.7500 0.0600
   vertex -3.0480 1.7500 0.0300
   vertex -3.0480 4.0500 0.0300
  endloop
 endfacet
 facet normal 0.50000 0.00000 0.86603
  outer loop
   vertex -3.1000 1.7500 0.0600
   vertex -3.0480 4.0500 0.0300
   vertex -3.1000 4.0500 0.0600
  endloop
 endfacet
 facet normal 0.00000 -1.00000 0.00000
  outer loop
   vertex -3.1000 1.7500 0.0000
   vertex -3.0480 1.7500 0.0300
   vertex -3.1000 1.7500 0.0600
  endloop
 endfacet
 facet normal 0.00000 1.00000 0.00000
  outer loop
   vertex -3.1000 4.0500 0.0000
   vertex -3.1000 4.0500 0.0600
   vertex -3.0480 4.0500 0.0300
  endloop
 endfacet
 facet normal 1.00000 0.00000 0.00000
  outer loop
   vertex -3.0480 1.7500 0.0300
   vertex -3.0480 1.7500 -0.0300
   vertex -3.0480 4.0500 -0.0300
  endloop
 endfacet
 facet normal 1.00000 0.00000 0.00000
  outer loop
   vertex -3.0480 1.7500 0.0300
   vertex -3.0480 4.0500 -0.0300
   vertex -3.0480 4.0500 0.0300
  endloop
 endfacet
 facet normal 0.00000 -1.00000 0.00000
  outer loop
   vertex -3.1000 1.7500 0.0000
   vertex -3.0480 1.7500 -0.0300
   vertex -3.0480 1.7500 0.0300
  endloop
 endfacet
 facet normal 0.00000 1.00000 0.00000
  outer loop
   vertex -3.1000 4.0500 0.0000
   vertex -3.0480 4.0500 0.0300
   vertex -3.0480 4.0500 -0.0300
  endloop
 endfacet
 facet normal 0.50000 0.00000 -0.86603
  outer loop
   vertex -3.0480 1.7500 -0.0300
   vertex -3.1000 1.7500 -0.0600
   vertex -3.1000 4.0500 -0.0600
  endloop
 endfacet
 facet normal 0.50000 0.00000 -0.86603
  outer loop
   vertex -3.0480 1.7500 -0.0300
   vertex -3.1000 4.0500 -0.0600
   vertex -3.0480 4.0500 -0.0300
  endloop
 endfacet
 facet normal 0.00000 -1.00000 0.00000
  outer loop
   vertex -3.1000 1.7500 0.0000
   vertex -3.1000 1.7500 -0.0600
   vertex -3.0480 1.7500 -0.0300
  endloop
 endfacet
 facet normal 0.00000 1.00000 0.00000
  outer loop
   vertex -3.1000 4.0500 0.0000
   vertex -3.0480 4.0500 -0.0300
   vertex -3.1000 4.0500 -0.0600
  endloop
 endfacet
 facet normal -0.50000 0.00000 -0.86603
  outer loop
   vertex -2.5500 1.7500 -0.0600
   vertex -2.6020 1.7500 -0.0300
   vertex -2.6020 4.0500 -0.0300
  endloop
 endfacet
 facet normal -0.50000 0.00000 -0.86603
  outer loop
   vertex -2.5500 1.7500 -0.0600
   vertex -2.6020 4.0500 -0.0300
   vertex -2.5500 4.0500 -0.0600
  endloop
 endfacet
 facet normal 0.00000 -1.00000 0.00000
  outer loop
   vertex -2.5500 1.7500 0.0000
   vertex -2.6020 1.7500 -0.0300
   vertex -2.5500 1.7500 -0.0600
  endloop
 endfacet
 facet normal 0.00000 1.00000 0.00000
  outer loop
   vertex -2.5500 4.0500 0.0000
   vertex -2.5500 4.0500 -0.0600
   vertex -2.6020 4.0500 -0.0300
  endloop
 endfacet
 facet normal -1.00000 0.00000 0.00000
  outer loop
   vertex -2.6020 1.7500 -0.0300
   vertex -2.6020 1.7500 0.0300
   vertex -2.6020 4.0500 0.0300
  endloop
 endfacet
 facet normal -1.00000 0.00000 0.00000
  outer loop
   vertex -2.6020 1.7500 -0.0300
   vertex -2.6020 4.0500 0.0300
   vertex -2.6020 4.0500 -0.0300
  endloop
 endfacet
 facet normal 0.00000 -1.00000 0.00000
  outer loop
   vertex -2.5500 1.7500 0.0000
   vertex -2.6020 1.7500 0.0300
   vertex -2.6020 1.7500 -0.0300
  endloop
 endfacet
 facet normal 0.00000 1.00000 0.00000
  outer loop
   vertex -2.5500 4.0500 0.0000
   vertex -2.6020 4.0500 -0.0300
   vertex -2.6020 4.0500 0.0300
  endloop
 endfacet
 facet normal -0.50000 0.00000 0.86603
  outer loop
   vertex -2.6020 1.7500 0.0300
   vertex -2.5500 1.7500 0.0600
   vertex -2.5500 4.0500 0.0600
  endloop
 endfacet
 facet normal -0.50000 0.00000 0.86603
  outer loop
   vertex -2.6020 1.7500 0.0300
   vertex -2.5500 4.0500 0.0600
   vertex -2.6020 4.0500 0.0300
  endloop
 endfacet
 facet normal 0.00000 -1.00000 0.00000
  outer loop
   vertex -2.5500 1.7500 0.0000
   vertex -2.5500 1.7500 0.0600
   vertex -2.6020 1.7500 0.0300
  endloop
 endfacet
 facet normal 0.00000 1.00000 0.00000
  outer loop
   vertex -2.5500 4.0500 0.0000
   vertex -2.6020 4.0500 0.0300
   vertex -2.5500 4.0500 0.0600
  endloop
 endfacet
 facet normal 0.50000 0.00000 0.86603
  outer loop
   vertex -2.5500 1.7500 0.0600
   vertex -2.4980 1.7500 0.0300
   vertex -2.4980 4.0500 0.0300
  endloop
 endfacet
 facet normal 0.50000 0.00000 0.86603
  outer loop
   vertex -2.5500 1.7500 0.0600
   vertex -2.4980 4.0500 0.0300
   vertex -2.5500 4.0500 0.0600
  endloop
 endfacet
 facet normal 0.00000 -1.00000 0.00000
  outer loop
   vertex -2.5500 1.7500 0.0000
   vertex -2.4980 1.7500 0.0300
   vertex -2.5500 1.7500 0.0600
  endloop
 endfacet
 facet normal 0.00000 1.00000 0.00000
  outer loop
   vertex -2.5500 4.0500 0.0000
   vertex -2.5500 4.0500 0.0600
   vertex -2.4980 4.0500 0.0300
  endloop
 endfacet
 facet normal 1.00000 0.00000 0.00000
  outer loop
   vertex -2.4980 1.7500 0.0300
   vertex -2.4980 1.7500 -0.0300
   vertex -2.4980 4.0500 -0.0300
  endloop
 endfacet
 facet normal 1.00000 0.00000 0.00000
  outer loop
   vertex -2.4980 1.7500 0.0300
   vertex -2.4980 4.0500 -0.0300
   vertex -2.4980 4.0500 0.0300
  endloop
 endfacet
 facet normal 0.00000 -1.00000 0.00000
  outer loop
   vertex -2.5500 1.7500 0.0000
   vertex -2.4980 1.7500 -0.0300
   vertex -2.4980 1.7500 0.0300
  endloop
 endfacet
 facet normal 0.00000 1.00000 0.00000
  outer loop
   vertex -2.5500 4.0500 0.0000
   vertex -2.4980 4.0500 0.0300
   vertex -2.4980 4.0500 -0.0300
  endloop
 endfacet
 facet normal 0.50000 0.00000 -0.86603
  outer loop
   vertex -2.4980 1.7500 -0.0300
   vertex -2.5500 1.7500 -0.0600
   vertex -2.5500 4.0500 -0.0600
  endloop
 endfacet
 facet normal 0.50000 0.00000 -0.86603
  outer loop
   vertex -2.4980 1.7500 -0.0300
   vertex -2.5500 4.0500 -0.0600
   vertex -2.4980 4.0500 -0.0300
  endloop
 endfacet
 facet normal 0.00000 -1.00000 0.00000
  outer loop
   vertex -2.5500 1.7500 0.0000
   vertex -2.5500 1.7500 -0.0600
   vertex -2.4980 1.7500 -0.0300
  endloop
 endfacet
 facet normal 0.00000 1.00000 0.00000
  outer loop
   vertex -2.5500 4.0500 0.0000
   vertex -2.4980 4.0500 -0.0300
   vertex -2.5500 4.0500 -0.0600
  endloop
 endfacet
 facet normal -0.50000 0.00000 -0.86603
  outer loop
   vertex -2.0000 1.7500 -0.0600
   vertex -2.0520 1.7500 -0.0300
   vertex -2.0520 4.0500 -0.0300
  endloop
 endfacet
 facet normal -0.50000 0.00000 -0.86603
  outer loop
   vertex -2.0000 1.7500 -0.0600
   vertex -2.0520 4.0500 -0.0300
   vertex -2.0000 4.0500 -0.0600
  endloop
 endfacet
 facet normal 0.00000 -1.00000 0.00000
  outer loop
   vertex -2.0000 1.7500 0.0000
   vertex -2.0520 1.7500 -0.0300
   vertex -2.0000 1.7500 -0.0600
  endloop
 endfacet
 facet normal 0.00000 1.00000 0.00000
  outer loop
   vertex -2.0000 4.0500 0.0000
   vertex -2.0000 4.0500 -0.0600
   vertex -2.0520 4.0500 -0.0300
  endloop
 endfacet
 facet normal -1.00000 0.00000 0.00000
  outer loop
   vertex -2.0520 1.7500 -0.0300
   vertex -2.0520 1.7500 0.0300
   vertex -2.0520 4.0500 0.0300
  endloop
 endfacet
 facet normal -1.00000 0.00000 0.00000
  outer loop
   vertex -2.0520 1.7500 -0.0300
   vertex -2.0520 4.0500 0.0300
   vertex -2.0520 4.0500 -0.0300
  endloop
 endfacet
 facet normal 0.00000 -1.00000 0.00000
  outer loop
   vertex -2.0000 1.7500 0.0000
   vertex -2.0520 1.7500 0.0300
   vertex -2.0520 1.7500 -0.0300
  endloop
 endfacet
 facet normal 0.00000 1.00000 0.00000
  outer loop
   vertex -2.0000 4.0500 0.0000
   vertex -2.0520 4.0500 -0.0300
   vertex -2.0520 4.0500 0.0300
  endloop
 endfacet
 facet normal -0.50000 0.00000 0.86603
  outer loop
   vertex -2.0520 1.7500 0.0300
   vertex -2.0000 1.7500 0.0600
   vertex -2.0000 4.0500 0.0600
  endloop
 endfacet
 facet normal -0.50000 0.00000 0.86603
  outer loop
   vertex -2.0520 1.7500 0.0300
   vertex -2.0000 4.0500 0.0600
   vertex -2.0520 4.0500 0.0300
  endloop
 endfacet
 facet normal 0.00000 -1.00000 0.00000
  outer loop
   vertex -2.0000 1.7500 0.0000
   vertex -2.0000 1.7500 0.0600
   vertex -2.0520 1.7500 0.0300
  endloop
 endfacet
 facet normal 0.00000 1.00000 0.00000
  outer loop
   vertex -2.0000 4.0500 0.0000
   vertex -2.0520 4.0500 0.0300
   vertex -2.0000 4.0500 0.0600
  endloop
 endfacet
 facet normal 0.50000 0.00000 0.86603
  outer loop
   vertex -2.0000 1.7500 0.0600
   vertex -1.9480 1.7500 0.0300
   vertex -1.9480 4.0500 0.0300
  endloop
 endfacet
 facet normal 0.50000 0.00000 0.86603
  outer loop
   vertex -2.0000 1.7500 0.0600
   vertex -1.9480 4.0500 0.0300
   vertex -2.0000 4.0500 0.0600
  endloop
 endfacet
 facet normal 0.00000 -1.00000 0.00000
  outer loop
   vertex -2.0000 1.7500 0.0000
   vertex -1.9480 1.7500 0.0300
   vertex -2.0000 1.7500 0.0600
  endloop
 endfacet
 facet normal 0.00000 1.00000 0.00000
  outer loop
   vertex -2.0000 4.0500 0.0000
   vertex -2.0000 4.0500 0.0600
   vertex -1.9480 4.0500 0.0300
  endloop
 endfacet
 facet normal 1.00000 0.00000 0.00000
  outer loop
   vertex -1.9480 1.7500 0.0300
   vertex -1.9480 1.7500 -0.0300
   vertex -1.9480 4.0500 -0.0300
  endloop
 endfacet
 facet normal 1.00000 0.00000 0.00000
  outer loop
   vertex -1.9480 1.7500 0.0300
   vertex -1.9480 4.0500 -0.0300
   vertex -1.9480 4.0500 0.0300
  endloop
 endfacet
 facet normal 0.00000 -1.00000 0.00000
  outer loop
   vertex -2.0000 1.7500 0.0000
   vertex -1.9480 1.7500 -0.0300
   vertex -1.9480 1.7500 0.0300
  endloop
 endfacet
 facet normal 0.00000 1.00000 0.00000
  outer loop
   vertex -2.0000 4.0500 0.0000
   vertex -1.9480 4.0500 0.0300
   vertex -1.9480 4.0500 -0.0300
  endloop
 endfacet
 facet normal 0.50000 0.00000 -0.86603
  outer loop
   vertex -1.9480 1.7500 -0.0300
   vertex -2.0000 1.7500 -0.0600
   vertex -2.0000 4.0500 -0.0600
  endloop
 endfacet
 facet normal 0.50000 0.00000 -0.86603
  outer loop
   vertex -1.9480 1.7500 -0.0300
   vertex -2.0000 4.0500 -0.0600
   vertex -1.9480 4.0500 -0.0300
  endloop
 endfacet
 facet normal 0.00000 -1.00000 0.00000
  outer loop
   vertex -2.0000 1.7500 0.0000
   vertex -2.0000 1.7500 -0.0600
   vertex -1.9480 1.7500 -0.0300
  endloop
 endfacet
 facet normal 0.00000 1.00000 0.00000
  outer loop
   vertex -2.0000 4.0500 0.0000
   vertex -1.9480 4.0500 -0.0300
   vertex -2.0000 4.0500 -0.0600
  endloop
 endfacet
 facet normal -0.50000 0.00000 -0.86603
  outer loop
   vertex -1.4500 1.7500 -0.0600
   vertex -1.5020 1.7500 -0.0300
   vertex -1.5020 4.0500 -0.0300
  endloop
 endfacet
 facet normal -0.50000 0.00000 -0.86603
  outer loop
   vertex -1.4500 1.7500 -0.0600
   vertex -1.5020 4.0500 -0.0300
   vertex -1.4500 4.0500 -0.0600
  endloop
 endfacet
 facet normal 0.00000 -1.00000 0.00000
  outer loop
   vertex -1.4500 1.7500 0.0000
   vertex -1.5020 1.7500 -0.0300
   vertex -1.4500 1.7500 -0.0600
  endloop
 endfacet
 facet normal 0.00000 1.00000 0.00000
  outer loop
   vertex -1.4500 4.0500 0.0000
   vertex -1.4500 4.0500 -0.0600
   vertex -1.5020 4.0500 -0.0300
  endloop
 endfacet
 facet normal -1.00000 0.00000 0.00000
  outer loop
   vertex -1.5020 1.7500 -0.0300
   vertex -1.5020 1.7500 0.0300
   vertex -1.5020 4.0500 0.0300
  endloop
 endfacet
 facet normal -1.00000 0.00000 0.00000
  outer loop
   vertex -1.5020 1.7500 -0.0300
   vertex -1.5020 4.0500 0.0300
   vertex -1.5020 4.0500 -0.0300
  endloop
 endfacet
 facet normal 0.00000 -1.00000 0.00000
  outer loop
   vertex -1.4500 1.7500 0.0000
   vertex -1.5020 1.7500 0.0300
   vertex -1.5020 1.7500 -0.0300
  endloop
 endfacet
 facet normal 0.00000 1.00000 0.00000
  outer loop
   vertex -1.4500 4.0500 0.0000
   vertex -1.5020 4.0500 -0.0300
   vertex -1.5020 4.0500 0.0300
  endloop
 endfacet
 facet normal -0.50000 0.00000 0.86603
  outer loop
   vertex -1.5020 1.7500 0.0300
   vertex -1.4500 1.7500 0.0600
   vertex -1.4500 4.0500 0.0600
  endloop
 endfacet
 facet normal -0.50000 0.00000 0.86603
  outer loop
   vertex -1.5020 1.7500 0.0300
   vertex -1.4500 4.0500 0.0600
   vertex -1.5020 4.0500 0.0300
  endloop
 endfacet
 facet normal 0.00000 -1.00000 0.00000
  outer loop
   vertex -1.4500 1.7500 0.0000
   vertex -1.4500 1.7500 0.0600
   vertex -1.5020 1.7500 0.0300
  endloop
 endfacet
 facet normal 0.00000 1.00000 0.00000
  outer loop
   vertex -1.4500 4.0500 0.0000
   vertex -1.5020 4.0500 0.0300
   vertex -1.4500 4.0500 0.0600
  endloop
 endfacet
 facet normal 0.50000 0.00000 0.86603
  outer loop
   vertex -1.4500 1.7500 0.0600
   vertex -1.3980 1.7500 0.0300
   vertex -1.3980 4.0500 0.0300
  endloop
 endfacet
 facet normal 0.50000 0.00000 0.86603
  outer loop
   vertex -1.4500 1.7500 0.0600
   vertex -1.3980 4.0500 0.0300
   vertex -1.4500 4.0500 0.0600
  endloop
 endfacet
 facet normal 0.00000 -1.00000 0.00000
  outer loop
   vertex -1.4500 1.7500 0.0000
   vertex -1.3980 1.7500 0.0300
   vertex -1.4500 1.7500 0.0600
  endloop
 endfacet
 facet normal 0.00000 1.00000 0.00000
  outer loop
   vertex -1.4500 4.0500 0.0000
   vertex -1.4500 4.0500 0.0600
   vertex -1.3980 4.0500 0.0300
  endloop
 endfacet
 facet normal 1.00000 0.00000 0.00000
  outer loop
   vertex -1.3980 1.7500 0.0300
   vertex -1.3980 1.7500 -0.0300
   vertex -1.3980 4.0500 -0.0300
  endloop
 endfacet
 facet normal 1.00000 0.00000 0.00000
  outer loop
   vertex -1.3980 1.7500 0.0300
   vertex -1.3980 4.0500 -0.0300
   vertex -1.3980 4.0500 0.0300
  endloop
 endfacet
 facet normal 0.00000 -1.00000 0.00000
  outer loop
   vertex -1.4500 1.7500 0.0000
   vertex -1.3980 1.7500 -0.0300
   vertex -1.3980 1.7500 0.0300
  endloop
 endfacet
 facet normal 0.00000 1.00000 0.00000
  outer loop
   vertex -1.4500 4.0500 0.0000
   vertex -1.3980 4.0500 0.0300
   vertex -1.3980 4.0500 -0.0300
  endloop
 endfacet
 facet normal 0.50000 0.00000 -0.86603
  outer loop
   vertex -1.3980 1.7500 -0.0300
   vertex -1.4500 1.7500 -0.0600
   vertex -1.4500 4.0500 -0.0600
  endloop
 endfacet
 facet normal 0.50000 0.00000 -0.86603
  outer loop
   vertex -1.3980 1.7500 -0.0300
   vertex -1.4500 4.0500 -0.0600
   vertex -1.3980 4.0500 -0.0300
  endloop
 endfacet
 facet normal 0.00000 -1.00000 0.00000
  outer loop
   vertex -1.4500 1.7500 0.0000
   vertex -1.4500 1.7500 -0.0600
   vertex -1.3980 1.7500 -0.0300
  endloop
 endfacet
 facet normal 0.00000 1.00000 0.00000
  outer loop
   vertex -1.4500 4.0500 0.0000
   vertex -1.3980 4.0500 -0.0300
   vertex -1.4500 4.0500 -0.0600
  endloop
 endfacet
 facet normal -0.50000 0.00000 -0.86603
  outer loop
   vertex -0.9000 1.7500 -0.0600
   vertex -0.9520 1.7500 -0.0300
   vertex -0.9520 4.0500 -0.0300
  endloop
 endfacet
 facet normal -0.50000 0.00000 -0.86603
  outer loop
   vertex -0.9000 1.7500 -0.0600
   vertex -0.9520 4.0500 -0.0300
   vertex -0.9000 4.0500 -0.0600
  endloop
 endfacet
 facet normal 0.00000 -1.00000 0.00000
  outer loop
   vertex -0.9000 1.7500 0.0000
   vertex -0.9520 1.7500 -0.0300
   vertex -0.9000 1.7500 -0.0600
  endloop
 endfacet
 facet normal 0.00000 1.00000 0.00000
  outer loop
   vertex -0.9000 4.0500 0.0000
   vertex -0.9000 4.0500 -0.0600
   vertex -0.9520 4.0500 -0.0300
  endloop
 endfacet
 facet normal -1.00000 0.00000 0.00000
  outer loop
   vertex -0.9520 1.7500 -0.0300
   vertex -0.9520 1.7500 0.0300
   vertex -0.9520 4.0500 0.0300
  endloop
 endfacet
 facet normal -1.00000 0.00000 0.00000
  outer loop
   vertex -0.9520 1.7500 -0.0300
   vertex -0.9520 4.0500 0.0300
   vertex -0.9520 4.0500 -0.0300
  endloop
 endfacet
 facet normal 0.00000 -1.00000 0.00000
  outer loop
   vertex -0.9000 1.7500 0.0000
   vertex -0.9520 1.7500 0.0300
   vertex -0.9520 1.7500 -0.0300
  endloop
 endfacet
 facet normal 0.00000 1.00000 0.00000
  outer loop
   vertex -0.9000 4.0500 0.0000
   vertex -0.9520 4.0500 -0.0300
   vertex -0.9520 4.0500 0.0300
  endloop
 endfacet
 facet normal -0.50000 0.00000 0.86603
  outer loop
   vertex -0.9520 1.7500 0.0300
   vertex -0.9000 1.7500 0.0600
   vertex -0.9000 4.0500 0.0600
  endloop
 endfacet
 facet normal -0.50000 0.00000 0.86603
  outer loop
   vertex -0.9520 1.7500 0.0300
   vertex -0.9000 4.0500 0.0600
   vertex -0.9520 4.0500 0.0300
  endloop
 endfacet
 facet normal 0.00000 -1.00000 0.00000
  outer loop
   vertex -0.9000 1.7500 0.0000
   vertex -0.9000 1.7500 0.0600
   vertex -0.9520 1.7500 0.0300
  endloop
 endfacet
 facet normal 0.00000 1.00000 0.00000
  outer loop
   vertex -0.9000 4.0500 0.0000
   vertex -0.9520 4.0500 0.0300
   vertex -0.9000 4.0500 0.0600
  endloop
 endfacet
 facet normal 0.50000 0.00000 0.86603
  outer loop
   vertex -0.9000 1.7500 0.0600
   vertex -0.8480 1.7500 0.0300
   vertex -0.8480 4.0500 0.0300
  endloop
 endfacet
 facet normal 0.50000 0.00000 0.86603
  outer loop
   vertex -0.9000 1.7500 0.0600
   vertex -0.8480 4.0500 0.0300
   vertex -0.9000 4.0500 0.0600
  endloop
 endfacet
 facet normal 0.00000 -1.00000 0.00000
  outer loop
   vertex -0.9000 1.7500 0.0000
   vertex -0.8480 1.7500 0.0300
   vertex -0.9000 1.7500 0.0600
  endloop
 endfacet
 facet normal 0.00000 1.00000 0.00000
  outer loop
   vertex -0.9000 4.0500 0.0000
   vertex -0.9000 4.0500 0.0600
   vertex -0.8480 4.0500 0.0300
  endloop
 endfacet
 facet normal 1.00000 0.00000 0.00000
  outer loop
   vertex -0.8480 1.7500 0.0300
   vertex -0.8480 1.7500 -0.0300
   vertex -0.8480 4.0500 -0.0300
  endloop
 endfacet
 facet normal 1.00000 0.00000 0.00000
  outer loop
   vertex -0.8480 1.7500 0.0300
   vertex -0.8480 4.0500 -0.0300
   vertex -0.8480 4.0500 0.0300
  endloop
 endfacet
 facet normal 0.00000 -1.00000 0.00000
  outer loop
   vertex -0.9000 1.7500 0.0000
   vertex -0.8480 1.7500 -0.0300
   vertex -0.8480 1.7500 0.0300
  endloop
 endfacet
 facet normal 0.00000 1.00000 0.00000
  outer loop
   vertex -0.9000 4.0500 0.0000
   vertex -0.8480 4.0500 0.0300
   vertex -0.8480 4.0500 -0.0300
  endloop
 endfacet
 facet normal 0.50000 0.00000 -0.86603
  outer loop
   vertex -0.8480 1.7500 -0.0300
   vertex -0.9000 1.7500 -0.0600
   vertex -0.9000 4.0500 -0.0600
  endloop
 endfacet
 facet normal 0.50000 0.00000 -0.86603
  outer loop
   vertex -0.8480 1.7500 -0.0300
   vertex -0.9000 4.0500 -0.0600
   vertex -0.8480 4.0500 -0.0300
  endloop
 endfacet
 facet normal 0.00000 -1.00000 0.00000
  outer loop
   vertex -0.9000 1.7500 0.0000
   vertex -0.9000 1.7500 -0.0600
   vertex -0.8480 1.7500 -0.0300
  endloop
 endfacet
 facet normal 0.00000 1.00000 0.00000
  outer loop
   vertex -0.9000 4.0500 0.0000
   vertex -0.8480 4.0500 -0.0300
   vertex -0.9000 4.0500 -0.0600
  endloop
 endfacet
 facet normal -0.50000 0.00000 -0.86603
  outer loop
   vertex -0.3500 1.7500 -0.0600
   vertex -0.4020 1.7500 -0.0300
   vertex -0.4020 4.0500 -0.0300
  endloop
 endfacet
 facet normal -0.50000 0.00000 -0.86603
  outer loop
   vertex -0.3500 1.7500 -0.0600
   vertex -0.4020 4.0500 -0.0300
   vertex -0.3500 4.0500 -0.0600
  endloop
 endfacet
 facet normal 0.00000 -1.00000 0.00000
  outer loop
   vertex -0.3500 1.7500 0.0000
   vertex -0.4020 1.7500 -0.0300
   vertex -0.3500 1.7500 -0.0600
  endloop
 endfacet
 facet normal 0.00000 1.00000 0.00000
  outer loop
   vertex -0.3500 4.0500 0.0000
   vertex -0.3500 4.0500 -0.0600
   vertex -0.4020 4.0500 -0.0300
  endloop
 endfacet
 facet normal -1.00000 0.00000 -0.00000
  outer loop
   vertex -0.4020 1.7500 -0.0300
   vertex -0.4020 1.7500 0.0300
   vertex -0.4020 4.0500 0.0300
  endloop
 endfacet
 facet normal -1.00000 0.00000 -0.00000
  outer loop
   vertex -0.4020 1.7500 -0.0300
   vertex -0.4020 4.0500 0.0300
   vertex -0.4020 4.0500 -0.0300
  endloop
 endfacet
 facet normal 0.00000 -1.00000 0.00000
  outer loop
   vertex -0.3500 1.7500 0.0000
   vertex -0.4020 1.7500 0.0300
   vertex -0.4020 1.7500 -0.0300
  endloop
 endfacet
 facet normal 0.00000 1.00000 0.00000
  outer loop
   vertex -0.3500 4.0500 0.0000
   vertex -0.4020 4.0500 -0.0300
   vertex -0.4020 4.0500 0.0300
  endloop
 endfacet
 facet normal -0.50000 0.00000 0.86603
  outer loop
   vertex -0.4020 1.7500 0.0300
   vertex -0.3500 1.7500 0.0600
   vertex -0.3500 4.0500 0.0600
  endloop
 endfacet
 facet normal -0.50000 0.00000 0.86603
  outer loop
   vertex -0.4020 1.7500 0.0300
   vertex -0.3500 4.0500 0.0600
   vertex -0.4020 4.0500 0.0300
  endloop
 endfacet
 facet normal 0.00000 -1.00000 0.00000
  outer loop
   vertex -0.3500 1.7500 0.0000
   vertex -0.3500 1.7500 0.0600
   vertex -0.4020 1.7500 0.0300
  endloop
 endfacet
 facet normal 0.00000 1.00000 0.00000
  outer loop
   vertex -0.3500 4.0500 0.0000
   vertex -0.4020 4.0500 0.0300
   vertex -0.3500 4.0500 0.0600
  endloop
 endfacet
 facet normal 0.50000 0.00000 0.86603
  outer loop
   vertex -0.3500 1.7500 0.0600
   vertex -0.2980 1.7500 0.0300
   vertex -0.2980 4.0500 0.0300
  endloop
 endfacet
 facet normal 0.50000 0.00000 0.86603
  outer loop
   vertex -0.3500 1.7500 0.0600
   vertex -0.2980 4.0500 0.0300
   vertex -0.3500 4.0500 0.0600
  endloop
 endfacet
 facet normal 0.00000 -1.00000 0.00000
  outer loop
   vertex -0.3500 1.7500 0.0000
   vertex -0.2980 1.7500 0.0300
   vertex -0.3500 1.7500 0.0600
  endloop
 endfacet
 facet normal 0.00000 1.00000 0.00000
  outer loop
   vertex -0.3500 4.0500 0.0000
   vertex -0.3500 4.0500 0.0600
   vertex -0.2980 4.0500 0.0300
  endloop
 endfacet
 facet normal 1.00000 0.00000 0.00000
  outer loop
   vertex -0.2980 1.7500 0.0300
   vertex -0.2980 1.7500 -0.0300
   vertex -0.2980 4.0500 -0.0300
  endloop
 endfacet
 facet normal 1.00000 0.00000 0.00000
  outer loop
   vertex -0.2980 1.7500 0.0300
   vertex -0.2980 4.0500 -0.0300
   vertex -0.2980 4.0500 0.0300
  endloop
 endfacet
 facet normal 0.00000 -1.00000 0.00000
  outer loop
   vertex -0.3500 1.7500 0.0000
   vertex -0.2980 1.7500 -0.0300
   vertex -0.2980 1.7500 0.0300
  endloop
 endfacet
 facet normal 0.00000 1.00000 0.00000
  outer loop
   vertex -0.3500 4.0500 0.0000
   vertex -0.2980 4.0500 0.0300
   vertex -0.2980 4.0500 -0.0300
  endloop
 endfacet
 facet normal 0.50000 0.00000 -0.86603
  outer loop
   vertex -0.2980 1.7500 -0.0300
   vertex -0.3500 1.7500 -0.0600
   vertex -0.3500 4.0500 -0.0600
  endloop
 endfacet
 facet normal 0.50000 0.00000 -0.86603
  outer loop
   vertex -0.2980 1.7500 -0.0300
   vertex -0.3500 4.0500 -0.0600
   vertex -0.2980 4.0500 -0.0300
  endloop
 endfacet
 facet normal 0.00000 -1.00000 0.00000
  outer loop
   vertex -0.3500 1.7500 0.0000
   vertex -0.3500 1.7500 -0.0600
   vertex -0.2980 1.7500 -0.0300
  endloop
 endfacet
 facet normal 0.00000 1.00000 0.00000
  outer loop
   vertex -0.3500 4.0500 0.0000
   vertex -0.2980 4.0500 -0.0300
   vertex -0.3500 4.0500 -0.0600
  endloop
 endfacet
 facet normal -0.50000 0.00000 -0.86603
  outer loop
   vertex 0.2000 1.7500 -0.0600
   vertex 0.1480 1.7500 -0.0300
   vertex 0.1480 4.0500 -0.0300
  endloop
 endfacet
 facet normal -0.50000 0.00000 -0.86603
  outer loop
   vertex 0.2000 1.7500 -0.0600
   vertex 0.1480 4.0500 -0.0300
   vertex 0.2000 4.0500 -0.0600
  endloop
 endfacet
 facet normal 0.00000 -1.00000 0.00000
  outer loop
   vertex 0.2000 1.7500 0.0000
   vertex 0.1480 1.7500 -0.0300
   vertex 0.2000 1.7500 -0.0600
  endloop
 endfacet
 facet normal 0.00000 1.00000 0.00000
  outer loop
   vertex 0.2000 4.0500 0.0000
   vertex 0.2000 4.0500 -0.0600
   vertex 0.1480 4.0500 -0.0300
  endloop
 endfacet
 facet normal -1.00000 0.00000 0.00000
  outer loop
   vertex 0.1480 1.7500 -0.0300
   vertex 0.1480 1.7500 0.0300
   vertex 0.1480 4.0500 0.0300
  endloop
 endfacet
 facet normal -1.00000 0.00000 0.00000
  outer loop
   vertex 0.1480 1.7500 -0.0300
   vertex 0.1480 4.0500 0.0300
   vertex 0.1480 4.0500 -0.0300
  endloop
 endfacet
 facet normal 0.00000 -1.00000 0.00000
  outer loop
   vertex 0.2000 1.7500 0.0000
   vertex 0.1480 1.7500 0.0300
   vertex 0.1480 1.7500 -0.0300
  endloop
 endfacet
 facet normal 0.00000 1.00000 0.00000
  outer loop
   vertex 0.2000 4.0500 0.0000
   vertex 0.1480 4.0500 -0.0300
   vertex 0.1480 4.0500 0.0300
  endloop
 endfacet
 facet normal -0.50000 0.00000 0.86603
  outer loop
   vertex 0.1480 1.7500 0.0300
   vertex 0.2000 1.7500 0.0600
   vertex 0.2000 4.0500 0.0600
  endloop
 endfacet
 facet normal -0.50000 0.00000 0.86603
  outer loop
   vertex 0.1480 1.7500 0.0300
   vertex 0.2000 4.0500 0.0600
   vertex 0.1480 4.0500 0.0300
  endloop
 endfacet
 facet normal 0.00000 -1.00000 0.00000
  outer loop
   vertex 0.2000 1.7500 0.0000
   vertex 0.2000 1.7500 0.0600
   vertex 0.1480 1.7500 0.0300
  endloop
 endfacet
 facet normal 0.00000 1.00000 0.00000
  outer loop
   vertex 0.2000 4.0500 0.0000
   vertex 0.1480 4.0500 0.0300
   vertex 0.2000 4.0500 0.0600
  endloop
 endfacet
 facet normal 0.50000 0.00000 0.86603
  outer loop
   vertex 0.2000 1.7500 0.0600
   vertex 0.2520 1.7500 0.0300
   vertex 0.2520 4.0500 0.0300
  endloop
 endfacet
 facet normal 0.50000 0.00000 0.86603
  outer loop
   vertex 0.2000 1.7500 0.0600
   vertex 0.2520 4.0500 0.0300
   vertex 0.2000 4.0500 0.0600
  endloop
 endfacet
 facet normal 0.00000 -1.00000 0.00000
  outer loop
   vertex 0.2000 1.7500 0.0000
   vertex 0.2520 1.7500 0.0300
   vertex 0.2000 1.7500 0.0600
  endloop
 endfacet
 facet normal 0.00000 1.00000 0.00000
  outer loop
   vertex 0.2000 4.0500 0.0000
   vertex 0.2000 4.0500 0.0600
   vertex 0.2520 4.0500 0.0300
  endloop
 endfacet
 facet normal 1.00000 0.00000 0.00000
  outer loop
   vertex 0.2520 1.7500 0.0300
   vertex 0.2520 1.7500 -0.0300
   vertex 0.2520 4.0500 -0.0300
  endloop
 endfacet
 facet normal 1.00000 0.00000 0.00000
  outer loop
   vertex 0.2520 1.7500 0.0300
   vertex 0.2520 4.0500 -0.0300
   vertex 0.2520 4.0500 0.0300
  endloop
 endfacet
 facet normal 0.00000 -1.00000 0.00000
  outer loop
   vertex 0.2000 1.7500 0.0000
   vertex 0.2520 1.7500 -0.0300
   vertex 0.2520 1.7500 0.0300
  endloop
 endfacet
 facet normal 0.00000 1.00000 0.00000
  outer loop
   vertex 0.2000 4.0500 0.0000
   vertex 0.2520 4.0500 0.0300
   vertex 0.2520 4.0500 -0.0300
  endloop
 endfacet
 facet normal 0.50000 0.00000 -0.86603
  outer loop
   vertex 0.2520 1.7500 -0.0300
   vertex 0.2000 1.7500 -0.0600
   vertex 0.2000 4.0500 -0.0600
  endloop
 endfacet
 facet normal 0.50000 0.00000 -0.86603
  outer loop
   vertex 0.2520 1.7500 -0.0300
   vertex 0.2000 4.0500 -0.0600
   vertex 0.2520 4.0500 -0.0300
  endloop
 endfacet
 facet normal 0.00000 -1.00000 0.00000
  outer loop
   vertex 0.2000 1.7500 0.0000
   vertex 0.2000 1.7500 -0.0600
   vertex 0.2520 1.7500 -0.0300
  endloop
 endfacet
 facet normal 0.00000 1.00000 0.00000
  outer loop
   vertex 0.2000 4.0500 0.0000
   vertex 0.2520 4.0500 -0.0300
   vertex 0.2000 4.0500 -0.0600
  endloop
 endfacet
 facet normal -0.50000 0.00000 -0.86603
  outer loop
   vertex 0.7500 1.7500 -0.0600
   vertex 0.6980 1.7500 -0.0300
   vertex 0.6980 4.0500 -0.0300
  endloop
 endfacet
 facet normal -0.50000 0.00000 -0.86603
  outer loop
   vertex 0.7500 1.7500 -0.0600
   vertex 0.6980 4.0500 -0.0300
   vertex 0.7500 4.0500 -0.0600
  endloop
 endfacet
 facet normal 0.00000 -1.00000 0.00000
  outer loop
   vertex 0.7500 1.7500 0.0000
   vertex 0.6980 1.7500 -0.0300
   vertex 0.7500 1.7500 -0.0600
  endloop
 endfacet
 facet normal 0.00000 1.00000 0.00000
  outer loop
   vertex 0.7500 4.0500 0.0000
   vertex 0.7500 4.0500 -0.0600
   vertex 0.6980 4.0500 -0.0300
  endloop
 endfacet
 facet normal -1.00000 0.00000 0.00000
  outer loop
   vertex 0.6980 1.7500 -0.0300
   vertex 0.6980 1.7500 0.0300
   vertex 0.6980 4.0500 0.0300
  endloop
 endfacet
 facet normal -1.00000 0.00000 0.00000
  outer loop
   vertex 0.6980 1.7500 -0.0300
   vertex 0.6980 4.0500 0.0300
   vertex 0.6980 4.0500 -0.0300
  endloop
 endfacet
 facet normal 0.00000 -1.00000 0.00000
  outer loop
   vertex 0.7500 1.7500 0.0000
   vertex 0.6980 1.7500 0.0300
   vertex 0.6980 1.7500 -0.0300
  endloop
 endfacet
 facet normal 0.00000 1.00000 0.00000
  outer loop
   vertex 0.7500 4.0500 0.0000
   vertex 0.6980 4.0500 -0.0300
   vertex 0.6980 4.0500 0.0300
  endloop
 endfacet
 facet normal -0.50000 0.00000 0.86603
  outer loop
   vertex 0.6980 1.7500 0.0300
   vertex 0.7500 1.7500 0.0600
   vertex 0.7500 4.0500 0.0600
  endloop
 endfacet
 facet normal -0.50000 0.00000 0.86603
  outer loop
   vertex 0.6980 1.7500 0.0300
   vertex 0.7500 4.0500 0.0600
   vertex 0.6980 4.0500 0.0300
  endloop
 endfacet
 facet normal 0.00000 -1.00000 0.00000
  outer loop
   vertex 0.7500 1.7500 0.0000
   vertex 0.7500 1.7500 0.0600
   vertex 0.6980 1.7500 0.0300
  endloop
 endfacet
 facet normal 0.00000 1.00000 0.00000
  outer loop
   vertex 0.7500 4.0500 0.0000
   vertex 0.6980 4.0500 0.0300
   vertex 0.7500 4.0500 0.0600
  endloop
 endfacet
 facet normal 0.50000 0.00000 0.86603
  outer loop
   vertex 0.7500 1.7500 0.0600
   vertex 0.8020 1.7500 0.0300
   vertex 0.8020 4.0500 0.0300
  endloop
 endfacet
 facet normal 0.50000 0.00000 0.86603
  outer loop
   vertex 0.7500 1.7500 0.0600
   vertex 0.8020 4.0500 0.0300
   vertex 0.7500 4.0500 0.0600
  endloop
 endfacet
 facet normal 0.00000 -1.00000 0.00000
  outer loop
   vertex 0.7500 1.7500 0.0000
   vertex 0.8020 1.7500 0.0300
   vertex 0.7500 1.7500 0.0600
  endloop
 endfacet
 facet normal 0.00000 1.00000 0.00000
  outer loop
   vertex 0.7500 4.0500 0.0000
   vertex 0.7500 4.0500 0.0600
   vertex 0.8020 4.0500 0.0300
  endloop
 endfacet
 facet normal 1.00000 0.00000 0.00000
  outer loop
   vertex 0.8020 1.7500 0.0300
   vertex 0.8020 1.7500 -0.0300
   vertex 0.8020 4.0500 -0.0300
  endloop
 endfacet
 facet normal 1.00000 0.00000 0.00000
  outer loop
   vertex 0.8020 1.7500 0.0300
   vertex 0.8020 4.0500 -0.0300
   vertex 0.8020 4.0500 0.0300
  endloop
 endfacet
 facet normal 0.00000 -1.00000 0.00000
  outer loop
   vertex 0.7500 1.7500 0.0000
   vertex 0.8020 1.7500 -0.0300
   vertex 0.8020 1.7500 0.0300
  endloop
 endfacet
 facet normal 0.00000 1.00000 0.00000
  outer loop
   vertex 0.7500 4.0500 0.0000
   vertex 0.8020 4.0500 0.0300
   vertex 0.8020 4.0500 -0.0300
  endloop
 endfacet
 facet normal 0.50000 0.00000 -0.86603
  outer loop
   vertex 0.8020 1.7500 -0.0300
   vertex 0.7500 1.7500 -0.0600
   vertex 0.7500 4.0500 -0.0600
  endloop
 endfacet
 facet normal 0.50000 0.00000 -0.86603
  outer loop
   vertex 0.8020 1.7500 -0.0300
   vertex 0.7500 4.0500 -0.0600
   vertex 0.8020 4.0500 -0.0300
  endloop
 endfacet
 facet normal 0.00000 -1.00000 0.00000
  outer loop
   vertex 0.7500 1.7500 0.0000
   vertex 0.7500 1.7500 -0.0600
   vertex 0.8020 1.7500 -0.0300
  endloop
 endfacet
 facet normal 0.00000 1.00000 0.00000
  outer loop
   vertex 0.7500 4.0500 0.0000
   vertex 0.8020 4.0500 -0.0300
   vertex 0.7500 4.0500 -0.0600
  endloop
 endfacet
 facet normal -0.50000 0.00000 -0.86603
  outer loop
   vertex 1.3000 1.7500 -0.0600
   vertex 1.2480 1.7500 -0.0300
   vertex 1.2480 4.0500 -0.0300
  endloop
 endfacet
 facet normal -0.50000 0.00000 -0.86603
  outer loop
   vertex 1.3000 1.7500 -0.0600
   vertex 1.2480 4.0500 -0.0300
   vertex 1.3000 4.0500 -0.0600
  endloop
 endfacet
 facet normal 0.00000 -1.00000 0.00000
  outer loop
   vertex 1.3000 1.7500 0.0000
   vertex 1.2480 1.7500 -0.0300
   vertex 1.3000 1.7500 -0.0600
  endloop
 endfacet
 facet normal 0.00000 1.00000 0.00000
  outer loop
   vertex 1.3000 4.0500 0.0000
   vertex 1.3000 4.0500 -0.0600
   vertex 1.2480 4.0500 -0.0300
  endloop
 endfacet
 facet normal -1.00000 0.00000 0.00000
  outer loop
   vertex 1.2480 1.7500 -0.0300
   vertex 1.2480 1.7500 0.0300
   vertex 1.2480 4.0500 0.0300
  endloop
 endfacet
 facet normal -1.00000 0.00000 0.00000
  outer loop
   vertex 1.2480 1.7500 -0.0300
   vertex 1.2480 4.0500 0.0300
   vertex 1.2480 4.0500 -0.0300
  endloop
 endfacet
 facet normal 0.00000 -1.00000 0.00000
  outer loop
   vertex 1.3000 1.7500 0.0000
   vertex 1.2480 1.7500 0.0300
   vertex 1.2480 1.7500 -0.0300
  endloop
 endfacet
 facet normal 0.00000 1.00000 0.00000
  outer loop
   vertex 1.3000 4.0500 0.0000
   vertex 1.2480 4.0500 -0.0300
   vertex 1.2480 4.0500 0.0300
  endloop
 endfacet
 facet normal -0.50000 0.00000 0.86603
  outer loop
   vertex 1.2480 1.7500 0.0300
   vertex 1.3000 1.7500 0.0600
   vertex 1.3000 4.0500 0.0600
  endloop
 endfacet
 facet normal -0.50000 0.00000 0.86603
  outer loop
   vertex 1.2480 1.7500 0.0300
   vertex 1.3000 4.0500 0.0600
   vertex 1.2480 4.0500 0.0300
  endloop
 endfacet
 facet normal 0.00000 -1.00000 0.00000
  outer loop
   vertex 1.3000 1.7500 0.0000
   vertex 1.3000 1.7500 0.0600
   vertex 1.2480 1.7500 0.0300
  endloop
 endfacet
 facet normal 0.00000 1.00000 0.00000
  outer loop
   vertex 1.3000 4.0500 0.0000
   vertex 1.2480 4.0500 0.0300
   vertex 1.3000 4.0500 0.0600
  endloop
 endfacet
 facet normal 0.50000 0.00000 0.86603
  outer loop
   vertex 1.3000 1.7500 0.0600
   vertex 1.3520 1.7500 0.0300
   vertex 1.3520 4.0500 0.0300
  endloop
 endfacet
 facet normal 0.50000 0.00000 0.86603
  outer loop
   vertex 1.3000 1.7500 0.0600
   vertex 1.3520 4.0500 0.0300
   vertex 1.3000 4.0500 0.0600
  endloop
 endfacet
 facet normal 0.00000 -1.00000 0.00000
  outer loop
   vertex 1.3000 1.7500 0.0000
   vertex 1.3520 1.7500 0.0300
   vertex 1.3000 1.7500 0.0600
  endloop
 endfacet
 facet normal 0.00000 1.00000 0.00000
  outer loop
   vertex 1.3000 4.0500 0.0000
   vertex 1.3000 4.0500 0.0600
   vertex 1.3520 4.0500 0.0300
  endloop
 endfacet
 facet normal 1.00000 0.00000 0.00000
  outer loop
   vertex 1.3520 1.7500 0.0300
   vertex 1.3520 1.7500 -0.0300
   vertex 1.3520 4.0500 -0.0300
  endloop
 endfacet
 facet normal 1.00000 0.00000 0.00000
  outer loop
   vertex 1.3520 1.7500 0.0300
   vertex 1.3520 4.0500 -0.0300
   vertex 1.3520 4.0500 0.0300
  endloop
 endfacet
 facet normal 0.00000 -1.00000 0.00000
  outer loop
   vertex 1.3000 1.7500 0.0000
   vertex 1.3520 1.7500 -0.0300
   vertex 1.3520 1.7500 0.0300
  endloop
 endfacet
 facet normal 0.00000 1.00000 0.00000
  outer loop
   vertex 1.3000 4.0500 0.0000
   vertex 1.3520 4.0500 0.0300
   vertex 1.3520 4.0500 -0.0300
  endloop
 endfacet
 facet normal 0.50000 0.00000 -0.86603
  outer loop
   vertex 1.3520 1.7500 -0.0300
   vertex 1.3000 1.7500 -0.0600
   vertex 1.3000 4.0500 -0.0600
  endloop
 endfacet
 facet normal 0.50000 0.00000 -0.86603
  outer loop
   vertex 1.3520 1.7500 -0.0300
   vertex 1.3000 4.0500 -0.0600
   vertex 1.3520 4.0500 -0.0300
  endloop
 endfacet
 facet normal 0.00000 -1.00000 0.00000
  outer loop
   vertex 1.3000 1.7500 0.0000
   vertex 1.3000 1.7500 -0.0600
   vertex 1.3520 1.7500 -0.0300
  endloop
 endfacet
 facet normal 0.00000 1.00000 0.00000
  outer loop
   vertex 1.3000 4.0500 0.0000
   vertex 1.3520 4.0500 -0.0300
   vertex 1.3000 4.0500 -0.0600
  endloop
 endfacet
 facet normal -0.50000 0.00000 -0.86603
  outer loop
   vertex 1.8500 1.7500 -0.0600
   vertex 1.7980 1.7500 -0.0300
   vertex 1.7980 4.0500 -0.0300
  endloop
 endfacet
 facet normal -0.50000 0.00000 -0.86603
  outer loop
   vertex 1.8500 1.7500 -0.0600
   vertex 1.7980 4.0500 -0.0300
   vertex 1.8500 4.0500 -0.0600
  endloop
 endfacet
 facet normal 0.00000 -1.00000 0.00000
  outer loop
   vertex 1.8500 1.7500 0.0000
   vertex 1.7980 1.7500 -0.0300
   vertex 1.8500 1.7500 -0.0600
  endloop
 endfacet
 facet normal 0.00000 1.00000 0.00000
  outer loop
   vertex 1.8500 4.0500 0.0000
   vertex 1.8500 4.0500 -0.0600
   vertex 1.7980 4.0500 -0.0300
  endloop
 endfacet
 facet normal -1.00000 0.00000 0.00000
  outer loop
   vertex 1.7980 1.7500 -0.0300
   vertex 1.7980 1.7500 0.0300
   vertex 1.7980 4.0500 0.0300
  endloop
 endfacet
 facet normal -1.00000 0.00000 0.00000
  outer loop
   vertex 1.7980 1.7500 -0.0300
   vertex 1.7980 4.0500 0.0300
   vertex 1.7980 4.0500 -0.0300
  endloop
 endfacet
 facet normal 0.00000 -1.00000 0.00000
  outer loop
   vertex 1.8500 1.7500 0.0000
   vertex 1.7980 1.7500 0.0300
   vertex 1.7980 1.7500 -0.0300
  endloop
 endfacet
 facet normal 0.00000 1.00000 0.00000
  outer loop
   vertex 1.8500 4.0500 0.0000
   vertex 1.7980 4.0500 -0.0300
   vertex 1.7980 4.0500 0.0300
  endloop
 endfacet
 facet normal -0.50000 0.00000 0.86603
  outer loop
   vertex 1.7980 1.7500 0.0300
   vertex 1.8500 1.7500 0.0600
   vertex 1.8500 4.0500 0.0600
  endloop
 endfacet
 facet normal -0.50000 0.00000 0.86603
  outer loop
   vertex 1.7980 1.7500 0.0300
   vertex 1.8500 4.0500 0.0600
   vertex 1.7980 4.0500 0.0300
  endloop
 endfacet
 facet normal 0.00000 -1.00000 0.00000
  outer loop
   vertex 1.8500 1.7500 0.0000
   vertex 1.8500 1.7500 0.0600
   vertex 1.7980 1.7500 0.0300
  endloop
 endfacet
 facet normal 0.00000 1.00000 0.00000
  outer loop
   vertex 1.8500 4.0500 0.0000
   vertex 1.7980 4.0500 0.0300
   vertex 1.8500 4.0500 0.0600
  endloop
 endfacet
 facet normal 0.50000 0.00000 0.86603
  outer loop
   vertex 1.8500 1.7500 0.0600
   vertex 1.9020 1.7500 0.0300
   vertex 1.9020 4.0500 0.0300
  endloop
 endfacet
 facet normal 0.50000 0.00000 0.86603
  outer loop
   vertex 1.8500 1.7500 0.0600
   vertex 1.9020 4.0500 0.0300
   vertex 1.8500 4.0500 0.0600
  endloop
 endfacet
 facet normal 0.00000 -1.00000 0.00000
  outer loop
   vertex 1.8500 1.7500 0.0000
   vertex 1.9020 1.7500 0.0300
   vertex 1.8500 1.7500 0.0600
  endloop
 endfacet
 facet normal 0.00000 1.00000 0.00000
  outer loop
   vertex 1.8500 4.0500 0.0000
   vertex 1.8500 4.0500 0.0600
   vertex 1.9020 4.0500 0.0300
  endloop
 endfacet
 facet normal 1.00000 0.00000 0.00000
  outer loop
   vertex 1.9020 1.7500 0.0300
   vertex 1.9020 1.7500 -0.0300
   vertex 1.9020 4.0500 -0.0300
  endloop
 endfacet
 facet normal 1.00000 0.00000 0.00000
  outer loop
   vertex 1.9020 1.7500 0.0300
   vertex 1.9020 4.0500 -0.0300
   vertex 1.9020 4.0500 0.0300
  endloop
 endfacet
 facet normal 0.00000 -1.00000 0.00000
  outer loop
   vertex 1.8500 1.7500 0.0000
   vertex 1.9020 1.7500 -0.0300
   vertex 1.9020 1.7500 0.0300
  endloop
 endfacet
 facet normal 0.00000 1.00000 0.00000
  outer loop
   vertex 1.8500 4.0500 0.0000
   vertex 1.9020 4.0500 0.0300
   vertex 1.9020 4.0500 -0.0300
  endloop
 endfacet
 facet normal 0.50000 0.00000 -0.86603
  outer loop
   vertex 1.9020 1.7500 -0.0300
   vertex 1.8500 1.7500 -0.0600
   vertex 1.8500 4.0500 -0.0600
  endloop
 endfacet
 facet normal 0.50000 0.00000 -0.86603
  outer loop
   vertex 1.9020 1.7500 -0.0300
   vertex 1.8500 4.0500 -0.0600
   vertex 1.9020 4.0500 -0.0300
  endloop
 endfacet
 facet normal 0.00000 -1.00000 0.00000
  outer loop
   vertex 1.8500 1.7500 0.0000
   vertex 1.8500 1.7500 -0.0600
   vertex 1.9020 1.7500 -0.0300
  endloop
 endfacet
 facet normal 0.00000 1.00000 0.00000
  outer loop
   vertex 1.8500 4.0500 0.0000
   vertex 1.9020 4.0500 -0.0300
   vertex 1.8500 4.0500 -0.0600
  endloop
 endfacet
 facet normal -0.50000 0.00000 -0.86603
  outer loop
   vertex 2.4000 1.7500 -0.0600
   vertex 2.3480 1.7500 -0.0300
   vertex 2.3480 4.0500 -0.0300
  endloop
 endfacet
 facet normal -0.50000 0.00000 -0.86603
  outer loop
   vertex 2.4000 1.7500 -0.0600
   vertex 2.3480 4.0500 -0.0300
   vertex 2.4000 4.0500 -0.0600
  endloop
 endfacet
 facet normal 0.00000 -1.00000 0.00000
  outer loop
   vertex 2.4000 1.7500 0.0000
   vertex 2.3480 1.7500 -0.0300
   vertex 2.4000 1.7500 -0.0600
  endloop
 endfacet
 facet normal 0.00000 1.00000 0.00000
  outer loop
   vertex 2.4000 4.0500 0.0000
   vertex 2.4000 4.0500 -0.0600
   vertex 2.3480 4.0500 -0.0300
  endloop
 endfacet
 facet normal -1.00000 0.00000 0.00000
  outer loop
   vertex 2.3480 1.7500 -0.0300
   vertex 2.3480 1.7500 0.0300
   vertex 2.3480 4.0500 0.0300
  endloop
 endfacet
 facet normal -1.00000 0.00000 0.00000
  outer loop
   vertex 2.3480 1.7500 -0.0300
   vertex 2.3480 4.0500 0.0300
   vertex 2.3480 4.0500 -0.0300
  endloop
 endfacet
 facet normal 0.00000 -1.00000 0.00000
  outer loop
   vertex 2.4000 1.7500 0.0000
   vertex 2.3480 1.7500 0.0300
   vertex 2.3480 1.7500 -0.0300
  endloop
 endfacet
 facet normal 0.00000 1.00000 0.00000
  outer loop
   vertex 2.4000 4.0500 0.0000
   vertex 2.3480 4.0500 -0.0300
   vertex 2.3480 4.0500 0.0300
  endloop
 endfacet
 facet normal -0.50000 0.00000 0.86603
  outer loop
   vertex 2.3480 1.7500 0.0300
   vertex 2.4000 1.7500 0.0600
   vertex 2.4000 4.0500 0.0600
  endloop
 endfacet
 facet normal -0.50000 0.00000 0.86603
  outer loop
   vertex 2.3480 1.7500 0.0300
   vertex 2.4000 4.0500 0.0600
   vertex 2.3480 4.0500 0.0300
  endloop
 endfacet
 facet normal 0.00000 -1.00000 0.00000
  outer loop
   vertex 2.4000 1.7500 0.0000
   vertex 2.4000 1.7500 0.0600
   vertex 2.3480 1.7500 0.0300
  endloop
 endfacet
 facet normal 0.00000 1.00000 0.00000
  outer loop
   vertex 2.4000 4.0500 0.0000
   vertex 2.3480 4.0500 0.0300
   vertex 2.4000 4.0500 0.0600
  endloop
 endfacet
 facet normal 0.50000 0.00000 0.86603
  outer loop
   vertex 2.4000 1.7500 0.0600
   vertex 2.4520 1.7500 0.0300
   vertex 2.4520 4.0500 0.0300
  endloop
 endfacet
 facet normal 0.50000 0.00000 0.86603
  outer loop
   vertex 2.4000 1.7500 0.0600
   vertex 2.4520 4.0500 0.0300
   vertex 2.4000 4.0500 0.0600
  endloop
 endfacet
 facet normal 0.00000 -1.00000 0.00000
  outer loop
   vertex 2.4000 1.7500 0.0000
   vertex 2.4520 1.7500 0.0300
   vertex 2.4000 1.7500 0.0600
  endloop
 endfacet
 facet normal 0.00000 1.00000 0.00000
  outer loop
   vertex 2.4000 4.0500 0.0000
   vertex 2.4000 4.0500 0.0600
   vertex 2.4520 4.0500 0.0300
  endloop
 endfacet
 facet normal 1.00000 0.00000 0.00000
  outer loop
   vertex 2.4520 1.7500 0.0300
   vertex 2.4520 1.7500 -0.0300
   vertex 2.4520 4.0500 -0.0300
  endloop
 endfacet
 facet normal 1.00000 0.00000 0.00000
  outer loop
   vertex 2.4520 1.7500 0.0300
   vertex 2.4520 4.0500 -0.0300
   vertex 2.4520 4.0500 0.0300
  endloop
 endfacet
 facet normal 0.00000 -1.00000 0.00000
  outer loop
   vertex 2.4000 1.7500 0.0000
   vertex 2.4520 1.7500 -0.0300
   vertex 2.4520 1.7500 0.0300
  endloop
 endfacet
 facet normal 0.00000 1.00000 0.00000
  outer loop
   vertex 2.4000 4.0500 0.0000
   vertex 2.4520 4.0500 0.0300
   vertex 2.4520 4.0500 -0.0300
  endloop
 endfacet
 facet normal 0.50000 0.00000 -0.86603
  outer loop
   vertex 2.4520 1.7500 -0.0300
   vertex 2.4000 1.7500 -0.0600
   vertex 2.4000 4.0500 -0.0600
  endloop
 endfacet
 facet normal 0.50000 0.00000 -0.86603
  outer loop
   vertex 2.4520 1.7500 -0.0300
   vertex 2.4000 4.0500 -0.0600
   vertex 2.4520 4.0500 -0.0300
  endloop
 endfacet
 facet normal 0.00000 -1.00000 0.00000
  outer loop
   vertex 2.4000 1.7500 0.0000
   vertex 2.4000 1.7500 -0.0600
   vertex 2.4520 1.7500 -0.0300
  endloop
 endfacet
 facet normal 0.00000 1.00000 0.00000
  outer loop
   vertex 2.4000 4.0500 0.0000
   vertex 2.4520 4.0500 -0.0300
   vertex 2.4000 4.0500 -0.0600
  endloop
 endfacet
 facet normal -0.50000 0.00000 -0.86603
  outer loop
   vertex 2.9500 1.7500 -0.0600
   vertex 2.8980 1.7500 -0.0300
   vertex 2.8980 4.0500 -0.0300
  endloop
 endfacet
 facet normal -0.50000 0.00000 -0.86603
  outer loop
   vertex 2.9500 1.7500 -0.0600
   vertex 2.8980 4.0500 -0.0300
   vertex 2.9500 4.0500 -0.0600
  endloop
 endfacet
 facet normal 0.00000 -1.00000 0.00000
  outer loop
   vertex 2.9500 1.7500 0.0000
   vertex 2.8980 1.7500 -0.0300
   vertex 2.9500 1.7500 -0.0600
  endloop
 endfacet
 facet normal 0.00000 1.00000 0.00000
  outer loop
   vertex 2.9500 4.0500 0.0000
   vertex 2.9500 4.0500 -0.0600
   vertex 2.8980 4.0500 -0.0300
  endloop
 endfacet
 facet normal -1.00000 0.00000 0.00000
  outer loop
   vertex 2.8980 1.7500 -0.0300
   vertex 2.8980 1.7500 0.0300
   vertex 2.8980 4.0500 0.0300
  endloop
 endfacet
 facet normal -1.00000 0.00000 0.00000
  outer loop
   vertex 2.8980 1.7500 -0.0300
   vertex 2.8980 4.0500 0.0300
   vertex 2.8980 4.0500 -0.0300
  endloop
 endfacet
 facet normal 0.00000 -1.00000 0.00000
  outer loop
   vertex 2.9500 1.7500 0.0000
   vertex 2.8980 1.7500 0.0300
   vertex 2.8980 1.7500 -0.0300
  endloop
 endfacet
 facet normal 0.00000 1.00000 0.00000
  outer loop
   vertex 2.9500 4.0500 0.0000
   vertex 2.8980 4.0500 -0.0300
   vertex 2.8980 4.0500 0.0300
  endloop
 endfacet
 facet normal -0.50000 0.00000 0.86603
  outer loop
   vertex 2.8980 1.7500 0.0300
   vertex 2.9500 1.7500 0.0600
   vertex 2.9500 4.0500 0.0600
  endloop
 endfacet
 facet normal -0.50000 0.00000 0.86603
  outer loop
   vertex 2.8980 1.7500 0.0300
   vertex 2.9500 4.0500 0.0600
   vertex 2.8980 4.0500 0.0300
  endloop
 endfacet
 facet normal 0.00000 -1.00000 0.00000
  outer loop
   vertex 2.9500 1.7500 0.0000
   vertex 2.9500 1.7500 0.0600
   vertex 2.8980 1.7500 0.0300
  endloop
 endfacet
 facet normal 0.00000 1.00000 0.00000
  outer loop
   vertex 2.9500 4.0500 0.0000
   vertex 2.8980 4.0500 0.0300
   vertex 2.9500 4.0500 0.0600
  endloop
 endfacet
 facet normal 0.50000 0.00000 0.86603
  outer loop
   vertex 2.9500 1.7500 0.0600
   vertex 3.0020 1.7500 0.0300
   vertex 3.0020 4.0500 0.0300
  endloop
 endfacet
 facet normal 0.50000 0.00000 0.86603
  outer loop
   vertex 2.9500 1.7500 0.0600
   vertex 3.0020 4.0500 0.0300
   vertex 2.9500 4.0500 0.0600
  endloop
 endfacet
 facet normal 0.00000 -1.00000 0.00000
  outer loop
   vertex 2.9500 1.7500 0.0000
   vertex 3.0020 1.7500 0.0300
   vertex 2.9500 1.7500 0.0600
  endloop
 endfacet
 facet normal 0.00000 1.00000 0.00000
  outer loop
   vertex 2.9500 4.0500 0.0000
   vertex 2.9500 4.0500 0.0600
   vertex 3.0020 4.0500 0.0300
  endloop
 endfacet
 facet normal 1.00000 0.00000 0.00000
  outer loop
   vertex 3.0020 1.7500 0.0300
   vertex 3.0020 1.7500 -0.0300
   vertex 3.0020 4.0500 -0.0300
  endloop
 endfacet
 facet normal 1.00000 0.00000 0.00000
  outer loop
   vertex 3.0020 1.7500 0.0300
   vertex 3.0020 4.0500 -0.0300
   vertex 3.0020 4.0500 0.0300
  endloop
 endfacet
 facet normal 0.00000 -1.00000 0.00000
  outer loop
   vertex 2.9500 1.7500 0.0000
   vertex 3.0020 1.7500 -0.0300
   vertex 3.0020 1.7500 0.0300
  endloop
 endfacet
 facet normal 0.00000 1.00000 0.00000
  outer loop
   vertex 2.9500 4.0500 0.0000
   vertex 3.0020 4.0500 0.0300
   vertex 3.0020 4.0500 -0.0300
  endloop
 endfacet
 facet normal 0.50000 0.00000 -0.86603
  outer loop
   vertex 3.0020 1.7500 -0.0300
   vertex 2.9500 1.7500 -0.0600
   vertex 2.9500 4.0500 -0.0600
  endloop
 endfacet
 facet normal 0.50000 0.00000 -0.86603
  outer loop
   vertex 3.0020 1.7500 -0.0300
   vertex 2.9500 4.0500 -0.0600
   vertex 3.0020 4.0500 -0.0300
  endloop
 endfacet
 facet normal 0.00000 -1.00000 0.00000
  outer loop
   vertex 2.9500 1.7500 0.0000
   vertex 2.9500 1.7500 -0.0600
   vertex 3.0020 1.7500 -0.0300
  endloop
 endfacet
 facet normal 0.00000 1.00000 0.00000
  outer loop
   vertex 2.9500 4.0500 0.0000
   vertex 3.0020 4.0500 -0.0300
   vertex 2.9500 4.0500 -0.0600
  endloop
 endfacet
 facet normal -0.50000 0.00000 -0.86603
  outer loop
   vertex 3.5000 1.7500 -0.0600
   vertex 3.4480 1.7500 -0.0300
   vertex 3.4480 4.0500 -0.0300
  endloop
 endfacet
 facet normal -0.50000 0.00000 -0.86603
  outer loop
   vertex 3.5000 1.7500 -0.0600
   vertex 3.4480 4.0500 -0.0300
   vertex 3.5000 4.0500 -0.0600
  endloop
 endfacet
 facet normal 0.00000 -1.00000 0.00000
  outer loop
   vertex 3.5000 1.7500 0.0000
   vertex 3.4480 1.7500 -0.0300
   vertex 3.5000 1.7500 -0.0600
  endloop
 endfacet
 facet normal 0.00000 1.00000 0.00000
  outer loop
   vertex 3.5000 4.0500 0.0000
   vertex 3.5000 4.0500 -0.0600
   vertex 3.4480 4.0500 -0.0300
  endloop
 endfacet
 facet normal -1.00000 0.00000 0.00000
  outer loop
   vertex 3.4480 1.7500 -0.0300
   vertex 3.4480 1.7500 0.0300
   vertex 3.4480 4.0500 0.0300
  endloop
 endfacet
 facet normal -1.00000 0.00000 0.00000
  outer loop
   vertex 3.4480 1.7500 -0.0300
   vertex 3.4480 4.0500 0.0300
   vertex 3.4480 4.0500 -0.0300
  endloop
 endfacet
 facet normal 0.00000 -1.00000 0.00000
  outer loop
   vertex 3.5000 1.7500 0.0000
   vertex 3.4480 1.7500 0.0300
   vertex 3.4480 1.7500 -0.0300
  endloop
 endfacet
 facet normal 0.00000 1.00000 0.00000
  outer loop
   vertex 3.5000 4.0500 0.0000
   vertex 3.4480 4.0500 -0.0300
   vertex 3.4480 4.0500 0.0300
  endloop
 endfacet
 facet normal -0.50000 0.00000 0.86603
  outer loop
   vertex 3.4480 1.7500 0.0300
   vertex 3.5000 1.7500 0.0600
   vertex 3.5000 4.0500 0.0600
  endloop
 endfacet
 facet normal -0.50000 0.00000 0.86603
  outer loop
   vertex 3.4480 1.7500 0.0300
   vertex 3.5000 4.0500 0.0600
   vertex 3.4480 4.0500 0.0300
  endloop
 endfacet
 facet normal 0.00000 -1.00000 0.00000
  outer loop
   vertex 3.5000 1.7500 0.0000
   vertex 3.5000 1.7500 0.0600
   vertex 3.4480 1.7500 0.0300
  endloop
 endfacet
 facet normal 0.00000 1.00000 0.00000
  outer loop
   vertex 3.5000 4.0500 0.0000
   vertex 3.4480 4.0500 0.0300
   vertex 3.5000 4.0500 0.0600
  endloop
 endfacet
 facet normal 0.50000 0.00000 0.86603
  outer loop
   vertex 3.5000 1.7500 0.0600
   vertex 3.5520 1.7500 0.0300
   vertex 3.5520 4.0500 0.0300
  endloop
 endfacet
 facet normal 0.50000 0.00000 0.86603
  outer loop
   vertex 3.5000 1.7500 0.0600
   vertex 3.5520 4.0500 0.0300
   vertex 3.5000 4.0500 0.0600
  endloop
 endfacet
 facet normal 0.00000 -1.00000 0.00000
  outer loop
   vertex 3.5000 1.7500 0.0000
   vertex 3.5520 1.7500 0.0300
   vertex 3.5000 1.7500 0.0600
  endloop
 endfacet
 facet normal 0.00000 1.00000 0.00000
  outer loop
   vertex 3.5000 4.0500 0.0000
   vertex 3.5000 4.0500 0.0600
   vertex 3.5520 4.0500 0.0300
  endloop
 endfacet
 facet normal 1.00000 0.00000 0.00000
  outer loop
   vertex 3.5520 1.7500 0.0300
   vertex 3.5520 1.7500 -0.0300
   vertex 3.5520 4.0500 -0.0300
  endloop
 endfacet
 facet normal 1.00000 0.00000 0.00000
  outer loop
   vertex 3.5520 1.7500 0.0300
   vertex 3.5520 4.0500 -0.0300
   vertex 3.5520 4.0500 0.0300
  endloop
 endfacet
 facet normal 0.00000 -1.00000 0.00000
  outer loop
   vertex 3.5000 1.7500 0.0000
   vertex 3.5520 1.7500 -0.0300
   vertex 3.5520 1.7500 0.0300
  endloop
 endfacet
 facet normal 0.00000 1.00000 0.00000
  outer loop
   vertex 3.5000 4.0500 0.0000
   vertex 3.5520 4.0500 0.0300
   vertex 3.5520 4.0500 -0.0300
  endloop
 endfacet
 facet normal 0.50000 0.00000 -0.86603
  outer loop
   vertex 3.5520 1.7500 -0.0300
   vertex 3.5000 1.7500 -0.0600
   vertex 3.5000 4.0500 -0.0600
  endloop
 endfacet
 facet normal 0.50000 0.00000 -0.86603
  outer loop
   vertex 3.5520 1.7500 -0.0300
   vertex 3.5000 4.0500 -0.0600
   vertex 3.5520 4.0500 -0.0300
  endloop
 endfacet
 facet normal 0.00000 -1.00000 0.00000
  outer loop
   vertex 3.5000 1.7500 0.0000
   vertex 3.5000 1.7500 -0.0600
   vertex 3.5520 1.7500 -0.0300
  endloop
 endfacet
 facet normal 0.00000 1.00000 0.00000
  outer loop
   vertex 3.5000 4.0500 0.0000
   vertex 3.5520 4.0500 -0.0300
   vertex 3.5000 4.0500 -0.0600
  endloop
 endfacet
 facet normal -0.50000 0.00000 -0.86603
  outer loop
   vertex 4.0500 1.7500 -0.0600
   vertex 3.9980 1.7500 -0.0300
   vertex 3.9980 4.0500 -0.0300
  endloop
 endfacet
 facet normal -0.50000 0.00000 -0.86603
  outer loop
   vertex 4.0500 1.7500 -0.0600
   vertex 3.9980 4.0500 -0.0300
   vertex 4.0500 4.0500 -0.0600
  endloop
 endfacet
 facet normal 0.00000 -1.00000 0.00000
  outer loop
   vertex 4.0500 1.7500 0.0000
   vertex 3.9980 1.7500 -0.0300
   vertex 4.0500 1.7500 -0.0600
  endloop
 endfacet
 facet normal 0.00000 1.00000 0.00000
  outer loop
   vertex 4.0500 4.0500 0.0000
   vertex 4.0500 4.0500 -0.0600
   vertex 3.9980 4.0500 -0.0300
  endloop
 endfacet
 facet normal -1.00000 0.00000 0.00000
  outer loop
   vertex 3.9980 1.7500 -0.0300
   vertex 3.9980 1.7500 0.0300
   vertex 3.9980 4.0500 0.0300
  endloop
 endfacet
 facet normal -1.00000 0.00000 0.00000
  outer loop
   vertex 3.9980 1.7500 -0.0300
   vertex 3.9980 4.0500 0.0300
   vertex 3.9980 4.0500 -0.0300
  endloop
 endfacet
 facet normal 0.00000 -1.00000 0.00000
  outer loop
   vertex 4.0500 1.7500 0.0000
   vertex 3.9980 1.7500 0.0300
   vertex 3.9980 1.7500 -0.0300
  endloop
 endfacet
 facet normal 0.00000 1.00000 0.00000
  outer loop
   vertex 4.0500 4.0500 0.0000
   vertex 3.9980 4.0500 -0.0300
   vertex 3.9980 4.0500 0.0300
  endloop
 endfacet
 facet normal -0.50000 0.00000 0.86603
  outer loop
   vertex 3.9980 1.7500 0.0300
   vertex 4.0500 1.7500 0.0600
   vertex 4.0500 4.0500 0.0600
  endloop
 endfacet
 facet normal -0.50000 0.00000 0.86603
  outer loop
   vertex 3.9980 1.7500 0.0300
   vertex 4.0500 4.0500 0.0600
   vertex 3.9980 4.0500 0.0300
  endloop
 endfacet
 facet normal 0.00000 -1.00000 0.00000
  outer loop
   vertex 4.0500 1.7500 0.0000
   vertex 4.0500 1.7500 0.0600
   vertex 3.9980 1.7500 0.0300
  endloop
 endfacet
 facet normal 0.00000 1.00000 0.00000
  outer loop
   vertex 4.0500 4.0500 0.0000
   vertex 3.9980 4.0500 0.0300
   vertex 4.0500 4.0500 0.0600
  endloop
 endfacet
 facet normal 0.50000 0.00000 0.86603
  outer loop
   vertex 4.0500 1.7500 0.0600
   vertex 4.1020 1.7500 0.0300
   vertex 4.1020 4.0500 0.0300
  endloop
 endfacet
 facet normal 0.50000 0.00000 0.86603
  outer loop
   vertex 4.0500 1.7500 0.0600
   vertex 4.1020 4.0500 0.0300
   vertex 4.0500 4.0500 0.0600
  endloop
 endfacet
 facet normal 0.00000 -1.00000 0.00000
  outer loop
   vertex 4.0500 1.7500 0.0000
   vertex 4.1020 1.7500 0.0300
   vertex 4.0500 1.7500 0.0600
  endloop
 endfacet
 facet normal 0.00000 1.00000 0.00000
  outer loop
   vertex 4.0500 4.0500 0.0000
   vertex 4.0500 4.0500 0.0600
   vertex 4.1020 4.0500 0.0300
  endloop
 endfacet
 facet normal 1.00000 0.00000 0.00000
  outer loop
   vertex 4.1020 1.7500 0.0300
   vertex 4.1020 1.7500 -0.0300
   vertex 4.1020 4.0500 -0.0300
  endloop
 endfacet
 facet normal 1.00000 0.00000 0.00000
  outer loop
   vertex 4.1020 1.7500 0.0300
   vertex 4.1020 4.0500 -0.0300
   vertex 4.1020 4.0500 0.0300
  endloop
 endfacet
 facet normal 0.00000 -1.00000 0.00000
  outer loop
   vertex 4.0500 1.7500 0.0000
   vertex 4.1020 1.7500 -0.0300
   vertex 4.1020 1.7500 0.0300
  endloop
 endfacet
 facet normal 0.00000 1.00000 0.00000
  outer loop
   vertex 4.0500 4.0500 0.0000
   vertex 4.1020 4.0500 0.0300
   vertex 4.1020 4.0500 -0.0300
  endloop
 endfacet
 facet normal 0.50000 0.00000 -0.86603
  outer loop
   vertex 4.1020 1.7500 -0.0300
   vertex 4.0500 1.7500 -0.0600
   vertex 4.0500 4.0500 -0.0600
  endloop
 endfacet
 facet normal 0.50000 0.00000 -0.86603
  outer loop
   vertex 4.1020 1.7500 -0.0300
   vertex 4.0500 4.0500 -0.0600
   vertex 4.1020 4.0500 -0.0300
  endloop
 endfacet
 facet normal 0.00000 -1.00000 0.00000
  outer loop
   vertex 4.0500 1.7500 0.0000
   vertex 4.0500 1.7500 -0.0600
   vertex 4.1020 1.7500 -0.0300
  endloop
 endfacet
 facet normal 0.00000 1.00000 0.00000
  outer loop
   vertex 4.0500 4.0500 0.0000
   vertex 4.1020 4.0500 -0.0300
   vertex 4.0500 4.0500 -0.0600
  endloop
 endfacet
 facet normal -0.50000 0.00000 -0.86603
  outer loop
   vertex 4.6000 1.7500 -0.0600
   vertex 4.5480 1.7500 -0.0300
   vertex 4.5480 4.0500 -0.0300
  endloop
 endfacet
 facet normal -0.50000 0.00000 -0.86603
  outer loop
   vertex 4.6000 1.7500 -0.0600
   vertex 4.5480 4.0500 -0.0300
   vertex 4.6000 4.0500 -0.0600
  endloop
 endfacet
 facet normal 0.00000 -1.00000 0.00000
  outer loop
   vertex 4.6000 1.7500 0.0000
   vertex 4.5480 1.7500 -0.0300
   vertex 4.6000 1.7500 -0.0600
  endloop
 endfacet
 facet normal 0.00000 1.00000 0.00000
  outer loop
   vertex 4.6000 4.0500 0.0000
   vertex 4.6000 4.0500 -0.0600
   vertex 4.5480 4.0500 -0.0300
  endloop
 endfacet
 facet normal -1.00000 0.00000 0.00000
  outer loop
   vertex 4.5480 1.7500 -0.0300
   vertex 4.5480 1.7500 0.0300
   vertex 4.5480 4.0500 0.0300
  endloop
 endfacet
 facet normal -1.00000 0.00000 0.00000
  outer loop
   vertex 4.5480 1.7500 -0.0300
   vertex 4.5480 4.0500 0.0300
   vertex 4.5480 4.0500 -0.0300
  endloop
 endfacet
 facet normal 0.00000 -1.00000 0.00000
  outer loop
   vertex 4.6000 1.7500 0.0000
   vertex 4.5480 1.7500 0.0300
   vertex 4.5480 1.7500 -0.0300
  endloop
 endfacet
 facet normal 0.00000 1.00000 0.00000
  outer loop
   vertex 4.6000 4.0500 0.0000
   vertex 4.5480 4.0500 -0.0300
   vertex 4.5480 4.0500 0.0300
  endloop
 endfacet
 facet normal -0.50000 0.00000 0.86603
  outer loop
   vertex 4.5480 1.7500 0.0300
   vertex 4.6000 1.7500 0.0600
   vertex 4.6000 4.0500 0.0600
  endloop
 endfacet
 facet normal -0.50000 0.00000 0.86603
  outer loop
   vertex 4.5480 1.7500 0.0300
   vertex 4.6000 4.0500 0.0600
   vertex 4.5480 4.0500 0.0300
  endloop
 endfacet
 facet normal 0.00000 -1.00000 0.00000
  outer loop
   vertex 4.6000 1.7500 0.0000
   vertex 4.6000 1.7500 0.0600
   vertex 4.5480 1.7500 0.0300
  endloop
 endfacet
 facet normal 0.00000 1.00000 0.00000
  outer loop
   vertex 4.6000 4.0500 0.0000
   vertex 4.5480 4.0500 0.0300
   vertex 4.6000 4.0500 0.0600
  endloop
 endfacet
 facet normal 0.50000 0.00000 0.86603
  outer loop
   vertex 4.6000 1.7500 0.0600
   vertex 4.6520 1.7500 0.0300
   vertex 4.6520 4.0500 0.0300
  endloop
 endfacet
 facet normal 0.50000 0.00000 0.86603
  outer loop
   vertex 4.6000 1.7500 0.0600
   vertex 4.6520 4.0500 0.0300
   vertex 4.6000 4.0500 0.0600
  endloop
 endfacet
 facet normal 0.00000 -1.00000 0.00000
  outer loop
   vertex 4.6000 1.7500 0.0000
   vertex 4.6520 1.7500 0.0300
   vertex 4.6000 1.7500 0.0600
  endloop
 endfacet
 facet normal 0.00000 1.00000 0.00000
  outer loop
   vertex 4.6000 4.0500 0.0000
   vertex 4.6000 4.0500 0.0600
   vertex 4.6520 4.0500 0.0300
  endloop
 endfacet
 facet normal 1.00000 0.00000 0.00000
  outer loop
   vertex 4.6520 1.7500 0.0300
   vertex 4.6520 1.7500 -0.0300
   vertex 4.6520 4.0500 -0.0300
  endloop
 endfacet
 facet normal 1.00000 0.00000 0.00000
  outer loop
   vertex 4.6520 1.7500 0.0300
   vertex 4.6520 4.0500 -0.0300
   vertex 4.6520 4.0500 0.0300
  endloop
 endfacet
 facet normal 0.00000 -1.00000 0.00000
  outer loop
   vertex 4.6000 1.7500 0.0000
   vertex 4.6520 1.7500 -0.0300
   vertex 4.6520 1.7500 0.0300
  endloop
 endfacet
 facet normal 0.00000 1.00000 0.00000
  outer loop
   vertex 4.6000 4.0500 0.0000
   vertex 4.6520 4.0500 0.0300
   vertex 4.6520 4.0500 -0.0300
  endloop
 endfacet
 facet normal 0.50000 0.00000 -0.86603
  outer loop
   vertex 4.6520 1.7500 -0.0300
   vertex 4.6000 1.7500 -0.0600
   vertex 4.6000 4.0500 -0.0600
  endloop
 endfacet
 facet normal 0.50000 0.00000 -0.86603
  outer loop
   vertex 4.6520 1.7500 -0.0300
   vertex 4.6000 4.0500 -0.0600
   vertex 4.6520 4.0500 -0.0300
  endloop
 endfacet
 facet normal 0.00000 -1.00000 0.00000
  outer loop
   vertex 4.6000 1.7500 0.0000
   vertex 4.6000 1.7500 -0.0600
   vertex 4.6520 1.7500 -0.0300
  endloop
 endfacet
 facet normal 0.00000 1.00000 0.00000
  outer loop
   vertex 4.6000 4.0500 0.0000
   vertex 4.6520 4.0500 -0.0300
   vertex 4.6000 4.0500 -0.0600
  endloop
 endfacet
 facet normal -0.50000 0.00000 -0.86603
  outer loop
   vertex 5.1500 1.7500 -0.0600
   vertex 5.0980 1.7500 -0.0300
   vertex 5.0980 4.0500 -0.0300
  endloop
 endfacet
 facet normal -0.50000 0.00000 -0.86603
  outer loop
   vertex 5.1500 1.7500 -0.0600
   vertex 5.0980 4.0500 -0.0300
   vertex 5.1500 4.0500 -0.0600
  endloop
 endfacet
 facet normal 0.00000 -1.00000 0.00000
  outer loop
   vertex 5.1500 1.7500 0.0000
   vertex 5.0980 1.7500 -0.0300
   vertex 5.1500 1.7500 -0.0600
  endloop
 endfacet
 facet normal 0.00000 1.00000 0.00000
  outer loop
   vertex 5.1500 4.0500 0.0000
   vertex 5.1500 4.0500 -0.0600
   vertex 5.0980 4.0500 -0.0300
  endloop
 endfacet
 facet normal -1.00000 0.00000 0.00000
  outer loop
   vertex 5.0980 1.7500 -0.0300
   vertex 5.0980 1.7500 0.0300
   vertex 5.0980 4.0500 0.0300
  endloop
 endfacet
 facet normal -1.00000 0.00000 0.00000
  outer loop
   vertex 5.0980 1.7500 -0.0300
   vertex 5.0980 4.0500 0.0300
   vertex 5.0980 4.0500 -0.0300
  endloop
 endfacet
 facet normal 0.00000 -1.00000 0.00000
  outer loop
   vertex 5.1500 1.7500 0.0000
   vertex 5.0980 1.7500 0.0300
   vertex 5.0980 1.7500 -0.0300
  endloop
 endfacet
 facet normal 0.00000 1.00000 0.00000
  outer loop
   vertex 5.1500 4.0500 0.0000
   vertex 5.0980 4.0500 -0.0300
   vertex 5.0980 4.0500 0.0300
  endloop
 endfacet
 facet normal -0.50000 0.00000 0.86603
  outer loop
   vertex 5.0980 1.7500 0.0300
   vertex 5.1500 1.7500 0.0600
   vertex 5.1500 4.0500 0.0600
  endloop
 endfacet
 facet normal -0.50000 0.00000 0.86603
  outer loop
   vertex 5.0980 1.7500 0.0300
   vertex 5.1500 4.0500 0.0600
   vertex 5.0980 4.0500 0.0300
  endloop
 endfacet
 facet normal 0.00000 -1.00000 0.00000
  outer loop
   vertex 5.1500 1.7500 0.0000
   vertex 5.1500 1.7500 0.0600
   vertex 5.0980 1.7500 0.0300
  endloop
 endfacet
 facet normal 0.00000 1.00000 0.00000
  outer loop
   vertex 5.1500 4.0500 0.0000
   vertex 5.0980 4.0500 0.0300
   vertex 5.1500 4.0500 0.0600
  endloop
 endfacet
 facet normal 0.50000 0.00000 0.86603
  outer loop
   vertex 5.1500 1.7500 0.0600
   vertex 5.2020 1.7500 0.0300
   vertex 5.2020 4.0500 0.0300
  endloop
 endfacet
 facet normal 0.50000 0.00000 0.86603
  outer loop
   vertex 5.1500 1.7500 0.0600
   vertex 5.2020 4.0500 0.0300
   vertex 5.1500 4.0500 0.0600
  endloop
 endfacet
 facet normal 0.00000 -1.00000 0.00000
  outer loop
   vertex 5.1500 1.7500 0.0000
   vertex 5.2020 1.7500 0.0300
   vertex 5.1500 1.7500 0.0600
  endloop
 endfacet
 facet normal 0.00000 1.00000 0.00000
  outer loop
   vertex 5.1500 4.0500 0.0000
   vertex 5.1500 4.0500 0.0600
   vertex 5.2020 4.0500 0.0300
  endloop
 endfacet
 facet normal 1.00000 0.00000 0.00000
  outer loop
   vertex 5.2020 1.7500 0.0300
   vertex 5.2020 1.7500 -0.0300
   vertex 5.2020 4.0500 -0.0300
  endloop
 endfacet
 facet normal 1.00000 0.00000 0.00000
  outer loop
   vertex 5.2020 1.7500 0.0300
   vertex 5.2020 4.0500 -0.0300
   vertex 5.2020 4.0500 0.0300
  endloop
 endfacet
 facet normal 0.00000 -1.00000 0.00000
  outer loop
   vertex 5.1500 1.7500 0.0000
   vertex 5.2020 1.7500 -0.0300
   vertex 5.2020 1.7500 0.0300
  endloop
 endfacet
 facet normal 0.00000 1.00000 0.00000
  outer loop
   vertex 5.1500 4.0500 0.0000
   vertex 5.2020 4.0500 0.0300
   vertex 5.2020 4.0500 -0.0300
  endloop
 endfacet
 facet normal 0.50000 0.00000 -0.86603
  outer loop
   vertex 5.2020 1.7500 -0.0300
   vertex 5.1500 1.7500 -0.0600
   vertex 5.1500 4.0500 -0.0600
  endloop
 endfacet
 facet normal 0.50000 0.00000 -0.86603
  outer loop
   vertex 5.2020 1.7500 -0.0300
   vertex 5.1500 4.0500 -0.0600
   vertex 5.2020 4.0500 -0.0300
  endloop
 endfacet
 facet normal 0.00000 -1.00000 0.00000
  outer loop
   vertex 5.1500 1.7500 0.0000
   vertex 5.1500 1.7500 -0.0600
   vertex 5.2020 1.7500 -0.0300
  endloop
 endfacet
 facet normal 0.00000 1.00000 0.00000
  outer loop
   vertex 5.1500 4.0500 0.0000
   vertex 5.2020 4.0500 -0.0300
   vertex 5.1500 4.0500 -0.0600
  endloop
 endfacet
 facet normal 0.00000 0.00000 1.00000
  outer loop
   vertex -2.5000 4.1750 -0.3000
   vertex 2.5000 4.1750 -0.3000
   vertex 2.5000 4.4250 -0.3000
  endloop
 endfacet
 facet normal 0.00000 0.00000 1.00000
  outer loop
   vertex -2.5000 4.1750 -0.3000
   vertex 2.5000 4.4250 -0.3000
   vertex -2.5000 4.4250 -0.3000
  endloop
 endfacet
 facet normal 0.00000 0.00000 -1.00000
  outer loop
   vertex 2.5000 4.1750 0.3000
   vertex -2.5000 4.1750 0.3000
   vertex -2.5000 4.4250 0.3000
  endloop
 endfacet
 facet normal 0.00000 0.00000 -1.00000
  outer loop
   vertex 2.5000 4.1750 0.3000
   vertex -2.5000 4.4250 0.3000
   vertex 2.5000 4.4250 0.3000
  endloop
 endfacet
 facet normal 1.00000 0.00000 0.00000
  outer loop
   vertex -2.5000 4.1750 0.3000
   vertex -2.5000 4.1750 -0.3000
   vertex -2.5000 4.4250 -0.3000
  endloop
 endfacet
 facet normal 1.00000 0.00000 0.00000
  outer loop
   vertex -2.5000 4.1750 0.3000
   vertex -2.5000 4.4250 -0.3000
   vertex -2.5000 4.4250 0.3000
  endloop
 endfacet
 facet normal -1.00000 0.00000 0.00000
  outer loop
   vertex 2.5000 4.1750 -0.3000
   vertex 2.5000 4.1750 0.3000
   vertex 2.5000 4.4250 0.3000
  endloop
 endfacet
 facet normal -1.00000 0.00000 0.00000
  outer loop
   vertex 2.5000 4.1750 -0.3000
   vertex 2.5000 4.4250 0.3000
   vertex 2.5000 4.4250 -0.3000
  endloop
 endfacet
 facet normal 0.00000 -1.00000 0.00000
  outer loop
   vertex -2.5000 4.4250 -0.3000
   vertex 2.5000 4.4250 -0.3000
   vertex 2.5000 4.4250 0.3000
  endloop
 endfacet
 facet normal 0.00000 -1.00000 0.00000
  outer loop
   vertex -2.5000 4.4250 -0.3000
   vertex 2.5000 4.4250 0.3000
   vertex -2.5000 4.4250 0.3000
  endloop
 endfacet
 facet normal 0.00000 1.00000 0.00000
  outer loop
   vertex -2.5000 4.1750 0.3000
   vertex 2.5000 4.1750 0.3000
   vertex 2.5000 4.1750 -0.3000
  endloop
 endfacet
 facet normal 0.00000 1.00000 0.00000
  outer loop
   vertex -2.5000 4.1750 0.3000
   vertex 2.5000 4.1750 -0.3000
   vertex -2.5000 4.1750 -0.3000
  endloop
 endfacet
endsolid porton_principal
