solid taller_mantenimiento
 facet normal 0.00000 0.00000 1.00000
  outer loop
   vertex -6.5000 -0.3000 -5.0000
   vertex 6.5000 -0.3000 -5.0000
   vertex 6.5000 0.0000 -5.0000
  endloop
 endfacet
 facet normal 0.00000 0.00000 1.00000
  outer loop
   vertex -6.5000 -0.3000 -5.0000
   vertex 6.5000 0.0000 -5.0000
   vertex -6.5000 0.0000 -5.0000
  endloop
 endfacet
 facet normal 0.00000 0.00000 -1.00000
  outer loop
   vertex 6.5000 -0.3000 5.0000
   vertex -6.5000 -0.3000 5.0000
   vertex -6.5000 0.0000 5.0000
  endloop
 endfacet
 facet normal 0.00000 0.00000 -1.00000
  outer loop
   vertex 6.5000 -0.3000 5.0000
   vertex -6.5000 0.0000 5.0000
   vertex 6.5000 0.0000 5.0000
  endloop
 endfacet
 facet normal 1.00000 0.00000 0.00000
  outer loop
   vertex -6.5000 -0.3000 5.0000
   vertex -6.5000 -0.3000 -5.0000
   vertex -6.5000 0.0000 -5.0000
  endloop
 endfacet
 facet normal 1.00000 0.00000 0.00000
  outer loop
   vertex -6.5000 -0.3000 5.0000
   vertex -6.5000 0.0000 -5.0000
   vertex -6.5000 0.0000 5.0000
  endloop
 endfacet
 facet normal -1.00000 0.00000 0.00000
  outer loop
   vertex 6.5000 -0.3000 -5.0000
   vertex 6.5000 -0.3000 5.0000
   vertex 6.5000 0.0000 5.0000
  endloop
 endfacet
 facet normal -1.00000 0.00000 0.00000
  outer loop
   vertex 6.5000 -0.3000 -5.0000
   vertex 6.5000 0.0000 5.0000
   vertex 6.5000 0.0000 -5.0000
  endloop
 endfacet
 facet normal 0.00000 -1.00000 0.00000
  outer loop
   vertex -6.5000 0.0000 -5.0000
   vertex 6.5000 0.0000 -5.0000
   vertex 6.5000 0.0000 5.0000
  endloop
 endfacet
 facet normal 0.00000 -1.00000 0.00000
  outer loop
   vertex -6.5000 0.0000 -5.0000
   vertex 6.5000 0.0000 5.0000
   vertex -6.5000 0.0000 5.0000
  endloop
 endfacet
 facet normal 0.00000 1.00000 0.00000
  outer loop
   vertex -6.5000 -0.3000 5.0000
   vertex 6.5000 -0.3000 5.0000
   vertex 6.5000 -0.3000 -5.0000
  endloop
 endfacet
 facet normal 0.00000 1.00000 0.00000
  outer loop
   vertex -6.5000 -0.3000 5.0000
   vertex 6.5000 -0.3000 -5.0000
   vertex -6.5000 -0.3000 -5.0000
  endloop
 endfacet
 facet normal 0.00000 0.00000 1.00000
  outer loop
   vertex -6.5000 0.0000 -4.9500
   vertex 6.5000 0.0000 -4.9500
   vertex 6.5000 6.8000 -4.9500
  endloop
 endfacet
 facet normal 0.00000 0.00000 1.00000
  outer loop
   vertex -6.5000 0.0000 -4.9500
   vertex 6.5000 6.8000 -4.9500
   vertex -6.5000 6.8000 -4.9500
  endloop
 endfacet
 facet normal 0.00000 0.00000 -1.00000
  outer loop
   vertex 6.5000 0.0000 -4.6500
   vertex -6.5000 0.0000 -4.6500
   vertex -6.5000 6.8000 -4.6500
  endloop
 endfacet
 facet normal 0.00000 0.00000 -1.00000
  outer loop
   vertex 6.5000 0.0000 -4.6500
   vertex -6.5000 6.8000 -4.6500
   vertex 6.5000 6.8000 -4.6500
  endloop
 endfacet
 facet normal 1.00000 0.00000 0.00000
  outer loop
   vertex -6.5000 0.0000 -4.6500
   vertex -6.5000 0.0000 -4.9500
   vertex -6.5000 6.8000 -4.9500
  endloop
 endfacet
 facet normal 1.00000 0.00000 0.00000
  outer loop
   vertex -6.5000 0.0000 -4.6500
   vertex -6.5000 6.8000 -4.9500
   vertex -6.5000 6.8000 -4.6500
  endloop
 endfacet
 facet normal -1.00000 0.00000 0.00000
  outer loop
   vertex 6.5000 0.0000 -4.9500
   vertex 6.5000 0.0000 -4.6500
   vertex 6.5000 6.8000 -4.6500
  endloop
 endfacet
 facet normal -1.00000 0.00000 0.00000
  outer loop
   vertex 6.5000 0.0000 -4.9500
   vertex 6.5000 6.8000 -4.6500
   vertex 6.5000 6.8000 -4.9500
  endloop
 endfacet
 facet normal 0.00000 -1.00000 0.00000
  outer loop
   vertex -6.5000 6.8000 -4.9500
   vertex 6.5000 6.8000 -4.9500
   vertex 6.5000 6.8000 -4.6500
  endloop
 endfacet
 facet normal 0.00000 -1.00000 0.00000
  outer loop
   vertex -6.5000 6.8000 -4.9500
   vertex 6.5000 6.8000 -4.6500
   vertex -6.5000 6.8000 -4.6500
  endloop
 endfacet
 facet normal 0.00000 1.00000 0.00000
  outer loop
   vertex -6.5000 0.0000 -4.6500
   vertex 6.5000 0.0000 -4.6500
   vertex 6.5000 0.0000 -4.9500
  endloop
 endfacet
 facet normal 0.00000 1.00000 0.00000
  outer loop
   vertex -6.5000 0.0000 -4.6500
   vertex 6.5000 0.0000 -4.9500
   vertex -6.5000 0.0000 -4.9500
  endloop
 endfacet
 facet normal 0.00000 0.00000 1.00000
  outer loop
   vertex -6.4500 -1.6000 -0.1500
   vertex -6.1500 -1.6000 -0.1500
   vertex -6.1500 8.4000 -0.1500
  endloop
 endfacet
 facet normal 0.00000 0.00000 1.00000
  outer loop
   vertex -6.4500 -1.6000 -0.1500
   vertex -6.1500 8.4000 -0.1500
   vertex -6.4500 8.4000 -0.1500
  endloop
 endfacet
 facet normal 0.00000 0.00000 -1.00000
  outer loop
   vertex -6.1500 -1.6000 0.1500
   vertex -6.4500 -1.6000 0.1500
   vertex -6.4500 8.4000 0.1500
  endloop
 endfacet
 facet normal 0.00000 0.00000 -1.00000
  outer loop
   vertex -6.1500 -1.6000 0.1500
   vertex -6.4500 8.4000 0.1500
   vertex -6.1500 8.4000 0.1500
  endloop
 endfacet
 facet normal 1.00000 0.00000 0.00000
  outer loop
   vertex -6.4500 -1.6000 0.1500
   vertex -6.4500 -1.6000 -0.1500
   vertex -6.4500 8.4000 -0.1500
  endloop
 endfacet
 facet normal 1.00000 0.00000 0.00000
  outer loop
   vertex -6.4500 -1.6000 0.1500
   vertex -6.4500 8.4000 -0.1500
   vertex -6.4500 8.4000 0.1500
  endloop
 endfacet
 facet normal -1.00000 0.00000 0.00000
  outer loop
   vertex -6.1500 -1.6000 -0.1500
   vertex -6.1500 -1.6000 0.1500
   vertex -6.1500 8.4000 0.1500
  endloop
 endfacet
 facet normal -1.00000 0.00000 0.00000
  outer loop
   vertex -6.1500 -1.6000 -0.1500
   vertex -6.1500 8.4000 0.1500
   vertex -6.1500 8.4000 -0.1500
  endloop
 endfacet
 facet normal 0.00000 -1.00000 0.00000
  outer loop
   vertex -6.4500 8.4000 -0.1500
   vertex -6.1500 8.4000 -0.1500
   vertex -6.1500 8.4000 0.1500
  endloop
 endfacet
 facet normal 0.00000 -1.00000 0.00000
  outer loop
   vertex -6.4500 8.4000 -0.1500
   vertex -6.1500 8.4000 0.1500
   vertex -6.4500 8.4000 0.1500
  endloop
 endfacet
 facet normal 0.00000 1.00000 0.00000
  outer loop
   vertex -6.4500 -1.6000 0.1500
   vertex -6.1500 -1.6000 0.1500
   vertex -6.1500 -1.6000 -0.1500
  endloop
 endfacet
 facet normal 0.00000 1.00000 0.00000
  outer loop
   vertex -6.4500 -1.6000 0.1500
   vertex -6.1500 -1.6000 -0.1500
   vertex -6.4500 -1.6000 -0.1500
  endloop
 endfacet
 facet normal 0.00000 0.00000 1.00000
  outer loop
   vertex 6.1500 -1.6000 -0.1500
   vertex 6.4500 -1.6000 -0.1500
   vertex 6.4500 8.4000 -0.1500
  endloop
 endfacet
 facet normal 0.00000 0.00000 1.00000
  outer loop
   vertex 6.1500 -1.6000 -0.1500
   vertex 6.4500 8.4000 -0.1500
   vertex 6.1500 8.4000 -0.1500
  endloop
 endfacet
 facet normal 0.00000 0.00000 -1.00000
  outer loop
   vertex 6.4500 -1.6000 0.1500
   vertex 6.1500 -1.6000 0.1500
   vertex 6.1500 8.4000 0.1500
  endloop
 endfacet
 facet normal 0.00000 0.00000 -1.00000
  outer loop
   vertex 6.4500 -1.6000 0.1500
   vertex 6.1500 8.4000 0.1500
   vertex 6.4500 8.4000 0.1500
  endloop
 endfacet
 facet normal 1.00000 0.00000 0.00000
  outer loop
   vertex 6.1500 -1.6000 0.1500
   vertex 6.1500 -1.6000 -0.1500
   vertex 6.1500 8.4000 -0.1500
  endloop
 endfacet
 facet normal 1.00000 0.00000 0.00000
  outer loop
   vertex 6.1500 -1.6000 0.1500
   vertex 6.1500 8.4000 -0.1500
   vertex 6.1500 8.4000 0.1500
  endloop
 endfacet
 facet normal -1.00000 0.00000 0.00000
  outer loop
   vertex 6.4500 -1.6000 -0.1500
   vertex 6.4500 -1.6000 0.1500
   vertex 6.4500 8.4000 0.1500
  endloop
 endfacet
 facet normal -1.00000 0.00000 0.00000
  outer loop
   vertex 6.4500 -1.6000 -0.1500
   vertex 6.4500 8.4000 0.1500
   vertex 6.4500 8.4000 -0.1500
  endloop
 endfacet
 facet normal 0.00000 -1.00000 0.00000
  outer loop
   vertex 6.1500 8.4000 -0.1500
   vertex 6.4500 8.4000 -0.1500
   vertex 6.4500 8.4000 0.1500
  endloop
 endfacet
 facet normal 0.00000 -1.00000 0.00000
  outer loop
   vertex 6.1500 8.4000 -0.1500
   vertex 6.4500 8.4000 0.1500
   vertex 6.1500 8.4000 0.1500
  endloop
 endfacet
 facet normal 0.00000 1.00000 0.00000
  outer loop
   vertex 6.1500 -1.6000 0.1500
   vertex 6.4500 -1.6000 0.1500
   vertex 6.4500 -1.6000 -0.1500
  endloop
 endfacet
 facet normal 0.00000 1.00000 0.00000
  outer loop
   vertex 6.1500 -1.6000 0.1500
   vertex 6.4500 -1.6000 -0.1500
   vertex 6.1500 -1.6000 -0.1500
  endloop
 endfacet
 facet normal 0.00000 0.00000 1.00000
  outer loop
   vertex -2.5000 0.8750 -3.4000
   vertex 2.5000 0.8750 -3.4000
   vertex 2.5000 1.1250 -3.4000
  endloop
 endfacet
 facet normal 0.00000 0.00000 1.00000
  outer loop
   vertex -2.5000 0.8750 -3.4000
   vertex 2.5000 1.1250 -3.4000
   vertex -2.5000 1.1250 -3.4000
  endloop
 endfacet
 facet normal 0.00000 0.00000 -1.00000
  outer loop
   vertex 2.5000 0.8750 -2.4000
   vertex -2.5000 0.8750 -2.4000
   vertex -2.5000 1.1250 -2.4000
  endloop
 endfacet
 facet normal 0.00000 0.00000 -1.00000
  outer loop
   vertex 2.5000 0.8750 -2.4000
   vertex -2.5000 1.1250 -2.4000
   vertex 2.5000 1.1250 -2.4000
  endloop
 endfacet
 facet normal 1.00000 0.00000 0.00000
  outer loop
   vertex -2.5000 0.8750 -2.4000
   vertex -2.5000 0.8750 -3.4000
   vertex -2.5000 1.1250 -3.4000
  endloop
 endfacet
 facet normal 1.00000 0.00000 0.00000
  outer loop
   vertex -2.5000 0.8750 -2.4000
   vertex -2.5000 1.1250 -3.4000
   vertex -2.5000 1.1250 -2.4000
  endloop
 endfacet
 facet normal -1.00000 0.00000 0.00000
  outer loop
   vertex 2.5000 0.8750 -3.4000
   vertex 2.5000 0.8750 -2.4000
   vertex 2.5000 1.1250 -2.4000
  endloop
 endfacet
 facet normal -1.00000 0.00000 0.00000
  outer loop
   vertex 2.5000 0.8750 -3.4000
   vertex 2.5000 1.1250 -2.4000
   vertex 2.5000 1.1250 -3.4000
  endloop
 endfacet
 facet normal 0.00000 -1.00000 0.00000
  outer loop
   vertex -2.5000 1.1250 -3.4000
   vertex 2.5000 1.1250 -3.4000
   vertex 2.5000 1.1250 -2.4000
  endloop
 endfacet
 facet normal 0.00000 -1.00000 0.00000
  outer loop
   vertex -2.5000 1.1250 -3.4000
   vertex 2.5000 1.1250 -2.4000
   vertex -2.5000 1.1250 -2.4000
  endloop
 endfacet
 facet normal 0.00000 1.00000 0.00000
  outer loop
   vertex -2.5000 0.8750 -2.4000
   vertex 2.5000 0.8750 -2.4000
   vertex 2.5000 0.8750 -3.4000
  endloop
 endfacet
 facet normal 0.00000 1.00000 0.00000
  outer loop
   vertex -2.5000 0.8750 -2.4000
   vertex 2.5000 0.8750 -3.4000
   vertex -2.5000 0.8750 -3.4000
  endloop
 endfacet
 facet normal 0.00000 0.00000 1.00000
  outer loop
   vertex -2.2750 0.0000 -2.9750
   vertex -2.1250 0.0000 -2.9750
   vertex -2.1250 1.0000 -2.9750
  endloop
 endfacet
 facet normal 0.00000 0.00000 1.00000
  outer loop
   vertex -2.2750 0.0000 -2.9750
   vertex -2.1250 1.0000 -2.9750
   vertex -2.2750 1.0000 -2.9750
  endloop
 endfacet
 facet normal 0.00000 0.00000 -1.00000
  outer loop
   vertex -2.1250 0.0000 -2.8250
   vertex -2.2750 0.0000 -2.8250
   vertex -2.2750 1.0000 -2.8250
  endloop
 endfacet
 facet normal 0.00000 0.00000 -1.00000
  outer loop
   vertex -2.1250 0.0000 -2.8250
   vertex -2.2750 1.0000 -2.8250
   vertex -2.1250 1.0000 -2.8250
  endloop
 endfacet
 facet normal 1.00000 0.00000 0.00000
  outer loop
   vertex -2.2750 0.0000 -2.8250
   vertex -2.2750 0.0000 -2.9750
   vertex -2.2750 1.0000 -2.9750
  endloop
 endfacet
 facet normal 1.00000 0.00000 0.00000
  outer loop
   vertex -2.2750 0.0000 -2.8250
   vertex -2.2750 1.0000 -2.9750
   vertex -2.2750 1.0000 -2.8250
  endloop
 endfacet
 facet normal -1.00000 0.00000 0.00000
  outer loop
   vertex -2.1250 0.0000 -2.9750
   vertex -2.1250 0.0000 -2.8250
   vertex -2.1250 1.0000 -2.8250
  endloop
 endfacet
 facet normal -1.00000 0.00000 0.00000
  outer loop
   vertex -2.1250 0.0000 -2.9750
   vertex -2.1250 1.0000 -2.8250
   vertex -2.1250 1.0000 -2.9750
  endloop
 endfacet
 facet normal 0.00000 -1.00000 0.00000
  outer loop
   vertex -2.2750 1.0000 -2.9750
   vertex -2.1250 1.0000 -2.9750
   vertex -2.1250 1.0000 -2.8250
  endloop
 endfacet
 facet normal 0.00000 -1.00000 0.00000
  outer loop
   vertex -2.2750 1.0000 -2.9750
   vertex -2.1250 1.0000 -2.8250
   vertex -2.2750 1.0000 -2.8250
  endloop
 endfacet
 facet normal 0.00000 1.00000 0.00000
  outer loop
   vertex -2.2750 0.0000 -2.8250
   vertex -2.1250 0.0000 -2.8250
   vertex -2.1250 0.0000 -2.9750
  endloop
 endfacet
 facet normal 0.00000 1.00000 0.00000
  outer loop
   vertex -2.2750 0.0000 -2.8250
   vertex -2.1250 0.0000 -2.9750
   vertex -2.2750 0.0000 -2.9750
  endloop
 endfacet
 facet normal 0.00000 0.00000 1.00000
  outer loop
   vertex 2.1250 0.0000 -2.9750
   vertex 2.2750 0.0000 -2.9750
   vertex 2.2750 1.0000 -2.9750
  endloop
 endfacet
 facet normal 0.00000 0.00000 1.00000
  outer loop
   vertex 2.1250 0.0000 -2.9750
   vertex 2.2750 1.0000 -2.9750
   vertex 2.1250 1.0000 -2.9750
  endloop
 endfacet
 facet normal 0.00000 0.00000 -1.00000
  outer loop
   vertex 2.2750 0.0000 -2.8250
   vertex 2.1250 0.0000 -2.8250
   vertex 2.1250 1.0000 -2.8250
  endloop
 endfacet
 facet normal 0.00000 0.00000 -1.00000
  outer loop
   vertex 2.2750 0.0000 -2.8250
   vertex 2.1250 1.0000 -2.8250
   vertex 2.2750 1.0000 -2.8250
  endloop
 endfacet
 facet normal 1.00000 0.00000 0.00000
  outer loop
   vertex 2.1250 0.0000 -2.8250
   vertex 2.1250 0.0000 -2.9750
   vertex 2.1250 1.0000 -2.9750
  endloop
 endfacet
 facet normal 1.00000 0.00000 0.00000
  outer loop
   vertex 2.1250 0.0000 -2.8250
   vertex 2.1250 1.0000 -2.9750
   vertex 2.1250 1.0000 -2.8250
  endloop
 endfacet
 facet normal -1.00000 0.00000 0.00000
  outer loop
   vertex 2.2750 0.0000 -2.9750
   vertex 2.2750 0.0000 -2.8250
   vertex 2.2750 1.0000 -2.8250
  endloop
 endfacet
 facet normal -1.00000 0.00000 0.00000
  outer loop
   vertex 2.2750 0.0000 -2.9750
   vertex 2.2750 1.0000 -2.8250
   vertex 2.2750 1.0000 -2.9750
  endloop
 endfacet
 facet normal 0.00000 -1.00000 0.00000
  outer loop
   vertex 2.1250 1.0000 -2.9750
   vertex 2.2750 1.0000 -2.9750
   vertex 2.2750 1.0000 -2.8250
  endloop
 endfacet
 facet normal 0.00000 -1.00000 0.00000
  outer loop
   vertex 2.1250 1.0000 -2.9750
   vertex 2.2750 1.0000 -2.8250
   vertex 2.1250 1.0000 -2.8250
  endloop
 endfacet
 facet normal 0.00000 1.00000 0.00000
  outer loop
   vertex 2.1250 0.0000 -2.8250
   vertex 2.2750 0.0000 -2.8250
   vertex 2.2750 0.0000 -2.9750
  endloop
 endfacet
 facet normal 0.00000 1.00000 0.00000
  outer loop
   vertex 2.1250 0.0000 -2.8250
   vertex 2.2750 0.0000 -2.9750
   vertex 2.1250 0.0000 -2.9750
  endloop
 endfacet
 facet normal -0.38268 0.00000 -0.92388
  outer loop
   vertex -4.7000 0.0000 1.4200
   vertex -4.9687 0.0000 1.5313
   vertex -4.9687 1.1000 1.5313
  endloop
 endfacet
 facet normal -0.38268 0.00000 -0.92388
  outer loop
   vertex -4.7000 0.0000 1.4200
   vertex -4.9687 1.1000 1.5313
   vertex -4.7000 1.1000 1.4200
  endloop
 endfacet
 facet normal 0.00000 -1.00000 0.00000
  outer loop
   vertex -4.7000 0.0000 1.8000
   vertex -4.9687 0.0000 1.5313
   vertex -4.7000 0.0000 1.4200
  endloop
 endfacet
 facet normal 0.00000 1.00000 0.00000
  outer loop
   vertex -4.7000 1.1000 1.8000
   vertex -4.7000 1.1000 1.4200
   vertex -4.9687 1.1000 1.5313
  endloop
 endfacet
 facet normal -0.92388 0.00000 -0.38268
  outer loop
   vertex -4.9687 0.0000 1.5313
   vertex -5.0800 0.0000 1.8000
   vertex -5.0800 1.1000 1.8000
  endloop
 endfacet
 facet normal -0.92388 0.00000 -0.38268
  outer loop
   vertex -4.9687 0.0000 1.5313
   vertex -5.0800 1.1000 1.8000
   vertex -4.9687 1.1000 1.5313
  endloop
 endfacet
 facet normal 0.00000 -1.00000 0.00000
  outer loop
   vertex -4.7000 0.0000 1.8000
   vertex -5.0800 0.0000 1.8000
   vertex -4.9687 0.0000 1.5313
  endloop
 endfacet
 facet normal 0.00000 1.00000 0.00000
  outer loop
   vertex -4.7000 1.1000 1.8000
   vertex -4.9687 1.1000 1.5313
   vertex -5.0800 1.1000 1.8000
  endloop
 endfacet
 facet normal -0.92388 0.00000 0.38268
  outer loop
   vertex -5.0800 0.0000 1.8000
   vertex -4.9687 0.0000 2.0687
   vertex -4.9687 1.1000 2.0687
  endloop
 endfacet
 facet normal -0.92388 0.00000 0.38268
  outer loop
   vertex -5.0800 0.0000 1.8000
   vertex -4.9687 1.1000 2.0687
   vertex -5.0800 1.1000 1.8000
  endloop
 endfacet
 facet normal 0.00000 -1.00000 0.00000
  outer loop
   vertex -4.7000 0.0000 1.8000
   vertex -4.9687 0.0000 2.0687
   vertex -5.0800 0.0000 1.8000
  endloop
 endfacet
 facet normal 0.00000 1.00000 0.00000
  outer loop
   vertex -4.7000 1.1000 1.8000
   vertex -5.0800 1.1000 1.8000
   vertex -4.9687 1.1000 2.0687
  endloop
 endfacet
 facet normal -0.38268 0.00000 0.92388
  outer loop
   vertex -4.9687 0.0000 2.0687
   vertex -4.7000 0.0000 2.1800
   vertex -4.7000 1.1000 2.1800
  endloop
 endfacet
 facet normal -0.38268 0.00000 0.92388
  outer loop
   vertex -4.9687 0.0000 2.0687
   vertex -4.7000 1.1000 2.1800
   vertex -4.9687 1.1000 2.0687
  endloop
 endfacet
 facet normal 0.00000 -1.00000 0.00000
  outer loop
   vertex -4.7000 0.0000 1.8000
   vertex -4.7000 0.0000 2.1800
   vertex -4.9687 0.0000 2.0687
  endloop
 endfacet
 facet normal 0.00000 1.00000 0.00000
  outer loop
   vertex -4.7000 1.1000 1.8000
   vertex -4.9687 1.1000 2.0687
   vertex -4.7000 1.1000 2.1800
  endloop
 endfacet
 facet normal 0.38268 0.00000 0.92388
  outer loop
   vertex -4.7000 0.0000 2.1800
   vertex -4.4313 0.0000 2.0687
   vertex -4.4313 1.1000 2.0687
  endloop
 endfacet
 facet normal 0.38268 0.00000 0.92388
  outer loop
   vertex -4.7000 0.0000 2.1800
   vertex -4.4313 1.1000 2.0687
   vertex -4.7000 1.1000 2.1800
  endloop
 endfacet
 facet normal 0.00000 -1.00000 0.00000
  outer loop
   vertex -4.7000 0.0000 1.8000
   vertex -4.4313 0.0000 2.0687
   vertex -4.7000 0.0000 2.1800
  endloop
 endfacet
 facet normal 0.00000 1.00000 0.00000
  outer loop
   vertex -4.7000 1.1000 1.8000
   vertex -4.7000 1.1000 2.1800
   vertex -4.4313 1.1000 2.0687
  endloop
 endfacet
 facet normal 0.92388 0.00000 0.38268
  outer loop
   vertex -4.4313 0.0000 2.0687
   vertex -4.3200 0.0000 1.8000
   vertex -4.3200 1.1000 1.8000
  endloop
 endfacet
 facet normal 0.92388 0.00000 0.38268
  outer loop
   vertex -4.4313 0.0000 2.0687
   vertex -4.3200 1.1000 1.8000
   vertex -4.4313 1.1000 2.0687
  endloop
 endfacet
 facet normal 0.00000 -1.00000 0.00000
  outer loop
   vertex -4.7000 0.0000 1.8000
   vertex -4.3200 0.0000 1.8000
   vertex -4.4313 0.0000 2.0687
  endloop
 endfacet
 facet normal 0.00000 1.00000 0.00000
  outer loop
   vertex -4.7000 1.1000 1.8000
   vertex -4.4313 1.1000 2.0687
   vertex -4.3200 1.1000 1.8000
  endloop
 endfacet
 facet normal 0.92388 0.00000 -0.38268
  outer loop
   vertex -4.3200 0.0000 1.8000
   vertex -4.4313 0.0000 1.5313
   vertex -4.4313 1.1000 1.5313
  endloop
 endfacet
 facet normal 0.92388 0.00000 -0.38268
  outer loop
   vertex -4.3200 0.0000 1.8000
   vertex -4.4313 1.1000 1.5313
   vertex -4.3200 1.1000 1.8000
  endloop
 endfacet
 facet normal 0.00000 -1.00000 0.00000
  outer loop
   vertex -4.7000 0.0000 1.8000
   vertex -4.4313 0.0000 1.5313
   vertex -4.3200 0.0000 1.8000
  endloop
 endfacet
 facet normal 0.00000 1.00000 0.00000
  outer loop
   vertex -4.7000 1.1000 1.8000
   vertex -4.3200 1.1000 1.8000
   vertex -4.4313 1.1000 1.5313
  endloop
 endfacet
 facet normal 0.38268 0.00000 -0.92388
  outer loop
   vertex -4.4313 0.0000 1.5313
   vertex -4.7000 0.0000 1.4200
   vertex -4.7000 1.1000 1.4200
  endloop
 endfacet
 facet normal 0.38268 0.00000 -0.92388
  outer loop
   vertex -4.4313 0.0000 1.5313
   vertex -4.7000 1.1000 1.4200
   vertex -4.4313 1.1000 1.5313
  endloop
 endfacet
 facet normal 0.00000 -1.00000 0.00000
  outer loop
   vertex -4.7000 0.0000 1.8000
   vertex -4.7000 0.0000 1.4200
   vertex -4.4313 0.0000 1.5313
  endloop
 endfacet
 facet normal 0.00000 1.00000 0.00000
  outer loop
   vertex -4.7000 1.1000 1.8000
   vertex -4.4313 1.1000 1.5313
   vertex -4.7000 1.1000 1.4200
  endloop
 endfacet
 facet normal -0.38268 0.00000 -0.92388
  outer loop
   vertex -4.7000 1.0800 1.4100
   vertex -4.9758 1.0800 1.5242
   vertex -4.9758 1.1600 1.5242
  endloop
 endfacet
 facet normal -0.38268 0.00000 -0.92388
  outer loop
   vertex -4.7000 1.0800 1.4100
   vertex -4.9758 1.1600 1.5242
   vertex -4.7000 1.1600 1.4100
  endloop
 endfacet
 facet normal 0.00000 -1.00000 0.00000
  outer loop
   vertex -4.7000 1.0800 1.8000
   vertex -4.9758 1.0800 1.5242
   vertex -4.7000 1.0800 1.4100
  endloop
 endfacet
 facet normal 0.00000 1.00000 0.00000
  outer loop
   vertex -4.7000 1.1600 1.8000
   vertex -4.7000 1.1600 1.4100
   vertex -4.9758 1.1600 1.5242
  endloop
 endfacet
 facet normal -0.92388 0.00000 -0.38268
  outer loop
   vertex -4.9758 1.0800 1.5242
   vertex -5.0900 1.0800 1.8000
   vertex -5.0900 1.1600 1.8000
  endloop
 endfacet
 facet normal -0.92388 0.00000 -0.38268
  outer loop
   vertex -4.9758 1.0800 1.5242
   vertex -5.0900 1.1600 1.8000
   vertex -4.9758 1.1600 1.5242
  endloop
 endfacet
 facet normal 0.00000 -1.00000 0.00000
  outer loop
   vertex -4.7000 1.0800 1.8000
   vertex -5.0900 1.0800 1.8000
   vertex -4.9758 1.0800 1.5242
  endloop
 endfacet
 facet normal 0.00000 1.00000 0.00000
  outer loop
   vertex -4.7000 1.1600 1.8000
   vertex -4.9758 1.1600 1.5242
   vertex -5.0900 1.1600 1.8000
  endloop
 endfacet
 facet normal -0.92388 0.00000 0.38268
  outer loop
   vertex -5.0900 1.0800 1.8000
   vertex -4.9758 1.0800 2.0758
   vertex -4.9758 1.1600 2.0758
  endloop
 endfacet
 facet normal -0.92388 0.00000 0.38268
  outer loop
   vertex -5.0900 1.0800 1.8000
   vertex -4.9758 1.1600 2.0758
   vertex -5.0900 1.1600 1.8000
  endloop
 endfacet
 facet normal 0.00000 -1.00000 0.00000
  outer loop
   vertex -4.7000 1.0800 1.8000
   vertex -4.9758 1.0800 2.0758
   vertex -5.0900 1.0800 1.8000
  endloop
 endfacet
 facet normal 0.00000 1.00000 0.00000
  outer loop
   vertex -4.7000 1.1600 1.8000
   vertex -5.0900 1.1600 1.8000
   vertex -4.9758 1.1600 2.0758
  endloop
 endfacet
 facet normal -0.38268 0.00000 0.92388
  outer loop
   vertex -4.9758 1.0800 2.0758
   vertex -4.7000 1.0800 2.1900
   vertex -4.7000 1.1600 2.1900
  endloop
 endfacet
 facet normal -0.38268 0.00000 0.92388
  outer loop
   vertex -4.9758 1.0800 2.0758
   vertex -4.7000 1.1600 2.1900
   vertex -4.9758 1.1600 2.0758
  endloop
 endfacet
 facet normal 0.00000 -1.00000 0.00000
  outer loop
   vertex -4.7000 1.0800 1.8000
   vertex -4.7000 1.0800 2.1900
   vertex -4.9758 1.0800 2.0758
  endloop
 endfacet
 facet normal 0.00000 1.00000 0.00000
  outer loop
   vertex -4.7000 1.1600 1.8000
   vertex -4.9758 1.1600 2.0758
   vertex -4.7000 1.1600 2.1900
  endloop
 endfacet
 facet normal 0.38268 0.00000 0.92388
  outer loop
   vertex -4.7000 1.0800 2.1900
   vertex -4.4242 1.0800 2.0758
   vertex -4.4242 1.1600 2.0758
  endloop
 endfacet
 facet normal 0.38268 0.00000 0.92388
  outer loop
   vertex -4.7000 1.0800 2.1900
   vertex -4.4242 1.1600 2.0758
   vertex -4.7000 1.1600 2.1900
  endloop
 endfacet
 facet normal 0.00000 -1.00000 0.00000
  outer loop
   vertex -4.7000 1.0800 1.8000
   vertex -4.4242 1.0800 2.0758
   vertex -4.7000 1.0800 2.1900
  endloop
 endfacet
 facet normal 0.00000 1.00000 0.00000
  outer loop
   vertex -4.7000 1.1600 1.8000
   vertex -4.7000 1.1600 2.1900
   vertex -4.4242 1.1600 2.0758
  endloop
 endfacet
 facet normal 0.92388 0.00000 0.38268
  outer loop
   vertex -4.4242 1.0800 2.0758
   vertex -4.3100 1.0800 1.8000
   vertex -4.3100 1.1600 1.8000
  endloop
 endfacet
 facet normal 0.92388 0.00000 0.38268
  outer loop
   vertex -4.4242 1.0800 2.0758
   vertex -4.3100 1.1600 1.8000
   vertex -4.4242 1.1600 2.0758
  endloop
 endfacet
 facet normal 0.00000 -1.00000 0.00000
  outer loop
   vertex -4.7000 1.0800 1.8000
   vertex -4.3100 1.0800 1.8000
   vertex -4.4242 1.0800 2.0758
  endloop
 endfacet
 facet normal 0.00000 1.00000 0.00000
  outer loop
   vertex -4.7000 1.1600 1.8000
   vertex -4.4242 1.1600 2.0758
   vertex -4.3100 1.1600 1.8000
  endloop
 endfacet
 facet normal 0.92388 0.00000 -0.38268
  outer loop
   vertex -4.3100 1.0800 1.8000
   vertex -4.4242 1.0800 1.5242
   vertex -4.4242 1.1600 1.5242
  endloop
 endfacet
 facet normal 0.92388 0.00000 -0.38268
  outer loop
   vertex -4.3100 1.0800 1.8000
   vertex -4.4242 1.1600 1.5242
   vertex -4.3100 1.1600 1.8000
  endloop
 endfacet
 facet normal 0.00000 -1.00000 0.00000
  outer loop
   vertex -4.7000 1.0800 1.8000
   vertex -4.4242 1.0800 1.5242
   vertex -4.3100 1.0800 1.8000
  endloop
 endfacet
 facet normal 0.00000 1.00000 0.00000
  outer loop
   vertex -4.7000 1.1600 1.8000
   vertex -4.3100 1.1600 1.8000
   vertex -4.4242 1.1600 1.5242
  endloop
 endfacet
 facet normal 0.38268 0.00000 -0.92388
  outer loop
   vertex -4.4242 1.0800 1.5242
   vertex -4.7000 1.0800 1.4100
   vertex -4.7000 1.1600 1.4100
  endloop
 endfacet
 facet normal 0.38268 0.00000 -0.92388
  outer loop
   vertex -4.4242 1.0800 1.5242
   vertex -4.7000 1.1600 1.4100
   vertex -4.4242 1.1600 1.5242
  endloop
 endfacet
 facet normal 0.00000 -1.00000 0.00000
  outer loop
   vertex -4.7000 1.0800 1.8000
   vertex -4.7000 1.0800 1.4100
   vertex -4.4242 1.0800 1.5242
  endloop
 endfacet
 facet normal 0.00000 1.00000 0.00000
  outer loop
   vertex -4.7000 1.1600 1.8000
   vertex -4.4242 1.1600 1.5242
   vertex -4.7000 1.1600 1.4100
  endloop
 endfacet
 facet normal -0.38268 0.00000 -0.92388
  outer loop
   vertex 4.7000 0.0000 1.4200
   vertex 4.4313 0.0000 1.5313
   vertex 4.4313 1.1000 1.5313
  endloop
 endfacet
 facet normal -0.38268 0.00000 -0.92388
  outer loop
   vertex 4.7000 0.0000 1.4200
   vertex 4.4313 1.1000 1.5313
   vertex 4.7000 1.1000 1.4200
  endloop
 endfacet
 facet normal 0.00000 -1.00000 0.00000
  outer loop
   vertex 4.7000 0.0000 1.8000
   vertex 4.4313 0.0000 1.5313
   vertex 4.7000 0.0000 1.4200
  endloop
 endfacet
 facet normal 0.00000 1.00000 0.00000
  outer loop
   vertex 4.7000 1.1000 1.8000
   vertex 4.7000 1.1000 1.4200
   vertex 4.4313 1.1000 1.5313
  endloop
 endfacet
 facet normal -0.92388 0.00000 -0.38268
  outer loop
   vertex 4.4313 0.0000 1.5313
   vertex 4.3200 0.0000 1.8000
   vertex 4.3200 1.1000 1.8000
  endloop
 endfacet
 facet normal -0.92388 0.00000 -0.38268
  outer loop
   vertex 4.4313 0.0000 1.5313
   vertex 4.3200 1.1000 1.8000
   vertex 4.4313 1.1000 1.5313
  endloop
 endfacet
 facet normal 0.00000 -1.00000 0.00000
  outer loop
   vertex 4.7000 0.0000 1.8000
   vertex 4.3200 0.0000 1.8000
   vertex 4.4313 0.0000 1.5313
  endloop
 endfacet
 facet normal 0.00000 1.00000 0.00000
  outer loop
   vertex 4.7000 1.1000 1.8000
   vertex 4.4313 1.1000 1.5313
   vertex 4.3200 1.1000 1.8000
  endloop
 endfacet
 facet normal -0.92388 0.00000 0.38268
  outer loop
   vertex 4.3200 0.0000 1.8000
   vertex 4.4313 0.0000 2.0687
   vertex 4.4313 1.1000 2.0687
  endloop
 endfacet
 facet normal -0.92388 0.00000 0.38268
  outer loop
   vertex 4.3200 0.0000 1.8000
   vertex 4.4313 1.1000 2.0687
   vertex 4.3200 1.1000 1.8000
  endloop
 endfacet
 facet normal 0.00000 -1.00000 0.00000
  outer loop
   vertex 4.7000 0.0000 1.8000
   vertex 4.4313 0.0000 2.0687
   vertex 4.3200 0.0000 1.8000
  endloop
 endfacet
 facet normal 0.00000 1.00000 0.00000
  outer loop
   vertex 4.7000 1.1000 1.8000
   vertex 4.3200 1.1000 1.8000
   vertex 4.4313 1.1000 2.0687
  endloop
 endfacet
 facet normal -0.38268 0.00000 0.92388
  outer loop
   vertex 4.4313 0.0000 2.0687
   vertex 4.7000 0.0000 2.1800
   vertex 4.7000 1.1000 2.1800
  endloop
 endfacet
 facet normal -0.38268 0.00000 0.92388
  outer loop
   vertex 4.4313 0.0000 2.0687
   vertex 4.7000 1.1000 2.1800
   vertex 4.4313 1.1000 2.0687
  endloop
 endfacet
 facet normal 0.00000 -1.00000 0.00000
  outer loop
   vertex 4.7000 0.0000 1.8000
   vertex 4.7000 0.0000 2.1800
   vertex 4.4313 0.0000 2.0687
  endloop
 endfacet
 facet normal 0.00000 1.00000 0.00000
  outer loop
   vertex 4.7000 1.1000 1.8000
   vertex 4.4313 1.1000 2.0687
   vertex 4.7000 1.1000 2.1800
  endloop
 endfacet
 facet normal 0.38268 0.00000 0.92388
  outer loop
   vertex 4.7000 0.0000 2.1800
   vertex 4.9687 0.0000 2.0687
   vertex 4.9687 1.1000 2.0687
  endloop
 endfacet
 facet normal 0.38268 0.00000 0.92388
  outer loop
   vertex 4.7000 0.0000 2.1800
   vertex 4.9687 1.1000 2.0687
   vertex 4.7000 1.1000 2.1800
  endloop
 endfacet
 facet normal 0.00000 -1.00000 0.00000
  outer loop
   vertex 4.7000 0.0000 1.8000
   vertex 4.9687 0.0000 2.0687
   vertex 4.7000 0.0000 2.1800
  endloop
 endfacet
 facet normal 0.00000 1.00000 0.00000
  outer loop
   vertex 4.7000 1.1000 1.8000
   vertex 4.7000 1.1000 2.1800
   vertex 4.9687 1.1000 2.0687
  endloop
 endfacet
 facet normal 0.92388 0.00000 0.38268
  outer loop
   vertex 4.9687 0.0000 2.0687
   vertex 5.0800 0.0000 1.8000
   vertex 5.0800 1.1000 1.8000
  endloop
 endfacet
 facet normal 0.92388 0.00000 0.38268
  outer loop
   vertex 4.9687 0.0000 2.0687
   vertex 5.0800 1.1000 1.8000
   vertex 4.9687 1.1000 2.0687
  endloop
 endfacet
 facet normal 0.00000 -1.00000 0.00000
  outer loop
   vertex 4.7000 0.0000 1.8000
   vertex 5.0800 0.0000 1.8000
   vertex 4.9687 0.0000 2.0687
  endloop
 endfacet
 facet normal 0.00000 1.00000 0.00000
  outer loop
   vertex 4.7000 1.1000 1.8000
   vertex 4.9687 1.1000 2.0687
   vertex 5.0800 1.1000 1.8000
  endloop
 endfacet
 facet normal 0.92388 0.00000 -0.38268
  outer loop
   vertex 5.0800 0.0000 1.8000
   vertex 4.9687 0.0000 1.5313
   vertex 4.9687 1.1000 1.5313
  endloop
 endfacet
 facet normal 0.92388 0.00000 -0.38268
  outer loop
   vertex 5.0800 0.0000 1.8000
   vertex 4.9687 1.1000 1.5313
   vertex 5.0800 1.1000 1.8000
  endloop
 endfacet
 facet normal 0.00000 -1.00000 0.00000
  outer loop
   vertex 4.7000 0.0000 1.8000
   vertex 4.9687 0.0000 1.5313
   vertex 5.0800 0.0000 1.8000
  endloop
 endfacet
 facet normal 0.00000 1.00000 0.00000
  outer loop
   vertex 4.7000 1.1000 1.8000
   vertex 5.0800 1.1000 1.8000
   vertex 4.9687 1.1000 1.5313
  endloop
 endfacet
 facet normal 0.38268 0.00000 -0.92388
  outer loop
   vertex 4.9687 0.0000 1.5313
   vertex 4.7000 0.0000 1.4200
   vertex 4.7000 1.1000 1.4200
  endloop
 endfacet
 facet normal 0.38268 0.00000 -0.92388
  outer loop
   vertex 4.9687 0.0000 1.5313
   vertex 4.7000 1.1000 1.4200
   vertex 4.9687 1.1000 1.5313
  endloop
 endfacet
 facet normal 0.00000 -1.00000 0.00000
  outer loop
   vertex 4.7000 0.0000 1.8000
   vertex 4.7000 0.0000 1.4200
   vertex 4.9687 0.0000 1.5313
  endloop
 endfacet
 facet normal 0.00000 1.00000 0.00000
  outer loop
   vertex 4.7000 1.1000 1.8000
   vertex 4.9687 1.1000 1.5313
   vertex 4.7000 1.1000 1.4200
  endloop
 endfacet
 facet normal -0.38268 0.00000 -0.92388
  outer loop
   vertex 4.7000 1.0800 1.4100
   vertex 4.4242 1.0800 1.5242
   vertex 4.4242 1.1600 1.5242
  endloop
 endfacet
 facet normal -0.38268 0.00000 -0.92388
  outer loop
   vertex 4.7000 1.0800 1.4100
   vertex 4.4242 1.1600 1.5242
   vertex 4.7000 1.1600 1.4100
  endloop
 endfacet
 facet normal 0.00000 -1.00000 0.00000
  outer loop
   vertex 4.7000 1.0800 1.8000
   vertex 4.4242 1.0800 1.5242
   vertex 4.7000 1.0800 1.4100
  endloop
 endfacet
 facet normal 0.00000 1.00000 0.00000
  outer loop
   vertex 4.7000 1.1600 1.8000
   vertex 4.7000 1.1600 1.4100
   vertex 4.4242 1.1600 1.5242
  endloop
 endfacet
 facet normal -0.92388 0.00000 -0.38268
  outer loop
   vertex 4.4242 1.0800 1.5242
   vertex 4.3100 1.0800 1.8000
   vertex 4.3100 1.1600 1.8000
  endloop
 endfacet
 facet normal -0.92388 0.00000 -0.38268
  outer loop
   vertex 4.4242 1.0800 1.5242
   vertex 4.3100 1.1600 1.8000
   vertex 4.4242 1.1600 1.5242
  endloop
 endfacet
 facet normal 0.00000 -1.00000 0.00000
  outer loop
   vertex 4.7000 1.0800 1.8000
   vertex 4.3100 1.0800 1.8000
   vertex 4.4242 1.0800 1.5242
  endloop
 endfacet
 facet normal 0.00000 1.00000 0.00000
  outer loop
   vertex 4.7000 1.1600 1.8000
   vertex 4.4242 1.1600 1.5242
   vertex 4.3100 1.1600 1.8000
  endloop
 endfacet
 facet normal -0.92388 0.00000 0.38268
  outer loop
   vertex 4.3100 1.0800 1.8000
   vertex 4.4242 1.0800 2.0758
   vertex 4.4242 1.1600 2.0758
  endloop
 endfacet
 facet normal -0.92388 0.00000 0.38268
  outer loop
   vertex 4.3100 1.0800 1.8000
   vertex 4.4242 1.1600 2.0758
   vertex 4.3100 1.1600 1.8000
  endloop
 endfacet
 facet normal 0.00000 -1.00000 0.00000
  outer loop
   vertex 4.7000 1.0800 1.8000
   vertex 4.4242 1.0800 2.0758
   vertex 4.3100 1.0800 1.8000
  endloop
 endfacet
 facet normal 0.00000 1.00000 0.00000
  outer loop
   vertex 4.7000 1.1600 1.8000
   vertex 4.3100 1.1600 1.8000
   vertex 4.4242 1.1600 2.0758
  endloop
 endfacet
 facet normal -0.38268 0.00000 0.92388
  outer loop
   vertex 4.4242 1.0800 2.0758
   vertex 4.7000 1.0800 2.1900
   vertex 4.7000 1.1600 2.1900
  endloop
 endfacet
 facet normal -0.38268 0.00000 0.92388
  outer loop
   vertex 4.4242 1.0800 2.0758
   vertex 4.7000 1.1600 2.1900
   vertex 4.4242 1.1600 2.0758
  endloop
 endfacet
 facet normal 0.00000 -1.00000 0.00000
  outer loop
   vertex 4.7000 1.0800 1.8000
   vertex 4.7000 1.0800 2.1900
   vertex 4.4242 1.0800 2.0758
  endloop
 endfacet
 facet normal 0.00000 1.00000 0.00000
  outer loop
   vertex 4.7000 1.1600 1.8000
   vertex 4.4242 1.1600 2.0758
   vertex 4.7000 1.1600 2.1900
  endloop
 endfacet
 facet normal 0.38268 0.00000 0.92388
  outer loop
   vertex 4.7000 1.0800 2.1900
   vertex 4.9758 1.0800 2.0758
   vertex 4.9758 1.1600 2.0758
  endloop
 endfacet
 facet normal 0.38268 0.00000 0.92388
  outer loop
   vertex 4.7000 1.0800 2.1900
   vertex 4.9758 1.1600 2.0758
   vertex 4.7000 1.1600 2.1900
  endloop
 endfacet
 facet normal 0.00000 -1.00000 0.00000
  outer loop
   vertex 4.7000 1.0800 1.8000
   vertex 4.9758 1.0800 2.0758
   vertex 4.7000 1.0800 2.1900
  endloop
 endfacet
 facet normal 0.00000 1.00000 0.00000
  outer loop
   vertex 4.7000 1.1600 1.8000
   vertex 4.7000 1.1600 2.1900
   vertex 4.9758 1.1600 2.0758
  endloop
 endfacet
 facet normal 0.92388 0.00000 0.38268
  outer loop
   vertex 4.9758 1.0800 2.0758
   vertex 5.0900 1.0800 1.8000
   vertex 5.0900 1.1600 1.8000
  endloop
 endfacet
 facet normal 0.92388 0.00000 0.38268
  outer loop
   vertex 4.9758 1.0800 2.0758
   vertex 5.0900 1.1600 1.8000
   vertex 4.9758 1.1600 2.0758
  endloop
 endfacet
 facet normal 0.00000 -1.00000 0.00000
  outer loop
   vertex 4.7000 1.0800 1.8000
   vertex 5.0900 1.0800 1.8000
   vertex 4.9758 1.0800 2.0758
  endloop
 endfacet
 facet normal 0.00000 1.00000 0.00000
  outer loop
   vertex 4.7000 1.1600 1.8000
   vertex 4.9758 1.1600 2.0758
   vertex 5.0900 1.1600 1.8000
  endloop
 endfacet
 facet normal 0.92388 0.00000 -0.38268
  outer loop
   vertex 5.0900 1.0800 1.8000
   vertex 4.9758 1.0800 1.5242
   vertex 4.9758 1.1600 1.5242
  endloop
 endfacet
 facet normal 0.92388 0.00000 -0.38268
  outer loop
   vertex 5.0900 1.0800 1.8000
   vertex 4.9758 1.1600 1.5242
   vertex 5.0900 1.1600 1.8000
  endloop
 endfacet
 facet normal 0.00000 -1.00000 0.00000
  outer loop
   vertex 4.7000 1.0800 1.8000
   vertex 4.9758 1.0800 1.5242
   vertex 5.0900 1.0800 1.8000
  endloop
 endfacet
 facet normal 0.00000 1.00000 0.00000
  outer loop
   vertex 4.7000 1.1600 1.8000
   vertex 5.0900 1.1600 1.8000
   vertex 4.9758 1.1600 1.5242
  endloop
 endfacet
 facet normal 0.38268 0.00000 -0.92388
  outer loop
   vertex 4.9758 1.0800 1.5242
   vertex 4.7000 1.0800 1.4100
   vertex 4.7000 1.1600 1.4100
  endloop
 endfacet
 facet normal 0.38268 0.00000 -0.92388
  outer loop
   vertex 4.9758 1.0800 1.5242
   vertex 4.7000 1.1600 1.4100
   vertex 4.9758 1.1600 1.5242
  endloop
 endfacet
 facet normal 0.00000 -1.00000 0.00000
  outer loop
   vertex 4.7000 1.0800 1.8000
   vertex 4.7000 1.0800 1.4100
   vertex 4.9758 1.0800 1.5242
  endloop
 endfacet
 facet normal 0.00000 1.00000 0.00000
  outer loop
   vertex 4.7000 1.1600 1.8000
   vertex 4.9758 1.1600 1.5242
   vertex 4.7000 1.1600 1.4100
  endloop
 endfacet
 facet normal 0.00000 0.00000 1.00000
  outer loop
   vertex -4.5000 1.8500 -4.6250
   vertex -2.5000 1.8500 -4.6250
   vertex -2.5000 2.5500 -4.6250
  endloop
 endfacet
 facet normal 0.00000 0.00000 1.00000
  outer loop
   vertex -4.5000 1.8500 -4.6250
   vertex -2.5000 2.5500 -4.6250
   vertex -4.5000 2.5500 -4.6250
  endloop
 endfacet
 facet normal 0.00000 0.00000 -1.00000
  outer loop
   vertex -2.5000 1.8500 -4.4750
   vertex -4.5000 1.8500 -4.4750
   vertex -4.5000 2.5500 -4.4750
  endloop
 endfacet
 facet normal 0.00000 0.00000 -1.00000
  outer loop
   vertex -2.5000 1.8500 -4.4750
   vertex -4.5000 2.5500 -4.4750
   vertex -2.5000 2.5500 -4.4750
  endloop
 endfacet
 facet normal 1.00000 0.00000 0.00000
  outer loop
   vertex -4.5000 1.8500 -4.4750
   vertex -4.5000 1.8500 -4.6250
   vertex -4.5000 2.5500 -4.6250
  endloop
 endfacet
 facet normal 1.00000 0.00000 0.00000
  outer loop
   vertex -4.5000 1.8500 -4.4750
   vertex -4.5000 2.5500 -4.6250
   vertex -4.5000 2.5500 -4.4750
  endloop
 endfacet
 facet normal -1.00000 0.00000 0.00000
  outer loop
   vertex -2.5000 1.8500 -4.6250
   vertex -2.5000 1.8500 -4.4750
   vertex -2.5000 2.5500 -4.4750
  endloop
 endfacet
 facet normal -1.00000 0.00000 0.00000
  outer loop
   vertex -2.5000 1.8500 -4.6250
   vertex -2.5000 2.5500 -4.4750
   vertex -2.5000 2.5500 -4.6250
  endloop
 endfacet
 facet normal 0.00000 -1.00000 0.00000
  outer loop
   vertex -4.5000 2.5500 -4.6250
   vertex -2.5000 2.5500 -4.6250
   vertex -2.5000 2.5500 -4.4750
  endloop
 endfacet
 facet normal 0.00000 -1.00000 0.00000
  outer loop
   vertex -4.5000 2.5500 -4.6250
   vertex -2.5000 2.5500 -4.4750
   vertex -4.5000 2.5500 -4.4750
  endloop
 endfacet
 facet normal 0.00000 1.00000 0.00000
  outer loop
   vertex -4.5000 1.8500 -4.4750
   vertex -2.5000 1.8500 -4.4750
   vertex -2.5000 1.8500 -4.6250
  endloop
 endfacet
 facet normal 0.00000 1.00000 0.00000
  outer loop
   vertex -4.5000 1.8500 -4.4750
   vertex -2.5000 1.8500 -4.6250
   vertex -4.5000 1.8500 -4.6250
  endloop
 endfacet
 facet normal -0.42798 0.07133 -0.90097
  outer loop
   vertex -4.2000 1.8000 -4.4350
   vertex -4.2270 1.8045 -4.4218
   vertex -4.1270 2.4045 -4.4218
  endloop
 endfacet
 facet normal -0.42798 0.07133 -0.90097
  outer loop
   vertex -4.2000 1.8000 -4.4350
   vertex -4.1270 2.4045 -4.4218
   vertex -4.1000 2.4000 -4.4350
  endloop
 endfacet
 facet normal -0.16440 -0.98639 0.00000
  outer loop
   vertex -4.2000 1.8000 -4.4000
   vertex -4.2270 1.8045 -4.4218
   vertex -4.2000 1.8000 -4.4350
  endloop
 endfacet
 facet normal 0.16440 0.98639 0.00000
  outer loop
   vertex -4.1000 2.4000 -4.4000
   vertex -4.1000 2.4000 -4.4350
   vertex -4.1270 2.4045 -4.4218
  endloop
 endfacet
 facet normal -0.96166 0.16028 -0.22252
  outer loop
   vertex -4.2270 1.8045 -4.4218
   vertex -4.2337 1.8056 -4.3922
   vertex -4.1337 2.4056 -4.3922
  endloop
 endfacet
 facet normal -0.96166 0.16028 -0.22252
  outer loop
   vertex -4.2270 1.8045 -4.4218
   vertex -4.1337 2.4056 -4.3922
   vertex -4.1270 2.4045 -4.4218
  endloop
 endfacet
 facet normal -0.16440 -0.98639 0.00000
  outer loop
   vertex -4.2000 1.8000 -4.4000
   vertex -4.2337 1.8056 -4.3922
   vertex -4.2270 1.8045 -4.4218
  endloop
 endfacet
 facet normal 0.16440 0.98639 0.00000
  outer loop
   vertex -4.1000 2.4000 -4.4000
   vertex -4.1270 2.4045 -4.4218
   vertex -4.1337 2.4056 -4.3922
  endloop
 endfacet
 facet normal -0.77119 0.12853 0.62349
  outer loop
   vertex -4.2337 1.8056 -4.3922
   vertex -4.2150 1.8025 -4.3685
   vertex -4.1150 2.4025 -4.3685
  endloop
 endfacet
 facet normal -0.77119 0.12853 0.62349
  outer loop
   vertex -4.2337 1.8056 -4.3922
   vertex -4.1150 2.4025 -4.3685
   vertex -4.1337 2.4056 -4.3922
  endloop
 endfacet
 facet normal -0.16440 -0.98639 0.00000
  outer loop
   vertex -4.2000 1.8000 -4.4000
   vertex -4.2150 1.8025 -4.3685
   vertex -4.2337 1.8056 -4.3922
  endloop
 endfacet
 facet normal 0.16440 0.98639 -0.00000
  outer loop
   vertex -4.1000 2.4000 -4.4000
   vertex -4.1337 2.4056 -4.3922
   vertex -4.1150 2.4025 -4.3685
  endloop
 endfacet
 facet normal 0.00000 0.00000 1.00000
  outer loop
   vertex -4.2150 1.8025 -4.3685
   vertex -4.1850 1.7975 -4.3685
   vertex -4.0850 2.3975 -4.3685
  endloop
 endfacet
 facet normal 0.00000 0.00000 1.00000
  outer loop
   vertex -4.2150 1.8025 -4.3685
   vertex -4.0850 2.3975 -4.3685
   vertex -4.1150 2.4025 -4.3685
  endloop
 endfacet
 facet normal -0.16440 -0.98639 0.00000
  outer loop
   vertex -4.2000 1.8000 -4.4000
   vertex -4.1850 1.7975 -4.3685
   vertex -4.2150 1.8025 -4.3685
  endloop
 endfacet
 facet normal 0.16440 0.98639 0.00000
  outer loop
   vertex -4.1000 2.4000 -4.4000
   vertex -4.1150 2.4025 -4.3685
   vertex -4.0850 2.3975 -4.3685
  endloop
 endfacet
 facet normal 0.77119 -0.12853 0.62349
  outer loop
   vertex -4.1850 1.7975 -4.3685
   vertex -4.1663 1.7944 -4.3922
   vertex -4.0663 2.3944 -4.3922
  endloop
 endfacet
 facet normal 0.77119 -0.12853 0.62349
  outer loop
   vertex -4.1850 1.7975 -4.3685
   vertex -4.0663 2.3944 -4.3922
   vertex -4.0850 2.3975 -4.3685
  endloop
 endfacet
 facet normal -0.16440 -0.98639 -0.00000
  outer loop
   vertex -4.2000 1.8000 -4.4000
   vertex -4.1663 1.7944 -4.3922
   vertex -4.1850 1.7975 -4.3685
  endloop
 endfacet
 facet normal 0.16440 0.98639 0.00000
  outer loop
   vertex -4.1000 2.4000 -4.4000
   vertex -4.0850 2.3975 -4.3685
   vertex -4.0663 2.3944 -4.3922
  endloop
 endfacet
 facet normal 0.96166 -0.16028 -0.22252
  outer loop
   vertex -4.1663 1.7944 -4.3922
   vertex -4.1730 1.7955 -4.4218
   vertex -4.0730 2.3955 -4.4218
  endloop
 endfacet
 facet normal 0.96166 -0.16028 -0.22252
  outer loop
   vertex -4.1663 1.7944 -4.3922
   vertex -4.0730 2.3955 -4.4218
   vertex -4.0663 2.3944 -4.3922
  endloop
 endfacet
 facet normal -0.16440 -0.98639 -0.00000
  outer loop
   vertex -4.2000 1.8000 -4.4000
   vertex -4.1730 1.7955 -4.4218
   vertex -4.1663 1.7944 -4.3922
  endloop
 endfacet
 facet normal 0.16440 0.98639 -0.00000
  outer loop
   vertex -4.1000 2.4000 -4.4000
   vertex -4.0663 2.3944 -4.3922
   vertex -4.0730 2.3955 -4.4218
  endloop
 endfacet
 facet normal 0.42798 -0.07133 -0.90097
  outer loop
   vertex -4.1730 1.7955 -4.4218
   vertex -4.2000 1.8000 -4.4350
   vertex -4.1000 2.4000 -4.4350
  endloop
 endfacet
 facet normal 0.42798 -0.07133 -0.90097
  outer loop
   vertex -4.1730 1.7955 -4.4218
   vertex -4.1000 2.4000 -4.4350
   vertex -4.0730 2.3955 -4.4218
  endloop
 endfacet
 facet normal -0.16440 -0.98639 0.00000
  outer loop
   vertex -4.2000 1.8000 -4.4000
   vertex -4.2000 1.8000 -4.4350
   vertex -4.1730 1.7955 -4.4218
  endloop
 endfacet
 facet normal 0.16440 0.98639 0.00000
  outer loop
   vertex -4.1000 2.4000 -4.4000
   vertex -4.0730 2.3955 -4.4218
   vertex -4.1000 2.4000 -4.4350
  endloop
 endfacet
 facet normal -0.42798 0.07133 -0.90097
  outer loop
   vertex -3.8500 1.8000 -4.4350
   vertex -3.8770 1.8045 -4.4218
   vertex -3.7770 2.4045 -4.4218
  endloop
 endfacet
 facet normal -0.42798 0.07133 -0.90097
  outer loop
   vertex -3.8500 1.8000 -4.4350
   vertex -3.7770 2.4045 -4.4218
   vertex -3.7500 2.4000 -4.4350
  endloop
 endfacet
 facet normal -0.16440 -0.98639 0.00000
  outer loop
   vertex -3.8500 1.8000 -4.4000
   vertex -3.8770 1.8045 -4.4218
   vertex -3.8500 1.8000 -4.4350
  endloop
 endfacet
 facet normal 0.16440 0.98639 0.00000
  outer loop
   vertex -3.7500 2.4000 -4.4000
   vertex -3.7500 2.4000 -4.4350
   vertex -3.7770 2.4045 -4.4218
  endloop
 endfacet
 facet normal -0.96166 0.16028 -0.22252
  outer loop
   vertex -3.8770 1.8045 -4.4218
   vertex -3.8837 1.8056 -4.3922
   vertex -3.7837 2.4056 -4.3922
  endloop
 endfacet
 facet normal -0.96166 0.16028 -0.22252
  outer loop
   vertex -3.8770 1.8045 -4.4218
   vertex -3.7837 2.4056 -4.3922
   vertex -3.7770 2.4045 -4.4218
  endloop
 endfacet
 facet normal -0.16440 -0.98639 0.00000
  outer loop
   vertex -3.8500 1.8000 -4.4000
   vertex -3.8837 1.8056 -4.3922
   vertex -3.8770 1.8045 -4.4218
  endloop
 endfacet
 facet normal 0.16440 0.98639 0.00000
  outer loop
   vertex -3.7500 2.4000 -4.4000
   vertex -3.7770 2.4045 -4.4218
   vertex -3.7837 2.4056 -4.3922
  endloop
 endfacet
 facet normal -0.77119 0.12853 0.62349
  outer loop
   vertex -3.8837 1.8056 -4.3922
   vertex -3.8650 1.8025 -4.3685
   vertex -3.7650 2.4025 -4.3685
  endloop
 endfacet
 facet normal -0.77119 0.12853 0.62349
  outer loop
   vertex -3.8837 1.8056 -4.3922
   vertex -3.7650 2.4025 -4.3685
   vertex -3.7837 2.4056 -4.3922
  endloop
 endfacet
 facet normal -0.16440 -0.98639 0.00000
  outer loop
   vertex -3.8500 1.8000 -4.4000
   vertex -3.8650 1.8025 -4.3685
   vertex -3.8837 1.8056 -4.3922
  endloop
 endfacet
 facet normal 0.16440 0.98639 -0.00000
  outer loop
   vertex -3.7500 2.4000 -4.4000
   vertex -3.7837 2.4056 -4.3922
   vertex -3.7650 2.4025 -4.3685
  endloop
 endfacet
 facet normal 0.00000 0.00000 1.00000
  outer loop
   vertex -3.8650 1.8025 -4.3685
   vertex -3.8350 1.7975 -4.3685
   vertex -3.7350 2.3975 -4.3685
  endloop
 endfacet
 facet normal 0.00000 0.00000 1.00000
  outer loop
   vertex -3.8650 1.8025 -4.3685
   vertex -3.7350 2.3975 -4.3685
   vertex -3.7650 2.4025 -4.3685
  endloop
 endfacet
 facet normal -0.16440 -0.98639 0.00000
  outer loop
   vertex -3.8500 1.8000 -4.4000
   vertex -3.8350 1.7975 -4.3685
   vertex -3.8650 1.8025 -4.3685
  endloop
 endfacet
 facet normal 0.16440 0.98639 0.00000
  outer loop
   vertex -3.7500 2.4000 -4.4000
   vertex -3.7650 2.4025 -4.3685
   vertex -3.7350 2.3975 -4.3685
  endloop
 endfacet
 facet normal 0.77119 -0.12853 0.62349
  outer loop
   vertex -3.8350 1.7975 -4.3685
   vertex -3.8163 1.7944 -4.3922
   vertex -3.7163 2.3944 -4.3922
  endloop
 endfacet
 facet normal 0.77119 -0.12853 0.62349
  outer loop
   vertex -3.8350 1.7975 -4.3685
   vertex -3.7163 2.3944 -4.3922
   vertex -3.7350 2.3975 -4.3685
  endloop
 endfacet
 facet normal -0.16440 -0.98639 -0.00000
  outer loop
   vertex -3.8500 1.8000 -4.4000
   vertex -3.8163 1.7944 -4.3922
   vertex -3.8350 1.7975 -4.3685
  endloop
 endfacet
 facet normal 0.16440 0.98639 0.00000
  outer loop
   vertex -3.7500 2.4000 -4.4000
   vertex -3.7350 2.3975 -4.3685
   vertex -3.7163 2.3944 -4.3922
  endloop
 endfacet
 facet normal 0.96166 -0.16028 -0.22252
  outer loop
   vertex -3.8163 1.7944 -4.3922
   vertex -3.8230 1.7955 -4.4218
   vertex -3.7230 2.3955 -4.4218
  endloop
 endfacet
 facet normal 0.96166 -0.16028 -0.22252
  outer loop
   vertex -3.8163 1.7944 -4.3922
   vertex -3.7230 2.3955 -4.4218
   vertex -3.7163 2.3944 -4.3922
  endloop
 endfacet
 facet normal -0.16440 -0.98639 -0.00000
  outer loop
   vertex -3.8500 1.8000 -4.4000
   vertex -3.8230 1.7955 -4.4218
   vertex -3.8163 1.7944 -4.3922
  endloop
 endfacet
 facet normal 0.16440 0.98639 -0.00000
  outer loop
   vertex -3.7500 2.4000 -4.4000
   vertex -3.7163 2.3944 -4.3922
   vertex -3.7230 2.3955 -4.4218
  endloop
 endfacet
 facet normal 0.42798 -0.07133 -0.90097
  outer loop
   vertex -3.8230 1.7955 -4.4218
   vertex -3.8500 1.8000 -4.4350
   vertex -3.7500 2.4000 -4.4350
  endloop
 endfacet
 facet normal 0.42798 -0.07133 -0.90097
  outer loop
   vertex -3.8230 1.7955 -4.4218
   vertex -3.7500 2.4000 -4.4350
   vertex -3.7230 2.3955 -4.4218
  endloop
 endfacet
 facet normal -0.16440 -0.98639 0.00000
  outer loop
   vertex -3.8500 1.8000 -4.4000
   vertex -3.8500 1.8000 -4.4350
   vertex -3.8230 1.7955 -4.4218
  endloop
 endfacet
 facet normal 0.16440 0.98639 0.00000
  outer loop
   vertex -3.7500 2.4000 -4.4000
   vertex -3.7230 2.3955 -4.4218
   vertex -3.7500 2.4000 -4.4350
  endloop
 endfacet
 facet normal -0.42798 0.07133 -0.90097
  outer loop
   vertex -3.5000 1.8000 -4.4350
   vertex -3.5270 1.8045 -4.4218
   vertex -3.4270 2.4045 -4.4218
  endloop
 endfacet
 facet normal -0.42798 0.07133 -0.90097
  outer loop
   vertex -3.5000 1.8000 -4.4350
   vertex -3.4270 2.4045 -4.4218
   vertex -3.4000 2.4000 -4.4350
  endloop
 endfacet
 facet normal -0.16440 -0.98639 0.00000
  outer loop
   vertex -3.5000 1.8000 -4.4000
   vertex -3.5270 1.8045 -4.4218
   vertex -3.5000 1.8000 -4.4350
  endloop
 endfacet
 facet normal 0.16440 0.98639 0.00000
  outer loop
   vertex -3.4000 2.4000 -4.4000
   vertex -3.4000 2.4000 -4.4350
   vertex -3.4270 2.4045 -4.4218
  endloop
 endfacet
 facet normal -0.96166 0.16028 -0.22252
  outer loop
   vertex -3.5270 1.8045 -4.4218
   vertex -3.5337 1.8056 -4.3922
   vertex -3.4337 2.4056 -4.3922
  endloop
 endfacet
 facet normal -0.96166 0.16028 -0.22252
  outer loop
   vertex -3.5270 1.8045 -4.4218
   vertex -3.4337 2.4056 -4.3922
   vertex -3.4270 2.4045 -4.4218
  endloop
 endfacet
 facet normal -0.16440 -0.98639 0.00000
  outer loop
   vertex -3.5000 1.8000 -4.4000
   vertex -3.5337 1.8056 -4.3922
   vertex -3.5270 1.8045 -4.4218
  endloop
 endfacet
 facet normal 0.16440 0.98639 0.00000
  outer loop
   vertex -3.4000 2.4000 -4.4000
   vertex -3.4270 2.4045 -4.4218
   vertex -3.4337 2.4056 -4.3922
  endloop
 endfacet
 facet normal -0.77119 0.12853 0.62349
  outer loop
   vertex -3.5337 1.8056 -4.3922
   vertex -3.5150 1.8025 -4.3685
   vertex -3.4150 2.4025 -4.3685
  endloop
 endfacet
 facet normal -0.77119 0.12853 0.62349
  outer loop
   vertex -3.5337 1.8056 -4.3922
   vertex -3.4150 2.4025 -4.3685
   vertex -3.4337 2.4056 -4.3922
  endloop
 endfacet
 facet normal -0.16440 -0.98639 0.00000
  outer loop
   vertex -3.5000 1.8000 -4.4000
   vertex -3.5150 1.8025 -4.3685
   vertex -3.5337 1.8056 -4.3922
  endloop
 endfacet
 facet normal 0.16440 0.98639 -0.00000
  outer loop
   vertex -3.4000 2.4000 -4.4000
   vertex -3.4337 2.4056 -4.3922
   vertex -3.4150 2.4025 -4.3685
  endloop
 endfacet
 facet normal 0.00000 0.00000 1.00000
  outer loop
   vertex -3.5150 1.8025 -4.3685
   vertex -3.4850 1.7975 -4.3685
   vertex -3.3850 2.3975 -4.3685
  endloop
 endfacet
 facet normal 0.00000 0.00000 1.00000
  outer loop
   vertex -3.5150 1.8025 -4.3685
   vertex -3.3850 2.3975 -4.3685
   vertex -3.4150 2.4025 -4.3685
  endloop
 endfacet
 facet normal -0.16440 -0.98639 0.00000
  outer loop
   vertex -3.5000 1.8000 -4.4000
   vertex -3.4850 1.7975 -4.3685
   vertex -3.5150 1.8025 -4.3685
  endloop
 endfacet
 facet normal 0.16440 0.98639 0.00000
  outer loop
   vertex -3.4000 2.4000 -4.4000
   vertex -3.4150 2.4025 -4.3685
   vertex -3.3850 2.3975 -4.3685
  endloop
 endfacet
 facet normal 0.77119 -0.12853 0.62349
  outer loop
   vertex -3.4850 1.7975 -4.3685
   vertex -3.4663 1.7944 -4.3922
   vertex -3.3663 2.3944 -4.3922
  endloop
 endfacet
 facet normal 0.77119 -0.12853 0.62349
  outer loop
   vertex -3.4850 1.7975 -4.3685
   vertex -3.3663 2.3944 -4.3922
   vertex -3.3850 2.3975 -4.3685
  endloop
 endfacet
 facet normal -0.16440 -0.98639 -0.00000
  outer loop
   vertex -3.5000 1.8000 -4.4000
   vertex -3.4663 1.7944 -4.3922
   vertex -3.4850 1.7975 -4.3685
  endloop
 endfacet
 facet normal 0.16440 0.98639 0.00000
  outer loop
   vertex -3.4000 2.4000 -4.4000
   vertex -3.3850 2.3975 -4.3685
   vertex -3.3663 2.3944 -4.3922
  endloop
 endfacet
 facet normal 0.96166 -0.16028 -0.22252
  outer loop
   vertex -3.4663 1.7944 -4.3922
   vertex -3.4730 1.7955 -4.4218
   vertex -3.3730 2.3955 -4.4218
  endloop
 endfacet
 facet normal 0.96166 -0.16028 -0.22252
  outer loop
   vertex -3.4663 1.7944 -4.3922
   vertex -3.3730 2.3955 -4.4218
   vertex -3.3663 2.3944 -4.3922
  endloop
 endfacet
 facet normal -0.16440 -0.98639 -0.00000
  outer loop
   vertex -3.5000 1.8000 -4.4000
   vertex -3.4730 1.7955 -4.4218
   vertex -3.4663 1.7944 -4.3922
  endloop
 endfacet
 facet normal 0.16440 0.98639 -0.00000
  outer loop
   vertex -3.4000 2.4000 -4.4000
   vertex -3.3663 2.3944 -4.3922
   vertex -3.3730 2.3955 -4.4218
  endloop
 endfacet
 facet normal 0.42798 -0.07133 -0.90097
  outer loop
   vertex -3.4730 1.7955 -4.4218
   vertex -3.5000 1.8000 -4.4350
   vertex -3.4000 2.4000 -4.4350
  endloop
 endfacet
 facet normal 0.42798 -0.07133 -0.90097
  outer loop
   vertex -3.4730 1.7955 -4.4218
   vertex -3.4000 2.4000 -4.4350
   vertex -3.3730 2.3955 -4.4218
  endloop
 endfacet
 facet normal -0.16440 -0.98639 0.00000
  outer loop
   vertex -3.5000 1.8000 -4.4000
   vertex -3.5000 1.8000 -4.4350
   vertex -3.4730 1.7955 -4.4218
  endloop
 endfacet
 facet normal 0.16440 0.98639 0.00000
  outer loop
   vertex -3.4000 2.4000 -4.4000
   vertex -3.3730 2.3955 -4.4218
   vertex -3.4000 2.4000 -4.4350
  endloop
 endfacet
 facet normal -0.42798 0.07133 -0.90097
  outer loop
   vertex -3.1500 1.8000 -4.4350
   vertex -3.1770 1.8045 -4.4218
   vertex -3.0770 2.4045 -4.4218
  endloop
 endfacet
 facet normal -0.42798 0.07133 -0.90097
  outer loop
   vertex -3.1500 1.8000 -4.4350
   vertex -3.0770 2.4045 -4.4218
   vertex -3.0500 2.4000 -4.4350
  endloop
 endfacet
 facet normal -0.16440 -0.98639 0.00000
  outer loop
   vertex -3.1500 1.8000 -4.4000
   vertex -3.1770 1.8045 -4.4218
   vertex -3.1500 1.8000 -4.4350
  endloop
 endfacet
 facet normal 0.16440 0.98639 0.00000
  outer loop
   vertex -3.0500 2.4000 -4.4000
   vertex -3.0500 2.4000 -4.4350
   vertex -3.0770 2.4045 -4.4218
  endloop
 endfacet
 facet normal -0.96166 0.16028 -0.22252
  outer loop
   vertex -3.1770 1.8045 -4.4218
   vertex -3.1837 1.8056 -4.3922
   vertex -3.0837 2.4056 -4.3922
  endloop
 endfacet
 facet normal -0.96166 0.16028 -0.22252
  outer loop
   vertex -3.1770 1.8045 -4.4218
   vertex -3.0837 2.4056 -4.3922
   vertex -3.0770 2.4045 -4.4218
  endloop
 endfacet
 facet normal -0.16440 -0.98639 0.00000
  outer loop
   vertex -3.1500 1.8000 -4.4000
   vertex -3.1837 1.8056 -4.3922
   vertex -3.1770 1.8045 -4.4218
  endloop
 endfacet
 facet normal 0.16440 0.98639 0.00000
  outer loop
   vertex -3.0500 2.4000 -4.4000
   vertex -3.0770 2.4045 -4.4218
   vertex -3.0837 2.4056 -4.3922
  endloop
 endfacet
 facet normal -0.77119 0.12853 0.62349
  outer loop
   vertex -3.1837 1.8056 -4.3922
   vertex -3.1650 1.8025 -4.3685
   vertex -3.0650 2.4025 -4.3685
  endloop
 endfacet
 facet normal -0.77119 0.12853 0.62349
  outer loop
   vertex -3.1837 1.8056 -4.3922
   vertex -3.0650 2.4025 -4.3685
   vertex -3.0837 2.4056 -4.3922
  endloop
 endfacet
 facet normal -0.16440 -0.98639 0.00000
  outer loop
   vertex -3.1500 1.8000 -4.4000
   vertex -3.1650 1.8025 -4.3685
   vertex -3.1837 1.8056 -4.3922
  endloop
 endfacet
 facet normal 0.16440 0.98639 -0.00000
  outer loop
   vertex -3.0500 2.4000 -4.4000
   vertex -3.0837 2.4056 -4.3922
   vertex -3.0650 2.4025 -4.3685
  endloop
 endfacet
 facet normal 0.00000 0.00000 1.00000
  outer loop
   vertex -3.1650 1.8025 -4.3685
   vertex -3.1350 1.7975 -4.3685
   vertex -3.0350 2.3975 -4.3685
  endloop
 endfacet
 facet normal 0.00000 0.00000 1.00000
  outer loop
   vertex -3.1650 1.8025 -4.3685
   vertex -3.0350 2.3975 -4.3685
   vertex -3.0650 2.4025 -4.3685
  endloop
 endfacet
 facet normal -0.16440 -0.98639 0.00000
  outer loop
   vertex -3.1500 1.8000 -4.4000
   vertex -3.1350 1.7975 -4.3685
   vertex -3.1650 1.8025 -4.3685
  endloop
 endfacet
 facet normal 0.16440 0.98639 0.00000
  outer loop
   vertex -3.0500 2.4000 -4.4000
   vertex -3.0650 2.4025 -4.3685
   vertex -3.0350 2.3975 -4.3685
  endloop
 endfacet
 facet normal 0.77119 -0.12853 0.62349
  outer loop
   vertex -3.1350 1.7975 -4.3685
   vertex -3.1163 1.7944 -4.3922
   vertex -3.0163 2.3944 -4.3922
  endloop
 endfacet
 facet normal 0.77119 -0.12853 0.62349
  outer loop
   vertex -3.1350 1.7975 -4.3685
   vertex -3.0163 2.3944 -4.3922
   vertex -3.0350 2.3975 -4.3685
  endloop
 endfacet
 facet normal -0.16440 -0.98639 -0.00000
  outer loop
   vertex -3.1500 1.8000 -4.4000
   vertex -3.1163 1.7944 -4.3922
   vertex -3.1350 1.7975 -4.3685
  endloop
 endfacet
 facet normal 0.16440 0.98639 0.00000
  outer loop
   vertex -3.0500 2.4000 -4.4000
   vertex -3.0350 2.3975 -4.3685
   vertex -3.0163 2.3944 -4.3922
  endloop
 endfacet
 facet normal 0.96166 -0.16028 -0.22252
  outer loop
   vertex -3.1163 1.7944 -4.3922
   vertex -3.1230 1.7955 -4.4218
   vertex -3.0230 2.3955 -4.4218
  endloop
 endfacet
 facet normal 0.96166 -0.16028 -0.22252
  outer loop
   vertex -3.1163 1.7944 -4.3922
   vertex -3.0230 2.3955 -4.4218
   vertex -3.0163 2.3944 -4.3922
  endloop
 endfacet
 facet normal -0.16440 -0.98639 -0.00000
  outer loop
   vertex -3.1500 1.8000 -4.4000
   vertex -3.1230 1.7955 -4.4218
   vertex -3.1163 1.7944 -4.3922
  endloop
 endfacet
 facet normal 0.16440 0.98639 -0.00000
  outer loop
   vertex -3.0500 2.4000 -4.4000
   vertex -3.0163 2.3944 -4.3922
   vertex -3.0230 2.3955 -4.4218
  endloop
 endfacet
 facet normal 0.42798 -0.07133 -0.90097
  outer loop
   vertex -3.1230 1.7955 -4.4218
   vertex -3.1500 1.8000 -4.4350
   vertex -3.0500 2.4000 -4.4350
  endloop
 endfacet
 facet normal 0.42798 -0.07133 -0.90097
  outer loop
   vertex -3.1230 1.7955 -4.4218
   vertex -3.0500 2.4000 -4.4350
   vertex -3.0230 2.3955 -4.4218
  endloop
 endfacet
 facet normal -0.16440 -0.98639 0.00000
  outer loop
   vertex -3.1500 1.8000 -4.4000
   vertex -3.1500 1.8000 -4.4350
   vertex -3.1230 1.7955 -4.4218
  endloop
 endfacet
 facet normal 0.16440 0.98639 0.00000
  outer loop
   vertex -3.0500 2.4000 -4.4000
   vertex -3.0230 2.3955 -4.4218
   vertex -3.0500 2.4000 -4.4350
  endloop
 endfacet
 facet normal -0.42798 0.07133 -0.90097
  outer loop
   vertex -2.8000 1.8000 -4.4350
   vertex -2.8270 1.8045 -4.4218
   vertex -2.7270 2.4045 -4.4218
  endloop
 endfacet
 facet normal -0.42798 0.07133 -0.90097
  outer loop
   vertex -2.8000 1.8000 -4.4350
   vertex -2.7270 2.4045 -4.4218
   vertex -2.7000 2.4000 -4.4350
  endloop
 endfacet
 facet normal -0.16440 -0.98639 0.00000
  outer loop
   vertex -2.8000 1.8000 -4.4000
   vertex -2.8270 1.8045 -4.4218
   vertex -2.8000 1.8000 -4.4350
  endloop
 endfacet
 facet normal 0.16440 0.98639 0.00000
  outer loop
   vertex -2.7000 2.4000 -4.4000
   vertex -2.7000 2.4000 -4.4350
   vertex -2.7270 2.4045 -4.4218
  endloop
 endfacet
 facet normal -0.96166 0.16028 -0.22252
  outer loop
   vertex -2.8270 1.8045 -4.4218
   vertex -2.8337 1.8056 -4.3922
   vertex -2.7337 2.4056 -4.3922
  endloop
 endfacet
 facet normal -0.96166 0.16028 -0.22252
  outer loop
   vertex -2.8270 1.8045 -4.4218
   vertex -2.7337 2.4056 -4.3922
   vertex -2.7270 2.4045 -4.4218
  endloop
 endfacet
 facet normal -0.16440 -0.98639 0.00000
  outer loop
   vertex -2.8000 1.8000 -4.4000
   vertex -2.8337 1.8056 -4.3922
   vertex -2.8270 1.8045 -4.4218
  endloop
 endfacet
 facet normal 0.16440 0.98639 0.00000
  outer loop
   vertex -2.7000 2.4000 -4.4000
   vertex -2.7270 2.4045 -4.4218
   vertex -2.7337 2.4056 -4.3922
  endloop
 endfacet
 facet normal -0.77119 0.12853 0.62349
  outer loop
   vertex -2.8337 1.8056 -4.3922
   vertex -2.8150 1.8025 -4.3685
   vertex -2.7150 2.4025 -4.3685
  endloop
 endfacet
 facet normal -0.77119 0.12853 0.62349
  outer loop
   vertex -2.8337 1.8056 -4.3922
   vertex -2.7150 2.4025 -4.3685
   vertex -2.7337 2.4056 -4.3922
  endloop
 endfacet
 facet normal -0.16440 -0.98639 0.00000
  outer loop
   vertex -2.8000 1.8000 -4.4000
   vertex -2.8150 1.8025 -4.3685
   vertex -2.8337 1.8056 -4.3922
  endloop
 endfacet
 facet normal 0.16440 0.98639 -0.00000
  outer loop
   vertex -2.7000 2.4000 -4.4000
   vertex -2.7337 2.4056 -4.3922
   vertex -2.7150 2.4025 -4.3685
  endloop
 endfacet
 facet normal 0.00000 0.00000 1.00000
  outer loop
   vertex -2.8150 1.8025 -4.3685
   vertex -2.7850 1.7975 -4.3685
   vertex -2.6850 2.3975 -4.3685
  endloop
 endfacet
 facet normal 0.00000 0.00000 1.00000
  outer loop
   vertex -2.8150 1.8025 -4.3685
   vertex -2.6850 2.3975 -4.3685
   vertex -2.7150 2.4025 -4.3685
  endloop
 endfacet
 facet normal -0.16440 -0.98639 0.00000
  outer loop
   vertex -2.8000 1.8000 -4.4000
   vertex -2.7850 1.7975 -4.3685
   vertex -2.8150 1.8025 -4.3685
  endloop
 endfacet
 facet normal 0.16440 0.98639 0.00000
  outer loop
   vertex -2.7000 2.4000 -4.4000
   vertex -2.7150 2.4025 -4.3685
   vertex -2.6850 2.3975 -4.3685
  endloop
 endfacet
 facet normal 0.77119 -0.12853 0.62349
  outer loop
   vertex -2.7850 1.7975 -4.3685
   vertex -2.7663 1.7944 -4.3922
   vertex -2.6663 2.3944 -4.3922
  endloop
 endfacet
 facet normal 0.77119 -0.12853 0.62349
  outer loop
   vertex -2.7850 1.7975 -4.3685
   vertex -2.6663 2.3944 -4.3922
   vertex -2.6850 2.3975 -4.3685
  endloop
 endfacet
 facet normal -0.16440 -0.98639 -0.00000
  outer loop
   vertex -2.8000 1.8000 -4.4000
   vertex -2.7663 1.7944 -4.3922
   vertex -2.7850 1.7975 -4.3685
  endloop
 endfacet
 facet normal 0.16440 0.98639 0.00000
  outer loop
   vertex -2.7000 2.4000 -4.4000
   vertex -2.6850 2.3975 -4.3685
   vertex -2.6663 2.3944 -4.3922
  endloop
 endfacet
 facet normal 0.96166 -0.16028 -0.22252
  outer loop
   vertex -2.7663 1.7944 -4.3922
   vertex -2.7730 1.7955 -4.4218
   vertex -2.6730 2.3955 -4.4218
  endloop
 endfacet
 facet normal 0.96166 -0.16028 -0.22252
  outer loop
   vertex -2.7663 1.7944 -4.3922
   vertex -2.6730 2.3955 -4.4218
   vertex -2.6663 2.3944 -4.3922
  endloop
 endfacet
 facet normal -0.16440 -0.98639 -0.00000
  outer loop
   vertex -2.8000 1.8000 -4.4000
   vertex -2.7730 1.7955 -4.4218
   vertex -2.7663 1.7944 -4.3922
  endloop
 endfacet
 facet normal 0.16440 0.98639 -0.00000
  outer loop
   vertex -2.7000 2.4000 -4.4000
   vertex -2.6663 2.3944 -4.3922
   vertex -2.6730 2.3955 -4.4218
  endloop
 endfacet
 facet normal 0.42798 -0.07133 -0.90097
  outer loop
   vertex -2.7730 1.7955 -4.4218
   vertex -2.8000 1.8000 -4.4350
   vertex -2.7000 2.4000 -4.4350
  endloop
 endfacet
 facet normal 0.42798 -0.07133 -0.90097
  outer loop
   vertex -2.7730 1.7955 -4.4218
   vertex -2.7000 2.4000 -4.4350
   vertex -2.6730 2.3955 -4.4218
  endloop
 endfacet
 facet normal -0.16440 -0.98639 0.00000
  outer loop
   vertex -2.8000 1.8000 -4.4000
   vertex -2.8000 1.8000 -4.4350
   vertex -2.7730 1.7955 -4.4218
  endloop
 endfacet
 facet normal 0.16440 0.98639 0.00000
  outer loop
   vertex -2.7000 2.4000 -4.4000
   vertex -2.6730 2.3955 -4.4218
   vertex -2.7000 2.4000 -4.4350
  endloop
 endfacet
 facet normal 0.00000 0.00000 1.00000
  outer loop
   vertex 1.4500 0.8500 2.0000
   vertex 4.1500 0.8500 2.0000
   vertex 4.1500 1.1500 2.0000
  endloop
 endfacet
 facet normal 0.00000 0.00000 1.00000
  outer loop
   vertex 1.4500 0.8500 2.0000
   vertex 4.1500 1.1500 2.0000
   vertex 1.4500 1.1500 2.0000
  endloop
 endfacet
 facet normal 0.00000 0.00000 -1.00000
  outer loop
   vertex 4.1500 0.8500 3.2000
   vertex 1.4500 0.8500 3.2000
   vertex 1.4500 1.1500 3.2000
  endloop
 endfacet
 facet normal 0.00000 0.00000 -1.00000
  outer loop
   vertex 4.1500 0.8500 3.2000
   vertex 1.4500 1.1500 3.2000
   vertex 4.1500 1.1500 3.2000
  endloop
 endfacet
 facet normal 1.00000 0.00000 0.00000
  outer loop
   vertex 1.4500 0.8500 3.2000
   vertex 1.4500 0.8500 2.0000
   vertex 1.4500 1.1500 2.0000
  endloop
 endfacet
 facet normal 1.00000 0.00000 0.00000
  outer loop
   vertex 1.4500 0.8500 3.2000
   vertex 1.4500 1.1500 2.0000
   vertex 1.4500 1.1500 3.2000
  endloop
 endfacet
 facet normal -1.00000 0.00000 0.00000
  outer loop
   vertex 4.1500 0.8500 2.0000
   vertex 4.1500 0.8500 3.2000
   vertex 4.1500 1.1500 3.2000
  endloop
 endfacet
 facet normal -1.00000 0.00000 0.00000
  outer loop
   vertex 4.1500 0.8500 2.0000
   vertex 4.1500 1.1500 3.2000
   vertex 4.1500 1.1500 2.0000
  endloop
 endfacet
 facet normal 0.00000 -1.00000 0.00000
  outer loop
   vertex 1.4500 1.1500 2.0000
   vertex 4.1500 1.1500 2.0000
   vertex 4.1500 1.1500 3.2000
  endloop
 endfacet
 facet normal 0.00000 -1.00000 0.00000
  outer loop
   vertex 1.4500 1.1500 2.0000
   vertex 4.1500 1.1500 3.2000
   vertex 1.4500 1.1500 3.2000
  endloop
 endfacet
 facet normal 0.00000 1.00000 0.00000
  outer loop
   vertex 1.4500 0.8500 3.2000
   vertex 4.1500 0.8500 3.2000
   vertex 4.1500 0.8500 2.0000
  endloop
 endfacet
 facet normal 0.00000 1.00000 0.00000
  outer loop
   vertex 1.4500 0.8500 3.2000
   vertex 4.1500 0.8500 2.0000
   vertex 1.4500 0.8500 2.0000
  endloop
 endfacet
 facet normal 0.00000 0.00000 1.00000
  outer loop
   vertex 1.6400 0.0000 2.5400
   vertex 1.7600 0.0000 2.5400
   vertex 1.7600 1.0000 2.5400
  endloop
 endfacet
 facet normal 0.00000 0.00000 1.00000
  outer loop
   vertex 1.6400 0.0000 2.5400
   vertex 1.7600 1.0000 2.5400
   vertex 1.6400 1.0000 2.5400
  endloop
 endfacet
 facet normal 0.00000 0.00000 -1.00000
  outer loop
   vertex 1.7600 0.0000 2.6600
   vertex 1.6400 0.0000 2.6600
   vertex 1.6400 1.0000 2.6600
  endloop
 endfacet
 facet normal 0.00000 0.00000 -1.00000
  outer loop
   vertex 1.7600 0.0000 2.6600
   vertex 1.6400 1.0000 2.6600
   vertex 1.7600 1.0000 2.6600
  endloop
 endfacet
 facet normal 1.00000 0.00000 0.00000
  outer loop
   vertex 1.6400 0.0000 2.6600
   vertex 1.6400 0.0000 2.5400
   vertex 1.6400 1.0000 2.5400
  endloop
 endfacet
 facet normal 1.00000 0.00000 0.00000
  outer loop
   vertex 1.6400 0.0000 2.6600
   vertex 1.6400 1.0000 2.5400
   vertex 1.6400 1.0000 2.6600
  endloop
 endfacet
 facet normal -1.00000 0.00000 0.00000
  outer loop
   vertex 1.7600 0.0000 2.5400
   vertex 1.7600 0.0000 2.6600
   vertex 1.7600 1.0000 2.6600
  endloop
 endfacet
 facet normal -1.00000 0.00000 0.00000
  outer loop
   vertex 1.7600 0.0000 2.5400
   vertex 1.7600 1.0000 2.6600
   vertex 1.7600 1.0000 2.5400
  endloop
 endfacet
 facet normal 0.00000 -1.00000 0.00000
  outer loop
   vertex 1.6400 1.0000 2.5400
   vertex 1.7600 1.0000 2.5400
   vertex 1.7600 1.0000 2.6600
  endloop
 endfacet
 facet normal 0.00000 -1.00000 0.00000
  outer loop
   vertex 1.6400 1.0000 2.5400
   vertex 1.7600 1.0000 2.6600
   vertex 1.6400 1.0000 2.6600
  endloop
 endfacet
 facet normal 0.00000 1.00000 0.00000
  outer loop
   vertex 1.6400 0.0000 2.6600
   vertex 1.7600 0.0000 2.6600
   vertex 1.7600 0.0000 2.5400
  endloop
 endfacet
 facet normal 0.00000 1.00000 0.00000
  outer loop
   vertex 1.6400 0.0000 2.6600
   vertex 1.7600 0.0000 2.5400
   vertex 1.6400 0.0000 2.5400
  endloop
 endfacet
 facet normal 0.00000 0.00000 1.00000
  outer loop
   vertex 3.8400 0.0000 2.5400
   vertex 3.9600 0.0000 2.5400
   vertex 3.9600 1.0000 2.5400
  endloop
 endfacet
 facet normal 0.00000 0.00000 1.00000
  outer loop
   vertex 3.8400 0.0000 2.5400
   vertex 3.9600 1.0000 2.5400
   vertex 3.8400 1.0000 2.5400
  endloop
 endfacet
 facet normal 0.00000 0.00000 -1.00000
  outer loop
   vertex 3.9600 0.0000 2.6600
   vertex 3.8400 0.0000 2.6600
   vertex 3.8400 1.0000 2.6600
  endloop
 endfacet
 facet normal 0.00000 0.00000 -1.00000
  outer loop
   vertex 3.9600 0.0000 2.6600
   vertex 3.8400 1.0000 2.6600
   vertex 3.9600 1.0000 2.6600
  endloop
 endfacet
 facet normal 1.00000 0.00000 0.00000
  outer loop
   vertex 3.8400 0.0000 2.6600
   vertex 3.8400 0.0000 2.5400
   vertex 3.8400 1.0000 2.5400
  endloop
 endfacet
 facet normal 1.00000 0.00000 0.00000
  outer loop
   vertex 3.8400 0.0000 2.6600
   vertex 3.8400 1.0000 2.5400
   vertex 3.8400 1.0000 2.6600
  endloop
 endfacet
 facet normal -1.00000 0.00000 0.00000
  outer loop
   vertex 3.9600 0.0000 2.5400
   vertex 3.9600 0.0000 2.6600
   vertex 3.9600 1.0000 2.6600
  endloop
 endfacet
 facet normal -1.00000 0.00000 0.00000
  outer loop
   vertex 3.9600 0.0000 2.5400
   vertex 3.9600 1.0000 2.6600
   vertex 3.9600 1.0000 2.5400
  endloop
 endfacet
 facet normal 0.00000 -1.00000 0.00000
  outer loop
   vertex 3.8400 1.0000 2.5400
   vertex 3.9600 1.0000 2.5400
   vertex 3.9600 1.0000 2.6600
  endloop
 endfacet
 facet normal 0.00000 -1.00000 0.00000
  outer loop
   vertex 3.8400 1.0000 2.5400
   vertex 3.9600 1.0000 2.6600
   vertex 3.8400 1.0000 2.6600
  endloop
 endfacet
 facet normal 0.00000 1.00000 0.00000
  outer loop
   vertex 3.8400 0.0000 2.6600
   vertex 3.9600 0.0000 2.6600
   vertex 3.9600 0.0000 2.5400
  endloop
 endfacet
 facet normal 0.00000 1.00000 0.00000
  outer loop
   vertex 3.8400 0.0000 2.6600
   vertex 3.9600 0.0000 2.5400
   vertex 3.8400 0.0000 2.5400
  endloop
 endfacet
endsolid taller_mantenimiento
