mtllib tekaym_materiales.mtl
o Cuchillo_Supervivencia_Tekaym
v -0.0375 -0.1700 -0.0375
v 0.0375 -0.1700 -0.0375
v 0.0375 0.1700 -0.0375
v -0.0375 0.1700 -0.0375
v -0.0375 -0.1700 0.0375
v 0.0375 -0.1700 0.0375
v 0.0375 0.1700 0.0375
v -0.0375 0.1700 0.0375
v -0.0410 -0.0890 0.0350
v 0.0410 -0.0890 0.0350
v 0.0410 -0.0710 0.0350
v -0.0410 -0.0710 0.0350
v -0.0410 -0.0890 0.0450
v 0.0410 -0.0890 0.0450
v 0.0410 -0.0710 0.0450
v -0.0410 -0.0710 0.0450
v -0.0410 -0.0090 0.0350
v 0.0410 -0.0090 0.0350
v 0.0410 0.0090 0.0350
v -0.0410 0.0090 0.0350
v -0.0410 -0.0090 0.0450
v 0.0410 -0.0090 0.0450
v 0.0410 0.0090 0.0450
v -0.0410 0.0090 0.0450
v -0.0410 0.0710 0.0350
v 0.0410 0.0710 0.0350
v 0.0410 0.0890 0.0350
v -0.0410 0.0890 0.0350
v -0.0410 0.0710 0.0450
v 0.0410 0.0710 0.0450
v 0.0410 0.0890 0.0450
v -0.0410 0.0890 0.0450
v -0.1050 0.1700 -0.0450
v 0.1050 0.1700 -0.0450
v 0.1050 0.2100 -0.0450
v -0.1050 0.2100 -0.0450
v -0.1050 0.1700 0.0450
v 0.1050 0.1700 0.0450
v 0.1050 0.2100 0.0450
v -0.1050 0.2100 0.0450
v -0.0375 0.2000 -0.0300
v 0.0375 0.2000 -0.0300
v 0.0375 0.2800 -0.0300
v -0.0375 0.2800 -0.0300
v -0.0375 0.2000 0.0300
v 0.0375 0.2000 0.0300
v 0.0375 0.2800 0.0300
v -0.0375 0.2800 0.0300
v -0.0350 0.2500 -0.0200
v 0.0350 0.2500 -0.0200
v 0.0450 0.5600 -0.0150
v 0.0000 0.7600 0.0000
v -0.0450 0.5600 -0.0150
v -0.0350 0.2500 0.0200
v 0.0350 0.2500 0.0200
v 0.0450 0.5600 0.0150
v -0.0450 0.5600 0.0150
v 0.0000 -0.1700 0.0400
v -0.0235 -0.1700 0.0324
v -0.0380 -0.1700 0.0124
v -0.0380 -0.1700 -0.0124
v -0.0235 -0.1700 -0.0324
v -0.0000 -0.1700 -0.0400
v 0.0235 -0.1700 -0.0324
v 0.0380 -0.1700 -0.0124
v 0.0380 -0.1700 0.0124
v 0.0235 -0.1700 0.0324
v 0.0000 -0.2300 0.0400
v -0.0235 -0.2300 0.0324
v -0.0380 -0.2300 0.0124
v -0.0380 -0.2300 -0.0124
v -0.0235 -0.2300 -0.0324
v -0.0000 -0.2300 -0.0400
v 0.0235 -0.2300 -0.0324
v 0.0380 -0.2300 -0.0124
v 0.0380 -0.2300 0.0124
v 0.0235 -0.2300 0.0324
g Empunadura_goma
usemtl rubber
g Acanalado_-0.08
usemtl rust
g Acanalado_0
usemtl rust
g Acanalado_0.08
usemtl rust
g Guarda
usemtl rust
g Base_hoja
usemtl steel
g Hoja_biselada
usemtl steel
g Pomo
usemtl rust
f 1 3 2
f 1 4 3
f 5 6 7
f 5 7 8
f 1 2 6
f 1 6 5
f 2 3 7
f 2 7 6
f 3 4 8
f 3 8 7
f 4 1 5
f 4 5 8
f 9 11 10
f 9 12 11
f 13 14 15
f 13 15 16
f 9 10 14
f 9 14 13
f 10 11 15
f 10 15 14
f 11 12 16
f 11 16 15
f 12 9 13
f 12 13 16
f 17 19 18
f 17 20 19
f 21 22 23
f 21 23 24
f 17 18 22
f 17 22 21
f 18 19 23
f 18 23 22
f 19 20 24
f 19 24 23
f 20 17 21
f 20 21 24
f 25 27 26
f 25 28 27
f 29 30 31
f 29 31 32
f 25 26 30
f 25 30 29
f 26 27 31
f 26 31 30
f 27 28 32
f 27 32 31
f 28 25 29
f 28 29 32
f 33 35 34
f 33 36 35
f 37 38 39
f 37 39 40
f 33 34 38
f 33 38 37
f 34 35 39
f 34 39 38
f 35 36 40
f 35 40 39
f 36 33 37
f 36 37 40
f 41 43 42
f 41 44 43
f 45 46 47
f 45 47 48
f 41 42 46
f 41 46 45
f 42 43 47
f 42 47 46
f 43 44 48
f 43 48 47
f 44 41 45
f 44 45 48
f 49 50 51
f 49 51 53
f 50 55 56
f 50 56 51
f 53 51 52
f 51 56 52
f 56 52 57
f 49 53 54
f 50 54 55
f 54 53 57
f 54 57 55
f 55 57 56
f 58 59 69
f 58 69 68
f 59 60 70
f 59 70 69
f 60 61 71
f 60 71 70
f 61 62 72
f 61 72 71
f 62 63 73
f 62 73 72
f 63 64 74
f 63 74 73
f 64 65 75
f 64 75 74
f 65 66 76
f 65 76 75
f 66 67 77
f 66 77 76
f 67 58 68
f 67 68 77
