mtllib tekaym_materiales.mtl
o Litera_Prision_Tekaym
v -0.9200 0.0500 -0.4000
v -0.9435 0.0500 -0.3924
v -0.9580 0.0500 -0.3724
v -0.9580 0.0500 -0.3476
v -0.9435 0.0500 -0.3276
v -0.9200 0.0500 -0.3200
v -0.8965 0.0500 -0.3276
v -0.8820 0.0500 -0.3476
v -0.8820 0.0500 -0.3724
v -0.8965 0.0500 -0.3924
v -0.9200 2.1500 -0.4000
v -0.9435 2.1500 -0.3924
v -0.9580 2.1500 -0.3724
v -0.9580 2.1500 -0.3476
v -0.9435 2.1500 -0.3276
v -0.9200 2.1500 -0.3200
v -0.8965 2.1500 -0.3276
v -0.8820 2.1500 -0.3476
v -0.8820 2.1500 -0.3724
v -0.8965 2.1500 -0.3924
v -0.9200 0.0500 0.3200
v -0.9435 0.0500 0.3276
v -0.9580 0.0500 0.3476
v -0.9580 0.0500 0.3724
v -0.9435 0.0500 0.3924
v -0.9200 0.0500 0.4000
v -0.8965 0.0500 0.3924
v -0.8820 0.0500 0.3724
v -0.8820 0.0500 0.3476
v -0.8965 0.0500 0.3276
v -0.9200 2.1500 0.3200
v -0.9435 2.1500 0.3276
v -0.9580 2.1500 0.3476
v -0.9580 2.1500 0.3724
v -0.9435 2.1500 0.3924
v -0.9200 2.1500 0.4000
v -0.8965 2.1500 0.3924
v -0.8820 2.1500 0.3724
v -0.8820 2.1500 0.3476
v -0.8965 2.1500 0.3276
v 0.9200 0.0500 -0.4000
v 0.8965 0.0500 -0.3924
v 0.8820 0.0500 -0.3724
v 0.8820 0.0500 -0.3476
v 0.8965 0.0500 -0.3276
v 0.9200 0.0500 -0.3200
v 0.9435 0.0500 -0.3276
v 0.9580 0.0500 -0.3476
v 0.9580 0.0500 -0.3724
v 0.9435 0.0500 -0.3924
v 0.9200 2.1500 -0.4000
v 0.8965 2.1500 -0.3924
v 0.8820 2.1500 -0.3724
v 0.8820 2.1500 -0.3476
v 0.8965 2.1500 -0.3276
v 0.9200 2.1500 -0.3200
v 0.9435 2.1500 -0.3276
v 0.9580 2.1500 -0.3476
v 0.9580 2.1500 -0.3724
v 0.9435 2.1500 -0.3924
v 0.9200 0.0500 0.3200
v 0.8965 0.0500 0.3276
v 0.8820 0.0500 0.3476
v 0.8820 0.0500 0.3724
v 0.8965 0.0500 0.3924
v 0.9200 0.0500 0.4000
v 0.9435 0.0500 0.3924
v 0.9580 0.0500 0.3724
v 0.9580 0.0500 0.3476
v 0.9435 0.0500 0.3276
v 0.9200 2.1500 0.3200
v 0.8965 2.1500 0.3276
v 0.8820 2.1500 0.3476
v 0.8820 2.1500 0.3724
v 0.8965 2.1500 0.3924
v 0.9200 2.1500 0.4000
v 0.9435 2.1500 0.3924
v 0.9580 2.1500 0.3724
v 0.9580 2.1500 0.3476
v 0.9435 2.1500 0.3276
v -0.9500 0.4125 -0.3925
v 0.9500 0.4125 -0.3925
v 0.9500 0.4875 -0.3925
v -0.9500 0.4875 -0.3925
v -0.9500 0.4125 -0.3275
v 0.9500 0.4125 -0.3275
v 0.9500 0.4875 -0.3275
v -0.9500 0.4875 -0.3275
v -0.9500 0.4125 0.3275
v 0.9500 0.4125 0.3275
v 0.9500 0.4875 0.3275
v -0.9500 0.4875 0.3275
v -0.9500 0.4125 0.3925
v 0.9500 0.4125 0.3925
v 0.9500 0.4875 0.3925
v -0.9500 0.4875 0.3925
v -0.9550 0.4125 -0.3900
v -0.8850 0.4125 -0.3900
v -0.8850 0.4875 -0.3900
v -0.9550 0.4875 -0.3900
v -0.9550 0.4125 0.3900
v -0.8850 0.4125 0.3900
v -0.8850 0.4875 0.3900
v -0.9550 0.4875 0.3900
v 0.8850 0.4125 -0.3900
v 0.9550 0.4125 -0.3900
v 0.9550 0.4875 -0.3900
v 0.8850 0.4875 -0.3900
v 0.8850 0.4125 0.3900
v 0.9550 0.4125 0.3900
v 0.9550 0.4875 0.3900
v 0.8850 0.4875 0.3900
v -0.8600 0.4600 -0.3100
v 0.8600 0.4600 -0.3100
v 0.8600 0.6000 -0.3100
v -0.8600 0.6000 -0.3100
v -0.8600 0.4600 0.3100
v 0.8600 0.4600 0.3100
v 0.8600 0.6000 0.3100
v -0.8600 0.6000 0.3100
v -0.8500 0.5925 -0.3000
v 0.8500 0.5925 -0.3000
v 0.8500 0.6175 -0.3000
v -0.8500 0.6175 -0.3000
v -0.8500 0.5925 0.3000
v 0.8500 0.5925 0.3000
v 0.8500 0.6175 0.3000
v -0.8500 0.6175 0.3000
v 0.4300 0.5950 -0.2300
v 0.8100 0.5950 -0.2300
v 0.8100 0.6650 -0.2300
v 0.4300 0.6650 -0.2300
v 0.4300 0.5950 0.1100
v 0.8100 0.5950 0.1100
v 0.8100 0.6650 0.1100
v 0.4300 0.6650 0.1100
v -0.8300 0.4350 -0.3000
v -0.8250 0.4263 -0.3000
v -0.8150 0.4263 -0.3000
v -0.8100 0.4350 -0.3000
v -0.8150 0.4437 -0.3000
v -0.8250 0.4437 -0.3000
v -0.8300 0.4350 0.3000
v -0.8250 0.4263 0.3000
v -0.8150 0.4263 0.3000
v -0.8100 0.4350 0.3000
v -0.8150 0.4437 0.3000
v -0.8250 0.4437 0.3000
v -0.6930 0.4350 -0.3000
v -0.6880 0.4263 -0.3000
v -0.6780 0.4263 -0.3000
v -0.6730 0.4350 -0.3000
v -0.6780 0.4437 -0.3000
v -0.6880 0.4437 -0.3000
v -0.6930 0.4350 0.3000
v -0.6880 0.4263 0.3000
v -0.6780 0.4263 0.3000
v -0.6730 0.4350 0.3000
v -0.6780 0.4437 0.3000
v -0.6880 0.4437 0.3000
v -0.5560 0.4350 -0.3000
v -0.5510 0.4263 -0.3000
v -0.5410 0.4263 -0.3000
v -0.5360 0.4350 -0.3000
v -0.5410 0.4437 -0.3000
v -0.5510 0.4437 -0.3000
v -0.5560 0.4350 0.3000
v -0.5510 0.4263 0.3000
v -0.5410 0.4263 0.3000
v -0.5360 0.4350 0.3000
v -0.5410 0.4437 0.3000
v -0.5510 0.4437 0.3000
v -0.4190 0.4350 -0.3000
v -0.4140 0.4263 -0.3000
v -0.4040 0.4263 -0.3000
v -0.3990 0.4350 -0.3000
v -0.4040 0.4437 -0.3000
v -0.4140 0.4437 -0.3000
v -0.4190 0.4350 0.3000
v -0.4140 0.4263 0.3000
v -0.4040 0.4263 0.3000
v -0.3990 0.4350 0.3000
v -0.4040 0.4437 0.3000
v -0.4140 0.4437 0.3000
v -0.2820 0.4350 -0.3000
v -0.2770 0.4263 -0.3000
v -0.2670 0.4263 -0.3000
v -0.2620 0.4350 -0.3000
v -0.2670 0.4437 -0.3000
v -0.2770 0.4437 -0.3000
v -0.2820 0.4350 0.3000
v -0.2770 0.4263 0.3000
v -0.2670 0.4263 0.3000
v -0.2620 0.4350 0.3000
v -0.2670 0.4437 0.3000
v -0.2770 0.4437 0.3000
v -0.1450 0.4350 -0.3000
v -0.1400 0.4263 -0.3000
v -0.1300 0.4263 -0.3000
v -0.1250 0.4350 -0.3000
v -0.1300 0.4437 -0.3000
v -0.1400 0.4437 -0.3000
v -0.1450 0.4350 0.3000
v -0.1400 0.4263 0.3000
v -0.1300 0.4263 0.3000
v -0.1250 0.4350 0.3000
v -0.1300 0.4437 0.3000
v -0.1400 0.4437 0.3000
v -0.0080 0.4350 -0.3000
v -0.0030 0.4263 -0.3000
v 0.0070 0.4263 -0.3000
v 0.0120 0.4350 -0.3000
v 0.0070 0.4437 -0.3000
v -0.0030 0.4437 -0.3000
v -0.0080 0.4350 0.3000
v -0.0030 0.4263 0.3000
v 0.0070 0.4263 0.3000
v 0.0120 0.4350 0.3000
v 0.0070 0.4437 0.3000
v -0.0030 0.4437 0.3000
v 0.1290 0.4350 -0.3000
v 0.1340 0.4263 -0.3000
v 0.1440 0.4263 -0.3000
v 0.1490 0.4350 -0.3000
v 0.1440 0.4437 -0.3000
v 0.1340 0.4437 -0.3000
v 0.1290 0.4350 0.3000
v 0.1340 0.4263 0.3000
v 0.1440 0.4263 0.3000
v 0.1490 0.4350 0.3000
v 0.1440 0.4437 0.3000
v 0.1340 0.4437 0.3000
v 0.2660 0.4350 -0.3000
v 0.2710 0.4263 -0.3000
v 0.2810 0.4263 -0.3000
v 0.2860 0.4350 -0.3000
v 0.2810 0.4437 -0.3000
v 0.2710 0.4437 -0.3000
v 0.2660 0.4350 0.3000
v 0.2710 0.4263 0.3000
v 0.2810 0.4263 0.3000
v 0.2860 0.4350 0.3000
v 0.2810 0.4437 0.3000
v 0.2710 0.4437 0.3000
v 0.4030 0.4350 -0.3000
v 0.4080 0.4263 -0.3000
v 0.4180 0.4263 -0.3000
v 0.4230 0.4350 -0.3000
v 0.4180 0.4437 -0.3000
v 0.4080 0.4437 -0.3000
v 0.4030 0.4350 0.3000
v 0.4080 0.4263 0.3000
v 0.4180 0.4263 0.3000
v 0.4230 0.4350 0.3000
v 0.4180 0.4437 0.3000
v 0.4080 0.4437 0.3000
v 0.5400 0.4350 -0.3000
v 0.5450 0.4263 -0.3000
v 0.5550 0.4263 -0.3000
v 0.5600 0.4350 -0.3000
v 0.5550 0.4437 -0.3000
v 0.5450 0.4437 -0.3000
v 0.5400 0.4350 0.3000
v 0.5450 0.4263 0.3000
v 0.5550 0.4263 0.3000
v 0.5600 0.4350 0.3000
v 0.5550 0.4437 0.3000
v 0.5450 0.4437 0.3000
v 0.6770 0.4350 -0.3000
v 0.6820 0.4263 -0.3000
v 0.6920 0.4263 -0.3000
v 0.6970 0.4350 -0.3000
v 0.6920 0.4437 -0.3000
v 0.6820 0.4437 -0.3000
v 0.6770 0.4350 0.3000
v 0.6820 0.4263 0.3000
v 0.6920 0.4263 0.3000
v 0.6970 0.4350 0.3000
v 0.6920 0.4437 0.3000
v 0.6820 0.4437 0.3000
v 0.8140 0.4350 -0.3000
v 0.8190 0.4263 -0.3000
v 0.8290 0.4263 -0.3000
v 0.8340 0.4350 -0.3000
v 0.8290 0.4437 -0.3000
v 0.8190 0.4437 -0.3000
v 0.8140 0.4350 0.3000
v 0.8190 0.4263 0.3000
v 0.8290 0.4263 0.3000
v 0.8340 0.4350 0.3000
v 0.8290 0.4437 0.3000
v 0.8190 0.4437 0.3000
v -0.9500 1.3825 -0.3925
v 0.9500 1.3825 -0.3925
v 0.9500 1.4575 -0.3925
v -0.9500 1.4575 -0.3925
v -0.9500 1.3825 -0.3275
v 0.9500 1.3825 -0.3275
v 0.9500 1.4575 -0.3275
v -0.9500 1.4575 -0.3275
v -0.9500 1.3825 0.3275
v 0.9500 1.3825 0.3275
v 0.9500 1.4575 0.3275
v -0.9500 1.4575 0.3275
v -0.9500 1.3825 0.3925
v 0.9500 1.3825 0.3925
v 0.9500 1.4575 0.3925
v -0.9500 1.4575 0.3925
v -0.9550 1.3825 -0.3900
v -0.8850 1.3825 -0.3900
v -0.8850 1.4575 -0.3900
v -0.9550 1.4575 -0.3900
v -0.9550 1.3825 0.3900
v -0.8850 1.3825 0.3900
v -0.8850 1.4575 0.3900
v -0.9550 1.4575 0.3900
v 0.8850 1.3825 -0.3900
v 0.9550 1.3825 -0.3900
v 0.9550 1.4575 -0.3900
v 0.8850 1.4575 -0.3900
v 0.8850 1.3825 0.3900
v 0.9550 1.3825 0.3900
v 0.9550 1.4575 0.3900
v 0.8850 1.4575 0.3900
v -0.8600 1.4300 -0.3100
v 0.8600 1.4300 -0.3100
v 0.8600 1.5700 -0.3100
v -0.8600 1.5700 -0.3100
v -0.8600 1.4300 0.3100
v 0.8600 1.4300 0.3100
v 0.8600 1.5700 0.3100
v -0.8600 1.5700 0.3100
v -0.8500 1.5625 -0.3000
v 0.8500 1.5625 -0.3000
v 0.8500 1.5875 -0.3000
v -0.8500 1.5875 -0.3000
v -0.8500 1.5625 0.3000
v 0.8500 1.5625 0.3000
v 0.8500 1.5875 0.3000
v -0.8500 1.5875 0.3000
v 0.4300 1.5650 -0.2300
v 0.8100 1.5650 -0.2300
v 0.8100 1.6350 -0.2300
v 0.4300 1.6350 -0.2300
v 0.4300 1.5650 0.1100
v 0.8100 1.5650 0.1100
v 0.8100 1.6350 0.1100
v 0.4300 1.6350 0.1100
v -0.8300 1.4050 -0.3000
v -0.8250 1.3963 -0.3000
v -0.8150 1.3963 -0.3000
v -0.8100 1.4050 -0.3000
v -0.8150 1.4137 -0.3000
v -0.8250 1.4137 -0.3000
v -0.8300 1.4050 0.3000
v -0.8250 1.3963 0.3000
v -0.8150 1.3963 0.3000
v -0.8100 1.4050 0.3000
v -0.8150 1.4137 0.3000
v -0.8250 1.4137 0.3000
v -0.6930 1.4050 -0.3000
v -0.6880 1.3963 -0.3000
v -0.6780 1.3963 -0.3000
v -0.6730 1.4050 -0.3000
v -0.6780 1.4137 -0.3000
v -0.6880 1.4137 -0.3000
v -0.6930 1.4050 0.3000
v -0.6880 1.3963 0.3000
v -0.6780 1.3963 0.3000
v -0.6730 1.4050 0.3000
v -0.6780 1.4137 0.3000
v -0.6880 1.4137 0.3000
v -0.5560 1.4050 -0.3000
v -0.5510 1.3963 -0.3000
v -0.5410 1.3963 -0.3000
v -0.5360 1.4050 -0.3000
v -0.5410 1.4137 -0.3000
v -0.5510 1.4137 -0.3000
v -0.5560 1.4050 0.3000
v -0.5510 1.3963 0.3000
v -0.5410 1.3963 0.3000
v -0.5360 1.4050 0.3000
v -0.5410 1.4137 0.3000
v -0.5510 1.4137 0.3000
v -0.4190 1.4050 -0.3000
v -0.4140 1.3963 -0.3000
v -0.4040 1.3963 -0.3000
v -0.3990 1.4050 -0.3000
v -0.4040 1.4137 -0.3000
v -0.4140 1.4137 -0.3000
v -0.4190 1.4050 0.3000
v -0.4140 1.3963 0.3000
v -0.4040 1.3963 0.3000
v -0.3990 1.4050 0.3000
v -0.4040 1.4137 0.3000
v -0.4140 1.4137 0.3000
v -0.2820 1.4050 -0.3000
v -0.2770 1.3963 -0.3000
v -0.2670 1.3963 -0.3000
v -0.2620 1.4050 -0.3000
v -0.2670 1.4137 -0.3000
v -0.2770 1.4137 -0.3000
v -0.2820 1.4050 0.3000
v -0.2770 1.3963 0.3000
v -0.2670 1.3963 0.3000
v -0.2620 1.4050 0.3000
v -0.2670 1.4137 0.3000
v -0.2770 1.4137 0.3000
v -0.1450 1.4050 -0.3000
v -0.1400 1.3963 -0.3000
v -0.1300 1.3963 -0.3000
v -0.1250 1.4050 -0.3000
v -0.1300 1.4137 -0.3000
v -0.1400 1.4137 -0.3000
v -0.1450 1.4050 0.3000
v -0.1400 1.3963 0.3000
v -0.1300 1.3963 0.3000
v -0.1250 1.4050 0.3000
v -0.1300 1.4137 0.3000
v -0.1400 1.4137 0.3000
v -0.0080 1.4050 -0.3000
v -0.0030 1.3963 -0.3000
v 0.0070 1.3963 -0.3000
v 0.0120 1.4050 -0.3000
v 0.0070 1.4137 -0.3000
v -0.0030 1.4137 -0.3000
v -0.0080 1.4050 0.3000
v -0.0030 1.3963 0.3000
v 0.0070 1.3963 0.3000
v 0.0120 1.4050 0.3000
v 0.0070 1.4137 0.3000
v -0.0030 1.4137 0.3000
v 0.1290 1.4050 -0.3000
v 0.1340 1.3963 -0.3000
v 0.1440 1.3963 -0.3000
v 0.1490 1.4050 -0.3000
v 0.1440 1.4137 -0.3000
v 0.1340 1.4137 -0.3000
v 0.1290 1.4050 0.3000
v 0.1340 1.3963 0.3000
v 0.1440 1.3963 0.3000
v 0.1490 1.4050 0.3000
v 0.1440 1.4137 0.3000
v 0.1340 1.4137 0.3000
v 0.2660 1.4050 -0.3000
v 0.2710 1.3963 -0.3000
v 0.2810 1.3963 -0.3000
v 0.2860 1.4050 -0.3000
v 0.2810 1.4137 -0.3000
v 0.2710 1.4137 -0.3000
v 0.2660 1.4050 0.3000
v 0.2710 1.3963 0.3000
v 0.2810 1.3963 0.3000
v 0.2860 1.4050 0.3000
v 0.2810 1.4137 0.3000
v 0.2710 1.4137 0.3000
v 0.4030 1.4050 -0.3000
v 0.4080 1.3963 -0.3000
v 0.4180 1.3963 -0.3000
v 0.4230 1.4050 -0.3000
v 0.4180 1.4137 -0.3000
v 0.4080 1.4137 -0.3000
v 0.4030 1.4050 0.3000
v 0.4080 1.3963 0.3000
v 0.4180 1.3963 0.3000
v 0.4230 1.4050 0.3000
v 0.4180 1.4137 0.3000
v 0.4080 1.4137 0.3000
v 0.5400 1.4050 -0.3000
v 0.5450 1.3963 -0.3000
v 0.5550 1.3963 -0.3000
v 0.5600 1.4050 -0.3000
v 0.5550 1.4137 -0.3000
v 0.5450 1.4137 -0.3000
v 0.5400 1.4050 0.3000
v 0.5450 1.3963 0.3000
v 0.5550 1.3963 0.3000
v 0.5600 1.4050 0.3000
v 0.5550 1.4137 0.3000
v 0.5450 1.4137 0.3000
v 0.6770 1.4050 -0.3000
v 0.6820 1.3963 -0.3000
v 0.6920 1.3963 -0.3000
v 0.6970 1.4050 -0.3000
v 0.6920 1.4137 -0.3000
v 0.6820 1.4137 -0.3000
v 0.6770 1.4050 0.3000
v 0.6820 1.3963 0.3000
v 0.6920 1.3963 0.3000
v 0.6970 1.4050 0.3000
v 0.6920 1.4137 0.3000
v 0.6820 1.4137 0.3000
v 0.8140 1.4050 -0.3000
v 0.8190 1.3963 -0.3000
v 0.8290 1.3963 -0.3000
v 0.8340 1.4050 -0.3000
v 0.8290 1.4137 -0.3000
v 0.8190 1.4137 -0.3000
v 0.8140 1.4050 0.3000
v 0.8190 1.3963 0.3000
v 0.8290 1.3963 0.3000
v 0.8340 1.4050 0.3000
v 0.8290 1.4137 0.3000
v 0.8190 1.4137 0.3000
v -0.7800 0.4500 0.3950
v -0.7977 0.4500 0.4023
v -0.8050 0.4500 0.4200
v -0.7977 0.4500 0.4377
v -0.7800 0.4500 0.4450
v -0.7623 0.4500 0.4377
v -0.7550 0.4500 0.4200
v -0.7623 0.4500 0.4023
v -0.7800 1.4200 0.3950
v -0.7977 1.4200 0.4023
v -0.8050 1.4200 0.4200
v -0.7977 1.4200 0.4377
v -0.7800 1.4200 0.4450
v -0.7623 1.4200 0.4377
v -0.7550 1.4200 0.4200
v -0.7623 1.4200 0.4023
v -0.7980 0.5500 0.4000
v -0.7927 0.5373 0.4000
v -0.7800 0.5320 0.4000
v -0.7673 0.5373 0.4000
v -0.7620 0.5500 0.4000
v -0.7673 0.5627 0.4000
v -0.7800 0.5680 0.4000
v -0.7927 0.5627 0.4000
v -0.7980 0.5500 0.4400
v -0.7927 0.5373 0.4400
v -0.7800 0.5320 0.4400
v -0.7673 0.5373 0.4400
v -0.7620 0.5500 0.4400
v -0.7673 0.5627 0.4400
v -0.7800 0.5680 0.4400
v -0.7927 0.5627 0.4400
v -0.7980 0.7800 0.4000
v -0.7927 0.7673 0.4000
v -0.7800 0.7620 0.4000
v -0.7673 0.7673 0.4000
v -0.7620 0.7800 0.4000
v -0.7673 0.7927 0.4000
v -0.7800 0.7980 0.4000
v -0.7927 0.7927 0.4000
v -0.7980 0.7800 0.4400
v -0.7927 0.7673 0.4400
v -0.7800 0.7620 0.4400
v -0.7673 0.7673 0.4400
v -0.7620 0.7800 0.4400
v -0.7673 0.7927 0.4400
v -0.7800 0.7980 0.4400
v -0.7927 0.7927 0.4400
v -0.7980 1.0100 0.4000
v -0.7927 0.9973 0.4000
v -0.7800 0.9920 0.4000
v -0.7673 0.9973 0.4000
v -0.7620 1.0100 0.4000
v -0.7673 1.0227 0.4000
v -0.7800 1.0280 0.4000
v -0.7927 1.0227 0.4000
v -0.7980 1.0100 0.4400
v -0.7927 0.9973 0.4400
v -0.7800 0.9920 0.4400
v -0.7673 0.9973 0.4400
v -0.7620 1.0100 0.4400
v -0.7673 1.0227 0.4400
v -0.7800 1.0280 0.4400
v -0.7927 1.0227 0.4400
v -0.7980 1.2400 0.4000
v -0.7927 1.2273 0.4000
v -0.7800 1.2220 0.4000
v -0.7673 1.2273 0.4000
v -0.7620 1.2400 0.4000
v -0.7673 1.2527 0.4000
v -0.7800 1.2580 0.4000
v -0.7927 1.2527 0.4000
v -0.7980 1.2400 0.4400
v -0.7927 1.2273 0.4400
v -0.7800 1.2220 0.4400
v -0.7673 1.2273 0.4400
v -0.7620 1.2400 0.4400
v -0.7673 1.2527 0.4400
v -0.7800 1.2580 0.4400
v -0.7927 1.2527 0.4400
g Poste_-0.92_-0.36
usemtl rust
g Poste_-0.92_0.36
usemtl rust
g Poste_0.92_-0.36
usemtl rust
g Poste_0.92_0.36
usemtl rust
g Larguero_0.45_-0.36
usemtl rust
g Larguero_0.45_0.36
usemtl rust
g Cabecero_0.45_-0.92
usemtl cloth
g Cabecero_0.45_0.92
usemtl cloth
g Colchon_0.45
usemtl cloth
g Borde_colchon_0.45
usemtl concrete
g Almohada_0.45
usemtl concrete
g Somier_0.45_0
usemtl steel
g Somier_0.45_1
usemtl steel
g Somier_0.45_2
usemtl steel
g Somier_0.45_3
usemtl steel
g Somier_0.45_4
usemtl steel
g Somier_0.45_5
usemtl steel
g Somier_0.45_6
usemtl steel
g Somier_0.45_7
usemtl steel
g Somier_0.45_8
usemtl steel
g Somier_0.45_9
usemtl steel
g Somier_0.45_10
usemtl steel
g Somier_0.45_11
usemtl steel
g Somier_0.45_12
usemtl steel
g Larguero_1.42_-0.36
usemtl rust
g Larguero_1.42_0.36
usemtl rust
g Cabecero_1.42_-0.92
usemtl cloth
g Cabecero_1.42_0.92
usemtl cloth
g Colchon_1.42
usemtl cloth
g Borde_colchon_1.42
usemtl concrete
g Almohada_1.42
usemtl concrete
g Somier_1.42_0
usemtl steel
g Somier_1.42_1
usemtl steel
g Somier_1.42_2
usemtl steel
g Somier_1.42_3
usemtl steel
g Somier_1.42_4
usemtl steel
g Somier_1.42_5
usemtl steel
g Somier_1.42_6
usemtl steel
g Somier_1.42_7
usemtl steel
g Somier_1.42_8
usemtl steel
g Somier_1.42_9
usemtl steel
g Somier_1.42_10
usemtl steel
g Somier_1.42_11
usemtl steel
g Somier_1.42_12
usemtl steel
g Lateral_escalera
usemtl steel
g Peldaño_0.55
usemtl rust
g Peldaño_0.78
usemtl rust
g Peldaño_1.01
usemtl rust
g Peldaño_1.24
usemtl rust
f 1 2 12
f 1 12 11
f 2 3 13
f 2 13 12
f 3 4 14
f 3 14 13
f 4 5 15
f 4 15 14
f 5 6 16
f 5 16 15
f 6 7 17
f 6 17 16
f 7 8 18
f 7 18 17
f 8 9 19
f 8 19 18
f 9 10 20
f 9 20 19
f 10 1 11
f 10 11 20
f 21 22 32
f 21 32 31
f 22 23 33
f 22 33 32
f 23 24 34
f 23 34 33
f 24 25 35
f 24 35 34
f 25 26 36
f 25 36 35
f 26 27 37
f 26 37 36
f 27 28 38
f 27 38 37
f 28 29 39
f 28 39 38
f 29 30 40
f 29 40 39
f 30 21 31
f 30 31 40
f 41 42 52
f 41 52 51
f 42 43 53
f 42 53 52
f 43 44 54
f 43 54 53
f 44 45 55
f 44 55 54
f 45 46 56
f 45 56 55
f 46 47 57
f 46 57 56
f 47 48 58
f 47 58 57
f 48 49 59
f 48 59 58
f 49 50 60
f 49 60 59
f 50 41 51
f 50 51 60
f 61 62 72
f 61 72 71
f 62 63 73
f 62 73 72
f 63 64 74
f 63 74 73
f 64 65 75
f 64 75 74
f 65 66 76
f 65 76 75
f 66 67 77
f 66 77 76
f 67 68 78
f 67 78 77
f 68 69 79
f 68 79 78
f 69 70 80
f 69 80 79
f 70 61 71
f 70 71 80
f 81 83 82
f 81 84 83
f 85 86 87
f 85 87 88
f 81 82 86
f 81 86 85
f 82 83 87
f 82 87 86
f 83 84 88
f 83 88 87
f 84 81 85
f 84 85 88
f 89 91 90
f 89 92 91
f 93 94 95
f 93 95 96
f 89 90 94
f 89 94 93
f 90 91 95
f 90 95 94
f 91 92 96
f 91 96 95
f 92 89 93
f 92 93 96
f 97 99 98
f 97 100 99
f 101 102 103
f 101 103 104
f 97 98 102
f 97 102 101
f 98 99 103
f 98 103 102
f 99 100 104
f 99 104 103
f 100 97 101
f 100 101 104
f 105 107 106
f 105 108 107
f 109 110 111
f 109 111 112
f 105 106 110
f 105 110 109
f 106 107 111
f 106 111 110
f 107 108 112
f 107 112 111
f 108 105 109
f 108 109 112
f 113 115 114
f 113 116 115
f 117 118 119
f 117 119 120
f 113 114 118
f 113 118 117
f 114 115 119
f 114 119 118
f 115 116 120
f 115 120 119
f 116 113 117
f 116 117 120
f 121 123 122
f 121 124 123
f 125 126 127
f 125 127 128
f 121 122 126
f 121 126 125
f 122 123 127
f 122 127 126
f 123 124 128
f 123 128 127
f 124 121 125
f 124 125 128
f 129 131 130
f 129 132 131
f 133 134 135
f 133 135 136
f 129 130 134
f 129 134 133
f 130 131 135
f 130 135 134
f 131 132 136
f 131 136 135
f 132 129 133
f 132 133 136
f 137 138 144
f 137 144 143
f 138 139 145
f 138 145 144
f 139 140 146
f 139 146 145
f 140 141 147
f 140 147 146
f 141 142 148
f 141 148 147
f 142 137 143
f 142 143 148
f 149 150 156
f 149 156 155
f 150 151 157
f 150 157 156
f 151 152 158
f 151 158 157
f 152 153 159
f 152 159 158
f 153 154 160
f 153 160 159
f 154 149 155
f 154 155 160
f 161 162 168
f 161 168 167
f 162 163 169
f 162 169 168
f 163 164 170
f 163 170 169
f 164 165 171
f 164 171 170
f 165 166 172
f 165 172 171
f 166 161 167
f 166 167 172
f 173 174 180
f 173 180 179
f 174 175 181
f 174 181 180
f 175 176 182
f 175 182 181
f 176 177 183
f 176 183 182
f 177 178 184
f 177 184 183
f 178 173 179
f 178 179 184
f 185 186 192
f 185 192 191
f 186 187 193
f 186 193 192
f 187 188 194
f 187 194 193
f 188 189 195
f 188 195 194
f 189 190 196
f 189 196 195
f 190 185 191
f 190 191 196
f 197 198 204
f 197 204 203
f 198 199 205
f 198 205 204
f 199 200 206
f 199 206 205
f 200 201 207
f 200 207 206
f 201 202 208
f 201 208 207
f 202 197 203
f 202 203 208
f 209 210 216
f 209 216 215
f 210 211 217
f 210 217 216
f 211 212 218
f 211 218 217
f 212 213 219
f 212 219 218
f 213 214 220
f 213 220 219
f 214 209 215
f 214 215 220
f 221 222 228
f 221 228 227
f 222 223 229
f 222 229 228
f 223 224 230
f 223 230 229
f 224 225 231
f 224 231 230
f 225 226 232
f 225 232 231
f 226 221 227
f 226 227 232
f 233 234 240
f 233 240 239
f 234 235 241
f 234 241 240
f 235 236 242
f 235 242 241
f 236 237 243
f 236 243 242
f 237 238 244
f 237 244 243
f 238 233 239
f 238 239 244
f 245 246 252
f 245 252 251
f 246 247 253
f 246 253 252
f 247 248 254
f 247 254 253
f 248 249 255
f 248 255 254
f 249 250 256
f 249 256 255
f 250 245 251
f 250 251 256
f 257 258 264
f 257 264 263
f 258 259 265
f 258 265 264
f 259 260 266
f 259 266 265
f 260 261 267
f 260 267 266
f 261 262 268
f 261 268 267
f 262 257 263
f 262 263 268
f 269 270 276
f 269 276 275
f 270 271 277
f 270 277 276
f 271 272 278
f 271 278 277
f 272 273 279
f 272 279 278
f 273 274 280
f 273 280 279
f 274 269 275
f 274 275 280
f 281 282 288
f 281 288 287
f 282 283 289
f 282 289 288
f 283 284 290
f 283 290 289
f 284 285 291
f 284 291 290
f 285 286 292
f 285 292 291
f 286 281 287
f 286 287 292
f 293 295 294
f 293 296 295
f 297 298 299
f 297 299 300
f 293 294 298
f 293 298 297
f 294 295 299
f 294 299 298
f 295 296 300
f 295 300 299
f 296 293 297
f 296 297 300
f 301 303 302
f 301 304 303
f 305 306 307
f 305 307 308
f 301 302 306
f 301 306 305
f 302 303 307
f 302 307 306
f 303 304 308
f 303 308 307
f 304 301 305
f 304 305 308
f 309 311 310
f 309 312 311
f 313 314 315
f 313 315 316
f 309 310 314
f 309 314 313
f 310 311 315
f 310 315 314
f 311 312 316
f 311 316 315
f 312 309 313
f 312 313 316
f 317 319 318
f 317 320 319
f 321 322 323
f 321 323 324
f 317 318 322
f 317 322 321
f 318 319 323
f 318 323 322
f 319 320 324
f 319 324 323
f 320 317 321
f 320 321 324
f 325 327 326
f 325 328 327
f 329 330 331
f 329 331 332
f 325 326 330
f 325 330 329
f 326 327 331
f 326 331 330
f 327 328 332
f 327 332 331
f 328 325 329
f 328 329 332
f 333 335 334
f 333 336 335
f 337 338 339
f 337 339 340
f 333 334 338
f 333 338 337
f 334 335 339
f 334 339 338
f 335 336 340
f 335 340 339
f 336 333 337
f 336 337 340
f 341 343 342
f 341 344 343
f 345 346 347
f 345 347 348
f 341 342 346
f 341 346 345
f 342 343 347
f 342 347 346
f 343 344 348
f 343 348 347
f 344 341 345
f 344 345 348
f 349 350 356
f 349 356 355
f 350 351 357
f 350 357 356
f 351 352 358
f 351 358 357
f 352 353 359
f 352 359 358
f 353 354 360
f 353 360 359
f 354 349 355
f 354 355 360
f 361 362 368
f 361 368 367
f 362 363 369
f 362 369 368
f 363 364 370
f 363 370 369
f 364 365 371
f 364 371 370
f 365 366 372
f 365 372 371
f 366 361 367
f 366 367 372
f 373 374 380
f 373 380 379
f 374 375 381
f 374 381 380
f 375 376 382
f 375 382 381
f 376 377 383
f 376 383 382
f 377 378 384
f 377 384 383
f 378 373 379
f 378 379 384
f 385 386 392
f 385 392 391
f 386 387 393
f 386 393 392
f 387 388 394
f 387 394 393
f 388 389 395
f 388 395 394
f 389 390 396
f 389 396 395
f 390 385 391
f 390 391 396
f 397 398 404
f 397 404 403
f 398 399 405
f 398 405 404
f 399 400 406
f 399 406 405
f 400 401 407
f 400 407 406
f 401 402 408
f 401 408 407
f 402 397 403
f 402 403 408
f 409 410 416
f 409 416 415
f 410 411 417
f 410 417 416
f 411 412 418
f 411 418 417
f 412 413 419
f 412 419 418
f 413 414 420
f 413 420 419
f 414 409 415
f 414 415 420
f 421 422 428
f 421 428 427
f 422 423 429
f 422 429 428
f 423 424 430
f 423 430 429
f 424 425 431
f 424 431 430
f 425 426 432
f 425 432 431
f 426 421 427
f 426 427 432
f 433 434 440
f 433 440 439
f 434 435 441
f 434 441 440
f 435 436 442
f 435 442 441
f 436 437 443
f 436 443 442
f 437 438 444
f 437 444 443
f 438 433 439
f 438 439 444
f 445 446 452
f 445 452 451
f 446 447 453
f 446 453 452
f 447 448 454
f 447 454 453
f 448 449 455
f 448 455 454
f 449 450 456
f 449 456 455
f 450 445 451
f 450 451 456
f 457 458 464
f 457 464 463
f 458 459 465
f 458 465 464
f 459 460 466
f 459 466 465
f 460 461 467
f 460 467 466
f 461 462 468
f 461 468 467
f 462 457 463
f 462 463 468
f 469 470 476
f 469 476 475
f 470 471 477
f 470 477 476
f 471 472 478
f 471 478 477
f 472 473 479
f 472 479 478
f 473 474 480
f 473 480 479
f 474 469 475
f 474 475 480
f 481 482 488
f 481 488 487
f 482 483 489
f 482 489 488
f 483 484 490
f 483 490 489
f 484 485 491
f 484 491 490
f 485 486 492
f 485 492 491
f 486 481 487
f 486 487 492
f 493 494 500
f 493 500 499
f 494 495 501
f 494 501 500
f 495 496 502
f 495 502 501
f 496 497 503
f 496 503 502
f 497 498 504
f 497 504 503
f 498 493 499
f 498 499 504
f 505 506 514
f 505 514 513
f 506 507 515
f 506 515 514
f 507 508 516
f 507 516 515
f 508 509 517
f 508 517 516
f 509 510 518
f 509 518 517
f 510 511 519
f 510 519 518
f 511 512 520
f 511 520 519
f 512 505 513
f 512 513 520
f 521 522 530
f 521 530 529
f 522 523 531
f 522 531 530
f 523 524 532
f 523 532 531
f 524 525 533
f 524 533 532
f 525 526 534
f 525 534 533
f 526 527 535
f 526 535 534
f 527 528 536
f 527 536 535
f 528 521 529
f 528 529 536
f 537 538 546
f 537 546 545
f 538 539 547
f 538 547 546
f 539 540 548
f 539 548 547
f 540 541 549
f 540 549 548
f 541 542 550
f 541 550 549
f 542 543 551
f 542 551 550
f 543 544 552
f 543 552 551
f 544 537 545
f 544 545 552
f 553 554 562
f 553 562 561
f 554 555 563
f 554 563 562
f 555 556 564
f 555 564 563
f 556 557 565
f 556 565 564
f 557 558 566
f 557 566 565
f 558 559 567
f 558 567 566
f 559 560 568
f 559 568 567
f 560 553 561
f 560 561 568
f 569 570 578
f 569 578 577
f 570 571 579
f 570 579 578
f 571 572 580
f 571 580 579
f 572 573 581
f 572 581 580
f 573 574 582
f 573 582 581
f 574 575 583
f 574 583 582
f 575 576 584
f 575 584 583
f 576 569 577
f 576 577 584
