mtllib tekaym_materiales.mtl
o Puerta_Celda_Tekaym
v -0.6400 0.0000 -0.0900
v -0.5200 0.0000 -0.0900
v -0.5200 2.4000 -0.0900
v -0.6400 2.4000 -0.0900
v -0.6400 0.0000 0.0900
v -0.5200 0.0000 0.0900
v -0.5200 2.4000 0.0900
v -0.6400 2.4000 0.0900
v 0.5200 0.0000 -0.0900
v 0.6400 0.0000 -0.0900
v 0.6400 2.4000 -0.0900
v 0.5200 2.4000 -0.0900
v 0.5200 0.0000 0.0900
v 0.6400 0.0000 0.0900
v 0.6400 2.4000 0.0900
v 0.5200 2.4000 0.0900
v -0.6200 2.2900 -0.0900
v 0.6200 2.2900 -0.0900
v 0.6200 2.4100 -0.0900
v -0.6200 2.4100 -0.0900
v -0.6200 2.2900 0.0900
v 0.6200 2.2900 0.0900
v 0.6200 2.4100 0.0900
v -0.6200 2.4100 0.0900
v -0.6200 0.0000 -0.0900
v 0.6200 0.0000 -0.0900
v 0.6200 0.1200 -0.0900
v -0.6200 0.1200 -0.0900
v -0.6200 0.0000 0.0900
v 0.6200 0.0000 0.0900
v 0.6200 0.1200 0.0900
v -0.6200 0.1200 0.0900
v -0.4800 0.1200 -0.0070
v -0.4956 0.1200 -0.0006
v -0.5020 0.1200 0.0150
v -0.4956 0.1200 0.0306
v -0.4800 0.1200 0.0370
v -0.4644 0.1200 0.0306
v -0.4580 0.1200 0.0150
v -0.4644 0.1200 -0.0006
v -0.4800 2.2900 -0.0070
v -0.4956 2.2900 -0.0006
v -0.5020 2.2900 0.0150
v -0.4956 2.2900 0.0306
v -0.4800 2.2900 0.0370
v -0.4644 2.2900 0.0306
v -0.4580 2.2900 0.0150
v -0.4644 2.2900 -0.0006
v -0.3600 0.1200 -0.0070
v -0.3756 0.1200 -0.0006
v -0.3820 0.1200 0.0150
v -0.3756 0.1200 0.0306
v -0.3600 0.1200 0.0370
v -0.3444 0.1200 0.0306
v -0.3380 0.1200 0.0150
v -0.3444 0.1200 -0.0006
v -0.3600 2.2900 -0.0070
v -0.3756 2.2900 -0.0006
v -0.3820 2.2900 0.0150
v -0.3756 2.2900 0.0306
v -0.3600 2.2900 0.0370
v -0.3444 2.2900 0.0306
v -0.3380 2.2900 0.0150
v -0.3444 2.2900 -0.0006
v -0.2400 0.1200 -0.0070
v -0.2556 0.1200 -0.0006
v -0.2620 0.1200 0.0150
v -0.2556 0.1200 0.0306
v -0.2400 0.1200 0.0370
v -0.2244 0.1200 0.0306
v -0.2180 0.1200 0.0150
v -0.2244 0.1200 -0.0006
v -0.2400 2.2900 -0.0070
v -0.2556 2.2900 -0.0006
v -0.2620 2.2900 0.0150
v -0.2556 2.2900 0.0306
v -0.2400 2.2900 0.0370
v -0.2244 2.2900 0.0306
v -0.2180 2.2900 0.0150
v -0.2244 2.2900 -0.0006
v -0.1200 0.1200 -0.0070
v -0.1356 0.1200 -0.0006
v -0.1420 0.1200 0.0150
v -0.1356 0.1200 0.0306
v -0.1200 0.1200 0.0370
v -0.1044 0.1200 0.0306
v -0.0980 0.1200 0.0150
v -0.1044 0.1200 -0.0006
v -0.1200 2.2900 -0.0070
v -0.1356 2.2900 -0.0006
v -0.1420 2.2900 0.0150
v -0.1356 2.2900 0.0306
v -0.1200 2.2900 0.0370
v -0.1044 2.2900 0.0306
v -0.0980 2.2900 0.0150
v -0.1044 2.2900 -0.0006
v 0.0000 0.1200 -0.0070
v -0.0156 0.1200 -0.0006
v -0.0220 0.1200 0.0150
v -0.0156 0.1200 0.0306
v -0.0000 0.1200 0.0370
v 0.0156 0.1200 0.0306
v 0.0220 0.1200 0.0150
v 0.0156 0.1200 -0.0006
v 0.0000 2.2900 -0.0070
v -0.0156 2.2900 -0.0006
v -0.0220 2.2900 0.0150
v -0.0156 2.2900 0.0306
v -0.0000 2.2900 0.0370
v 0.0156 2.2900 0.0306
v 0.0220 2.2900 0.0150
v 0.0156 2.2900 -0.0006
v 0.1200 0.1200 -0.0070
v 0.1044 0.1200 -0.0006
v 0.0980 0.1200 0.0150
v 0.1044 0.1200 0.0306
v 0.1200 0.1200 0.0370
v 0.1356 0.1200 0.0306
v 0.1420 0.1200 0.0150
v 0.1356 0.1200 -0.0006
v 0.1200 2.2900 -0.0070
v 0.1044 2.2900 -0.0006
v 0.0980 2.2900 0.0150
v 0.1044 2.2900 0.0306
v 0.1200 2.2900 0.0370
v 0.1356 2.2900 0.0306
v 0.1420 2.2900 0.0150
v 0.1356 2.2900 -0.0006
v 0.2400 0.1200 -0.0070
v 0.2244 0.1200 -0.0006
v 0.2180 0.1200 0.0150
v 0.2244 0.1200 0.0306
v 0.2400 0.1200 0.0370
v 0.2556 0.1200 0.0306
v 0.2620 0.1200 0.0150
v 0.2556 0.1200 -0.0006
v 0.2400 2.2900 -0.0070
v 0.2244 2.2900 -0.0006
v 0.2180 2.2900 0.0150
v 0.2244 2.2900 0.0306
v 0.2400 2.2900 0.0370
v 0.2556 2.2900 0.0306
v 0.2620 2.2900 0.0150
v 0.2556 2.2900 -0.0006
v 0.3600 0.1200 -0.0070
v 0.3444 0.1200 -0.0006
v 0.3380 0.1200 0.0150
v 0.3444 0.1200 0.0306
v 0.3600 0.1200 0.0370
v 0.3756 0.1200 0.0306
v 0.3820 0.1200 0.0150
v 0.3756 0.1200 -0.0006
v 0.3600 2.2900 -0.0070
v 0.3444 2.2900 -0.0006
v 0.3380 2.2900 0.0150
v 0.3444 2.2900 0.0306
v 0.3600 2.2900 0.0370
v 0.3756 2.2900 0.0306
v 0.3820 2.2900 0.0150
v 0.3756 2.2900 -0.0006
v 0.4800 0.1200 -0.0070
v 0.4644 0.1200 -0.0006
v 0.4580 0.1200 0.0150
v 0.4644 0.1200 0.0306
v 0.4800 0.1200 0.0370
v 0.4956 0.1200 0.0306
v 0.5020 0.1200 0.0150
v 0.4956 0.1200 -0.0006
v 0.4800 2.2900 -0.0070
v 0.4644 2.2900 -0.0006
v 0.4580 2.2900 0.0150
v 0.4644 2.2900 0.0306
v 0.4800 2.2900 0.0370
v 0.4956 2.2900 0.0306
v 0.5020 2.2900 0.0150
v 0.4956 2.2900 -0.0006
v -0.5400 0.3225 -0.0200
v 0.5400 0.3225 -0.0200
v 0.5400 0.3775 -0.0200
v -0.5400 0.3775 -0.0200
v -0.5400 0.3225 0.0600
v 0.5400 0.3225 0.0600
v 0.5400 0.3775 0.0600
v -0.5400 0.3775 0.0600
v -0.5400 1.9225 -0.0200
v 0.5400 1.9225 -0.0200
v 0.5400 1.9775 -0.0200
v -0.5400 1.9775 -0.0200
v -0.5400 1.9225 0.0600
v 0.5400 1.9225 0.0600
v 0.5400 1.9775 0.0600
v -0.5400 1.9775 0.0600
v 0.3200 1.0100 0.0650
v 0.4800 1.0100 0.0650
v 0.4800 1.2900 0.0650
v 0.3200 1.2900 0.0650
v 0.3200 1.0100 0.1350
v 0.4800 1.0100 0.1350
v 0.4800 1.2900 0.1350
v 0.3200 1.2900 0.1350
v 0.2750 1.1425 0.1375
v 0.3850 1.1425 0.1375
v 0.3850 1.1775 0.1375
v 0.2750 1.1775 0.1375
v 0.2750 1.1425 0.1825
v 0.3850 1.1425 0.1825
v 0.3850 1.1775 0.1825
v 0.2750 1.1775 0.1825
v -0.6400 0.3550 0.0600
v -0.5400 0.3550 0.0600
v -0.5400 0.6050 0.0600
v -0.6400 0.6050 0.0600
v -0.6400 0.3550 0.1400
v -0.5400 0.3550 0.1400
v -0.5400 0.6050 0.1400
v -0.6400 0.6050 0.1400
v -0.6400 1.8550 0.0600
v -0.5400 1.8550 0.0600
v -0.5400 2.1050 0.0600
v -0.6400 2.1050 0.0600
v -0.6400 1.8550 0.1400
v -0.5400 1.8550 0.1400
v -0.5400 2.1050 0.1400
v -0.6400 2.1050 0.1400
g Marco_izquierdo
usemtl rust
g Marco_derecho
usemtl rust
g Marco_superior
usemtl cloth
g Marco_inferior
usemtl cloth
g Barrote_0
usemtl steel
g Barrote_1
usemtl steel
g Barrote_2
usemtl steel
g Barrote_3
usemtl steel
g Barrote_4
usemtl steel
g Barrote_5
usemtl steel
g Barrote_6
usemtl steel
g Barrote_7
usemtl steel
g Barrote_8
usemtl steel
g Travesano_0.35
usemtl rust
g Travesano_1.95
usemtl rust
g Cerradura
usemtl rust
g Manija
usemtl steel
g Bisagra_0.48
usemtl cloth
g Bisagra_1.98
usemtl cloth
f 1 3 2
f 1 4 3
f 5 6 7
f 5 7 8
f 1 2 6
f 1 6 5
f 2 3 7
f 2 7 6
f 3 4 8
f 3 8 7
f 4 1 5
f 4 5 8
f 9 11 10
f 9 12 11
f 13 14 15
f 13 15 16
f 9 10 14
f 9 14 13
f 10 11 15
f 10 15 14
f 11 12 16
f 11 16 15
f 12 9 13
f 12 13 16
f 17 19 18
f 17 20 19
f 21 22 23
f 21 23 24
f 17 18 22
f 17 22 21
f 18 19 23
f 18 23 22
f 19 20 24
f 19 24 23
f 20 17 21
f 20 21 24
f 25 27 26
f 25 28 27
f 29 30 31
f 29 31 32
f 25 26 30
f 25 30 29
f 26 27 31
f 26 31 30
f 27 28 32
f 27 32 31
f 28 25 29
f 28 29 32
f 33 34 42
f 33 42 41
f 34 35 43
f 34 43 42
f 35 36 44
f 35 44 43
f 36 37 45
f 36 45 44
f 37 38 46
f 37 46 45
f 38 39 47
f 38 47 46
f 39 40 48
f 39 48 47
f 40 33 41
f 40 41 48
f 49 50 58
f 49 58 57
f 50 51 59
f 50 59 58
f 51 52 60
f 51 60 59
f 52 53 61
f 52 61 60
f 53 54 62
f 53 62 61
f 54 55 63
f 54 63 62
f 55 56 64
f 55 64 63
f 56 49 57
f 56 57 64
f 65 66 74
f 65 74 73
f 66 67 75
f 66 75 74
f 67 68 76
f 67 76 75
f 68 69 77
f 68 77 76
f 69 70 78
f 69 78 77
f 70 71 79
f 70 79 78
f 71 72 80
f 71 80 79
f 72 65 73
f 72 73 80
f 81 82 90
f 81 90 89
f 82 83 91
f 82 91 90
f 83 84 92
f 83 92 91
f 84 85 93
f 84 93 92
f 85 86 94
f 85 94 93
f 86 87 95
f 86 95 94
f 87 88 96
f 87 96 95
f 88 81 89
f 88 89 96
f 97 98 106
f 97 106 105
f 98 99 107
f 98 107 106
f 99 100 108
f 99 108 107
f 100 101 109
f 100 109 108
f 101 102 110
f 101 110 109
f 102 103 111
f 102 111 110
f 103 104 112
f 103 112 111
f 104 97 105
f 104 105 112
f 113 114 122
f 113 122 121
f 114 115 123
f 114 123 122
f 115 116 124
f 115 124 123
f 116 117 125
f 116 125 124
f 117 118 126
f 117 126 125
f 118 119 127
f 118 127 126
f 119 120 128
f 119 128 127
f 120 113 121
f 120 121 128
f 129 130 138
f 129 138 137
f 130 131 139
f 130 139 138
f 131 132 140
f 131 140 139
f 132 133 141
f 132 141 140
f 133 134 142
f 133 142 141
f 134 135 143
f 134 143 142
f 135 136 144
f 135 144 143
f 136 129 137
f 136 137 144
f 145 146 154
f 145 154 153
f 146 147 155
f 146 155 154
f 147 148 156
f 147 156 155
f 148 149 157
f 148 157 156
f 149 150 158
f 149 158 157
f 150 151 159
f 150 159 158
f 151 152 160
f 151 160 159
f 152 145 153
f 152 153 160
f 161 162 170
f 161 170 169
f 162 163 171
f 162 171 170
f 163 164 172
f 163 172 171
f 164 165 173
f 164 173 172
f 165 166 174
f 165 174 173
f 166 167 175
f 166 175 174
f 167 168 176
f 167 176 175
f 168 161 169
f 168 169 176
f 177 179 178
f 177 180 179
f 181 182 183
f 181 183 184
f 177 178 182
f 177 182 181
f 178 179 183
f 178 183 182
f 179 180 184
f 179 184 183
f 180 177 181
f 180 181 184
f 185 187 186
f 185 188 187
f 189 190 191
f 189 191 192
f 185 186 190
f 185 190 189
f 186 187 191
f 186 191 190
f 187 188 192
f 187 192 191
f 188 185 189
f 188 189 192
f 193 195 194
f 193 196 195
f 197 198 199
f 197 199 200
f 193 194 198
f 193 198 197
f 194 195 199
f 194 199 198
f 195 196 200
f 195 200 199
f 196 193 197
f 196 197 200
f 201 203 202
f 201 204 203
f 205 206 207
f 205 207 208
f 201 202 206
f 201 206 205
f 202 203 207
f 202 207 206
f 203 204 208
f 203 208 207
f 204 201 205
f 204 205 208
f 209 211 210
f 209 212 211
f 213 214 215
f 213 215 216
f 209 210 214
f 209 214 213
f 210 211 215
f 210 215 214
f 211 212 216
f 211 216 215
f 212 209 213
f 212 213 216
f 217 219 218
f 217 220 219
f 221 222 223
f 221 223 224
f 217 218 222
f 217 222 221
f 218 219 223
f 218 223 222
f 219 220 224
f 219 224 223
f 220 217 221
f 220 221 224
