mtllib tekaym_materiales.mtl
o Zombie_Prisionero_Tekaym
v 0.0000 1.5900 0.0000
v 0.0000 1.5900 0.0000
v 0.0000 1.5900 0.0000
v 0.0000 1.5900 0.0000
v 0.0000 1.5900 0.0000
v 0.0000 1.5900 0.0000
v 0.0000 1.5900 0.0000
v 0.0000 1.5900 0.0000
v 0.0000 1.5900 0.0000
v 0.0000 1.5900 0.0000
v 0.0000 1.5900 0.0000
v 0.0000 1.5900 0.0000
v 0.0000 1.5900 0.0000
v 0.0000 1.5900 0.0000
v 0.0000 1.5900 0.0000
v 0.1051 1.5675 0.0000
v 0.0947 1.5675 0.0308
v 0.0655 1.5675 0.0556
v 0.0234 1.5675 0.0693
v -0.0234 1.5675 0.0693
v -0.0655 1.5675 0.0556
v -0.0947 1.5675 0.0308
v -0.1051 1.5675 0.0000
v -0.0947 1.5675 -0.0308
v -0.0655 1.5675 -0.0556
v -0.0234 1.5675 -0.0693
v 0.0234 1.5675 -0.0693
v 0.0655 1.5675 -0.0556
v 0.0947 1.5675 -0.0308
v 0.1051 1.5675 -0.0000
v 0.1998 1.5021 0.0000
v 0.1801 1.5021 0.0587
v 0.1246 1.5021 0.1057
v 0.0445 1.5021 0.1318
v -0.0445 1.5021 0.1318
v -0.1246 1.5021 0.1057
v -0.1801 1.5021 0.0587
v -0.1998 1.5021 0.0000
v -0.1801 1.5021 -0.0587
v -0.1246 1.5021 -0.1057
v -0.0445 1.5021 -0.1318
v 0.0445 1.5021 -0.1318
v 0.1246 1.5021 -0.1057
v 0.1801 1.5021 -0.0587
v 0.1998 1.5021 -0.0000
v 0.2751 1.4004 0.0000
v 0.2478 1.4004 0.0807
v 0.1715 1.4004 0.1455
v 0.0612 1.4004 0.1814
v -0.0612 1.4004 0.1814
v -0.1715 1.4004 0.1455
v -0.2478 1.4004 0.0807
v -0.2751 1.4004 0.0000
v -0.2478 1.4004 -0.0807
v -0.1715 1.4004 -0.1455
v -0.0612 1.4004 -0.1814
v 0.0612 1.4004 -0.1814
v 0.1715 1.4004 -0.1455
v 0.2478 1.4004 -0.0807
v 0.2751 1.4004 -0.0000
v 0.3234 1.2721 0.0000
v 0.2913 1.2721 0.0949
v 0.2016 1.2721 0.1710
v 0.0720 1.2721 0.2133
v -0.0720 1.2721 0.2133
v -0.2016 1.2721 0.1710
v -0.2913 1.2721 0.0949
v -0.3234 1.2721 0.0000
v -0.2913 1.2721 -0.0949
v -0.2016 1.2721 -0.1710
v -0.0720 1.2721 -0.2133
v 0.0720 1.2721 -0.2133
v 0.2016 1.2721 -0.1710
v 0.2913 1.2721 -0.0949
v 0.3234 1.2721 -0.0000
v 0.3400 1.1300 0.0000
v 0.3063 1.1300 0.0998
v 0.2120 1.1300 0.1798
v 0.0757 1.1300 0.2242
v -0.0757 1.1300 0.2242
v -0.2120 1.1300 0.1798
v -0.3063 1.1300 0.0998
v -0.3400 1.1300 0.0000
v -0.3063 1.1300 -0.0998
v -0.2120 1.1300 -0.1798
v -0.0757 1.1300 -0.2242
v 0.0757 1.1300 -0.2242
v 0.2120 1.1300 -0.1798
v 0.3063 1.1300 -0.0998
v 0.3400 1.1300 -0.0000
v 0.3234 0.9879 0.0000
v 0.2913 0.9879 0.0949
v 0.2016 0.9879 0.1710
v 0.0720 0.9879 0.2133
v -0.0720 0.9879 0.2133
v -0.2016 0.9879 0.1710
v -0.2913 0.9879 0.0949
v -0.3234 0.9879 0.0000
v -0.2913 0.9879 -0.0949
v -0.2016 0.9879 -0.1710
v -0.0720 0.9879 -0.2133
v 0.0720 0.9879 -0.2133
v 0.2016 0.9879 -0.1710
v 0.2913 0.9879 -0.0949
v 0.3234 0.9879 -0.0000
v 0.2751 0.8596 0.0000
v 0.2478 0.8596 0.0807
v 0.1715 0.8596 0.1455
v 0.0612 0.8596 0.1814
v -0.0612 0.8596 0.1814
v -0.1715 0.8596 0.1455
v -0.2478 0.8596 0.0807
v -0.2751 0.8596 0.0000
v -0.2478 0.8596 -0.0807
v -0.1715 0.8596 -0.1455
v -0.0612 0.8596 -0.1814
v 0.0612 0.8596 -0.1814
v 0.1715 0.8596 -0.1455
v 0.2478 0.8596 -0.0807
v 0.2751 0.8596 -0.0000
v 0.1998 0.7579 0.0000
v 0.1801 0.7579 0.0587
v 0.1246 0.7579 0.1057
v 0.0445 0.7579 0.1318
v -0.0445 0.7579 0.1318
v -0.1246 0.7579 0.1057
v -0.1801 0.7579 0.0587
v -0.1998 0.7579 0.0000
v -0.1801 0.7579 -0.0587
v -0.1246 0.7579 -0.1057
v -0.0445 0.7579 -0.1318
v 0.0445 0.7579 -0.1318
v 0.1246 0.7579 -0.1057
v 0.1801 0.7579 -0.0587
v 0.1998 0.7579 -0.0000
v 0.1051 0.6925 0.0000
v 0.0947 0.6925 0.0308
v 0.0655 0.6925 0.0556
v 0.0234 0.6925 0.0693
v -0.0234 0.6925 0.0693
v -0.0655 0.6925 0.0556
v -0.0947 0.6925 0.0308
v -0.1051 0.6925 0.0000
v -0.0947 0.6925 -0.0308
v -0.0655 0.6925 -0.0556
v -0.0234 0.6925 -0.0693
v 0.0234 0.6925 -0.0693
v 0.0655 0.6925 -0.0556
v 0.0947 0.6925 -0.0308
v 0.1051 0.6925 -0.0000
v 0.0000 0.6700 0.0000
v 0.0000 0.6700 0.0000
v 0.0000 0.6700 0.0000
v 0.0000 0.6700 0.0000
v -0.0000 0.6700 0.0000
v -0.0000 0.6700 0.0000
v -0.0000 0.6700 0.0000
v -0.0000 0.6700 0.0000
v -0.0000 0.6700 -0.0000
v -0.0000 0.6700 -0.0000
v -0.0000 0.6700 -0.0000
v 0.0000 0.6700 -0.0000
v 0.0000 0.6700 -0.0000
v 0.0000 0.6700 -0.0000
v 0.0000 0.6700 -0.0000
v 0.0000 1.0100 0.0000
v 0.0000 1.0100 0.0000
v 0.0000 1.0100 0.0000
v 0.0000 1.0100 0.0000
v 0.0000 1.0100 0.0000
v 0.0000 1.0100 0.0000
v 0.0000 1.0100 0.0000
v 0.0000 1.0100 0.0000
v 0.0000 1.0100 0.0000
v 0.0000 1.0100 0.0000
v 0.0000 1.0100 0.0000
v 0.1258 0.9882 0.0000
v 0.1018 0.9882 0.0510
v 0.0389 0.9882 0.0825
v -0.0389 0.9882 0.0825
v -0.1018 0.9882 0.0510
v -0.1258 0.9882 0.0000
v -0.1018 0.9882 -0.0510
v -0.0389 0.9882 -0.0825
v 0.0389 0.9882 -0.0825
v 0.1018 0.9882 -0.0510
v 0.1258 0.9882 -0.0000
v 0.2267 0.9272 0.0000
v 0.1834 0.9272 0.0919
v 0.0701 0.9272 0.1487
v -0.0701 0.9272 0.1487
v -0.1834 0.9272 0.0919
v -0.2267 0.9272 0.0000
v -0.1834 0.9272 -0.0919
v -0.0701 0.9272 -0.1487
v 0.0701 0.9272 -0.1487
v 0.1834 0.9272 -0.0919
v 0.2267 0.9272 -0.0000
v 0.2827 0.8390 0.0000
v 0.2287 0.8390 0.1146
v 0.0874 0.8390 0.1854
v -0.0874 0.8390 0.1854
v -0.2287 0.8390 0.1146
v -0.2827 0.8390 0.0000
v -0.2287 0.8390 -0.1146
v -0.0874 0.8390 -0.1854
v 0.0874 0.8390 -0.1854
v 0.2287 0.8390 -0.1146
v 0.2827 0.8390 -0.0000
v 0.2827 0.7410 0.0000
v 0.2287 0.7410 0.1146
v 0.0874 0.7410 0.1854
v -0.0874 0.7410 0.1854
v -0.2287 0.7410 0.1146
v -0.2827 0.7410 0.0000
v -0.2287 0.7410 -0.1146
v -0.0874 0.7410 -0.1854
v 0.0874 0.7410 -0.1854
v 0.2287 0.7410 -0.1146
v 0.2827 0.7410 -0.0000
v 0.2267 0.6528 0.0000
v 0.1834 0.6528 0.0919
v 0.0701 0.6528 0.1487
v -0.0701 0.6528 0.1487
v -0.1834 0.6528 0.0919
v -0.2267 0.6528 0.0000
v -0.1834 0.6528 -0.0919
v -0.0701 0.6528 -0.1487
v 0.0701 0.6528 -0.1487
v 0.1834 0.6528 -0.0919
v 0.2267 0.6528 -0.0000
v 0.1258 0.5918 0.0000
v 0.1018 0.5918 0.0510
v 0.0389 0.5918 0.0825
v -0.0389 0.5918 0.0825
v -0.1018 0.5918 0.0510
v -0.1258 0.5918 0.0000
v -0.1018 0.5918 -0.0510
v -0.0389 0.5918 -0.0825
v 0.0389 0.5918 -0.0825
v 0.1018 0.5918 -0.0510
v 0.1258 0.5918 -0.0000
v 0.0000 0.5700 0.0000
v 0.0000 0.5700 0.0000
v 0.0000 0.5700 0.0000
v -0.0000 0.5700 0.0000
v -0.0000 0.5700 0.0000
v -0.0000 0.5700 0.0000
v -0.0000 0.5700 -0.0000
v -0.0000 0.5700 -0.0000
v 0.0000 0.5700 -0.0000
v 0.0000 0.5700 -0.0000
v 0.0000 0.5700 -0.0000
v 0.0000 1.7000 0.0000
v 0.0000 1.7000 0.0000
v 0.0000 1.7000 0.0000
v 0.0000 1.7000 0.0000
v 0.0000 1.7000 0.0000
v 0.0000 1.7000 0.0000
v 0.0000 1.7000 0.0000
v 0.0000 1.7000 0.0000
v 0.0000 1.7000 0.0000
v 0.0000 1.7000 0.0000
v 0.0000 1.7000 0.0000
v 0.0477 1.6861 0.0000
v 0.0386 1.6861 0.0281
v 0.0147 1.6861 0.0454
v -0.0147 1.6861 0.0454
v -0.0386 1.6861 0.0281
v -0.0477 1.6861 0.0000
v -0.0386 1.6861 -0.0281
v -0.0147 1.6861 -0.0454
v 0.0147 1.6861 -0.0454
v 0.0386 1.6861 -0.0281
v 0.0477 1.6861 -0.0000
v 0.0860 1.6473 0.0000
v 0.0696 1.6473 0.0506
v 0.0266 1.6473 0.0818
v -0.0266 1.6473 0.0818
v -0.0696 1.6473 0.0506
v -0.0860 1.6473 0.0000
v -0.0696 1.6473 -0.0506
v -0.0266 1.6473 -0.0818
v 0.0266 1.6473 -0.0818
v 0.0696 1.6473 -0.0506
v 0.0860 1.6473 -0.0000
v 0.1072 1.5912 0.0000
v 0.0868 1.5912 0.0630
v 0.0331 1.5912 0.1020
v -0.0331 1.5912 0.1020
v -0.0868 1.5912 0.0630
v -0.1072 1.5912 0.0000
v -0.0868 1.5912 -0.0630
v -0.0331 1.5912 -0.1020
v 0.0331 1.5912 -0.1020
v 0.0868 1.5912 -0.0630
v 0.1072 1.5912 -0.0000
v 0.1072 1.5288 0.0000
v 0.0868 1.5288 0.0630
v 0.0331 1.5288 0.1020
v -0.0331 1.5288 0.1020
v -0.0868 1.5288 0.0630
v -0.1072 1.5288 0.0000
v -0.0868 1.5288 -0.0630
v -0.0331 1.5288 -0.1020
v 0.0331 1.5288 -0.1020
v 0.0868 1.5288 -0.0630
v 0.1072 1.5288 -0.0000
v 0.0860 1.4727 0.0000
v 0.0696 1.4727 0.0506
v 0.0266 1.4727 0.0818
v -0.0266 1.4727 0.0818
v -0.0696 1.4727 0.0506
v -0.0860 1.4727 0.0000
v -0.0696 1.4727 -0.0506
v -0.0266 1.4727 -0.0818
v 0.0266 1.4727 -0.0818
v 0.0696 1.4727 -0.0506
v 0.0860 1.4727 -0.0000
v 0.0477 1.4339 0.0000
v 0.0386 1.4339 0.0281
v 0.0147 1.4339 0.0454
v -0.0147 1.4339 0.0454
v -0.0386 1.4339 0.0281
v -0.0477 1.4339 0.0000
v -0.0386 1.4339 -0.0281
v -0.0147 1.4339 -0.0454
v 0.0147 1.4339 -0.0454
v 0.0386 1.4339 -0.0281
v 0.0477 1.4339 -0.0000
v 0.0000 1.4200 0.0000
v 0.0000 1.4200 0.0000
v 0.0000 1.4200 0.0000
v -0.0000 1.4200 0.0000
v -0.0000 1.4200 0.0000
v -0.0000 1.4200 0.0000
v -0.0000 1.4200 -0.0000
v -0.0000 1.4200 -0.0000
v 0.0000 1.4200 -0.0000
v 0.0000 1.4200 -0.0000
v 0.0000 1.4200 -0.0000
v 0.0000 2.0900 0.0000
v 0.0000 2.0900 0.0000
v 0.0000 2.0900 0.0000
v 0.0000 2.0900 0.0000
v 0.0000 2.0900 0.0000
v 0.0000 2.0900 0.0000
v 0.0000 2.0900 0.0000
v 0.0000 2.0900 0.0000
v 0.0000 2.0900 0.0000
v 0.0000 2.0900 0.0000
v 0.0000 2.0900 0.0000
v 0.0000 2.0900 0.0000
v 0.0000 2.0900 0.0000
v 0.0000 2.0900 0.0000
v 0.0000 2.0900 0.0000
v 0.0649 2.0768 0.0000
v 0.0585 2.0768 0.0241
v 0.0405 2.0768 0.0435
v 0.0144 2.0768 0.0542
v -0.0144 2.0768 0.0542
v -0.0405 2.0768 0.0435
v -0.0585 2.0768 0.0241
v -0.0649 2.0768 0.0000
v -0.0585 2.0768 -0.0241
v -0.0405 2.0768 -0.0435
v -0.0144 2.0768 -0.0542
v 0.0144 2.0768 -0.0542
v 0.0405 2.0768 -0.0435
v 0.0585 2.0768 -0.0241
v 0.0649 2.0768 -0.0000
v 0.1234 2.0384 0.0000
v 0.1112 2.0384 0.0459
v 0.0770 2.0384 0.0827
v 0.0275 2.0384 0.1031
v -0.0275 2.0384 0.1031
v -0.0770 2.0384 0.0827
v -0.1112 2.0384 0.0459
v -0.1234 2.0384 0.0000
v -0.1112 2.0384 -0.0459
v -0.0770 2.0384 -0.0827
v -0.0275 2.0384 -0.1031
v 0.0275 2.0384 -0.1031
v 0.0770 2.0384 -0.0827
v 0.1112 2.0384 -0.0459
v 0.1234 2.0384 -0.0000
v 0.1699 1.9787 0.0000
v 0.1531 1.9787 0.0632
v 0.1059 1.9787 0.1139
v 0.0378 1.9787 0.1420
v -0.0378 1.9787 0.1420
v -0.1059 1.9787 0.1139
v -0.1531 1.9787 0.0632
v -0.1699 1.9787 0.0000
v -0.1531 1.9787 -0.0632
v -0.1059 1.9787 -0.1139
v -0.0378 1.9787 -0.1420
v 0.0378 1.9787 -0.1420
v 0.1059 1.9787 -0.1139
v 0.1531 1.9787 -0.0632
v 0.1699 1.9787 -0.0000
v 0.1997 1.9034 0.0000
v 0.1799 1.9034 0.0743
v 0.1245 1.9034 0.1338
v 0.0444 1.9034 0.1669
v -0.0444 1.9034 0.1669
v -0.1245 1.9034 0.1338
v -0.1799 1.9034 0.0743
v -0.1997 1.9034 0.0000
v -0.1799 1.9034 -0.0743
v -0.1245 1.9034 -0.1338
v -0.0444 1.9034 -0.1669
v 0.0444 1.9034 -0.1669
v 0.1245 1.9034 -0.1338
v 0.1799 1.9034 -0.0743
v 0.1997 1.9034 -0.0000
v 0.2100 1.8200 0.0000
v 0.1892 1.8200 0.0781
v 0.1309 1.8200 0.1407
v 0.0467 1.8200 0.1755
v -0.0467 1.8200 0.1755
v -0.1309 1.8200 0.1407
v -0.1892 1.8200 0.0781
v -0.2100 1.8200 0.0000
v -0.1892 1.8200 -0.0781
v -0.1309 1.8200 -0.1407
v -0.0467 1.8200 -0.1755
v 0.0467 1.8200 -0.1755
v 0.1309 1.8200 -0.1407
v 0.1892 1.8200 -0.0781
v 0.2100 1.8200 -0.0000
v 0.1997 1.7366 0.0000
v 0.1799 1.7366 0.0743
v 0.1245 1.7366 0.1338
v 0.0444 1.7366 0.1669
v -0.0444 1.7366 0.1669
v -0.1245 1.7366 0.1338
v -0.1799 1.7366 0.0743
v -0.1997 1.7366 0.0000
v -0.1799 1.7366 -0.0743
v -0.1245 1.7366 -0.1338
v -0.0444 1.7366 -0.1669
v 0.0444 1.7366 -0.1669
v 0.1245 1.7366 -0.1338
v 0.1799 1.7366 -0.0743
v 0.1997 1.7366 -0.0000
v 0.1699 1.6613 0.0000
v 0.1531 1.6613 0.0632
v 0.1059 1.6613 0.1139
v 0.0378 1.6613 0.1420
v -0.0378 1.6613 0.1420
v -0.1059 1.6613 0.1139
v -0.1531 1.6613 0.0632
v -0.1699 1.6613 0.0000
v -0.1531 1.6613 -0.0632
v -0.1059 1.6613 -0.1139
v -0.0378 1.6613 -0.1420
v 0.0378 1.6613 -0.1420
v 0.1059 1.6613 -0.1139
v 0.1531 1.6613 -0.0632
v 0.1699 1.6613 -0.0000
v 0.1234 1.6016 0.0000
v 0.1112 1.6016 0.0459
v 0.0770 1.6016 0.0827
v 0.0275 1.6016 0.1031
v -0.0275 1.6016 0.1031
v -0.0770 1.6016 0.0827
v -0.1112 1.6016 0.0459
v -0.1234 1.6016 0.0000
v -0.1112 1.6016 -0.0459
v -0.0770 1.6016 -0.0827
v -0.0275 1.6016 -0.1031
v 0.0275 1.6016 -0.1031
v 0.0770 1.6016 -0.0827
v 0.1112 1.6016 -0.0459
v 0.1234 1.6016 -0.0000
v 0.0649 1.5632 0.0000
v 0.0585 1.5632 0.0241
v 0.0405 1.5632 0.0435
v 0.0144 1.5632 0.0542
v -0.0144 1.5632 0.0542
v -0.0405 1.5632 0.0435
v -0.0585 1.5632 0.0241
v -0.0649 1.5632 0.0000
v -0.0585 1.5632 -0.0241
v -0.0405 1.5632 -0.0435
v -0.0144 1.5632 -0.0542
v 0.0144 1.5632 -0.0542
v 0.0405 1.5632 -0.0435
v 0.0585 1.5632 -0.0241
v 0.0649 1.5632 -0.0000
v 0.0000 1.5500 0.0000
v 0.0000 1.5500 0.0000
v 0.0000 1.5500 0.0000
v 0.0000 1.5500 0.0000
v -0.0000 1.5500 0.0000
v -0.0000 1.5500 0.0000
v -0.0000 1.5500 0.0000
v -0.0000 1.5500 0.0000
v -0.0000 1.5500 -0.0000
v -0.0000 1.5500 -0.0000
v -0.0000 1.5500 -0.0000
v 0.0000 1.5500 -0.0000
v 0.0000 1.5500 -0.0000
v 0.0000 1.5500 -0.0000
v 0.0000 1.5500 -0.0000
v 0.0000 1.7600 0.1000
v 0.0000 1.7600 0.1000
v 0.0000 1.7600 0.1000
v 0.0000 1.7600 0.1000
v 0.0000 1.7600 0.1000
v 0.0000 1.7600 0.1000
v 0.0000 1.7600 0.1000
v 0.0000 1.7600 0.1000
v 0.0000 1.7600 0.1000
v 0.0000 1.7600 0.1000
v 0.0000 1.7600 0.1000
v 0.0651 1.7521 0.1000
v 0.0527 1.7521 0.1255
v 0.0201 1.7521 0.1413
v -0.0201 1.7521 0.1413
v -0.0527 1.7521 0.1255
v -0.0651 1.7521 0.1000
v -0.0527 1.7521 0.0745
v -0.0201 1.7521 0.0587
v 0.0201 1.7521 0.0587
v 0.0527 1.7521 0.0745
v 0.0651 1.7521 0.1000
v 0.1173 1.7299 0.1000
v 0.0949 1.7299 0.1460
v 0.0362 1.7299 0.1744
v -0.0362 1.7299 0.1744
v -0.0949 1.7299 0.1460
v -0.1173 1.7299 0.1000
v -0.0949 1.7299 0.0540
v -0.0362 1.7299 0.0256
v 0.0362 1.7299 0.0256
v 0.0949 1.7299 0.0540
v 0.1173 1.7299 0.1000
v 0.1462 1.6978 0.1000
v 0.1183 1.6978 0.1573
v 0.0452 1.6978 0.1927
v -0.0452 1.6978 0.1927
v -0.1183 1.6978 0.1573
v -0.1462 1.6978 0.1000
v -0.1183 1.6978 0.0427
v -0.0452 1.6978 0.0073
v 0.0452 1.6978 0.0073
v 0.1183 1.6978 0.0427
v 0.1462 1.6978 0.1000
v 0.1462 1.6622 0.1000
v 0.1183 1.6622 0.1573
v 0.0452 1.6622 0.1927
v -0.0452 1.6622 0.1927
v -0.1183 1.6622 0.1573
v -0.1462 1.6622 0.1000
v -0.1183 1.6622 0.0427
v -0.0452 1.6622 0.0073
v 0.0452 1.6622 0.0073
v 0.1183 1.6622 0.0427
v 0.1462 1.6622 0.1000
v 0.1173 1.6301 0.1000
v 0.0949 1.6301 0.1460
v 0.0362 1.6301 0.1744
v -0.0362 1.6301 0.1744
v -0.0949 1.6301 0.1460
v -0.1173 1.6301 0.1000
v -0.0949 1.6301 0.0540
v -0.0362 1.6301 0.0256
v 0.0362 1.6301 0.0256
v 0.0949 1.6301 0.0540
v 0.1173 1.6301 0.1000
v 0.0651 1.6079 0.1000
v 0.0527 1.6079 0.1255
v 0.0201 1.6079 0.1413
v -0.0201 1.6079 0.1413
v -0.0527 1.6079 0.1255
v -0.0651 1.6079 0.1000
v -0.0527 1.6079 0.0745
v -0.0201 1.6079 0.0587
v 0.0201 1.6079 0.0587
v 0.0527 1.6079 0.0745
v 0.0651 1.6079 0.1000
v 0.0000 1.6000 0.1000
v 0.0000 1.6000 0.1000
v 0.0000 1.6000 0.1000
v -0.0000 1.6000 0.1000
v -0.0000 1.6000 0.1000
v -0.0000 1.6000 0.1000
v -0.0000 1.6000 0.1000
v -0.0000 1.6000 0.1000
v 0.0000 1.6000 0.1000
v 0.0000 1.6000 0.1000
v 0.0000 1.6000 0.1000
v -0.0750 1.8850 0.1600
v -0.0750 1.8850 0.1600
v -0.0750 1.8850 0.1600
v -0.0750 1.8850 0.1600
v -0.0750 1.8850 0.1600
v -0.0750 1.8850 0.1600
v -0.0750 1.8850 0.1600
v -0.0750 1.8850 0.1600
v -0.0750 1.8850 0.1600
v -0.0750 1.8850 0.1600
v -0.0750 1.8850 0.1600
v -0.0598 1.8825 0.1600
v -0.0627 1.8825 0.1638
v -0.0703 1.8825 0.1662
v -0.0797 1.8825 0.1662
v -0.0873 1.8825 0.1638
v -0.0902 1.8825 0.1600
v -0.0873 1.8825 0.1562
v -0.0797 1.8825 0.1538
v -0.0703 1.8825 0.1538
v -0.0627 1.8825 0.1562
v -0.0598 1.8825 0.1600
v -0.0476 1.8756 0.1600
v -0.0529 1.8756 0.1669
v -0.0665 1.8756 0.1712
v -0.0835 1.8756 0.1712
v -0.0971 1.8756 0.1669
v -0.1024 1.8756 0.1600
v -0.0971 1.8756 0.1531
v -0.0835 1.8756 0.1488
v -0.0665 1.8756 0.1488
v -0.0529 1.8756 0.1531
v -0.0476 1.8756 0.1600
v -0.0409 1.8656 0.1600
v -0.0474 1.8656 0.1686
v -0.0645 1.8656 0.1739
v -0.0855 1.8656 0.1739
v -0.1026 1.8656 0.1686
v -0.1091 1.8656 0.1600
v -0.1026 1.8656 0.1514
v -0.0855 1.8656 0.1461
v -0.0645 1.8656 0.1461
v -0.0474 1.8656 0.1514
v -0.0409 1.8656 0.1600
v -0.0409 1.8544 0.1600
v -0.0474 1.8544 0.1686
v -0.0645 1.8544 0.1739
v -0.0855 1.8544 0.1739
v -0.1026 1.8544 0.1686
v -0.1091 1.8544 0.1600
v -0.1026 1.8544 0.1514
v -0.0855 1.8544 0.1461
v -0.0645 1.8544 0.1461
v -0.0474 1.8544 0.1514
v -0.0409 1.8544 0.1600
v -0.0476 1.8444 0.1600
v -0.0529 1.8444 0.1669
v -0.0665 1.8444 0.1712
v -0.0835 1.8444 0.1712
v -0.0971 1.8444 0.1669
v -0.1024 1.8444 0.1600
v -0.0971 1.8444 0.1531
v -0.0835 1.8444 0.1488
v -0.0665 1.8444 0.1488
v -0.0529 1.8444 0.1531
v -0.0476 1.8444 0.1600
v -0.0598 1.8375 0.1600
v -0.0627 1.8375 0.1638
v -0.0703 1.8375 0.1662
v -0.0797 1.8375 0.1662
v -0.0873 1.8375 0.1638
v -0.0902 1.8375 0.1600
v -0.0873 1.8375 0.1562
v -0.0797 1.8375 0.1538
v -0.0703 1.8375 0.1538
v -0.0627 1.8375 0.1562
v -0.0598 1.8375 0.1600
v -0.0750 1.8350 0.1600
v -0.0750 1.8350 0.1600
v -0.0750 1.8350 0.1600
v -0.0750 1.8350 0.1600
v -0.0750 1.8350 0.1600
v -0.0750 1.8350 0.1600
v -0.0750 1.8350 0.1600
v -0.0750 1.8350 0.1600
v -0.0750 1.8350 0.1600
v -0.0750 1.8350 0.1600
v -0.0750 1.8350 0.1600
v 0.0750 1.8820 0.1600
v 0.0750 1.8820 0.1600
v 0.0750 1.8820 0.1600
v 0.0750 1.8820 0.1600
v 0.0750 1.8820 0.1600
v 0.0750 1.8820 0.1600
v 0.0750 1.8820 0.1600
v 0.0750 1.8820 0.1600
v 0.0750 1.8820 0.1600
v 0.0750 1.8820 0.1600
v 0.0750 1.8820 0.1600
v 0.0880 1.8798 0.1600
v 0.0855 1.8798 0.1638
v 0.0790 1.8798 0.1662
v 0.0710 1.8798 0.1662
v 0.0645 1.8798 0.1638
v 0.0620 1.8798 0.1600
v 0.0645 1.8798 0.1562
v 0.0710 1.8798 0.1538
v 0.0790 1.8798 0.1538
v 0.0855 1.8798 0.1562
v 0.0880 1.8798 0.1600
v 0.0985 1.8737 0.1600
v 0.0940 1.8737 0.1669
v 0.0822 1.8737 0.1712
v 0.0678 1.8737 0.1712
v 0.0560 1.8737 0.1669
v 0.0515 1.8737 0.1600
v 0.0560 1.8737 0.1531
v 0.0678 1.8737 0.1488
v 0.0822 1.8737 0.1488
v 0.0940 1.8737 0.1531
v 0.0985 1.8737 0.1600
v 0.1042 1.8649 0.1600
v 0.0987 1.8649 0.1686
v 0.0840 1.8649 0.1739
v 0.0660 1.8649 0.1739
v 0.0513 1.8649 0.1686
v 0.0458 1.8649 0.1600
v 0.0513 1.8649 0.1514
v 0.0660 1.8649 0.1461
v 0.0840 1.8649 0.1461
v 0.0987 1.8649 0.1514
v 0.1042 1.8649 0.1600
v 0.1042 1.8551 0.1600
v 0.0987 1.8551 0.1686
v 0.0840 1.8551 0.1739
v 0.0660 1.8551 0.1739
v 0.0513 1.8551 0.1686
v 0.0458 1.8551 0.1600
v 0.0513 1.8551 0.1514
v 0.0660 1.8551 0.1461
v 0.0840 1.8551 0.1461
v 0.0987 1.8551 0.1514
v 0.1042 1.8551 0.1600
v 0.0985 1.8463 0.1600
v 0.0940 1.8463 0.1669
v 0.0822 1.8463 0.1712
v 0.0678 1.8463 0.1712
v 0.0560 1.8463 0.1669
v 0.0515 1.8463 0.1600
v 0.0560 1.8463 0.1531
v 0.0678 1.8463 0.1488
v 0.0822 1.8463 0.1488
v 0.0940 1.8463 0.1531
v 0.0985 1.8463 0.1600
v 0.0880 1.8402 0.1600
v 0.0855 1.8402 0.1638
v 0.0790 1.8402 0.1662
v 0.0710 1.8402 0.1662
v 0.0645 1.8402 0.1638
v 0.0620 1.8402 0.1600
v 0.0645 1.8402 0.1562
v 0.0710 1.8402 0.1538
v 0.0790 1.8402 0.1538
v 0.0855 1.8402 0.1562
v 0.0880 1.8402 0.1600
v 0.0750 1.8380 0.1600
v 0.0750 1.8380 0.1600
v 0.0750 1.8380 0.1600
v 0.0750 1.8380 0.1600
v 0.0750 1.8380 0.1600
v 0.0750 1.8380 0.1600
v 0.0750 1.8380 0.1600
v 0.0750 1.8380 0.1600
v 0.0750 1.8380 0.1600
v 0.0750 1.8380 0.1600
v 0.0750 1.8380 0.1600
v 0.0200 2.0120 0.1600
v 0.0200 2.0120 0.1600
v 0.0200 2.0120 0.1600
v 0.0200 2.0120 0.1600
v 0.0200 2.0120 0.1600
v 0.0200 2.0120 0.1600
v 0.0200 2.0120 0.1600
v 0.0200 2.0120 0.1600
v 0.0200 2.0120 0.1600
v 0.0200 2.0120 0.1600
v 0.0200 2.0120 0.1600
v 0.0460 2.0098 0.1600
v 0.0411 2.0098 0.1631
v 0.0280 2.0098 0.1650
v 0.0120 2.0098 0.1650
v -0.0011 2.0098 0.1631
v -0.0060 2.0098 0.1600
v -0.0011 2.0098 0.1569
v 0.0120 2.0098 0.1550
v 0.0280 2.0098 0.1550
v 0.0411 2.0098 0.1569
v 0.0460 2.0098 0.1600
v 0.0669 2.0037 0.1600
v 0.0580 2.0037 0.1655
v 0.0345 2.0037 0.1689
v 0.0055 2.0037 0.1689
v -0.0180 2.0037 0.1655
v -0.0269 2.0037 0.1600
v -0.0180 2.0037 0.1545
v 0.0055 2.0037 0.1511
v 0.0345 2.0037 0.1511
v 0.0580 2.0037 0.1545
v 0.0669 2.0037 0.1600
v 0.0785 1.9949 0.1600
v 0.0673 1.9949 0.1669
v 0.0381 1.9949 0.1711
v 0.0019 1.9949 0.1711
v -0.0273 1.9949 0.1669
v -0.0385 1.9949 0.1600
v -0.0273 1.9949 0.1531
v 0.0019 1.9949 0.1489
v 0.0381 1.9949 0.1489
v 0.0673 1.9949 0.1531
v 0.0785 1.9949 0.1600
v 0.0785 1.9851 0.1600
v 0.0673 1.9851 0.1669
v 0.0381 1.9851 0.1711
v 0.0019 1.9851 0.1711
v -0.0273 1.9851 0.1669
v -0.0385 1.9851 0.1600
v -0.0273 1.9851 0.1531
v 0.0019 1.9851 0.1489
v 0.0381 1.9851 0.1489
v 0.0673 1.9851 0.1531
v 0.0785 1.9851 0.1600
v 0.0669 1.9763 0.1600
v 0.0580 1.9763 0.1655
v 0.0345 1.9763 0.1689
v 0.0055 1.9763 0.1689
v -0.0180 1.9763 0.1655
v -0.0269 1.9763 0.1600
v -0.0180 1.9763 0.1545
v 0.0055 1.9763 0.1511
v 0.0345 1.9763 0.1511
v 0.0580 1.9763 0.1545
v 0.0669 1.9763 0.1600
v 0.0460 1.9702 0.1600
v 0.0411 1.9702 0.1631
v 0.0280 1.9702 0.1650
v 0.0120 1.9702 0.1650
v -0.0011 1.9702 0.1631
v -0.0060 1.9702 0.1600
v -0.0011 1.9702 0.1569
v 0.0120 1.9702 0.1550
v 0.0280 1.9702 0.1550
v 0.0411 1.9702 0.1569
v 0.0460 1.9702 0.1600
v 0.0200 1.9680 0.1600
v 0.0200 1.9680 0.1600
v 0.0200 1.9680 0.1600
v 0.0200 1.9680 0.1600
v 0.0200 1.9680 0.1600
v 0.0200 1.9680 0.1600
v 0.0200 1.9680 0.1600
v 0.0200 1.9680 0.1600
v 0.0200 1.9680 0.1600
v 0.0200 1.9680 0.1600
v 0.0200 1.9680 0.1600
v -0.3400 1.5400 0.0000
v -0.3400 1.5400 0.0000
v -0.3400 1.5400 0.0000
v -0.3400 1.5400 0.0000
v -0.3400 1.5400 0.0000
v -0.3400 1.5400 0.0000
v -0.3400 1.5400 0.0000
v -0.3400 1.5400 0.0000
v -0.3400 1.5400 0.0000
v -0.3400 1.5400 0.0000
v -0.3400 1.5400 0.0000
v -0.2749 1.5242 0.0000
v -0.2873 1.5242 0.0383
v -0.3199 1.5242 0.0619
v -0.3601 1.5242 0.0619
v -0.3927 1.5242 0.0383
v -0.4051 1.5242 0.0000
v -0.3927 1.5242 -0.0383
v -0.3601 1.5242 -0.0619
v -0.3199 1.5242 -0.0619
v -0.2873 1.5242 -0.0383
v -0.2749 1.5242 -0.0000
v -0.2227 1.4798 0.0000
v -0.2451 1.4798 0.0689
v -0.3038 1.4798 0.1115
v -0.3762 1.4798 0.1115
v -0.4349 1.4798 0.0689
v -0.4573 1.4798 0.0000
v -0.4349 1.4798 -0.0689
v -0.3762 1.4798 -0.1115
v -0.3038 1.4798 -0.1115
v -0.2451 1.4798 -0.0689
v -0.2227 1.4798 -0.0000
v -0.1938 1.4156 0.0000
v -0.2217 1.4156 0.0860
v -0.2948 1.4156 0.1391
v -0.3852 1.4156 0.1391
v -0.4583 1.4156 0.0860
v -0.4862 1.4156 0.0000
v -0.4583 1.4156 -0.0860
v -0.3852 1.4156 -0.1391
v -0.2948 1.4156 -0.1391
v -0.2217 1.4156 -0.0860
v -0.1938 1.4156 -0.0000
v -0.1938 1.3444 0.0000
v -0.2217 1.3444 0.0860
v -0.2948 1.3444 0.1391
v -0.3852 1.3444 0.1391
v -0.4583 1.3444 0.0860
v -0.4862 1.3444 0.0000
v -0.4583 1.3444 -0.0860
v -0.3852 1.3444 -0.1391
v -0.2948 1.3444 -0.1391
v -0.2217 1.3444 -0.0860
v -0.1938 1.3444 -0.0000
v -0.2227 1.2802 0.0000
v -0.2451 1.2802 0.0689
v -0.3038 1.2802 0.1115
v -0.3762 1.2802 0.1115
v -0.4349 1.2802 0.0689
v -0.4573 1.2802 0.0000
v -0.4349 1.2802 -0.0689
v -0.3762 1.2802 -0.1115
v -0.3038 1.2802 -0.1115
v -0.2451 1.2802 -0.0689
v -0.2227 1.2802 -0.0000
v -0.2749 1.2358 0.0000
v -0.2873 1.2358 0.0383
v -0.3199 1.2358 0.0619
v -0.3601 1.2358 0.0619
v -0.3927 1.2358 0.0383
v -0.4051 1.2358 0.0000
v -0.3927 1.2358 -0.0383
v -0.3601 1.2358 -0.0619
v -0.3199 1.2358 -0.0619
v -0.2873 1.2358 -0.0383
v -0.2749 1.2358 -0.0000
v -0.3400 1.2200 0.0000
v -0.3400 1.2200 0.0000
v -0.3400 1.2200 0.0000
v -0.3400 1.2200 0.0000
v -0.3400 1.2200 0.0000
v -0.3400 1.2200 0.0000
v -0.3400 1.2200 -0.0000
v -0.3400 1.2200 -0.0000
v -0.3400 1.2200 -0.0000
v -0.3400 1.2200 -0.0000
v -0.3400 1.2200 -0.0000
v -0.4467 1.3600 -0.0593
v -0.4079 1.3124 -0.0804
v -0.3509 1.2830 -0.0708
v -0.2973 1.2830 -0.0341
v -0.2677 1.3124 0.0155
v -0.2733 1.3600 0.0593
v -0.3121 1.4076 0.0804
v -0.3691 1.4370 0.0708
v -0.4227 1.4370 0.0341
v -0.4523 1.4076 -0.0155
v -0.5767 1.1700 0.1307
v -0.5379 1.1224 0.1096
v -0.4809 1.0930 0.1192
v -0.4273 1.0930 0.1559
v -0.3977 1.1224 0.2055
v -0.4033 1.1700 0.2493
v -0.4421 1.2176 0.2704
v -0.4991 1.2470 0.2608
v -0.5527 1.2470 0.2241
v -0.5823 1.2176 0.1745
v -0.4900 1.2550 0.1900
v -0.4900 1.2550 0.1900
v -0.4900 1.2550 0.1900
v -0.4900 1.2550 0.1900
v -0.4900 1.2550 0.1900
v -0.4900 1.2550 0.1900
v -0.4900 1.2550 0.1900
v -0.4900 1.2550 0.1900
v -0.4900 1.2550 0.1900
v -0.4900 1.2550 0.1900
v -0.4900 1.2550 0.1900
v -0.4531 1.2466 0.1900
v -0.4602 1.2466 0.2117
v -0.4786 1.2466 0.2251
v -0.5014 1.2466 0.2251
v -0.5198 1.2466 0.2117
v -0.5269 1.2466 0.1900
v -0.5198 1.2466 0.1683
v -0.5014 1.2466 0.1549
v -0.4786 1.2466 0.1549
v -0.4602 1.2466 0.1683
v -0.4531 1.2466 0.1900
v -0.4235 1.2230 0.1900
v -0.4362 1.2230 0.2291
v -0.4695 1.2230 0.2532
v -0.5105 1.2230 0.2532
v -0.5438 1.2230 0.2291
v -0.5565 1.2230 0.1900
v -0.5438 1.2230 0.1509
v -0.5105 1.2230 0.1268
v -0.4695 1.2230 0.1268
v -0.4362 1.2230 0.1509
v -0.4235 1.2230 0.1900
v -0.4071 1.1889 0.1900
v -0.4230 1.1889 0.2387
v -0.4644 1.1889 0.2688
v -0.5156 1.1889 0.2688
v -0.5570 1.1889 0.2387
v -0.5729 1.1889 0.1900
v -0.5570 1.1889 0.1413
v -0.5156 1.1889 0.1112
v -0.4644 1.1889 0.1112
v -0.4230 1.1889 0.1413
v -0.4071 1.1889 0.1900
v -0.4071 1.1511 0.1900
v -0.4230 1.1511 0.2387
v -0.4644 1.1511 0.2688
v -0.5156 1.1511 0.2688
v -0.5570 1.1511 0.2387
v -0.5729 1.1511 0.1900
v -0.5570 1.1511 0.1413
v -0.5156 1.1511 0.1112
v -0.4644 1.1511 0.1112
v -0.4230 1.1511 0.1413
v -0.4071 1.1511 0.1900
v -0.4235 1.1170 0.1900
v -0.4362 1.1170 0.2291
v -0.4695 1.1170 0.2532
v -0.5105 1.1170 0.2532
v -0.5438 1.1170 0.2291
v -0.5565 1.1170 0.1900
v -0.5438 1.1170 0.1509
v -0.5105 1.1170 0.1268
v -0.4695 1.1170 0.1268
v -0.4362 1.1170 0.1509
v -0.4235 1.1170 0.1900
v -0.4531 1.0934 0.1900
v -0.4602 1.0934 0.2117
v -0.4786 1.0934 0.2251
v -0.5014 1.0934 0.2251
v -0.5198 1.0934 0.2117
v -0.5269 1.0934 0.1900
v -0.5198 1.0934 0.1683
v -0.5014 1.0934 0.1549
v -0.4786 1.0934 0.1549
v -0.4602 1.0934 0.1683
v -0.4531 1.0934 0.1900
v -0.4900 1.0850 0.1900
v -0.4900 1.0850 0.1900
v -0.4900 1.0850 0.1900
v -0.4900 1.0850 0.1900
v -0.4900 1.0850 0.1900
v -0.4900 1.0850 0.1900
v -0.4900 1.0850 0.1900
v -0.4900 1.0850 0.1900
v -0.4900 1.0850 0.1900
v -0.4900 1.0850 0.1900
v -0.4900 1.0850 0.1900
v -0.5556 1.1700 0.1721
v -0.5373 1.1366 0.1543
v -0.5009 1.1160 0.1502
v -0.4604 1.1160 0.1612
v -0.4311 1.1366 0.1833
v -0.4244 1.1700 0.2079
v -0.4427 1.2034 0.2257
v -0.4791 1.2240 0.2298
v -0.5196 1.2240 0.2188
v -0.5489 1.2034 0.1967
v -0.6156 1.0200 0.3921
v -0.5973 0.9866 0.3743
v -0.5609 0.9660 0.3702
v -0.5204 0.9660 0.3812
v -0.4911 0.9866 0.4033
v -0.4844 1.0200 0.4279
v -0.5027 1.0534 0.4457
v -0.5391 1.0740 0.4498
v -0.5796 1.0740 0.4388
v -0.6089 1.0534 0.4167
v -0.5500 1.0850 0.4300
v -0.5500 1.0850 0.4300
v -0.5500 1.0850 0.4300
v -0.5500 1.0850 0.4300
v -0.5500 1.0850 0.4300
v -0.5500 1.0850 0.4300
v -0.5500 1.0850 0.4300
v -0.5500 1.0850 0.4300
v -0.5500 1.0850 0.4300
v -0.5500 1.0850 0.4300
v -0.5500 1.0850 0.4300
v -0.5196 1.0766 0.4300
v -0.5254 1.0766 0.4453
v -0.5406 1.0766 0.4548
v -0.5594 1.0766 0.4548
v -0.5746 1.0766 0.4453
v -0.5804 1.0766 0.4300
v -0.5746 1.0766 0.4147
v -0.5594 1.0766 0.4052
v -0.5406 1.0766 0.4052
v -0.5254 1.0766 0.4147
v -0.5196 1.0766 0.4300
v -0.4953 1.0530 0.4300
v -0.5057 1.0530 0.4576
v -0.5331 1.0530 0.4746
v -0.5669 1.0530 0.4746
v -0.5943 1.0530 0.4576
v -0.6047 1.0530 0.4300
v -0.5943 1.0530 0.4024
v -0.5669 1.0530 0.3854
v -0.5331 1.0530 0.3854
v -0.5057 1.0530 0.4024
v -0.4953 1.0530 0.4300
v -0.4818 1.0189 0.4300
v -0.4948 1.0189 0.4644
v -0.5289 1.0189 0.4856
v -0.5711 1.0189 0.4856
v -0.6052 1.0189 0.4644
v -0.6182 1.0189 0.4300
v -0.6052 1.0189 0.3956
v -0.5711 1.0189 0.3744
v -0.5289 1.0189 0.3744
v -0.4948 1.0189 0.3956
v -0.4818 1.0189 0.4300
v -0.4818 0.9811 0.4300
v -0.4948 0.9811 0.4644
v -0.5289 0.9811 0.4856
v -0.5711 0.9811 0.4856
v -0.6052 0.9811 0.4644
v -0.6182 0.9811 0.4300
v -0.6052 0.9811 0.3956
v -0.5711 0.9811 0.3744
v -0.5289 0.9811 0.3744
v -0.4948 0.9811 0.3956
v -0.4818 0.9811 0.4300
v -0.4953 0.9470 0.4300
v -0.5057 0.9470 0.4576
v -0.5331 0.9470 0.4746
v -0.5669 0.9470 0.4746
v -0.5943 0.9470 0.4576
v -0.6047 0.9470 0.4300
v -0.5943 0.9470 0.4024
v -0.5669 0.9470 0.3854
v -0.5331 0.9470 0.3854
v -0.5057 0.9470 0.4024
v -0.4953 0.9470 0.4300
v -0.5196 0.9234 0.4300
v -0.5254 0.9234 0.4453
v -0.5406 0.9234 0.4548
v -0.5594 0.9234 0.4548
v -0.5746 0.9234 0.4453
v -0.5804 0.9234 0.4300
v -0.5746 0.9234 0.4147
v -0.5594 0.9234 0.4052
v -0.5406 0.9234 0.4052
v -0.5254 0.9234 0.4147
v -0.5196 0.9234 0.4300
v -0.5500 0.9150 0.4300
v -0.5500 0.9150 0.4300
v -0.5500 0.9150 0.4300
v -0.5500 0.9150 0.4300
v -0.5500 0.9150 0.4300
v -0.5500 0.9150 0.4300
v -0.5500 0.9150 0.4300
v -0.5500 0.9150 0.4300
v -0.5500 0.9150 0.4300
v -0.5500 0.9150 0.4300
v -0.5500 0.9150 0.4300
v -0.6009 0.9900 0.4586
v -0.5941 0.9826 0.4520
v -0.5822 0.9826 0.4534
v -0.5771 0.9900 0.4614
v -0.5839 0.9974 0.4680
v -0.5958 0.9974 0.4666
v -0.6069 0.9400 0.5086
v -0.6001 0.9326 0.5020
v -0.5882 0.9326 0.5034
v -0.5831 0.9400 0.5114
v -0.5899 0.9474 0.5180
v -0.6018 0.9474 0.5166
v -0.5750 0.9900 0.4595
v -0.5687 0.9826 0.4524
v -0.5567 0.9826 0.4529
v -0.5510 0.9900 0.4605
v -0.5573 0.9974 0.4676
v -0.5693 0.9974 0.4671
v -0.5770 0.9400 0.5095
v -0.5707 0.9326 0.5024
v -0.5587 0.9326 0.5029
v -0.5530 0.9400 0.5105
v -0.5593 0.9474 0.5176
v -0.5713 0.9474 0.5171
v -0.5490 0.9900 0.4605
v -0.5433 0.9826 0.4529
v -0.5313 0.9826 0.4524
v -0.5250 0.9900 0.4595
v -0.5307 0.9974 0.4671
v -0.5427 0.9974 0.4676
v -0.5470 0.9400 0.5105
v -0.5413 0.9326 0.5029
v -0.5293 0.9326 0.5024
v -0.5230 0.9400 0.5095
v -0.5287 0.9474 0.5171
v -0.5407 0.9474 0.5176
v -0.5229 0.9900 0.4614
v -0.5178 0.9826 0.4534
v -0.5059 0.9826 0.4520
v -0.4991 0.9900 0.4586
v -0.5042 0.9974 0.4666
v -0.5161 0.9974 0.4680
v -0.5169 0.9400 0.5114
v -0.5118 0.9326 0.5034
v -0.4999 0.9326 0.5020
v -0.4931 0.9400 0.5086
v -0.4982 0.9474 0.5166
v -0.5101 0.9474 0.5180
v -0.1400 0.7726 0.1150
v -0.2072 0.7795 0.0928
v -0.2487 0.7829 0.0353
v -0.2487 0.7813 -0.0358
v -0.2072 0.7754 -0.0932
v -0.1400 0.7674 -0.1150
v -0.0728 0.7605 -0.0928
v -0.0313 0.7571 -0.0353
v -0.0313 0.7587 0.0358
v -0.0728 0.7646 0.0932
v -0.1900 0.3226 0.1250
v -0.2572 0.3295 0.1028
v -0.2987 0.3329 0.0453
v -0.2987 0.3313 -0.0258
v -0.2572 0.3254 -0.0832
v -0.1900 0.3174 -0.1050
v -0.1228 0.3105 -0.0828
v -0.0813 0.3071 -0.0253
v -0.0813 0.3087 0.0458
v -0.1228 0.3146 0.1032
v -0.1900 0.4100 0.0100
v -0.1900 0.4100 0.0100
v -0.1900 0.4100 0.0100
v -0.1900 0.4100 0.0100
v -0.1900 0.4100 0.0100
v -0.1900 0.4100 0.0100
v -0.1900 0.4100 0.0100
v -0.1900 0.4100 0.0100
v -0.1900 0.4100 0.0100
v -0.1900 0.4100 0.0100
v -0.1900 0.4100 0.0100
v -0.1531 0.4011 0.0100
v -0.1602 0.4011 0.0304
v -0.1786 0.4011 0.0430
v -0.2014 0.4011 0.0430
v -0.2198 0.4011 0.0304
v -0.2269 0.4011 0.0100
v -0.2198 0.4011 -0.0104
v -0.2014 0.4011 -0.0230
v -0.1786 0.4011 -0.0230
v -0.1602 0.4011 -0.0104
v -0.1531 0.4011 0.0100
v -0.1235 0.3761 0.0100
v -0.1362 0.3761 0.0468
v -0.1695 0.3761 0.0695
v -0.2105 0.3761 0.0695
v -0.2438 0.3761 0.0468
v -0.2565 0.3761 0.0100
v -0.2438 0.3761 -0.0268
v -0.2105 0.3761 -0.0495
v -0.1695 0.3761 -0.0495
v -0.1362 0.3761 -0.0268
v -0.1235 0.3761 0.0100
v -0.1071 0.3400 0.0100
v -0.1230 0.3400 0.0558
v -0.1644 0.3400 0.0842
v -0.2156 0.3400 0.0842
v -0.2570 0.3400 0.0558
v -0.2729 0.3400 0.0100
v -0.2570 0.3400 -0.0358
v -0.2156 0.3400 -0.0642
v -0.1644 0.3400 -0.0642
v -0.1230 0.3400 -0.0358
v -0.1071 0.3400 0.0100
v -0.1071 0.3000 0.0100
v -0.1230 0.3000 0.0558
v -0.1644 0.3000 0.0842
v -0.2156 0.3000 0.0842
v -0.2570 0.3000 0.0558
v -0.2729 0.3000 0.0100
v -0.2570 0.3000 -0.0358
v -0.2156 0.3000 -0.0642
v -0.1644 0.3000 -0.0642
v -0.1230 0.3000 -0.0358
v -0.1071 0.3000 0.0100
v -0.1235 0.2639 0.0100
v -0.1362 0.2639 0.0468
v -0.1695 0.2639 0.0695
v -0.2105 0.2639 0.0695
v -0.2438 0.2639 0.0468
v -0.2565 0.2639 0.0100
v -0.2438 0.2639 -0.0268
v -0.2105 0.2639 -0.0495
v -0.1695 0.2639 -0.0495
v -0.1362 0.2639 -0.0268
v -0.1235 0.2639 0.0100
v -0.1531 0.2389 0.0100
v -0.1602 0.2389 0.0304
v -0.1786 0.2389 0.0430
v -0.2014 0.2389 0.0430
v -0.2198 0.2389 0.0304
v -0.2269 0.2389 0.0100
v -0.2198 0.2389 -0.0104
v -0.2014 0.2389 -0.0230
v -0.1786 0.2389 -0.0230
v -0.1602 0.2389 -0.0104
v -0.1531 0.2389 0.0100
v -0.1900 0.2300 0.0100
v -0.1900 0.2300 0.0100
v -0.1900 0.2300 0.0100
v -0.1900 0.2300 0.0100
v -0.1900 0.2300 0.0100
v -0.1900 0.2300 0.0100
v -0.1900 0.2300 0.0100
v -0.1900 0.2300 0.0100
v -0.1900 0.2300 0.0100
v -0.1900 0.2300 0.0100
v -0.1900 0.2300 0.0100
v -0.1900 0.2877 0.0796
v -0.2349 0.2884 0.0630
v -0.2588 0.2851 0.0217
v -0.2505 0.2795 -0.0252
v -0.2139 0.2740 -0.0555
v -0.1661 0.2714 -0.0552
v -0.1295 0.2728 -0.0244
v -0.1212 0.2776 0.0225
v -0.1451 0.2835 0.0636
v -0.2000 0.1077 0.0996
v -0.2449 0.1084 0.0830
v -0.2688 0.1051 0.0417
v -0.2605 0.0995 -0.0052
v -0.2239 0.0940 -0.0355
v -0.1761 0.0914 -0.0352
v -0.1395 0.0928 -0.0044
v -0.1312 0.0976 0.0425
v -0.1551 0.1035 0.0836
v -0.2850 0.0050 -0.0550
v -0.1150 0.0050 -0.0550
v -0.1150 0.1250 -0.0550
v -0.2850 0.1250 -0.0550
v -0.2850 0.0050 0.2150
v -0.1150 0.0050 0.2150
v -0.1150 0.1250 0.2150
v -0.2850 0.1250 0.2150
v -0.2450 1.1900 0.2125
v -0.1550 1.1900 0.2125
v -0.1550 1.2500 0.2125
v -0.2450 1.2500 0.2125
v -0.2450 1.1900 0.2275
v -0.1550 1.1900 0.2275
v -0.1550 1.2500 0.2275
v -0.2450 1.2500 0.2275
v 0.3400 1.5400 0.0000
v 0.3400 1.5400 0.0000
v 0.3400 1.5400 0.0000
v 0.3400 1.5400 0.0000
v 0.3400 1.5400 0.0000
v 0.3400 1.5400 0.0000
v 0.3400 1.5400 0.0000
v 0.3400 1.5400 0.0000
v 0.3400 1.5400 0.0000
v 0.3400 1.5400 0.0000
v 0.3400 1.5400 0.0000
v 0.4051 1.5242 0.0000
v 0.3927 1.5242 0.0383
v 0.3601 1.5242 0.0619
v 0.3199 1.5242 0.0619
v 0.2873 1.5242 0.0383
v 0.2749 1.5242 0.0000
v 0.2873 1.5242 -0.0383
v 0.3199 1.5242 -0.0619
v 0.3601 1.5242 -0.0619
v 0.3927 1.5242 -0.0383
v 0.4051 1.5242 -0.0000
v 0.4573 1.4798 0.0000
v 0.4349 1.4798 0.0689
v 0.3762 1.4798 0.1115
v 0.3038 1.4798 0.1115
v 0.2451 1.4798 0.0689
v 0.2227 1.4798 0.0000
v 0.2451 1.4798 -0.0689
v 0.3038 1.4798 -0.1115
v 0.3762 1.4798 -0.1115
v 0.4349 1.4798 -0.0689
v 0.4573 1.4798 -0.0000
v 0.4862 1.4156 0.0000
v 0.4583 1.4156 0.0860
v 0.3852 1.4156 0.1391
v 0.2948 1.4156 0.1391
v 0.2217 1.4156 0.0860
v 0.1938 1.4156 0.0000
v 0.2217 1.4156 -0.0860
v 0.2948 1.4156 -0.1391
v 0.3852 1.4156 -0.1391
v 0.4583 1.4156 -0.0860
v 0.4862 1.4156 -0.0000
v 0.4862 1.3444 0.0000
v 0.4583 1.3444 0.0860
v 0.3852 1.3444 0.1391
v 0.2948 1.3444 0.1391
v 0.2217 1.3444 0.0860
v 0.1938 1.3444 0.0000
v 0.2217 1.3444 -0.0860
v 0.2948 1.3444 -0.1391
v 0.3852 1.3444 -0.1391
v 0.4583 1.3444 -0.0860
v 0.4862 1.3444 -0.0000
v 0.4573 1.2802 0.0000
v 0.4349 1.2802 0.0689
v 0.3762 1.2802 0.1115
v 0.3038 1.2802 0.1115
v 0.2451 1.2802 0.0689
v 0.2227 1.2802 0.0000
v 0.2451 1.2802 -0.0689
v 0.3038 1.2802 -0.1115
v 0.3762 1.2802 -0.1115
v 0.4349 1.2802 -0.0689
v 0.4573 1.2802 -0.0000
v 0.4051 1.2358 0.0000
v 0.3927 1.2358 0.0383
v 0.3601 1.2358 0.0619
v 0.3199 1.2358 0.0619
v 0.2873 1.2358 0.0383
v 0.2749 1.2358 0.0000
v 0.2873 1.2358 -0.0383
v 0.3199 1.2358 -0.0619
v 0.3601 1.2358 -0.0619
v 0.3927 1.2358 -0.0383
v 0.4051 1.2358 -0.0000
v 0.3400 1.2200 0.0000
v 0.3400 1.2200 0.0000
v 0.3400 1.2200 0.0000
v 0.3400 1.2200 0.0000
v 0.3400 1.2200 0.0000
v 0.3400 1.2200 0.0000
v 0.3400 1.2200 -0.0000
v 0.3400 1.2200 -0.0000
v 0.3400 1.2200 -0.0000
v 0.3400 1.2200 -0.0000
v 0.3400 1.2200 -0.0000
v 0.2733 1.3600 0.0593
v 0.2677 1.3124 0.0155
v 0.2973 1.2830 -0.0341
v 0.3509 1.2830 -0.0708
v 0.4079 1.3124 -0.0804
v 0.4467 1.3600 -0.0593
v 0.4523 1.4076 -0.0155
v 0.4227 1.4370 0.0341
v 0.3691 1.4370 0.0708
v 0.3121 1.4076 0.0804
v 0.4033 1.1700 0.2493
v 0.3977 1.1224 0.2055
v 0.4273 1.0930 0.1559
v 0.4809 1.0930 0.1192
v 0.5379 1.1224 0.1096
v 0.5767 1.1700 0.1307
v 0.5823 1.2176 0.1745
v 0.5527 1.2470 0.2241
v 0.4991 1.2470 0.2608
v 0.4421 1.2176 0.2704
v 0.4900 1.2550 0.1900
v 0.4900 1.2550 0.1900
v 0.4900 1.2550 0.1900
v 0.4900 1.2550 0.1900
v 0.4900 1.2550 0.1900
v 0.4900 1.2550 0.1900
v 0.4900 1.2550 0.1900
v 0.4900 1.2550 0.1900
v 0.4900 1.2550 0.1900
v 0.4900 1.2550 0.1900
v 0.4900 1.2550 0.1900
v 0.5269 1.2466 0.1900
v 0.5198 1.2466 0.2117
v 0.5014 1.2466 0.2251
v 0.4786 1.2466 0.2251
v 0.4602 1.2466 0.2117
v 0.4531 1.2466 0.1900
v 0.4602 1.2466 0.1683
v 0.4786 1.2466 0.1549
v 0.5014 1.2466 0.1549
v 0.5198 1.2466 0.1683
v 0.5269 1.2466 0.1900
v 0.5565 1.2230 0.1900
v 0.5438 1.2230 0.2291
v 0.5105 1.2230 0.2532
v 0.4695 1.2230 0.2532
v 0.4362 1.2230 0.2291
v 0.4235 1.2230 0.1900
v 0.4362 1.2230 0.1509
v 0.4695 1.2230 0.1268
v 0.5105 1.2230 0.1268
v 0.5438 1.2230 0.1509
v 0.5565 1.2230 0.1900
v 0.5729 1.1889 0.1900
v 0.5570 1.1889 0.2387
v 0.5156 1.1889 0.2688
v 0.4644 1.1889 0.2688
v 0.4230 1.1889 0.2387
v 0.4071 1.1889 0.1900
v 0.4230 1.1889 0.1413
v 0.4644 1.1889 0.1112
v 0.5156 1.1889 0.1112
v 0.5570 1.1889 0.1413
v 0.5729 1.1889 0.1900
v 0.5729 1.1511 0.1900
v 0.5570 1.1511 0.2387
v 0.5156 1.1511 0.2688
v 0.4644 1.1511 0.2688
v 0.4230 1.1511 0.2387
v 0.4071 1.1511 0.1900
v 0.4230 1.1511 0.1413
v 0.4644 1.1511 0.1112
v 0.5156 1.1511 0.1112
v 0.5570 1.1511 0.1413
v 0.5729 1.1511 0.1900
v 0.5565 1.1170 0.1900
v 0.5438 1.1170 0.2291
v 0.5105 1.1170 0.2532
v 0.4695 1.1170 0.2532
v 0.4362 1.1170 0.2291
v 0.4235 1.1170 0.1900
v 0.4362 1.1170 0.1509
v 0.4695 1.1170 0.1268
v 0.5105 1.1170 0.1268
v 0.5438 1.1170 0.1509
v 0.5565 1.1170 0.1900
v 0.5269 1.0934 0.1900
v 0.5198 1.0934 0.2117
v 0.5014 1.0934 0.2251
v 0.4786 1.0934 0.2251
v 0.4602 1.0934 0.2117
v 0.4531 1.0934 0.1900
v 0.4602 1.0934 0.1683
v 0.4786 1.0934 0.1549
v 0.5014 1.0934 0.1549
v 0.5198 1.0934 0.1683
v 0.5269 1.0934 0.1900
v 0.4900 1.0850 0.1900
v 0.4900 1.0850 0.1900
v 0.4900 1.0850 0.1900
v 0.4900 1.0850 0.1900
v 0.4900 1.0850 0.1900
v 0.4900 1.0850 0.1900
v 0.4900 1.0850 0.1900
v 0.4900 1.0850 0.1900
v 0.4900 1.0850 0.1900
v 0.4900 1.0850 0.1900
v 0.4900 1.0850 0.1900
v 0.4244 1.1700 0.2079
v 0.4311 1.1366 0.1833
v 0.4604 1.1160 0.1612
v 0.5009 1.1160 0.1502
v 0.5373 1.1366 0.1543
v 0.5556 1.1700 0.1721
v 0.5489 1.2034 0.1967
v 0.5196 1.2240 0.2188
v 0.4791 1.2240 0.2298
v 0.4427 1.2034 0.2257
v 0.4844 1.0200 0.4279
v 0.4911 0.9866 0.4033
v 0.5204 0.9660 0.3812
v 0.5609 0.9660 0.3702
v 0.5973 0.9866 0.3743
v 0.6156 1.0200 0.3921
v 0.6089 1.0534 0.4167
v 0.5796 1.0740 0.4388
v 0.5391 1.0740 0.4498
v 0.5027 1.0534 0.4457
v 0.5500 1.0850 0.4300
v 0.5500 1.0850 0.4300
v 0.5500 1.0850 0.4300
v 0.5500 1.0850 0.4300
v 0.5500 1.0850 0.4300
v 0.5500 1.0850 0.4300
v 0.5500 1.0850 0.4300
v 0.5500 1.0850 0.4300
v 0.5500 1.0850 0.4300
v 0.5500 1.0850 0.4300
v 0.5500 1.0850 0.4300
v 0.5804 1.0766 0.4300
v 0.5746 1.0766 0.4453
v 0.5594 1.0766 0.4548
v 0.5406 1.0766 0.4548
v 0.5254 1.0766 0.4453
v 0.5196 1.0766 0.4300
v 0.5254 1.0766 0.4147
v 0.5406 1.0766 0.4052
v 0.5594 1.0766 0.4052
v 0.5746 1.0766 0.4147
v 0.5804 1.0766 0.4300
v 0.6047 1.0530 0.4300
v 0.5943 1.0530 0.4576
v 0.5669 1.0530 0.4746
v 0.5331 1.0530 0.4746
v 0.5057 1.0530 0.4576
v 0.4953 1.0530 0.4300
v 0.5057 1.0530 0.4024
v 0.5331 1.0530 0.3854
v 0.5669 1.0530 0.3854
v 0.5943 1.0530 0.4024
v 0.6047 1.0530 0.4300
v 0.6182 1.0189 0.4300
v 0.6052 1.0189 0.4644
v 0.5711 1.0189 0.4856
v 0.5289 1.0189 0.4856
v 0.4948 1.0189 0.4644
v 0.4818 1.0189 0.4300
v 0.4948 1.0189 0.3956
v 0.5289 1.0189 0.3744
v 0.5711 1.0189 0.3744
v 0.6052 1.0189 0.3956
v 0.6182 1.0189 0.4300
v 0.6182 0.9811 0.4300
v 0.6052 0.9811 0.4644
v 0.5711 0.9811 0.4856
v 0.5289 0.9811 0.4856
v 0.4948 0.9811 0.4644
v 0.4818 0.9811 0.4300
v 0.4948 0.9811 0.3956
v 0.5289 0.9811 0.3744
v 0.5711 0.9811 0.3744
v 0.6052 0.9811 0.3956
v 0.6182 0.9811 0.4300
v 0.6047 0.9470 0.4300
v 0.5943 0.9470 0.4576
v 0.5669 0.9470 0.4746
v 0.5331 0.9470 0.4746
v 0.5057 0.9470 0.4576
v 0.4953 0.9470 0.4300
v 0.5057 0.9470 0.4024
v 0.5331 0.9470 0.3854
v 0.5669 0.9470 0.3854
v 0.5943 0.9470 0.4024
v 0.6047 0.9470 0.4300
v 0.5804 0.9234 0.4300
v 0.5746 0.9234 0.4453
v 0.5594 0.9234 0.4548
v 0.5406 0.9234 0.4548
v 0.5254 0.9234 0.4453
v 0.5196 0.9234 0.4300
v 0.5254 0.9234 0.4147
v 0.5406 0.9234 0.4052
v 0.5594 0.9234 0.4052
v 0.5746 0.9234 0.4147
v 0.5804 0.9234 0.4300
v 0.5500 0.9150 0.4300
v 0.5500 0.9150 0.4300
v 0.5500 0.9150 0.4300
v 0.5500 0.9150 0.4300
v 0.5500 0.9150 0.4300
v 0.5500 0.9150 0.4300
v 0.5500 0.9150 0.4300
v 0.5500 0.9150 0.4300
v 0.5500 0.9150 0.4300
v 0.5500 0.9150 0.4300
v 0.5500 0.9150 0.4300
v 0.4991 0.9900 0.4586
v 0.5059 0.9826 0.4520
v 0.5178 0.9826 0.4534
v 0.5229 0.9900 0.4614
v 0.5161 0.9974 0.4680
v 0.5042 0.9974 0.4666
v 0.4931 0.9400 0.5086
v 0.4999 0.9326 0.5020
v 0.5118 0.9326 0.5034
v 0.5169 0.9400 0.5114
v 0.5101 0.9474 0.5180
v 0.4982 0.9474 0.5166
v 0.5250 0.9900 0.4595
v 0.5313 0.9826 0.4524
v 0.5433 0.9826 0.4529
v 0.5490 0.9900 0.4605
v 0.5427 0.9974 0.4676
v 0.5307 0.9974 0.4671
v 0.5230 0.9400 0.5095
v 0.5293 0.9326 0.5024
v 0.5413 0.9326 0.5029
v 0.5470 0.9400 0.5105
v 0.5407 0.9474 0.5176
v 0.5287 0.9474 0.5171
v 0.5510 0.9900 0.4605
v 0.5567 0.9826 0.4529
v 0.5687 0.9826 0.4524
v 0.5750 0.9900 0.4595
v 0.5693 0.9974 0.4671
v 0.5573 0.9974 0.4676
v 0.5530 0.9400 0.5105
v 0.5587 0.9326 0.5029
v 0.5707 0.9326 0.5024
v 0.5770 0.9400 0.5095
v 0.5713 0.9474 0.5171
v 0.5593 0.9474 0.5176
v 0.5771 0.9900 0.4614
v 0.5822 0.9826 0.4534
v 0.5941 0.9826 0.4520
v 0.6009 0.9900 0.4586
v 0.5958 0.9974 0.4666
v 0.5839 0.9974 0.4680
v 0.5831 0.9400 0.5114
v 0.5882 0.9326 0.5034
v 0.6001 0.9326 0.5020
v 0.6069 0.9400 0.5086
v 0.6018 0.9474 0.5166
v 0.5899 0.9474 0.5180
v 0.1400 0.7726 0.1150
v 0.0728 0.7646 0.0932
v 0.0313 0.7587 0.0358
v 0.0313 0.7571 -0.0353
v 0.0728 0.7605 -0.0928
v 0.1400 0.7674 -0.1150
v 0.2072 0.7754 -0.0932
v 0.2487 0.7813 -0.0358
v 0.2487 0.7829 0.0353
v 0.2072 0.7795 0.0928
v 0.1900 0.3226 0.1250
v 0.1228 0.3146 0.1032
v 0.0813 0.3087 0.0458
v 0.0813 0.3071 -0.0253
v 0.1228 0.3105 -0.0828
v 0.1900 0.3174 -0.1050
v 0.2572 0.3254 -0.0832
v 0.2987 0.3313 -0.0258
v 0.2987 0.3329 0.0453
v 0.2572 0.3295 0.1028
v 0.1900 0.4100 0.0100
v 0.1900 0.4100 0.0100
v 0.1900 0.4100 0.0100
v 0.1900 0.4100 0.0100
v 0.1900 0.4100 0.0100
v 0.1900 0.4100 0.0100
v 0.1900 0.4100 0.0100
v 0.1900 0.4100 0.0100
v 0.1900 0.4100 0.0100
v 0.1900 0.4100 0.0100
v 0.1900 0.4100 0.0100
v 0.2269 0.4011 0.0100
v 0.2198 0.4011 0.0304
v 0.2014 0.4011 0.0430
v 0.1786 0.4011 0.0430
v 0.1602 0.4011 0.0304
v 0.1531 0.4011 0.0100
v 0.1602 0.4011 -0.0104
v 0.1786 0.4011 -0.0230
v 0.2014 0.4011 -0.0230
v 0.2198 0.4011 -0.0104
v 0.2269 0.4011 0.0100
v 0.2565 0.3761 0.0100
v 0.2438 0.3761 0.0468
v 0.2105 0.3761 0.0695
v 0.1695 0.3761 0.0695
v 0.1362 0.3761 0.0468
v 0.1235 0.3761 0.0100
v 0.1362 0.3761 -0.0268
v 0.1695 0.3761 -0.0495
v 0.2105 0.3761 -0.0495
v 0.2438 0.3761 -0.0268
v 0.2565 0.3761 0.0100
v 0.2729 0.3400 0.0100
v 0.2570 0.3400 0.0558
v 0.2156 0.3400 0.0842
v 0.1644 0.3400 0.0842
v 0.1230 0.3400 0.0558
v 0.1071 0.3400 0.0100
v 0.1230 0.3400 -0.0358
v 0.1644 0.3400 -0.0642
v 0.2156 0.3400 -0.0642
v 0.2570 0.3400 -0.0358
v 0.2729 0.3400 0.0100
v 0.2729 0.3000 0.0100
v 0.2570 0.3000 0.0558
v 0.2156 0.3000 0.0842
v 0.1644 0.3000 0.0842
v 0.1230 0.3000 0.0558
v 0.1071 0.3000 0.0100
v 0.1230 0.3000 -0.0358
v 0.1644 0.3000 -0.0642
v 0.2156 0.3000 -0.0642
v 0.2570 0.3000 -0.0358
v 0.2729 0.3000 0.0100
v 0.2565 0.2639 0.0100
v 0.2438 0.2639 0.0468
v 0.2105 0.2639 0.0695
v 0.1695 0.2639 0.0695
v 0.1362 0.2639 0.0468
v 0.1235 0.2639 0.0100
v 0.1362 0.2639 -0.0268
v 0.1695 0.2639 -0.0495
v 0.2105 0.2639 -0.0495
v 0.2438 0.2639 -0.0268
v 0.2565 0.2639 0.0100
v 0.2269 0.2389 0.0100
v 0.2198 0.2389 0.0304
v 0.2014 0.2389 0.0430
v 0.1786 0.2389 0.0430
v 0.1602 0.2389 0.0304
v 0.1531 0.2389 0.0100
v 0.1602 0.2389 -0.0104
v 0.1786 0.2389 -0.0230
v 0.2014 0.2389 -0.0230
v 0.2198 0.2389 -0.0104
v 0.2269 0.2389 0.0100
v 0.1900 0.2300 0.0100
v 0.1900 0.2300 0.0100
v 0.1900 0.2300 0.0100
v 0.1900 0.2300 0.0100
v 0.1900 0.2300 0.0100
v 0.1900 0.2300 0.0100
v 0.1900 0.2300 0.0100
v 0.1900 0.2300 0.0100
v 0.1900 0.2300 0.0100
v 0.1900 0.2300 0.0100
v 0.1900 0.2300 0.0100
v 0.1900 0.2877 0.0796
v 0.1451 0.2835 0.0636
v 0.1212 0.2776 0.0225
v 0.1295 0.2728 -0.0244
v 0.1661 0.2714 -0.0552
v 0.2139 0.2740 -0.0555
v 0.2505 0.2795 -0.0252
v 0.2588 0.2851 0.0217
v 0.2349 0.2884 0.0630
v 0.2000 0.1077 0.0996
v 0.1551 0.1035 0.0836
v 0.1312 0.0976 0.0425
v 0.1395 0.0928 -0.0044
v 0.1761 0.0914 -0.0352
v 0.2239 0.0940 -0.0355
v 0.2605 0.0995 -0.0052
v 0.2688 0.1051 0.0417
v 0.2449 0.1084 0.0830
v 0.1150 0.0050 -0.0550
v 0.2850 0.0050 -0.0550
v 0.2850 0.1250 -0.0550
v 0.1150 0.1250 -0.0550
v 0.1150 0.0050 0.2150
v 0.2850 0.0050 0.2150
v 0.2850 0.1250 0.2150
v 0.1150 0.1250 0.2150
v 0.1550 1.1900 0.2125
v 0.2450 1.1900 0.2125
v 0.2450 1.2500 0.2125
v 0.1550 1.2500 0.2125
v 0.1550 1.1900 0.2275
v 0.2450 1.1900 0.2275
v 0.2450 1.2500 0.2275
v 0.1550 1.2500 0.2275
v -0.3250 0.8950 0.0150
v -0.2550 0.8950 0.0150
v -0.2550 1.0850 0.0150
v -0.3250 1.0850 0.0150
v -0.3250 0.8950 0.0650
v -0.2550 0.8950 0.0650
v -0.2550 1.0850 0.0650
v -0.3250 1.0850 0.0650
v 0.2550 0.8450 0.0150
v 0.3250 0.8450 0.0150
v 0.3250 0.9950 0.0150
v 0.2550 0.9950 0.0150
v 0.2550 0.8450 0.0650
v 0.3250 0.8450 0.0650
v 0.3250 0.9950 0.0650
v 0.2550 0.9950 0.0650
g Torso_uniforme
usemtl orange
g Pelvis
usemtl cloth
g Cuello
usemtl skin
g Cabeza
usemtl skin
g Mandibula
usemtl cloth
g Ojo_herido
usemtl wound
g Ojo_vacio
usemtl cloth
g Herida_frente
usemtl wound
g Hombro_-1
usemtl orange
g Manga_-1
usemtl orange
g Codo_-1
usemtl cloth
g Antebrazo_-1
usemtl skin
g Mano_-1
usemtl skin
g Dedo_-1_0
usemtl skin
g Dedo_-1_1
usemtl skin
g Dedo_-1_2
usemtl skin
g Dedo_-1_3
usemtl skin
g Pierna_-1
usemtl orange
g Rodilla_-1
usemtl cloth
g Espinilla_-1
usemtl skin
g Bota_-1
usemtl cloth
g Parche_-1
usemtl rust
g Hombro_1
usemtl orange
g Manga_1
usemtl orange
g Codo_1
usemtl cloth
g Antebrazo_1
usemtl skin
g Mano_1
usemtl skin
g Dedo_1_0
usemtl skin
g Dedo_1_1
usemtl skin
g Dedo_1_2
usemtl skin
g Dedo_1_3
usemtl skin
g Pierna_1
usemtl orange
g Rodilla_1
usemtl cloth
g Espinilla_1
usemtl skin
g Bota_1
usemtl cloth
g Parche_1
usemtl rust
g Tela_rota_izq
usemtl cloth
g Tela_rota_der
usemtl rust
f 1 16 17
f 1 17 2
f 2 17 18
f 2 18 3
f 3 18 19
f 3 19 4
f 4 19 20
f 4 20 5
f 5 20 21
f 5 21 6
f 6 21 22
f 6 22 7
f 7 22 23
f 7 23 8
f 8 23 24
f 8 24 9
f 9 24 25
f 9 25 10
f 10 25 26
f 10 26 11
f 11 26 27
f 11 27 12
f 12 27 28
f 12 28 13
f 13 28 29
f 13 29 14
f 14 29 30
f 14 30 15
f 16 31 32
f 16 32 17
f 17 32 33
f 17 33 18
f 18 33 34
f 18 34 19
f 19 34 35
f 19 35 20
f 20 35 36
f 20 36 21
f 21 36 37
f 21 37 22
f 22 37 38
f 22 38 23
f 23 38 39
f 23 39 24
f 24 39 40
f 24 40 25
f 25 40 41
f 25 41 26
f 26 41 42
f 26 42 27
f 27 42 43
f 27 43 28
f 28 43 44
f 28 44 29
f 29 44 45
f 29 45 30
f 31 46 47
f 31 47 32
f 32 47 48
f 32 48 33
f 33 48 49
f 33 49 34
f 34 49 50
f 34 50 35
f 35 50 51
f 35 51 36
f 36 51 52
f 36 52 37
f 37 52 53
f 37 53 38
f 38 53 54
f 38 54 39
f 39 54 55
f 39 55 40
f 40 55 56
f 40 56 41
f 41 56 57
f 41 57 42
f 42 57 58
f 42 58 43
f 43 58 59
f 43 59 44
f 44 59 60
f 44 60 45
f 46 61 62
f 46 62 47
f 47 62 63
f 47 63 48
f 48 63 64
f 48 64 49
f 49 64 65
f 49 65 50
f 50 65 66
f 50 66 51
f 51 66 67
f 51 67 52
f 52 67 68
f 52 68 53
f 53 68 69
f 53 69 54
f 54 69 70
f 54 70 55
f 55 70 71
f 55 71 56
f 56 71 72
f 56 72 57
f 57 72 73
f 57 73 58
f 58 73 74
f 58 74 59
f 59 74 75
f 59 75 60
f 61 76 77
f 61 77 62
f 62 77 78
f 62 78 63
f 63 78 79
f 63 79 64
f 64 79 80
f 64 80 65
f 65 80 81
f 65 81 66
f 66 81 82
f 66 82 67
f 67 82 83
f 67 83 68
f 68 83 84
f 68 84 69
f 69 84 85
f 69 85 70
f 70 85 86
f 70 86 71
f 71 86 87
f 71 87 72
f 72 87 88
f 72 88 73
f 73 88 89
f 73 89 74
f 74 89 90
f 74 90 75
f 76 91 92
f 76 92 77
f 77 92 93
f 77 93 78
f 78 93 94
f 78 94 79
f 79 94 95
f 79 95 80
f 80 95 96
f 80 96 81
f 81 96 97
f 81 97 82
f 82 97 98
f 82 98 83
f 83 98 99
f 83 99 84
f 84 99 100
f 84 100 85
f 85 100 101
f 85 101 86
f 86 101 102
f 86 102 87
f 87 102 103
f 87 103 88
f 88 103 104
f 88 104 89
f 89 104 105
f 89 105 90
f 91 106 107
f 91 107 92
f 92 107 108
f 92 108 93
f 93 108 109
f 93 109 94
f 94 109 110
f 94 110 95
f 95 110 111
f 95 111 96
f 96 111 112
f 96 112 97
f 97 112 113
f 97 113 98
f 98 113 114
f 98 114 99
f 99 114 115
f 99 115 100
f 100 115 116
f 100 116 101
f 101 116 117
f 101 117 102
f 102 117 118
f 102 118 103
f 103 118 119
f 103 119 104
f 104 119 120
f 104 120 105
f 106 121 122
f 106 122 107
f 107 122 123
f 107 123 108
f 108 123 124
f 108 124 109
f 109 124 125
f 109 125 110
f 110 125 126
f 110 126 111
f 111 126 127
f 111 127 112
f 112 127 128
f 112 128 113
f 113 128 129
f 113 129 114
f 114 129 130
f 114 130 115
f 115 130 131
f 115 131 116
f 116 131 132
f 116 132 117
f 117 132 133
f 117 133 118
f 118 133 134
f 118 134 119
f 119 134 135
f 119 135 120
f 121 136 137
f 121 137 122
f 122 137 138
f 122 138 123
f 123 138 139
f 123 139 124
f 124 139 140
f 124 140 125
f 125 140 141
f 125 141 126
f 126 141 142
f 126 142 127
f 127 142 143
f 127 143 128
f 128 143 144
f 128 144 129
f 129 144 145
f 129 145 130
f 130 145 146
f 130 146 131
f 131 146 147
f 131 147 132
f 132 147 148
f 132 148 133
f 133 148 149
f 133 149 134
f 134 149 150
f 134 150 135
f 136 151 152
f 136 152 137
f 137 152 153
f 137 153 138
f 138 153 154
f 138 154 139
f 139 154 155
f 139 155 140
f 140 155 156
f 140 156 141
f 141 156 157
f 141 157 142
f 142 157 158
f 142 158 143
f 143 158 159
f 143 159 144
f 144 159 160
f 144 160 145
f 145 160 161
f 145 161 146
f 146 161 162
f 146 162 147
f 147 162 163
f 147 163 148
f 148 163 164
f 148 164 149
f 149 164 165
f 149 165 150
f 166 177 178
f 166 178 167
f 167 178 179
f 167 179 168
f 168 179 180
f 168 180 169
f 169 180 181
f 169 181 170
f 170 181 182
f 170 182 171
f 171 182 183
f 171 183 172
f 172 183 184
f 172 184 173
f 173 184 185
f 173 185 174
f 174 185 186
f 174 186 175
f 175 186 187
f 175 187 176
f 177 188 189
f 177 189 178
f 178 189 190
f 178 190 179
f 179 190 191
f 179 191 180
f 180 191 192
f 180 192 181
f 181 192 193
f 181 193 182
f 182 193 194
f 182 194 183
f 183 194 195
f 183 195 184
f 184 195 196
f 184 196 185
f 185 196 197
f 185 197 186
f 186 197 198
f 186 198 187
f 188 199 200
f 188 200 189
f 189 200 201
f 189 201 190
f 190 201 202
f 190 202 191
f 191 202 203
f 191 203 192
f 192 203 204
f 192 204 193
f 193 204 205
f 193 205 194
f 194 205 206
f 194 206 195
f 195 206 207
f 195 207 196
f 196 207 208
f 196 208 197
f 197 208 209
f 197 209 198
f 199 210 211
f 199 211 200
f 200 211 212
f 200 212 201
f 201 212 213
f 201 213 202
f 202 213 214
f 202 214 203
f 203 214 215
f 203 215 204
f 204 215 216
f 204 216 205
f 205 216 217
f 205 217 206
f 206 217 218
f 206 218 207
f 207 218 219
f 207 219 208
f 208 219 220
f 208 220 209
f 210 221 222
f 210 222 211
f 211 222 223
f 211 223 212
f 212 223 224
f 212 224 213
f 213 224 225
f 213 225 214
f 214 225 226
f 214 226 215
f 215 226 227
f 215 227 216
f 216 227 228
f 216 228 217
f 217 228 229
f 217 229 218
f 218 229 230
f 218 230 219
f 219 230 231
f 219 231 220
f 221 232 233
f 221 233 222
f 222 233 234
f 222 234 223
f 223 234 235
f 223 235 224
f 224 235 236
f 224 236 225
f 225 236 237
f 225 237 226
f 226 237 238
f 226 238 227
f 227 238 239
f 227 239 228
f 228 239 240
f 228 240 229
f 229 240 241
f 229 241 230
f 230 241 242
f 230 242 231
f 232 243 244
f 232 244 233
f 233 244 245
f 233 245 234
f 234 245 246
f 234 246 235
f 235 246 247
f 235 247 236
f 236 247 248
f 236 248 237
f 237 248 249
f 237 249 238
f 238 249 250
f 238 250 239
f 239 250 251
f 239 251 240
f 240 251 252
f 240 252 241
f 241 252 253
f 241 253 242
f 254 265 266
f 254 266 255
f 255 266 267
f 255 267 256
f 256 267 268
f 256 268 257
f 257 268 269
f 257 269 258
f 258 269 270
f 258 270 259
f 259 270 271
f 259 271 260
f 260 271 272
f 260 272 261
f 261 272 273
f 261 273 262
f 262 273 274
f 262 274 263
f 263 274 275
f 263 275 264
f 265 276 277
f 265 277 266
f 266 277 278
f 266 278 267
f 267 278 279
f 267 279 268
f 268 279 280
f 268 280 269
f 269 280 281
f 269 281 270
f 270 281 282
f 270 282 271
f 271 282 283
f 271 283 272
f 272 283 284
f 272 284 273
f 273 284 285
f 273 285 274
f 274 285 286
f 274 286 275
f 276 287 288
f 276 288 277
f 277 288 289
f 277 289 278
f 278 289 290
f 278 290 279
f 279 290 291
f 279 291 280
f 280 291 292
f 280 292 281
f 281 292 293
f 281 293 282
f 282 293 294
f 282 294 283
f 283 294 295
f 283 295 284
f 284 295 296
f 284 296 285
f 285 296 297
f 285 297 286
f 287 298 299
f 287 299 288
f 288 299 300
f 288 300 289
f 289 300 301
f 289 301 290
f 290 301 302
f 290 302 291
f 291 302 303
f 291 303 292
f 292 303 304
f 292 304 293
f 293 304 305
f 293 305 294
f 294 305 306
f 294 306 295
f 295 306 307
f 295 307 296
f 296 307 308
f 296 308 297
f 298 309 310
f 298 310 299
f 299 310 311
f 299 311 300
f 300 311 312
f 300 312 301
f 301 312 313
f 301 313 302
f 302 313 314
f 302 314 303
f 303 314 315
f 303 315 304
f 304 315 316
f 304 316 305
f 305 316 317
f 305 317 306
f 306 317 318
f 306 318 307
f 307 318 319
f 307 319 308
f 309 320 321
f 309 321 310
f 310 321 322
f 310 322 311
f 311 322 323
f 311 323 312
f 312 323 324
f 312 324 313
f 313 324 325
f 313 325 314
f 314 325 326
f 314 326 315
f 315 326 327
f 315 327 316
f 316 327 328
f 316 328 317
f 317 328 329
f 317 329 318
f 318 329 330
f 318 330 319
f 320 331 332
f 320 332 321
f 321 332 333
f 321 333 322
f 322 333 334
f 322 334 323
f 323 334 335
f 323 335 324
f 324 335 336
f 324 336 325
f 325 336 337
f 325 337 326
f 326 337 338
f 326 338 327
f 327 338 339
f 327 339 328
f 328 339 340
f 328 340 329
f 329 340 341
f 329 341 330
f 342 357 358
f 342 358 343
f 343 358 359
f 343 359 344
f 344 359 360
f 344 360 345
f 345 360 361
f 345 361 346
f 346 361 362
f 346 362 347
f 347 362 363
f 347 363 348
f 348 363 364
f 348 364 349
f 349 364 365
f 349 365 350
f 350 365 366
f 350 366 351
f 351 366 367
f 351 367 352
f 352 367 368
f 352 368 353
f 353 368 369
f 353 369 354
f 354 369 370
f 354 370 355
f 355 370 371
f 355 371 356
f 357 372 373
f 357 373 358
f 358 373 374
f 358 374 359
f 359 374 375
f 359 375 360
f 360 375 376
f 360 376 361
f 361 376 377
f 361 377 362
f 362 377 378
f 362 378 363
f 363 378 379
f 363 379 364
f 364 379 380
f 364 380 365
f 365 380 381
f 365 381 366
f 366 381 382
f 366 382 367
f 367 382 383
f 367 383 368
f 368 383 384
f 368 384 369
f 369 384 385
f 369 385 370
f 370 385 386
f 370 386 371
f 372 387 388
f 372 388 373
f 373 388 389
f 373 389 374
f 374 389 390
f 374 390 375
f 375 390 391
f 375 391 376
f 376 391 392
f 376 392 377
f 377 392 393
f 377 393 378
f 378 393 394
f 378 394 379
f 379 394 395
f 379 395 380
f 380 395 396
f 380 396 381
f 381 396 397
f 381 397 382
f 382 397 398
f 382 398 383
f 383 398 399
f 383 399 384
f 384 399 400
f 384 400 385
f 385 400 401
f 385 401 386
f 387 402 403
f 387 403 388
f 388 403 404
f 388 404 389
f 389 404 405
f 389 405 390
f 390 405 406
f 390 406 391
f 391 406 407
f 391 407 392
f 392 407 408
f 392 408 393
f 393 408 409
f 393 409 394
f 394 409 410
f 394 410 395
f 395 410 411
f 395 411 396
f 396 411 412
f 396 412 397
f 397 412 413
f 397 413 398
f 398 413 414
f 398 414 399
f 399 414 415
f 399 415 400
f 400 415 416
f 400 416 401
f 402 417 418
f 402 418 403
f 403 418 419
f 403 419 404
f 404 419 420
f 404 420 405
f 405 420 421
f 405 421 406
f 406 421 422
f 406 422 407
f 407 422 423
f 407 423 408
f 408 423 424
f 408 424 409
f 409 424 425
f 409 425 410
f 410 425 426
f 410 426 411
f 411 426 427
f 411 427 412
f 412 427 428
f 412 428 413
f 413 428 429
f 413 429 414
f 414 429 430
f 414 430 415
f 415 430 431
f 415 431 416
f 417 432 433
f 417 433 418
f 418 433 434
f 418 434 419
f 419 434 435
f 419 435 420
f 420 435 436
f 420 436 421
f 421 436 437
f 421 437 422
f 422 437 438
f 422 438 423
f 423 438 439
f 423 439 424
f 424 439 440
f 424 440 425
f 425 440 441
f 425 441 426
f 426 441 442
f 426 442 427
f 427 442 443
f 427 443 428
f 428 443 444
f 428 444 429
f 429 444 445
f 429 445 430
f 430 445 446
f 430 446 431
f 432 447 448
f 432 448 433
f 433 448 449
f 433 449 434
f 434 449 450
f 434 450 435
f 435 450 451
f 435 451 436
f 436 451 452
f 436 452 437
f 437 452 453
f 437 453 438
f 438 453 454
f 438 454 439
f 439 454 455
f 439 455 440
f 440 455 456
f 440 456 441
f 441 456 457
f 441 457 442
f 442 457 458
f 442 458 443
f 443 458 459
f 443 459 444
f 444 459 460
f 444 460 445
f 445 460 461
f 445 461 446
f 447 462 463
f 447 463 448
f 448 463 464
f 448 464 449
f 449 464 465
f 449 465 450
f 450 465 466
f 450 466 451
f 451 466 467
f 451 467 452
f 452 467 468
f 452 468 453
f 453 468 469
f 453 469 454
f 454 469 470
f 454 470 455
f 455 470 471
f 455 471 456
f 456 471 472
f 456 472 457
f 457 472 473
f 457 473 458
f 458 473 474
f 458 474 459
f 459 474 475
f 459 475 460
f 460 475 476
f 460 476 461
f 462 477 478
f 462 478 463
f 463 478 479
f 463 479 464
f 464 479 480
f 464 480 465
f 465 480 481
f 465 481 466
f 466 481 482
f 466 482 467
f 467 482 483
f 467 483 468
f 468 483 484
f 468 484 469
f 469 484 485
f 469 485 470
f 470 485 486
f 470 486 471
f 471 486 487
f 471 487 472
f 472 487 488
f 472 488 473
f 473 488 489
f 473 489 474
f 474 489 490
f 474 490 475
f 475 490 491
f 475 491 476
f 477 492 493
f 477 493 478
f 478 493 494
f 478 494 479
f 479 494 495
f 479 495 480
f 480 495 496
f 480 496 481
f 481 496 497
f 481 497 482
f 482 497 498
f 482 498 483
f 483 498 499
f 483 499 484
f 484 499 500
f 484 500 485
f 485 500 501
f 485 501 486
f 486 501 502
f 486 502 487
f 487 502 503
f 487 503 488
f 488 503 504
f 488 504 489
f 489 504 505
f 489 505 490
f 490 505 506
f 490 506 491
f 507 518 519
f 507 519 508
f 508 519 520
f 508 520 509
f 509 520 521
f 509 521 510
f 510 521 522
f 510 522 511
f 511 522 523
f 511 523 512
f 512 523 524
f 512 524 513
f 513 524 525
f 513 525 514
f 514 525 526
f 514 526 515
f 515 526 527
f 515 527 516
f 516 527 528
f 516 528 517
f 518 529 530
f 518 530 519
f 519 530 531
f 519 531 520
f 520 531 532
f 520 532 521
f 521 532 533
f 521 533 522
f 522 533 534
f 522 534 523
f 523 534 535
f 523 535 524
f 524 535 536
f 524 536 525
f 525 536 537
f 525 537 526
f 526 537 538
f 526 538 527
f 527 538 539
f 527 539 528
f 529 540 541
f 529 541 530
f 530 541 542
f 530 542 531
f 531 542 543
f 531 543 532
f 532 543 544
f 532 544 533
f 533 544 545
f 533 545 534
f 534 545 546
f 534 546 535
f 535 546 547
f 535 547 536
f 536 547 548
f 536 548 537
f 537 548 549
f 537 549 538
f 538 549 550
f 538 550 539
f 540 551 552
f 540 552 541
f 541 552 553
f 541 553 542
f 542 553 554
f 542 554 543
f 543 554 555
f 543 555 544
f 544 555 556
f 544 556 545
f 545 556 557
f 545 557 546
f 546 557 558
f 546 558 547
f 547 558 559
f 547 559 548
f 548 559 560
f 548 560 549
f 549 560 561
f 549 561 550
f 551 562 563
f 551 563 552
f 552 563 564
f 552 564 553
f 553 564 565
f 553 565 554
f 554 565 566
f 554 566 555
f 555 566 567
f 555 567 556
f 556 567 568
f 556 568 557
f 557 568 569
f 557 569 558
f 558 569 570
f 558 570 559
f 559 570 571
f 559 571 560
f 560 571 572
f 560 572 561
f 562 573 574
f 562 574 563
f 563 574 575
f 563 575 564
f 564 575 576
f 564 576 565
f 565 576 577
f 565 577 566
f 566 577 578
f 566 578 567
f 567 578 579
f 567 579 568
f 568 579 580
f 568 580 569
f 569 580 581
f 569 581 570
f 570 581 582
f 570 582 571
f 571 582 583
f 571 583 572
f 573 584 585
f 573 585 574
f 574 585 586
f 574 586 575
f 575 586 587
f 575 587 576
f 576 587 588
f 576 588 577
f 577 588 589
f 577 589 578
f 578 589 590
f 578 590 579
f 579 590 591
f 579 591 580
f 580 591 592
f 580 592 581
f 581 592 593
f 581 593 582
f 582 593 594
f 582 594 583
f 595 606 607
f 595 607 596
f 596 607 608
f 596 608 597
f 597 608 609
f 597 609 598
f 598 609 610
f 598 610 599
f 599 610 611
f 599 611 600
f 600 611 612
f 600 612 601
f 601 612 613
f 601 613 602
f 602 613 614
f 602 614 603
f 603 614 615
f 603 615 604
f 604 615 616
f 604 616 605
f 606 617 618
f 606 618 607
f 607 618 619
f 607 619 608
f 608 619 620
f 608 620 609
f 609 620 621
f 609 621 610
f 610 621 622
f 610 622 611
f 611 622 623
f 611 623 612
f 612 623 624
f 612 624 613
f 613 624 625
f 613 625 614
f 614 625 626
f 614 626 615
f 615 626 627
f 615 627 616
f 617 628 629
f 617 629 618
f 618 629 630
f 618 630 619
f 619 630 631
f 619 631 620
f 620 631 632
f 620 632 621
f 621 632 633
f 621 633 622
f 622 633 634
f 622 634 623
f 623 634 635
f 623 635 624
f 624 635 636
f 624 636 625
f 625 636 637
f 625 637 626
f 626 637 638
f 626 638 627
f 628 639 640
f 628 640 629
f 629 640 641
f 629 641 630
f 630 641 642
f 630 642 631
f 631 642 643
f 631 643 632
f 632 643 644
f 632 644 633
f 633 644 645
f 633 645 634
f 634 645 646
f 634 646 635
f 635 646 647
f 635 647 636
f 636 647 648
f 636 648 637
f 637 648 649
f 637 649 638
f 639 650 651
f 639 651 640
f 640 651 652
f 640 652 641
f 641 652 653
f 641 653 642
f 642 653 654
f 642 654 643
f 643 654 655
f 643 655 644
f 644 655 656
f 644 656 645
f 645 656 657
f 645 657 646
f 646 657 658
f 646 658 647
f 647 658 659
f 647 659 648
f 648 659 660
f 648 660 649
f 650 661 662
f 650 662 651
f 651 662 663
f 651 663 652
f 652 663 664
f 652 664 653
f 653 664 665
f 653 665 654
f 654 665 666
f 654 666 655
f 655 666 667
f 655 667 656
f 656 667 668
f 656 668 657
f 657 668 669
f 657 669 658
f 658 669 670
f 658 670 659
f 659 670 671
f 659 671 660
f 661 672 673
f 661 673 662
f 662 673 674
f 662 674 663
f 663 674 675
f 663 675 664
f 664 675 676
f 664 676 665
f 665 676 677
f 665 677 666
f 666 677 678
f 666 678 667
f 667 678 679
f 667 679 668
f 668 679 680
f 668 680 669
f 669 680 681
f 669 681 670
f 670 681 682
f 670 682 671
f 683 694 695
f 683 695 684
f 684 695 696
f 684 696 685
f 685 696 697
f 685 697 686
f 686 697 698
f 686 698 687
f 687 698 699
f 687 699 688
f 688 699 700
f 688 700 689
f 689 700 701
f 689 701 690
f 690 701 702
f 690 702 691
f 691 702 703
f 691 703 692
f 692 703 704
f 692 704 693
f 694 705 706
f 694 706 695
f 695 706 707
f 695 707 696
f 696 707 708
f 696 708 697
f 697 708 709
f 697 709 698
f 698 709 710
f 698 710 699
f 699 710 711
f 699 711 700
f 700 711 712
f 700 712 701
f 701 712 713
f 701 713 702
f 702 713 714
f 702 714 703
f 703 714 715
f 703 715 704
f 705 716 717
f 705 717 706
f 706 717 718
f 706 718 707
f 707 718 719
f 707 719 708
f 708 719 720
f 708 720 709
f 709 720 721
f 709 721 710
f 710 721 722
f 710 722 711
f 711 722 723
f 711 723 712
f 712 723 724
f 712 724 713
f 713 724 725
f 713 725 714
f 714 725 726
f 714 726 715
f 716 727 728
f 716 728 717
f 717 728 729
f 717 729 718
f 718 729 730
f 718 730 719
f 719 730 731
f 719 731 720
f 720 731 732
f 720 732 721
f 721 732 733
f 721 733 722
f 722 733 734
f 722 734 723
f 723 734 735
f 723 735 724
f 724 735 736
f 724 736 725
f 725 736 737
f 725 737 726
f 727 738 739
f 727 739 728
f 728 739 740
f 728 740 729
f 729 740 741
f 729 741 730
f 730 741 742
f 730 742 731
f 731 742 743
f 731 743 732
f 732 743 744
f 732 744 733
f 733 744 745
f 733 745 734
f 734 745 746
f 734 746 735
f 735 746 747
f 735 747 736
f 736 747 748
f 736 748 737
f 738 749 750
f 738 750 739
f 739 750 751
f 739 751 740
f 740 751 752
f 740 752 741
f 741 752 753
f 741 753 742
f 742 753 754
f 742 754 743
f 743 754 755
f 743 755 744
f 744 755 756
f 744 756 745
f 745 756 757
f 745 757 746
f 746 757 758
f 746 758 747
f 747 758 759
f 747 759 748
f 749 760 761
f 749 761 750
f 750 761 762
f 750 762 751
f 751 762 763
f 751 763 752
f 752 763 764
f 752 764 753
f 753 764 765
f 753 765 754
f 754 765 766
f 754 766 755
f 755 766 767
f 755 767 756
f 756 767 768
f 756 768 757
f 757 768 769
f 757 769 758
f 758 769 770
f 758 770 759
f 771 782 783
f 771 783 772
f 772 783 784
f 772 784 773
f 773 784 785
f 773 785 774
f 774 785 786
f 774 786 775
f 775 786 787
f 775 787 776
f 776 787 788
f 776 788 777
f 777 788 789
f 777 789 778
f 778 789 790
f 778 790 779
f 779 790 791
f 779 791 780
f 780 791 792
f 780 792 781
f 782 793 794
f 782 794 783
f 783 794 795
f 783 795 784
f 784 795 796
f 784 796 785
f 785 796 797
f 785 797 786
f 786 797 798
f 786 798 787
f 787 798 799
f 787 799 788
f 788 799 800
f 788 800 789
f 789 800 801
f 789 801 790
f 790 801 802
f 790 802 791
f 791 802 803
f 791 803 792
f 793 804 805
f 793 805 794
f 794 805 806
f 794 806 795
f 795 806 807
f 795 807 796
f 796 807 808
f 796 808 797
f 797 808 809
f 797 809 798
f 798 809 810
f 798 810 799
f 799 810 811
f 799 811 800
f 800 811 812
f 800 812 801
f 801 812 813
f 801 813 802
f 802 813 814
f 802 814 803
f 804 815 816
f 804 816 805
f 805 816 817
f 805 817 806
f 806 817 818
f 806 818 807
f 807 818 819
f 807 819 808
f 808 819 820
f 808 820 809
f 809 820 821
f 809 821 810
f 810 821 822
f 810 822 811
f 811 822 823
f 811 823 812
f 812 823 824
f 812 824 813
f 813 824 825
f 813 825 814
f 815 826 827
f 815 827 816
f 816 827 828
f 816 828 817
f 817 828 829
f 817 829 818
f 818 829 830
f 818 830 819
f 819 830 831
f 819 831 820
f 820 831 832
f 820 832 821
f 821 832 833
f 821 833 822
f 822 833 834
f 822 834 823
f 823 834 835
f 823 835 824
f 824 835 836
f 824 836 825
f 826 837 838
f 826 838 827
f 827 838 839
f 827 839 828
f 828 839 840
f 828 840 829
f 829 840 841
f 829 841 830
f 830 841 842
f 830 842 831
f 831 842 843
f 831 843 832
f 832 843 844
f 832 844 833
f 833 844 845
f 833 845 834
f 834 845 846
f 834 846 835
f 835 846 847
f 835 847 836
f 837 848 849
f 837 849 838
f 838 849 850
f 838 850 839
f 839 850 851
f 839 851 840
f 840 851 852
f 840 852 841
f 841 852 853
f 841 853 842
f 842 853 854
f 842 854 843
f 843 854 855
f 843 855 844
f 844 855 856
f 844 856 845
f 845 856 857
f 845 857 846
f 846 857 858
f 846 858 847
f 859 870 871
f 859 871 860
f 860 871 872
f 860 872 861
f 861 872 873
f 861 873 862
f 862 873 874
f 862 874 863
f 863 874 875
f 863 875 864
f 864 875 876
f 864 876 865
f 865 876 877
f 865 877 866
f 866 877 878
f 866 878 867
f 867 878 879
f 867 879 868
f 868 879 880
f 868 880 869
f 870 881 882
f 870 882 871
f 871 882 883
f 871 883 872
f 872 883 884
f 872 884 873
f 873 884 885
f 873 885 874
f 874 885 886
f 874 886 875
f 875 886 887
f 875 887 876
f 876 887 888
f 876 888 877
f 877 888 889
f 877 889 878
f 878 889 890
f 878 890 879
f 879 890 891
f 879 891 880
f 881 892 893
f 881 893 882
f 882 893 894
f 882 894 883
f 883 894 895
f 883 895 884
f 884 895 896
f 884 896 885
f 885 896 897
f 885 897 886
f 886 897 898
f 886 898 887
f 887 898 899
f 887 899 888
f 888 899 900
f 888 900 889
f 889 900 901
f 889 901 890
f 890 901 902
f 890 902 891
f 892 903 904
f 892 904 893
f 893 904 905
f 893 905 894
f 894 905 906
f 894 906 895
f 895 906 907
f 895 907 896
f 896 907 908
f 896 908 897
f 897 908 909
f 897 909 898
f 898 909 910
f 898 910 899
f 899 910 911
f 899 911 900
f 900 911 912
f 900 912 901
f 901 912 913
f 901 913 902
f 903 914 915
f 903 915 904
f 904 915 916
f 904 916 905
f 905 916 917
f 905 917 906
f 906 917 918
f 906 918 907
f 907 918 919
f 907 919 908
f 908 919 920
f 908 920 909
f 909 920 921
f 909 921 910
f 910 921 922
f 910 922 911
f 911 922 923
f 911 923 912
f 912 923 924
f 912 924 913
f 914 925 926
f 914 926 915
f 915 926 927
f 915 927 916
f 916 927 928
f 916 928 917
f 917 928 929
f 917 929 918
f 918 929 930
f 918 930 919
f 919 930 931
f 919 931 920
f 920 931 932
f 920 932 921
f 921 932 933
f 921 933 922
f 922 933 934
f 922 934 923
f 923 934 935
f 923 935 924
f 925 936 937
f 925 937 926
f 926 937 938
f 926 938 927
f 927 938 939
f 927 939 928
f 928 939 940
f 928 940 929
f 929 940 941
f 929 941 930
f 930 941 942
f 930 942 931
f 931 942 943
f 931 943 932
f 932 943 944
f 932 944 933
f 933 944 945
f 933 945 934
f 934 945 946
f 934 946 935
f 947 948 958
f 947 958 957
f 948 949 959
f 948 959 958
f 949 950 960
f 949 960 959
f 950 951 961
f 950 961 960
f 951 952 962
f 951 962 961
f 952 953 963
f 952 963 962
f 953 954 964
f 953 964 963
f 954 955 965
f 954 965 964
f 955 956 966
f 955 966 965
f 956 947 957
f 956 957 966
f 967 978 979
f 967 979 968
f 968 979 980
f 968 980 969
f 969 980 981
f 969 981 970
f 970 981 982
f 970 982 971
f 971 982 983
f 971 983 972
f 972 983 984
f 972 984 973
f 973 984 985
f 973 985 974
f 974 985 986
f 974 986 975
f 975 986 987
f 975 987 976
f 976 987 988
f 976 988 977
f 978 989 990
f 978 990 979
f 979 990 991
f 979 991 980
f 980 991 992
f 980 992 981
f 981 992 993
f 981 993 982
f 982 993 994
f 982 994 983
f 983 994 995
f 983 995 984
f 984 995 996
f 984 996 985
f 985 996 997
f 985 997 986
f 986 997 998
f 986 998 987
f 987 998 999
f 987 999 988
f 989 1000 1001
f 989 1001 990
f 990 1001 1002
f 990 1002 991
f 991 1002 1003
f 991 1003 992
f 992 1003 1004
f 992 1004 993
f 993 1004 1005
f 993 1005 994
f 994 1005 1006
f 994 1006 995
f 995 1006 1007
f 995 1007 996
f 996 1007 1008
f 996 1008 997
f 997 1008 1009
f 997 1009 998
f 998 1009 1010
f 998 1010 999
f 1000 1011 1012
f 1000 1012 1001
f 1001 1012 1013
f 1001 1013 1002
f 1002 1013 1014
f 1002 1014 1003
f 1003 1014 1015
f 1003 1015 1004
f 1004 1015 1016
f 1004 1016 1005
f 1005 1016 1017
f 1005 1017 1006
f 1006 1017 1018
f 1006 1018 1007
f 1007 1018 1019
f 1007 1019 1008
f 1008 1019 1020
f 1008 1020 1009
f 1009 1020 1021
f 1009 1021 1010
f 1011 1022 1023
f 1011 1023 1012
f 1012 1023 1024
f 1012 1024 1013
f 1013 1024 1025
f 1013 1025 1014
f 1014 1025 1026
f 1014 1026 1015
f 1015 1026 1027
f 1015 1027 1016
f 1016 1027 1028
f 1016 1028 1017
f 1017 1028 1029
f 1017 1029 1018
f 1018 1029 1030
f 1018 1030 1019
f 1019 1030 1031
f 1019 1031 1020
f 1020 1031 1032
f 1020 1032 1021
f 1022 1033 1034
f 1022 1034 1023
f 1023 1034 1035
f 1023 1035 1024
f 1024 1035 1036
f 1024 1036 1025
f 1025 1036 1037
f 1025 1037 1026
f 1026 1037 1038
f 1026 1038 1027
f 1027 1038 1039
f 1027 1039 1028
f 1028 1039 1040
f 1028 1040 1029
f 1029 1040 1041
f 1029 1041 1030
f 1030 1041 1042
f 1030 1042 1031
f 1031 1042 1043
f 1031 1043 1032
f 1033 1044 1045
f 1033 1045 1034
f 1034 1045 1046
f 1034 1046 1035
f 1035 1046 1047
f 1035 1047 1036
f 1036 1047 1048
f 1036 1048 1037
f 1037 1048 1049
f 1037 1049 1038
f 1038 1049 1050
f 1038 1050 1039
f 1039 1050 1051
f 1039 1051 1040
f 1040 1051 1052
f 1040 1052 1041
f 1041 1052 1053
f 1041 1053 1042
f 1042 1053 1054
f 1042 1054 1043
f 1055 1056 1066
f 1055 1066 1065
f 1056 1057 1067
f 1056 1067 1066
f 1057 1058 1068
f 1057 1068 1067
f 1058 1059 1069
f 1058 1069 1068
f 1059 1060 1070
f 1059 1070 1069
f 1060 1061 1071
f 1060 1071 1070
f 1061 1062 1072
f 1061 1072 1071
f 1062 1063 1073
f 1062 1073 1072
f 1063 1064 1074
f 1063 1074 1073
f 1064 1055 1065
f 1064 1065 1074
f 1075 1086 1087
f 1075 1087 1076
f 1076 1087 1088
f 1076 1088 1077
f 1077 1088 1089
f 1077 1089 1078
f 1078 1089 1090
f 1078 1090 1079
f 1079 1090 1091
f 1079 1091 1080
f 1080 1091 1092
f 1080 1092 1081
f 1081 1092 1093
f 1081 1093 1082
f 1082 1093 1094
f 1082 1094 1083
f 1083 1094 1095
f 1083 1095 1084
f 1084 1095 1096
f 1084 1096 1085
f 1086 1097 1098
f 1086 1098 1087
f 1087 1098 1099
f 1087 1099 1088
f 1088 1099 1100
f 1088 1100 1089
f 1089 1100 1101
f 1089 1101 1090
f 1090 1101 1102
f 1090 1102 1091
f 1091 1102 1103
f 1091 1103 1092
f 1092 1103 1104
f 1092 1104 1093
f 1093 1104 1105
f 1093 1105 1094
f 1094 1105 1106
f 1094 1106 1095
f 1095 1106 1107
f 1095 1107 1096
f 1097 1108 1109
f 1097 1109 1098
f 1098 1109 1110
f 1098 1110 1099
f 1099 1110 1111
f 1099 1111 1100
f 1100 1111 1112
f 1100 1112 1101
f 1101 1112 1113
f 1101 1113 1102
f 1102 1113 1114
f 1102 1114 1103
f 1103 1114 1115
f 1103 1115 1104
f 1104 1115 1116
f 1104 1116 1105
f 1105 1116 1117
f 1105 1117 1106
f 1106 1117 1118
f 1106 1118 1107
f 1108 1119 1120
f 1108 1120 1109
f 1109 1120 1121
f 1109 1121 1110
f 1110 1121 1122
f 1110 1122 1111
f 1111 1122 1123
f 1111 1123 1112
f 1112 1123 1124
f 1112 1124 1113
f 1113 1124 1125
f 1113 1125 1114
f 1114 1125 1126
f 1114 1126 1115
f 1115 1126 1127
f 1115 1127 1116
f 1116 1127 1128
f 1116 1128 1117
f 1117 1128 1129
f 1117 1129 1118
f 1119 1130 1131
f 1119 1131 1120
f 1120 1131 1132
f 1120 1132 1121
f 1121 1132 1133
f 1121 1133 1122
f 1122 1133 1134
f 1122 1134 1123
f 1123 1134 1135
f 1123 1135 1124
f 1124 1135 1136
f 1124 1136 1125
f 1125 1136 1137
f 1125 1137 1126
f 1126 1137 1138
f 1126 1138 1127
f 1127 1138 1139
f 1127 1139 1128
f 1128 1139 1140
f 1128 1140 1129
f 1130 1141 1142
f 1130 1142 1131
f 1131 1142 1143
f 1131 1143 1132
f 1132 1143 1144
f 1132 1144 1133
f 1133 1144 1145
f 1133 1145 1134
f 1134 1145 1146
f 1134 1146 1135
f 1135 1146 1147
f 1135 1147 1136
f 1136 1147 1148
f 1136 1148 1137
f 1137 1148 1149
f 1137 1149 1138
f 1138 1149 1150
f 1138 1150 1139
f 1139 1150 1151
f 1139 1151 1140
f 1141 1152 1153
f 1141 1153 1142
f 1142 1153 1154
f 1142 1154 1143
f 1143 1154 1155
f 1143 1155 1144
f 1144 1155 1156
f 1144 1156 1145
f 1145 1156 1157
f 1145 1157 1146
f 1146 1157 1158
f 1146 1158 1147
f 1147 1158 1159
f 1147 1159 1148
f 1148 1159 1160
f 1148 1160 1149
f 1149 1160 1161
f 1149 1161 1150
f 1150 1161 1162
f 1150 1162 1151
f 1163 1164 1170
f 1163 1170 1169
f 1164 1165 1171
f 1164 1171 1170
f 1165 1166 1172
f 1165 1172 1171
f 1166 1167 1173
f 1166 1173 1172
f 1167 1168 1174
f 1167 1174 1173
f 1168 1163 1169
f 1168 1169 1174
f 1175 1176 1182
f 1175 1182 1181
f 1176 1177 1183
f 1176 1183 1182
f 1177 1178 1184
f 1177 1184 1183
f 1178 1179 1185
f 1178 1185 1184
f 1179 1180 1186
f 1179 1186 1185
f 1180 1175 1181
f 1180 1181 1186
f 1187 1188 1194
f 1187 1194 1193
f 1188 1189 1195
f 1188 1195 1194
f 1189 1190 1196
f 1189 1196 1195
f 1190 1191 1197
f 1190 1197 1196
f 1191 1192 1198
f 1191 1198 1197
f 1192 1187 1193
f 1192 1193 1198
f 1199 1200 1206
f 1199 1206 1205
f 1200 1201 1207
f 1200 1207 1206
f 1201 1202 1208
f 1201 1208 1207
f 1202 1203 1209
f 1202 1209 1208
f 1203 1204 1210
f 1203 1210 1209
f 1204 1199 1205
f 1204 1205 1210
f 1211 1212 1222
f 1211 1222 1221
f 1212 1213 1223
f 1212 1223 1222
f 1213 1214 1224
f 1213 1224 1223
f 1214 1215 1225
f 1214 1225 1224
f 1215 1216 1226
f 1215 1226 1225
f 1216 1217 1227
f 1216 1227 1226
f 1217 1218 1228
f 1217 1228 1227
f 1218 1219 1229
f 1218 1229 1228
f 1219 1220 1230
f 1219 1230 1229
f 1220 1211 1221
f 1220 1221 1230
f 1231 1242 1243
f 1231 1243 1232
f 1232 1243 1244
f 1232 1244 1233
f 1233 1244 1245
f 1233 1245 1234
f 1234 1245 1246
f 1234 1246 1235
f 1235 1246 1247
f 1235 1247 1236
f 1236 1247 1248
f 1236 1248 1237
f 1237 1248 1249
f 1237 1249 1238
f 1238 1249 1250
f 1238 1250 1239
f 1239 1250 1251
f 1239 1251 1240
f 1240 1251 1252
f 1240 1252 1241
f 1242 1253 1254
f 1242 1254 1243
f 1243 1254 1255
f 1243 1255 1244
f 1244 1255 1256
f 1244 1256 1245
f 1245 1256 1257
f 1245 1257 1246
f 1246 1257 1258
f 1246 1258 1247
f 1247 1258 1259
f 1247 1259 1248
f 1248 1259 1260
f 1248 1260 1249
f 1249 1260 1261
f 1249 1261 1250
f 1250 1261 1262
f 1250 1262 1251
f 1251 1262 1263
f 1251 1263 1252
f 1253 1264 1265
f 1253 1265 1254
f 1254 1265 1266
f 1254 1266 1255
f 1255 1266 1267
f 1255 1267 1256
f 1256 1267 1268
f 1256 1268 1257
f 1257 1268 1269
f 1257 1269 1258
f 1258 1269 1270
f 1258 1270 1259
f 1259 1270 1271
f 1259 1271 1260
f 1260 1271 1272
f 1260 1272 1261
f 1261 1272 1273
f 1261 1273 1262
f 1262 1273 1274
f 1262 1274 1263
f 1264 1275 1276
f 1264 1276 1265
f 1265 1276 1277
f 1265 1277 1266
f 1266 1277 1278
f 1266 1278 1267
f 1267 1278 1279
f 1267 1279 1268
f 1268 1279 1280
f 1268 1280 1269
f 1269 1280 1281
f 1269 1281 1270
f 1270 1281 1282
f 1270 1282 1271
f 1271 1282 1283
f 1271 1283 1272
f 1272 1283 1284
f 1272 1284 1273
f 1273 1284 1285
f 1273 1285 1274
f 1275 1286 1287
f 1275 1287 1276
f 1276 1287 1288
f 1276 1288 1277
f 1277 1288 1289
f 1277 1289 1278
f 1278 1289 1290
f 1278 1290 1279
f 1279 1290 1291
f 1279 1291 1280
f 1280 1291 1292
f 1280 1292 1281
f 1281 1292 1293
f 1281 1293 1282
f 1282 1293 1294
f 1282 1294 1283
f 1283 1294 1295
f 1283 1295 1284
f 1284 1295 1296
f 1284 1296 1285
f 1286 1297 1298
f 1286 1298 1287
f 1287 1298 1299
f 1287 1299 1288
f 1288 1299 1300
f 1288 1300 1289
f 1289 1300 1301
f 1289 1301 1290
f 1290 1301 1302
f 1290 1302 1291
f 1291 1302 1303
f 1291 1303 1292
f 1292 1303 1304
f 1292 1304 1293
f 1293 1304 1305
f 1293 1305 1294
f 1294 1305 1306
f 1294 1306 1295
f 1295 1306 1307
f 1295 1307 1296
f 1297 1308 1309
f 1297 1309 1298
f 1298 1309 1310
f 1298 1310 1299
f 1299 1310 1311
f 1299 1311 1300
f 1300 1311 1312
f 1300 1312 1301
f 1301 1312 1313
f 1301 1313 1302
f 1302 1313 1314
f 1302 1314 1303
f 1303 1314 1315
f 1303 1315 1304
f 1304 1315 1316
f 1304 1316 1305
f 1305 1316 1317
f 1305 1317 1306
f 1306 1317 1318
f 1306 1318 1307
f 1319 1320 1329
f 1319 1329 1328
f 1320 1321 1330
f 1320 1330 1329
f 1321 1322 1331
f 1321 1331 1330
f 1322 1323 1332
f 1322 1332 1331
f 1323 1324 1333
f 1323 1333 1332
f 1324 1325 1334
f 1324 1334 1333
f 1325 1326 1335
f 1325 1335 1334
f 1326 1327 1336
f 1326 1336 1335
f 1327 1319 1328
f 1327 1328 1336
f 1337 1339 1338
f 1337 1340 1339
f 1341 1342 1343
f 1341 1343 1344
f 1337 1338 1342
f 1337 1342 1341
f 1338 1339 1343
f 1338 1343 1342
f 1339 1340 1344
f 1339 1344 1343
f 1340 1337 1341
f 1340 1341 1344
f 1345 1347 1346
f 1345 1348 1347
f 1349 1350 1351
f 1349 1351 1352
f 1345 1346 1350
f 1345 1350 1349
f 1346 1347 1351
f 1346 1351 1350
f 1347 1348 1352
f 1347 1352 1351
f 1348 1345 1349
f 1348 1349 1352
f 1353 1364 1365
f 1353 1365 1354
f 1354 1365 1366
f 1354 1366 1355
f 1355 1366 1367
f 1355 1367 1356
f 1356 1367 1368
f 1356 1368 1357
f 1357 1368 1369
f 1357 1369 1358
f 1358 1369 1370
f 1358 1370 1359
f 1359 1370 1371
f 1359 1371 1360
f 1360 1371 1372
f 1360 1372 1361
f 1361 1372 1373
f 1361 1373 1362
f 1362 1373 1374
f 1362 1374 1363
f 1364 1375 1376
f 1364 1376 1365
f 1365 1376 1377
f 1365 1377 1366
f 1366 1377 1378
f 1366 1378 1367
f 1367 1378 1379
f 1367 1379 1368
f 1368 1379 1380
f 1368 1380 1369
f 1369 1380 1381
f 1369 1381 1370
f 1370 1381 1382
f 1370 1382 1371
f 1371 1382 1383
f 1371 1383 1372
f 1372 1383 1384
f 1372 1384 1373
f 1373 1384 1385
f 1373 1385 1374
f 1375 1386 1387
f 1375 1387 1376
f 1376 1387 1388
f 1376 1388 1377
f 1377 1388 1389
f 1377 1389 1378
f 1378 1389 1390
f 1378 1390 1379
f 1379 1390 1391
f 1379 1391 1380
f 1380 1391 1392
f 1380 1392 1381
f 1381 1392 1393
f 1381 1393 1382
f 1382 1393 1394
f 1382 1394 1383
f 1383 1394 1395
f 1383 1395 1384
f 1384 1395 1396
f 1384 1396 1385
f 1386 1397 1398
f 1386 1398 1387
f 1387 1398 1399
f 1387 1399 1388
f 1388 1399 1400
f 1388 1400 1389
f 1389 1400 1401
f 1389 1401 1390
f 1390 1401 1402
f 1390 1402 1391
f 1391 1402 1403
f 1391 1403 1392
f 1392 1403 1404
f 1392 1404 1393
f 1393 1404 1405
f 1393 1405 1394
f 1394 1405 1406
f 1394 1406 1395
f 1395 1406 1407
f 1395 1407 1396
f 1397 1408 1409
f 1397 1409 1398
f 1398 1409 1410
f 1398 1410 1399
f 1399 1410 1411
f 1399 1411 1400
f 1400 1411 1412
f 1400 1412 1401
f 1401 1412 1413
f 1401 1413 1402
f 1402 1413 1414
f 1402 1414 1403
f 1403 1414 1415
f 1403 1415 1404
f 1404 1415 1416
f 1404 1416 1405
f 1405 1416 1417
f 1405 1417 1406
f 1406 1417 1418
f 1406 1418 1407
f 1408 1419 1420
f 1408 1420 1409
f 1409 1420 1421
f 1409 1421 1410
f 1410 1421 1422
f 1410 1422 1411
f 1411 1422 1423
f 1411 1423 1412
f 1412 1423 1424
f 1412 1424 1413
f 1413 1424 1425
f 1413 1425 1414
f 1414 1425 1426
f 1414 1426 1415
f 1415 1426 1427
f 1415 1427 1416
f 1416 1427 1428
f 1416 1428 1417
f 1417 1428 1429
f 1417 1429 1418
f 1419 1430 1431
f 1419 1431 1420
f 1420 1431 1432
f 1420 1432 1421
f 1421 1432 1433
f 1421 1433 1422
f 1422 1433 1434
f 1422 1434 1423
f 1423 1434 1435
f 1423 1435 1424
f 1424 1435 1436
f 1424 1436 1425
f 1425 1436 1437
f 1425 1437 1426
f 1426 1437 1438
f 1426 1438 1427
f 1427 1438 1439
f 1427 1439 1428
f 1428 1439 1440
f 1428 1440 1429
f 1441 1442 1452
f 1441 1452 1451
f 1442 1443 1453
f 1442 1453 1452
f 1443 1444 1454
f 1443 1454 1453
f 1444 1445 1455
f 1444 1455 1454
f 1445 1446 1456
f 1445 1456 1455
f 1446 1447 1457
f 1446 1457 1456
f 1447 1448 1458
f 1447 1458 1457
f 1448 1449 1459
f 1448 1459 1458
f 1449 1450 1460
f 1449 1460 1459
f 1450 1441 1451
f 1450 1451 1460
f 1461 1472 1473
f 1461 1473 1462
f 1462 1473 1474
f 1462 1474 1463
f 1463 1474 1475
f 1463 1475 1464
f 1464 1475 1476
f 1464 1476 1465
f 1465 1476 1477
f 1465 1477 1466
f 1466 1477 1478
f 1466 1478 1467
f 1467 1478 1479
f 1467 1479 1468
f 1468 1479 1480
f 1468 1480 1469
f 1469 1480 1481
f 1469 1481 1470
f 1470 1481 1482
f 1470 1482 1471
f 1472 1483 1484
f 1472 1484 1473
f 1473 1484 1485
f 1473 1485 1474
f 1474 1485 1486
f 1474 1486 1475
f 1475 1486 1487
f 1475 1487 1476
f 1476 1487 1488
f 1476 1488 1477
f 1477 1488 1489
f 1477 1489 1478
f 1478 1489 1490
f 1478 1490 1479
f 1479 1490 1491
f 1479 1491 1480
f 1480 1491 1492
f 1480 1492 1481
f 1481 1492 1493
f 1481 1493 1482
f 1483 1494 1495
f 1483 1495 1484
f 1484 1495 1496
f 1484 1496 1485
f 1485 1496 1497
f 1485 1497 1486
f 1486 1497 1498
f 1486 1498 1487
f 1487 1498 1499
f 1487 1499 1488
f 1488 1499 1500
f 1488 1500 1489
f 1489 1500 1501
f 1489 1501 1490
f 1490 1501 1502
f 1490 1502 1491
f 1491 1502 1503
f 1491 1503 1492
f 1492 1503 1504
f 1492 1504 1493
f 1494 1505 1506
f 1494 1506 1495
f 1495 1506 1507
f 1495 1507 1496
f 1496 1507 1508
f 1496 1508 1497
f 1497 1508 1509
f 1497 1509 1498
f 1498 1509 1510
f 1498 1510 1499
f 1499 1510 1511
f 1499 1511 1500
f 1500 1511 1512
f 1500 1512 1501
f 1501 1512 1513
f 1501 1513 1502
f 1502 1513 1514
f 1502 1514 1503
f 1503 1514 1515
f 1503 1515 1504
f 1505 1516 1517
f 1505 1517 1506
f 1506 1517 1518
f 1506 1518 1507
f 1507 1518 1519
f 1507 1519 1508
f 1508 1519 1520
f 1508 1520 1509
f 1509 1520 1521
f 1509 1521 1510
f 1510 1521 1522
f 1510 1522 1511
f 1511 1522 1523
f 1511 1523 1512
f 1512 1523 1524
f 1512 1524 1513
f 1513 1524 1525
f 1513 1525 1514
f 1514 1525 1526
f 1514 1526 1515
f 1516 1527 1528
f 1516 1528 1517
f 1517 1528 1529
f 1517 1529 1518
f 1518 1529 1530
f 1518 1530 1519
f 1519 1530 1531
f 1519 1531 1520
f 1520 1531 1532
f 1520 1532 1521
f 1521 1532 1533
f 1521 1533 1522
f 1522 1533 1534
f 1522 1534 1523
f 1523 1534 1535
f 1523 1535 1524
f 1524 1535 1536
f 1524 1536 1525
f 1525 1536 1537
f 1525 1537 1526
f 1527 1538 1539
f 1527 1539 1528
f 1528 1539 1540
f 1528 1540 1529
f 1529 1540 1541
f 1529 1541 1530
f 1530 1541 1542
f 1530 1542 1531
f 1531 1542 1543
f 1531 1543 1532
f 1532 1543 1544
f 1532 1544 1533
f 1533 1544 1545
f 1533 1545 1534
f 1534 1545 1546
f 1534 1546 1535
f 1535 1546 1547
f 1535 1547 1536
f 1536 1547 1548
f 1536 1548 1537
f 1549 1550 1560
f 1549 1560 1559
f 1550 1551 1561
f 1550 1561 1560
f 1551 1552 1562
f 1551 1562 1561
f 1552 1553 1563
f 1552 1563 1562
f 1553 1554 1564
f 1553 1564 1563
f 1554 1555 1565
f 1554 1565 1564
f 1555 1556 1566
f 1555 1566 1565
f 1556 1557 1567
f 1556 1567 1566
f 1557 1558 1568
f 1557 1568 1567
f 1558 1549 1559
f 1558 1559 1568
f 1569 1580 1581
f 1569 1581 1570
f 1570 1581 1582
f 1570 1582 1571
f 1571 1582 1583
f 1571 1583 1572
f 1572 1583 1584
f 1572 1584 1573
f 1573 1584 1585
f 1573 1585 1574
f 1574 1585 1586
f 1574 1586 1575
f 1575 1586 1587
f 1575 1587 1576
f 1576 1587 1588
f 1576 1588 1577
f 1577 1588 1589
f 1577 1589 1578
f 1578 1589 1590
f 1578 1590 1579
f 1580 1591 1592
f 1580 1592 1581
f 1581 1592 1593
f 1581 1593 1582
f 1582 1593 1594
f 1582 1594 1583
f 1583 1594 1595
f 1583 1595 1584
f 1584 1595 1596
f 1584 1596 1585
f 1585 1596 1597
f 1585 1597 1586
f 1586 1597 1598
f 1586 1598 1587
f 1587 1598 1599
f 1587 1599 1588
f 1588 1599 1600
f 1588 1600 1589
f 1589 1600 1601
f 1589 1601 1590
f 1591 1602 1603
f 1591 1603 1592
f 1592 1603 1604
f 1592 1604 1593
f 1593 1604 1605
f 1593 1605 1594
f 1594 1605 1606
f 1594 1606 1595
f 1595 1606 1607
f 1595 1607 1596
f 1596 1607 1608
f 1596 1608 1597
f 1597 1608 1609
f 1597 1609 1598
f 1598 1609 1610
f 1598 1610 1599
f 1599 1610 1611
f 1599 1611 1600
f 1600 1611 1612
f 1600 1612 1601
f 1602 1613 1614
f 1602 1614 1603
f 1603 1614 1615
f 1603 1615 1604
f 1604 1615 1616
f 1604 1616 1605
f 1605 1616 1617
f 1605 1617 1606
f 1606 1617 1618
f 1606 1618 1607
f 1607 1618 1619
f 1607 1619 1608
f 1608 1619 1620
f 1608 1620 1609
f 1609 1620 1621
f 1609 1621 1610
f 1610 1621 1622
f 1610 1622 1611
f 1611 1622 1623
f 1611 1623 1612
f 1613 1624 1625
f 1613 1625 1614
f 1614 1625 1626
f 1614 1626 1615
f 1615 1626 1627
f 1615 1627 1616
f 1616 1627 1628
f 1616 1628 1617
f 1617 1628 1629
f 1617 1629 1618
f 1618 1629 1630
f 1618 1630 1619
f 1619 1630 1631
f 1619 1631 1620
f 1620 1631 1632
f 1620 1632 1621
f 1621 1632 1633
f 1621 1633 1622
f 1622 1633 1634
f 1622 1634 1623
f 1624 1635 1636
f 1624 1636 1625
f 1625 1636 1637
f 1625 1637 1626
f 1626 1637 1638
f 1626 1638 1627
f 1627 1638 1639
f 1627 1639 1628
f 1628 1639 1640
f 1628 1640 1629
f 1629 1640 1641
f 1629 1641 1630
f 1630 1641 1642
f 1630 1642 1631
f 1631 1642 1643
f 1631 1643 1632
f 1632 1643 1644
f 1632 1644 1633
f 1633 1644 1645
f 1633 1645 1634
f 1635 1646 1647
f 1635 1647 1636
f 1636 1647 1648
f 1636 1648 1637
f 1637 1648 1649
f 1637 1649 1638
f 1638 1649 1650
f 1638 1650 1639
f 1639 1650 1651
f 1639 1651 1640
f 1640 1651 1652
f 1640 1652 1641
f 1641 1652 1653
f 1641 1653 1642
f 1642 1653 1654
f 1642 1654 1643
f 1643 1654 1655
f 1643 1655 1644
f 1644 1655 1656
f 1644 1656 1645
f 1657 1658 1664
f 1657 1664 1663
f 1658 1659 1665
f 1658 1665 1664
f 1659 1660 1666
f 1659 1666 1665
f 1660 1661 1667
f 1660 1667 1666
f 1661 1662 1668
f 1661 1668 1667
f 1662 1657 1663
f 1662 1663 1668
f 1669 1670 1676
f 1669 1676 1675
f 1670 1671 1677
f 1670 1677 1676
f 1671 1672 1678
f 1671 1678 1677
f 1672 1673 1679
f 1672 1679 1678
f 1673 1674 1680
f 1673 1680 1679
f 1674 1669 1675
f 1674 1675 1680
f 1681 1682 1688
f 1681 1688 1687
f 1682 1683 1689
f 1682 1689 1688
f 1683 1684 1690
f 1683 1690 1689
f 1684 1685 1691
f 1684 1691 1690
f 1685 1686 1692
f 1685 1692 1691
f 1686 1681 1687
f 1686 1687 1692
f 1693 1694 1700
f 1693 1700 1699
f 1694 1695 1701
f 1694 1701 1700
f 1695 1696 1702
f 1695 1702 1701
f 1696 1697 1703
f 1696 1703 1702
f 1697 1698 1704
f 1697 1704 1703
f 1698 1693 1699
f 1698 1699 1704
f 1705 1706 1716
f 1705 1716 1715
f 1706 1707 1717
f 1706 1717 1716
f 1707 1708 1718
f 1707 1718 1717
f 1708 1709 1719
f 1708 1719 1718
f 1709 1710 1720
f 1709 1720 1719
f 1710 1711 1721
f 1710 1721 1720
f 1711 1712 1722
f 1711 1722 1721
f 1712 1713 1723
f 1712 1723 1722
f 1713 1714 1724
f 1713 1724 1723
f 1714 1705 1715
f 1714 1715 1724
f 1725 1736 1737
f 1725 1737 1726
f 1726 1737 1738
f 1726 1738 1727
f 1727 1738 1739
f 1727 1739 1728
f 1728 1739 1740
f 1728 1740 1729
f 1729 1740 1741
f 1729 1741 1730
f 1730 1741 1742
f 1730 1742 1731
f 1731 1742 1743
f 1731 1743 1732
f 1732 1743 1744
f 1732 1744 1733
f 1733 1744 1745
f 1733 1745 1734
f 1734 1745 1746
f 1734 1746 1735
f 1736 1747 1748
f 1736 1748 1737
f 1737 1748 1749
f 1737 1749 1738
f 1738 1749 1750
f 1738 1750 1739
f 1739 1750 1751
f 1739 1751 1740
f 1740 1751 1752
f 1740 1752 1741
f 1741 1752 1753
f 1741 1753 1742
f 1742 1753 1754
f 1742 1754 1743
f 1743 1754 1755
f 1743 1755 1744
f 1744 1755 1756
f 1744 1756 1745
f 1745 1756 1757
f 1745 1757 1746
f 1747 1758 1759
f 1747 1759 1748
f 1748 1759 1760
f 1748 1760 1749
f 1749 1760 1761
f 1749 1761 1750
f 1750 1761 1762
f 1750 1762 1751
f 1751 1762 1763
f 1751 1763 1752
f 1752 1763 1764
f 1752 1764 1753
f 1753 1764 1765
f 1753 1765 1754
f 1754 1765 1766
f 1754 1766 1755
f 1755 1766 1767
f 1755 1767 1756
f 1756 1767 1768
f 1756 1768 1757
f 1758 1769 1770
f 1758 1770 1759
f 1759 1770 1771
f 1759 1771 1760
f 1760 1771 1772
f 1760 1772 1761
f 1761 1772 1773
f 1761 1773 1762
f 1762 1773 1774
f 1762 1774 1763
f 1763 1774 1775
f 1763 1775 1764
f 1764 1775 1776
f 1764 1776 1765
f 1765 1776 1777
f 1765 1777 1766
f 1766 1777 1778
f 1766 1778 1767
f 1767 1778 1779
f 1767 1779 1768
f 1769 1780 1781
f 1769 1781 1770
f 1770 1781 1782
f 1770 1782 1771
f 1771 1782 1783
f 1771 1783 1772
f 1772 1783 1784
f 1772 1784 1773
f 1773 1784 1785
f 1773 1785 1774
f 1774 1785 1786
f 1774 1786 1775
f 1775 1786 1787
f 1775 1787 1776
f 1776 1787 1788
f 1776 1788 1777
f 1777 1788 1789
f 1777 1789 1778
f 1778 1789 1790
f 1778 1790 1779
f 1780 1791 1792
f 1780 1792 1781
f 1781 1792 1793
f 1781 1793 1782
f 1782 1793 1794
f 1782 1794 1783
f 1783 1794 1795
f 1783 1795 1784
f 1784 1795 1796
f 1784 1796 1785
f 1785 1796 1797
f 1785 1797 1786
f 1786 1797 1798
f 1786 1798 1787
f 1787 1798 1799
f 1787 1799 1788
f 1788 1799 1800
f 1788 1800 1789
f 1789 1800 1801
f 1789 1801 1790
f 1791 1802 1803
f 1791 1803 1792
f 1792 1803 1804
f 1792 1804 1793
f 1793 1804 1805
f 1793 1805 1794
f 1794 1805 1806
f 1794 1806 1795
f 1795 1806 1807
f 1795 1807 1796
f 1796 1807 1808
f 1796 1808 1797
f 1797 1808 1809
f 1797 1809 1798
f 1798 1809 1810
f 1798 1810 1799
f 1799 1810 1811
f 1799 1811 1800
f 1800 1811 1812
f 1800 1812 1801
f 1813 1814 1823
f 1813 1823 1822
f 1814 1815 1824
f 1814 1824 1823
f 1815 1816 1825
f 1815 1825 1824
f 1816 1817 1826
f 1816 1826 1825
f 1817 1818 1827
f 1817 1827 1826
f 1818 1819 1828
f 1818 1828 1827
f 1819 1820 1829
f 1819 1829 1828
f 1820 1821 1830
f 1820 1830 1829
f 1821 1813 1822
f 1821 1822 1830
f 1831 1833 1832
f 1831 1834 1833
f 1835 1836 1837
f 1835 1837 1838
f 1831 1832 1836
f 1831 1836 1835
f 1832 1833 1837
f 1832 1837 1836
f 1833 1834 1838
f 1833 1838 1837
f 1834 1831 1835
f 1834 1835 1838
f 1839 1841 1840
f 1839 1842 1841
f 1843 1844 1845
f 1843 1845 1846
f 1839 1840 1844
f 1839 1844 1843
f 1840 1841 1845
f 1840 1845 1844
f 1841 1842 1846
f 1841 1846 1845
f 1842 1839 1843
f 1842 1843 1846
f 1847 1849 1848
f 1847 1850 1849
f 1851 1852 1853
f 1851 1853 1854
f 1847 1848 1852
f 1847 1852 1851
f 1848 1849 1853
f 1848 1853 1852
f 1849 1850 1854
f 1849 1854 1853
f 1850 1847 1851
f 1850 1851 1854
f 1855 1857 1856
f 1855 1858 1857
f 1859 1860 1861
f 1859 1861 1862
f 1855 1856 1860
f 1855 1860 1859
f 1856 1857 1861
f 1856 1861 1860
f 1857 1858 1862
f 1857 1862 1861
f 1858 1855 1859
f 1858 1859 1862
